<svg width="0" height="0" class="hidden">
  <symbol xmlns="http://www.w3.org/2000/svg" viewBox="0 0 200 200" id="t_1">
    <path fill="gray" fill-rule="evenodd" stroke-width=".193" d="M110.56 91.244v109.16H86.81V91.244z"></path>
    <path fill="gray" fill-rule="evenodd" stroke-width=".261" d="M.579 90.846h200.455v23.75H.579z"></path>
    <path d="M25.063 103.01H58.99m78.568.277h33.927m-72.542 39.249v33.928m-.14-148.927v33.927" fill="#fff" stroke="#fff" stroke-width="1.058"></path>
    <path d="M66.568 98.343h13.633v2.94H66.568zm.002-5.33h13.632v2.94H66.569zm0 15.892h13.633v2.94H66.571zm0-5.331h13.633v2.94H66.571zm50.653-5.213h13.632v2.94h-13.632zm0-5.331h13.632v2.94h-13.632zm.001 15.893h13.632v2.94h-13.632zm.001-5.331h13.632v2.94h-13.632zm-14.383 19.501v13.633h-2.94v-13.633zm5.33 0v13.633h-2.94v-13.633zm-15.892.002v13.633h-2.94v-13.633zm5.33 0v13.633h-2.939v-13.633z"
      fill="#fff" fill-rule="evenodd" stroke-width=".199"></path>
  </symbol>
</svg>