<?xml version="1.0" encoding="UTF-8" standalone="no"?>
<svg
   xmlns:dc="http://purl.org/dc/elements/1.1/"
   xmlns:cc="http://creativecommons.org/ns#"
   xmlns:rdf="http://www.w3.org/1999/02/22-rdf-syntax-ns#"
   xmlns:svg="http://www.w3.org/2000/svg"
   xmlns="http://www.w3.org/2000/svg"
   viewBox="0 0 1093 2391"
   height="2391"
   width="1093"
   id="svg2"
   version="1.1">
  <metadata
     id="metadata8">
    <rdf:RDF>
      <cc:Work
         rdf:about="">
        <dc:format>image/svg+xml</dc:format>
        <dc:type
           rdf:resource="http://purl.org/dc/dcmitype/StillImage" />
        <dc:title></dc:title>
      </cc:Work>
    </rdf:RDF>
  </metadata>
  <defs
     id="defs6" />
  <g
     style="display:inline"
     id="layer2">
    <g
       id="g33"
       style="display:inline">
      <path
         id="path47"
         d="m 949.2,2389.8 c -1.58692,-1.5869 -1.53431,-6.2777 0.0855,-7.622 0.70701,-0.5867 3.58883,-1.049 6.40405,-1.0272 l 5.11858,0.04 0.37237,3.9047 c 0.20996,2.2016 -0.0753,3.9564 -0.65404,4.0231 -0.56454,0.065 0.32357,0.4618 1.97357,0.8817 l 3,0.7634 -3.66667,0.1183 c -2.06123,0.066 -3.92207,-0.429 -4.25,-1.1317 -0.46666,-1 -0.7,-1 -1.16666,0 -0.74335,1.5929 -5.63986,1.6268 -7.21667,0.05 z m 7.10282,-3.2863 c 0.10845,-0.5425 -0.59032,-1.138 -1.55282,-1.3233 -1.0946,-0.2108 -1.75,0.2796 -1.75,1.3096 0,1.7398 2.9553,1.752 3.30282,0.014 z M 966.5,2390 c 0.33992,-0.55 0.25398,-1.0001 -0.19098,-1.0003 -0.44496,-2e-4 -0.80902,-1.6877 -0.80902,-3.75 V 2381.5 l 6.33731,-0.3 c 4.12707,-0.1953 6.88673,0.1534 7.91262,1 1.24641,1.0286 1.66315,1.039 1.99602,0.05 0.2314,-0.6875 1.47072,-1.25 2.75405,-1.25 1.28333,0 2.59583,0.5625 2.91667,1.25 0.46666,1 0.7,1 1.16666,0 0.8008,-1.716 23.50567,-1.761 25.21667,-0.05 0.9333,0.9333 1.2,0.9333 1.2,0 0,-0.66 0.8527,-1.2 1.895,-1.2 1.4798,0 1.9783,0.8743 2.2756,3.9915 0.2093,2.1953 -0.081,4.1847 -0.645,4.421 -0.5641,0.2363 0.5494,0.4296 2.4744,0.4296 1.925,0 2.9825,-0.212 2.3501,-0.471 -0.8321,-0.3409 -0.7211,-1.5628 0.4017,-4.4211 1.1641,-2.9636 2.1113,-3.95 3.7929,-3.95 1.2327,0 2.5238,0.7363 2.8692,1.6361 0.5683,1.481 0.7918,1.4891 2.3569,0.085 1.2124,-1.0873 3.914,-1.5689 9.0399,-1.6115 l 7.3106,-0.061 -0.3106,3.2254 c -0.2748,2.8522 -0.023,3.2253 2.1756,3.2253 1.6959,0 2.6044,-0.6358 2.8576,-2 0.2042,-1.1 0.828,-2.5625 1.3862,-3.25 1.2314,-1.5168 6.3989,-1.6594 7.2999,-0.2014 0.4423,0.7156 1.0388,0.7242 1.8787,0.027 1.4908,-1.2373 12.6258,-1.144 14.2523,0.1195 0.7078,0.5498 1.4139,0.4926 1.809,-0.1467 0.3564,-0.5767 1.5215,-1.0486 2.589,-1.0486 1.579,0 1.9381,0.6994 1.9257,3.75 -0.017,4.0835 -1.7532,7.6957 -2.6442,5.5 -0.2789,-0.6875 -1.8197,-1.25 -3.4238,-1.25 -1.6585,0 -2.9233,0.5392 -2.932,1.25 -0.01,0.8307 -0.3354,0.7469 -0.9695,-0.25 -0.7865,-1.2364 -1.3087,-1.2803 -2.9711,-0.25 -2.4119,1.4948 -7.0441,1.6592 -7.0441,0.25 0,-0.55 -0.675,-1 -1.5,-1 -0.825,0 -1.5,0.45 -1.5,1 0,1.4282 -5.3611,1.2389 -6.8416,-0.2416 -0.9889,-0.9889 -1.4523,-0.938 -2.2762,0.25 -0.7792,1.1236 -1.1596,1.1832 -1.5417,0.2416 -0.2789,-0.6875 -1.1712,-1.25 -1.9829,-1.25 -0.8116,0 -1.1975,0.45 -0.8576,1 0.3399,0.55 -0.057,1 -0.882,1 -0.825,0 -1.8078,-0.498 -2.184,-1.1068 -0.477,-0.7718 -0.9488,-0.6962 -1.559,0.25 -0.726,1.1258 -1.0582,1.1014 -1.9511,-0.1432 -0.8103,-1.1295 -1.2015,-1.1912 -1.5834,-0.25 -0.6033,1.4868 -5.9552,1.6824 -6.8405,0.25 -0.3399,-0.55 -1.068,-1 -1.618,-1 -0.55,0 -0.7219,0.45 -0.382,1 0.3399,0.55 -0.083,1 -0.941,1 -0.8574,0 -1.559,-0.45 -1.559,-1 0,-0.55 -0.675,-1 -1.5,-1 -0.825,0 -1.5,0.45 -1.5,1 0,1.4901 -9.7404,1.2535 -10.2917,-0.25 -0.3666,-1 -0.7233,-1 -1.7833,0 -0.7287,0.6875 -2.5962,1.25 -4.15,1.25 -2.3389,0 -2.9282,-0.5162 -3.425,-3 -0.6461,-3.2304 -2.3402,-4.1256 -2.3653,-1.25 -0.01,0.9625 -0.4109,2.3746 -0.8944,3.1381 -0.7411,1.1702 -1.1073,1.1749 -2.3334,0.03 -0.79989,-0.7472 -1.24494,-2.1593 -0.98899,-3.1381 0.25599,-0.9787 -0.0371,-1.7795 -0.65128,-1.7795 -0.95852,0 -1.62001,2.8119 -1.23505,5.25 0.18981,1.2022 -2.36706,0.8645 -3.72322,-0.4916 -0.98886,-0.9889 -1.45225,-0.938 -2.27613,0.25 -0.77928,1.1236 -1.15962,1.1832 -1.54169,0.2416 -0.27897,-0.6875 -0.94626,-1.25 -1.48289,-1.25 -0.53663,0 -0.69757,0.45 -0.35765,1 0.33992,0.55 -0.0835,1 -0.94098,1 -0.85746,0 -1.55902,-0.45 -1.55902,-1 0,-0.55 -0.675,-1 -1.5,-1 -0.825,0 -1.5,0.45 -1.5,1 0,0.55 -0.70156,1 -1.55902,1 -0.85746,0 -1.2809,-0.45 -0.94098,-1 0.36674,-0.5934 -0.79517,-1 -2.85765,-1 -1.91163,0 -3.73818,0.5625 -4.05902,1.25 -0.46666,1 -0.7,1 -1.16666,0 -0.32084,-0.6875 -1.24739,-1.25 -2.05902,-1.25 -0.81163,0 -1.19757,0.45 -0.85765,1 0.33992,0.55 -0.33508,1 -1.5,1 -1.16492,0 -1.83992,-0.45 -1.5,-1 z m 73.8028,-3.4863 c 0.1085,-0.5425 -0.5903,-1.138 -1.5528,-1.3233 -1.0946,-0.2108 -1.75,0.2796 -1.75,1.3096 0,1.7398 2.9553,1.752 3.3028,0.014 z M 1063,2386.5 c 0,-0.8333 -0.8889,-1.5 -2,-1.5 -1.1111,0 -2,0.6667 -2,1.5 0,0.8333 0.8889,1.5 2,1.5 1.1111,0 2,-0.6667 2,-1.5 z m 5.6831,-0.6875 c -0.3192,-0.7977 -0.5562,-0.5608 -0.6042,0.6042 -0.043,1.0541 0.193,1.6448 0.5253,1.3125 0.3323,-0.3323 0.3678,-1.1948 0.079,-1.9167 z m -647.00155,-0.8719 C 336.60431,2382.0487 266.91908,2373.597 210.5,2359.3277 c -24.86224,-6.2881 -44.28247,-12.726 -73.77383,-24.4563 -13.85722,-5.5118 -28.80197,-11.0458 -33.21056,-12.2979 -9.309452,-2.6439 -9.694184,-3.1403 -14.008998,-18.0735 -7.647583,-26.4676 -14.973586,-77.1924 -20.508577,-142 -1.174339,-13.75 -2.326911,-25.9 -2.561271,-27 -0.23436,-1.1 -2.207785,-3.0899 -4.385388,-4.4219 -4.383252,-2.6813 -9.119667,-8.7576 -10.895137,-13.9773 C 50.31198,2114.6187 50,2087.0322 50,2014.8615 c 0,-95.4474 0.06668,-99.0155 1.942717,-103.9529 1.827355,-4.8092 1.888827,-6.517 1.035199,-28.7607 C 45.474985,1686.638 44.573783,1395.9405 51.021272,1251 c 2.773807,-62.3556 6.64955,-103.8794 11.480546,-123 3.193194,-12.6383 7.244572,-59.5787 8.156198,-94.5 0.628863,-24.0896 -0.608574,-56.21047 -2.985645,-77.5 -1.071007,-9.59216 -1.345293,-10.47767 -3.172371,-10.24178 -1.1,0.14203 -7.638005,0.54305 -14.528899,0.89116 -19.872585,1.00392 -31.784932,-1.96919 -40.9058497,-10.20939 -6.6623086,-6.019 -7.4719111,-8.32066 -7.4130034,-21.0748 0.047454,-10.27429 0.2880453,-11.64044 3.1131879,-17.67763 5.5041912,-11.76219 17.0928042,-27.14661 22.1016972,-29.34103 1.448077,-0.63441 7.855458,-1.46774 14.238625,-1.85184 6.383166,-0.3841 12.170022,-1.0471 12.85968,-1.47333 0.985781,-0.60925 0.588984,-5.55929 -1.855561,-23.14816 C 45.853101,796.85475 42.316526,763.03153 39.523591,721.5 37.745426,695.05832 36.614786,679.20619 34.352589,649 33.316419,635.16446 32.645343,611.74395 32.470116,583.30183 L 32.197818,539.10367 29.348909,533.30183 26.5,527.5 26.327545,425.5 c -0.119572,-70.72191 -0.522249,-104.2051 -1.31316,-109.19098 -1.087886,-6.858 -0.954196,-8.03878 2.88716,-25.5 6.041023,-27.46 10.531623,-53.18405 16.637919,-95.30902 8.657591,-59.72536 11.257515,-73.2645 17.474749,-91 C 81.247211,49.63527 126.62867,29.19769 258.5,16.012456 317.8332,10.07999 428.47283,3.4997244 495,1.946675 541.55096,0.85996195 667.30007,1.5147445 708.5,3.0583813 909.80882,10.600815 976.69134,31.932592 1008.599,98.773158 1019.4381,121.47895 1025.1624,143.09469 1040.9676,221 c 6.0812,29.975 12.7776,62.11009 14.8808,71.41131 3.235,14.30606 3.6697,17.54118 2.8218,21 -0.6139,2.50466 -1.2355,42.83046 -1.6043,104.08869 -0.6385,106.05554 -0.4841,102.8537 -5.2909,109.75551 -1.8467,2.65171 -1.8731,3.63404 -0.6996,26.07623 1.3168,25.18379 0.3596,63.35686 -2.5872,103.16826 -0.8141,11 -2.1661,30.8 -3.0042,44 -3.0807,48.51808 -5.3304,72.58054 -11.1576,119.33904 -2.7638,22.17764 -3.3661,29.51841 -2.4673,30.07387 0.6539,0.40416 8.7157,1.3107 17.9149,2.01452 9.1993,0.70383 17.4802,1.68112 18.4021,2.17177 3.2798,1.74563 14.9568,17.52874 18.7925,25.4008 5.2559,10.7867 6.6949,19.26929 4.9424,29.13283 -1.0418,5.86288 -2.0339,8.319 -4.5458,11.2536 -3.7906,4.42853 -12.6583,9.32223 -20.3652,11.2387 -7.0791,1.76036 -29.8676,1.54813 -40.1571,-0.37398 l -7.6571,-1.43037 -0.5434,2.71699 c -0.8891,4.44561 -3.5293,30.43022 -4.6192,45.46223 -3.0072,41.4752 0.8546,124.297 6.9942,150 3.6049,15.0916 6.4843,39.7437 8.9354,76.5 8.566,128.4543 9.3948,398.7474 1.9537,637.1006 -1.002,32.0944 -0.9488,36.28 0.5396,42.5 1.4873,6.2148 1.6215,16.5249 1.3525,103.8994 -0.298,96.814 -0.3027,97.0086 -2.4434,101.5 -2.0935,4.3926 -4.5125,7.3303 -9.5608,11.6108 -2.2543,1.9115 -2.5536,3.0914 -3.1705,12.5 -2.3086,35.2068 -8.0662,94.2533 -12.1673,124.7808 -4.6847,34.8721 -10.29611,62.5862 -15.47423,76.426 -2.01911,5.3965 -2.26661,5.6261 -10.77448,9.9939 -56.42506,28.9676 -173.10806,49.7545 -326.70789,58.2024 -54.05989,2.9733 -177.6709,4.2673 -231.81845,2.4267 z"
         style="fill:#e3e3e3" />
      <path
         id="path45"
         d="m 949.49632,2388.9959 c -2.49492,-2.7568 -0.68788,-6.9959 2.98224,-6.9959 2.9138,0 3.19948,0.7837 0.89889,2.466 -2.0171,1.4749 -0.95593,5.97 1.21289,5.1377 0.77531,-0.2975 1.40966,-0.1051 1.40966,0.4277 0,1.7514 -4.65183,1.0108 -6.50368,-1.0355 z m 8.11067,0.4223 c -0.33385,-0.87 -0.60699,-2.928 -0.60699,-4.5733 0,-2.3108 0.39822,-2.9149 1.75,-2.6545 1.26758,0.2441 1.75,1.2981 1.75,3.8233 0,2.8836 0.43219,3.5955 2.5,4.118 2.11847,0.5353 1.94404,0.6497 -1.14301,0.75 -2.47897,0.081 -3.83696,-0.3871 -4.25,-1.4635 z m 8.77969,-3.1682 c 0.0836,-3.5052 0.50642,-4.75 1.61332,-4.75 1.1069,0 1.5297,1.2448 1.61332,4.75 0.0925,3.8764 -0.20423,4.75 -1.61332,4.75 -1.40909,0 -1.7058,-0.8736 -1.61332,-4.75 z m 5.22031,3.1682 c -2.24956,-5.8622 0.52498,-9.4591 5.76093,-7.4684 3.72554,1.4164 3.52215,4.844 -0.36792,6.2 -1.65,0.5752 -3,1.4518 -3,1.948 0,1.5048 -1.74496,1.0092 -2.39301,-0.6796 z m 8.83902,-0.8769 c 0.14845,-1.3524 1.07422,-3.6863 2.05728,-5.1867 l 1.78737,-2.7278 2.3497,2.9366 c 1.63793,2.047 2.35121,2.4436 2.35467,1.309 0.008,-2.7435 2.60177,-4.1735 5.69769,-3.1415 2.41938,0.8065 2.76289,1.4351 2.78363,5.094 0.013,2.2957 -0.095,4.1743 -0.23992,4.1746 -0.14496,3e-4 -1.17119,-0.562 -2.28051,-1.2495 -1.66116,-1.0295 -2.20139,-0.9854 -3.06256,0.25 -0.78642,1.1282 -1.17136,1.1901 -1.55282,0.25 -0.27897,-0.6875 -0.94626,-1.25 -1.48289,-1.25 -0.53663,0 -0.69757,0.45 -0.35765,1 0.33992,0.55 -0.0835,1 -0.94098,1 -0.85746,0 -1.55902,-0.45 -1.55902,-1 0,-0.55 -0.675,-1 -1.5,-1 -0.825,0 -1.5,0.45 -1.5,1 0,0.55 -0.63537,1 -1.41194,1 -0.90627,0 -1.31529,-0.8806 -1.14205,-2.4587 z m 20.06709,0.2087 c -1.64395,-7.0448 -1.5121,-7.244 4.8451,-7.3204 5.7557,-0.069 8.5596,1.1843 8.7052,3.8918 0.035,0.6482 0.4843,0.1284 0.9987,-1.1551 1.3618,-3.3977 3.4379,-2.0826 3.4379,2.1777 0,3.3233 0.2512,3.6573 2.75,3.6567 1.5125,-4e-4 2.6967,-0.3382 2.6316,-0.7507 -0.3444,-2.1809 0.3137,-4.2696 2.0021,-6.3547 l 1.8836,-2.3262 1.9557,3.2158 1.9556,3.2158 1.1393,-2.5003 c 0.7768,-1.7049 1.9415,-2.5004 3.6607,-2.5004 2.9138,0 3.1994,0.7837 0.8988,2.466 -2.017,1.4749 -0.9559,5.97 1.2129,5.1377 0.7754,-0.2975 1.4097,-0.1051 1.4097,0.4277 0,1.2794 -4.7065,1.2525 -5.5,-0.031 -0.3399,-0.55 -1.293,-1 -2.118,-1 -0.825,0 -1.2219,0.45 -0.882,1 0.3399,0.55 -0.083,1 -0.941,1 -0.8574,0 -1.559,-0.45 -1.559,-1 0,-0.55 -0.675,-1 -1.5,-1 -0.825,0 -1.5,0.45 -1.5,1 0,1.4901 -9.7404,1.2535 -10.2917,-0.25 -0.3666,-1 -0.7233,-1 -1.7833,0 -0.7288,0.6875 -2.5764,1.25 -4.1059,1.25 -2.8003,0 -2.91,-0.1728 -4.1254,-6.5 -0.4301,-2.2388 -1.0601,-1.1291 -2.1292,3.75 -0.7288,3.3259 -2.3307,3.5884 -3.0514,0.5 z m 41.0939,0.6682 c -0.3339,-0.87 -0.607,-2.895 -0.607,-4.5 0,-2.7091 0.2706,-2.9182 3.7765,-2.9182 h 3.7765 l -0.027,4.4968 c -0.025,4.3289 -1.6192,6.0904 -2.9432,3.2532 -0.4666,-1 -0.7,-1 -1.1666,0 -0.8018,1.718 -2.0811,1.5669 -2.8097,-0.3318 z M 1051,2390 c 0,-0.55 0.45,-1 1,-1 0.55,0 1,0.45 1,1 0,0.55 -0.45,1 -1,1 -0.55,0 -1,-0.45 -1,-1 z m 4.5573,-0.5329 c -2.8314,-2.1415 -1.0809,-6.8443 2.7111,-7.2835 3.0835,-0.3572 3.5122,0.5251 1.109,2.2824 -2.017,1.4749 -0.9559,5.97 1.2129,5.1377 0.7754,-0.2975 1.4097,-0.1051 1.4097,0.4277 0,1.4695 -4.2452,1.0977 -6.4427,-0.5643 z m 8.939,-0.4712 c -1.4986,-1.6559 -1.6161,-2.4376 -0.6764,-4.5 0.8938,-1.9617 1.8783,-2.4959 4.5996,-2.4959 1.9044,0 3.7349,0.4408 4.0678,0.9795 0.3814,0.617 1.3769,0.5245 2.6897,-0.25 1.6552,-0.9764 2.1775,-0.9721 2.537,0.021 0.5734,1.5833 2.9921,1.6316 3.5126,0.07 0.7582,-2.2746 3.7738,0.051 3.7581,2.8985 -0.018,3.3202 -1.857,6.4713 -2.6442,4.5314 -0.2789,-0.6875 -1.8197,-1.25 -3.4238,-1.25 -1.6585,0 -2.9233,0.5392 -2.932,1.25 -0.01,0.8307 -0.3354,0.7469 -0.9695,-0.25 -0.7865,-1.2364 -1.3087,-1.2803 -2.9711,-0.25 -2.903,1.7991 -5.4692,1.5427 -7.5478,-0.7541 z m 5.0546,-3.7239 c -0.9723,-2.5337 -2.8864,0.096 -2.0311,2.7902 0.6467,2.0377 0.8146,2.0916 1.683,0.54 0.5305,-0.948 0.6872,-2.4466 0.3481,-3.3302 z M 420,2384.3989 c -3.575,-0.1838 -16.4,-0.8198 -28.5,-1.4133 -56.77689,-2.7847 -117.53294,-9.9385 -157.24873,-18.5155 -35.78343,-7.7278 -60.6695,-15.4516 -98.5004,-30.5713 -13.61202,-5.4402 -27.94733,-10.7776 -31.85625,-11.8608 -3.908914,-1.0832 -7.731363,-2.4875 -8.494329,-3.1208 -2.966417,-2.4619 -9.348054,-27.3965 -13.868427,-54.1873 -4.346622,-25.7611 -9.375929,-69.2695 -13.030869,-112.7299 -1.2702,-15.1038 -1.862081,-18.6836 -3.224099,-19.5 -0.917555,-0.55 -3.808905,-2.9541 -6.42522,-5.3425 C 49.91006,2118.9948 50.5,2126.9173 50.5,2015 c 0,-94.5238 0.07718,-98.7079 1.911874,-103.6508 1.834585,-4.9426 1.864478,-6.5596 0.739452,-40 -3.596931,-106.9155 -5.075777,-185.6882 -5.798208,-308.8492 -1.315684,-224.2997 4.632673,-389.845 15.61241,-434.5 1.692079,-6.8817 3.392834,-20.6229 6.126664,-49.5 0.57276,-6.05 1.28986,-27.875 1.593555,-48.5 0.439463,-29.8454 0.213481,-41.75115 -1.107091,-58.32652 -0.912595,-11.45458 -1.928879,-22.1746 -2.25841,-23.82225 l -0.599147,-2.99573 -7.610549,0.78023 c -10.499214,1.07638 -25.267003,0.75824 -31.450453,-0.67754 -10.943498,-2.54105 -20.6431061,-9.27083 -24.3277283,-16.87905 -1.2867049,-2.65686 -1.7151792,-5.98858 -1.6628015,-12.92959 0.069268,-9.17932 0.163416,-9.53622 5.1439682,-19.5 C 11.409236,886.45567 22.764287,870.79183 26.16801,868.95082 26.900605,868.55458 33.575,867.70326 41,867.05901 48.425,866.41476 54.798973,865.57543 55.164385,865.19382 55.529797,864.81222 54.755008,857.075 53.442633,848 47.111068,804.21759 42.349078,757.53386 39.008876,706.5 37.892942,689.45 36.327614,666.65151 35.53037,655.8367 33.041789,622.07847 31.748292,576.14687 32.761072,557.5 l 0.923332,-17 -3.092202,-6 L 27.5,528.5 26.835486,423 c -0.365483,-58.025 -0.962264,-107.975 -1.32618,-111 -0.4985,-4.14371 -0.04218,-8.21257 1.85046,-16.5 6.743591,-29.52859 11.532291,-56.89432 19.114928,-109.23507 3.046526,-21.02929 6.45784,-43.07929 7.580697,-49 C 60.341179,104.12064 68.875619,84.435086 83.674643,68.945122 96.946149,55.053992 112.4806,46.022268 137,37.941787 181.87859,23.151839 254.03766,14.49899 399,6.5244442 414.125,5.6924004 440.45,4.247294 457.5,3.3130967 512.82183,0.28192316 667.80329,1.2242647 742,5.0429563 883.45332,12.323153 947.32019,27.767001 983.29228,63.390598 1003.0672,82.973947 1015.7297,109.47075 1026.1154,153 c 1.6403,6.875 7.4823,34.73293 12.9823,61.9065 5.5,27.17358 11.7958,57.32358 13.9908,67 2.1949,9.67643 4.4661,19.75863 5.0471,22.4049 0.7915,3.60486 0.7277,6.36331 -0.2545,11 -1.008,4.75834 -1.4347,28.96544 -1.8461,104.74208 l -0.535,98.55348 -3.242,6.44652 -3.2419,6.44652 0.9757,11.5 c 2.1526,25.37255 1.1482,68.05812 -2.9886,127 -1.1001,15.675 -2.6839,38.625 -3.5195,51 -2.5523,37.79936 -5.9369,71.39524 -11.0651,109.83619 -1.4188,10.6349 -2.4308,19.48139 -2.2491,19.65886 0.1818,0.17747 8.6555,1.02819 18.8305,1.89049 l 18.5,1.56781 4.3368,4.77333 c 4.9902,5.49248 12.8834,16.8229 16.0432,23.02924 1.1917,2.34076 2.8927,7.74076 3.78,12 3.6217,17.38479 -3.2813,29.33513 -20.4921,35.47526 -7.4615,2.66193 -25.4262,3.48808 -37.669,1.7323 -4.9494,-0.70981 -10.3489,-1.32947 -11.9989,-1.37702 l -3,-0.0865 -1.2082,8.5 c -6.2255,43.79827 -6.675,101.57904 -1.2176,156.50004 2.0866,20.9983 2.4975,23.8512 5.7611,40 4.023,19.9066 7.1794,55.1747 9.6209,107.5 3.6344,77.8923 4.0438,105.6815 4.0438,274.5 0,165.0906 -0.5349,207.9372 -3.9727,318.2308 -1.1629,37.311 -1.1518,43.9803 0.082,48.7038 1.2013,4.6003 1.3863,21.1456 1.1601,103.7692 -0.3049,111.3767 0.5616,100.6246 -8.8927,110.3449 l -4.9105,5.0488 -1.476,18.9512 c -8.0479,103.3325 -16.7032,164.8103 -27.205,193.2357 -1.33165,3.6044 -2.5635,4.8328 -7.76152,7.7397 -14.82261,8.2892 -45.54989,19.2257 -74.02338,26.3464 -68.85589,17.2195 -158.15655,28.3048 -275.5,34.1992 -19.71375,0.9902 -197.96052,2.1026 -213,1.3292 z m 152.02623,-151.4246 c 13.12937,-1.5891 28.08151,-4.7981 40.31502,-8.6521 11.28085,-3.554 31.00791,-11.3064 30.37672,-11.9376 -0.18841,-0.1884 -10.21453,0.7492 -22.28027,2.0836 -61.91094,6.8468 -82.17515,7.3615 -125.50899,3.1875 -31.93611,-3.0761 -31.51388,-3.0601 -26.92871,-1.0205 14.93834,6.6449 39.06791,13.3065 57,15.7363 12.66935,1.7167 35.41459,2.0083 47.02623,0.6028 z M 913.21417,1842.25 c 17.76312,-49.1668 32.61078,-97.7286 46.18831,-151.0667 l 7.34337,-28.8478 -16.01074,-27.4177 c -18.43694,-31.5726 -30.33935,-50.9361 -35.32167,-57.4633 -2.13827,-2.8012 -3.84675,-6.4663 -4.41771,-9.477 -3.71677,-19.5985 -5.49959,-109.6913 -7.64259,-386.2108 l -0.59468,-76.7333 -2.8855,3.9833 c -1.58703,2.1908 -3.67018,3.9818 -4.62923,3.9799 -0.95905,0 -5.79373,-1.126 -10.74373,-2.4981 -13.15937,-3.6477 -113.98944,-28.6768 -134.92638,-33.4928 C 653.36003,1054.8738 596.02074,1047.1678 536,1048.3025 c -30.95318,0.5852 -50.2299,2.1628 -82.11903,6.7205 -49.13664,7.0227 -118.93462,22.4546 -228.97067,50.6238 l -29.58969,7.575 -0.66336,131.6391 c -1.14524,227.2637 -3.47967,330.6512 -7.71762,341.7979 -0.4981,1.3101 -2.67406,4.7353 -4.83546,7.6116 -4.59805,6.1188 -18.17608,28.2867 -34.05956,55.6066 l -11.26558,19.377 3.08784,12.623 c 9.9753,40.7787 24.55538,90.6052 38.51514,131.623 10.84227,31.8577 13.32822,38.3653 13.94327,36.5 0.27203,-0.825 1.24322,-7.575 2.1582,-15 7.66531,-62.2034 20.5547,-146.8348 29.60775,-194.4038 5.28536,-27.7718 4.60895,-25.5962 7.95816,-25.5962 1.55792,0 3.0891,0.4151 3.40262,0.9224 2.12852,3.444 55.02666,9.5676 104.04799,12.0448 79.31121,4.0079 210.47216,4.2398 285.5,0.5048 55.96022,-2.7858 111.59212,-6.7579 154.5,-11.0314 15.97462,-1.591 77.63904,-9.1248 81.00831,-9.8971 2.90366,-0.6655 4.24581,0.5082 5.881,5.1428 3.72172,10.5485 14.53661,76.5815 24.04517,146.8137 4.3148,31.8701 12.56438,99.9871 12.56504,103.75 2.6e-4,1.5125 0.36807,2.75 0.81734,2.75 0.44927,0 4.67806,-10.6875 9.39731,-23.75 z m 83.36195,-384.5 c -3.0879,-200.7293 -7.85813,-401.1163 -11.61093,-487.75 -0.55988,-12.925 -1.2408,-29.34366 -1.51315,-36.48591 -0.45738,-11.99474 -0.65354,-13.04448 -2.57007,-13.75346 -2.03825,-0.75399 -2.06424,-0.58641 -1.47148,9.48591 1.00097,17.0088 3.81964,94.50466 6.08332,167.25346 3.25208,104.5131 8.80771,308.2619 10.15016,372.25 0.37213,17.7375 0.8838,32.25 1.13704,32.25 0.25325,0 0.16105,-19.4625 -0.20489,-43.25 z M 104.99928,1403 c 8.28484,-324.5691 15.46168,-523.68262 19.619,-544.30754 0.46742,-2.31894 1.01503,-2.75401 3.14669,-2.5 1.74004,0.20735 2.82823,1.12197 3.34034,2.80754 0.41775,1.375 8.08362,30.71883 17.03527,65.20852 8.95165,34.48968 16.43683,62.5474 16.63375,62.35049 0.19691,-0.19692 -3.48224,-17.61575 -8.1759,-38.70852 -20.40996,-91.7201 -29.37794,-136.92021 -31.13543,-156.92776 -0.72852,-8.29348 0.15432,-10.28661 5.10693,-11.52964 2.58242,-0.64814 3.1291,-1.84303 1.34709,-2.94437 -1.99666,-1.23401 -7.5539,-10.87523 -10.78354,-18.7083 -1.75964,-4.26778 -4.66934,-13.13729 -6.46601,-19.71004 l -3.26666,-11.95045 -2.27353,13.71004 c -4.9049,29.57802 -9.215005,58.93343 -12.584362,85.71003 -1.937815,15.4 -3.766696,29.74168 -4.064179,31.8704 l -0.540879,3.8704 7.78107,-0.65467 c 4.27959,-0.36006 10.14357,-0.91609 13.03107,-1.23562 l 5.25,-0.58096 v 36.9714 36.9714 l -12.75,4.10196 c -7.0125,2.25608 -14.600673,4.5715 -16.862606,5.14538 l -4.112606,1.04341 -0.646835,8.24845 C 79.708274,1001.2354 77.943281,1048.0917 77.309178,1119 c -0.846757,94.6883 2.644313,173.1393 11.743462,263.8983 1.621048,16.169 2.94736,30.3065 2.94736,31.4166 0,1.1102 0.19636,1.8221 0.436356,1.5821 0.239995,-0.24 0.920905,-21.5775 1.513134,-47.4167 4.460545,-194.6155 9.63764,-361.0496 12.87726,-413.9803 l 0.67325,-11 4.40217,-0.31493 4.40216,-0.31494 -0.66167,13.81494 c -4.39687,91.80143 -8.62609,225.18533 -12.10626,381.81493 -2.51121,113.0203 -2.83995,137.805 -1.93664,146.0076 1.13545,10.3106 0.93015,15.233 3.39952,-81.5076 z m 906.43582,-8.5 c 6.2478,-58.5772 10.8716,-126.4946 10.927,-160.5 0.054,-33.4433 -4.533,-83.9036 -9.2729,-102 -2.0009,-7.6394 -5.2608,-36.8426 -7.0326,-63 -2.7092,-39.9979 -2.1755,-78.76361 1.5904,-115.5 0.9021,-8.8 1.6881,-17.96932 1.7466,-20.37626 l 0.1064,-4.37626 -8,-2.34995 c -4.4,-1.29247 -8.39532,-2.36066 -8.87849,-2.37374 -0.49187,-0.0133 -0.59358,5.14726 -0.23111,11.72621 2.25586,40.94392 5.83291,158.0956 8.6028,281.75 0.9384,41.8909 1.8882,90.6158 3.684,189 l 0.7302,40 1.734,-14 c 0.9537,-7.7 2.8859,-24.8 4.2937,-38 z M 166.68311,992.8125 c -0.31922,-0.79773 -0.55618,-0.56078 -0.60416,0.60417 -0.0434,1.05416 0.19292,1.64479 0.52522,1.3125 0.33229,-0.33229 0.36781,-1.1948 0.0789,-1.91667 z m -1,-4 c -0.31922,-0.79773 -0.55618,-0.56078 -0.60416,0.60417 -0.0434,1.05416 0.19292,1.64479 0.52522,1.3125 0.33229,-0.33229 0.36781,-1.1948 0.0789,-1.91667 z M 73.5,936.58094 c 6.6,-1.37698 17.4,-4.22481 24,-6.32853 l 12,-3.82494 0.2651,-29.21373 c 0.20909,-23.04079 -0.002,-29.20824 -1,-29.18772 -0.6958,0.0143 -18.938035,1.51757 -40.53829,3.34058 -31.311618,2.64263 -39.521892,3.62671 -40.5,4.85433 -17.31728,21.73479 -23.0574631,35.05668 -19.7959394,45.94267 2.3790294,7.9405 10.9760034,14.40947 22.4129634,16.8651 7.33551,1.57501 30.049577,0.2867 43.156166,-2.44776 z m 993.8082,-12.97317 c 16.8693,-5.07692 22.9759,-16.36315 17.4503,-32.25186 -4.0921,-11.76696 -18.081,-31.35508 -22.3934,-31.35655 C 1061.3393,859.99901 1044.525,858.6493 1025,857 c -19.525,-1.6493 -36.7375,-2.99901 -38.25,-2.99936 L 984,854 v 28.94991 28.94992 l 10.75,3.45915 c 12.3755,3.98219 30.9441,8.28086 41.4826,9.60332 9.2302,1.15826 25.0119,0.47037 31.0756,-1.35453 z M 960.08282,872.50566 c 7.95088,-30.69419 8.54357,-32.49466 10.69856,-32.5 2.77947,-0.007 3.0074,0.54937 4.09529,9.99434 l 0.86386,7.5 0.12973,-6.25 c 0.15194,-7.31933 -1.67431,-6.79775 17.90794,-5.11446 7.303,0.62777 13.4932,0.92643 13.7559,0.66368 0.9498,-0.94974 -7.634,-62.22937 -14.60971,-104.29922 -4.18309,-25.22779 -19.43371,-104.34266 -20.27604,-105.18499 -0.14465,-0.14465 -0.83546,6.8128 -1.53513,15.461 -2.90201,35.86992 -8.51953,80.27543 -12.17282,96.22399 -2.68796,11.73437 -4.66278,15.91164 -7.85197,16.60897 -1.42364,0.31128 -2.98767,0.65969 -3.47563,0.77423 -0.48795,0.11455 3.22455,1.74377 8.25,3.6205 6.12621,2.2878 9.1372,3.92373 9.1372,4.96441 0,4.57443 -12.08072,116.95615 -13.57495,126.28189 -1.45422,9.07607 0.79724,1.60108 8.65777,-28.74434 z M 147.34854,765.61771 C 185.97637,743.60469 300.77442,717.31558 433.5,700.08813 c 90.82976,-11.78948 145.45568,-14.16897 207.5,-9.03865 117.55563,9.72044 243.08545,35.23946 294.62813,59.8951 6.79044,3.24823 12.57415,5.53714 12.85269,5.08646 1.116,-1.80573 4.52369,-18.29472 6.41302,-31.03104 8.11506,-54.70516 14.8179,-143.69117 20.187,-268 1.68374,-38.98297 2.33461,-169.6368 1.01376,-203.5 -2.86173,-73.3675 -8.33034,-117.48336 -17.62396,-142.17423 -2.34304,-6.2249 -5.73118,-12.024291 -7.92246,-13.560695 C 947.61075,95.705516 923.8846,90.314538 898.95229,86.041627 776.14429,64.994735 575.61777,58.290008 406,69.559466 250.51811,79.889733 144.76468,104.75524 118.79312,137.08961 107.47098,151.18558 99.317345,216.13935 95.895179,319.5 c -1.289802,38.95624 -0.65037,157.09309 1.039226,192 5.558345,114.83483 14.327295,187.86204 27.676735,230.48978 4.7,15.00814 11.17324,27.98569 13.96817,28.00339 0.59362,0.004 4.53977,-1.9652 8.76923,-4.37546 z m 44.96811,-7.63984 C 202.78739,754.69004 212.09533,752 213.00096,752 c 0.90562,0 5.43839,-1.14357 10.07281,-2.54128 11.76303,-3.54762 46.36332,-12.67547 58.79857,-15.51156 5.70479,-1.30108 9.91119,-2.51932 9.34756,-2.70719 -1.16731,-0.38911 -29.72382,5.88035 -54.2199,11.90373 -15.8422,3.89546 -62.35853,18.68201 -65.82615,20.92473 -1.48381,0.95967 -1.45933,1.01473 0.21562,0.48494 1.0392,-0.3287 10.45643,-3.28768 20.92718,-6.5755 z M 943,764.51116 c 0,-0.72804 -14.48429,-7.82078 -22.5,-11.01791 -24.6841,-9.84548 -50.76348,-17.70467 -84.15406,-25.36038 -29.31149,-6.72046 -33.88567,-7.21603 -11.34594,-1.22921 10.175,2.7026 27.95,7.94173 39.5,11.64252 11.55,3.70079 22.8,7.0948 25,7.54224 3.92479,0.79824 50.39651,17.47476 51.34823,18.42648 0.63022,0.63022 2.15177,0.62757 2.15177,-0.004 z M 295.72917,730.39583 c -0.33229,-0.33229 -1.1948,-0.36781 -1.91667,-0.0789 -0.79773,0.31922 -0.56078,0.55618 0.60417,0.60416 1.05416,0.0434 1.64479,-0.19293 1.3125,-0.52522 z m 510,-9 c -0.33229,-0.33229 -1.1948,-0.36781 -1.91667,-0.0789 -0.79773,0.31922 -0.56078,0.55618 0.60417,0.60416 1.05416,0.0434 1.64479,-0.19293 1.3125,-0.52522 z M 670.25,701.33772 c -0.6875,-0.27741 -1.8125,-0.27741 -2.5,0 -0.6875,0.27741 -0.125,0.50439 1.25,0.50439 1.375,0 1.9375,-0.22698 1.25,-0.50439 z m -8.34339,-0.76445 c -0.2347,-0.2347 -9.4222,-1.24518 -20.41667,-2.24552 -16.13462,-1.46801 -28.86163,-1.79841 -65.98994,-1.71312 -25.3,0.0581 -49.15,0.50611 -53,0.99552 -4.75718,0.60474 10.78239,0.94236 48.5,1.05375 30.525,0.0901 61.35,0.58581 68.5,1.10148 15.52413,1.11964 22.98745,1.38874 22.40661,0.80789 z M 580.34573,56.542309 c 50.57357,0.0053 52.68037,-0.06751 49,-1.694201 -3.42522,-1.513917 -8.7663,-1.707331 -48.84573,-1.768828 -57.17655,-0.08773 -107.52152,1.458865 -111.87536,3.43681 -2.74181,1.245604 0.67346,1.333828 27.87536,0.720081 17.05,-0.384692 54.78058,-0.69693 83.84573,-0.693862 z m 11.45476,-13.065017 c 0.16527,-0.134719 -4.8311,-1.020662 -11.10304,-1.968763 C 564.90974,39.121975 526.87376,39.847594 513.5,42.790467 l -9,1.980434 43.5,-0.524333 c 23.925,-0.288383 43.63522,-0.634557 43.80049,-0.769276 z"
         style="fill:#d9d9d9" />
      <path
         id="path43"
         d="m 949.80122,2388.4631 c -0.9635,-2.1147 -0.85884,-2.8221 0.62876,-4.25 1.69236,-1.6245 1.75208,-1.604 1.15467,0.396 -0.92805,3.107 0.35022,5.6412 2.55464,5.0647 1.02491,-0.268 1.61129,-0.079 1.30307,0.4195 -1.13586,1.8378 -4.50454,0.8643 -5.64114,-1.6302 z M 958,2387 c 0,-2.2 0.45,-4 1,-4 0.55,0 1,1.5451 1,3.4336 0,2.978 0.36483,3.4888 2.75,3.8501 2.21205,0.3351 2.01644,0.4459 -1,0.5665 -3.73331,0.1491 -3.75,0.132 -3.75,-3.8502 z m 8.84349,-0.5 c 0.19684,-2.475 0.71727,-4.5 1.15651,-4.5 0.43924,0 0.95967,2.025 1.15651,4.5 0.27916,3.5099 0.0247,4.5 -1.15651,4.5 -1.18121,0 -1.43567,-0.9901 -1.15651,-4.5 z m 5.34901,0.25 c 0.33306,-4.6032 1.9858,-5.8128 2.39119,-1.75 0.32421,3.2491 -0.45915,6 -1.70858,6 -0.5464,0 -0.8523,-1.9046 -0.68261,-4.25 z m 9.18844,1.0953 c 0.90319,-4.5159 2.56758,-6.3254 4.26084,-4.6321 1.80235,1.8024 2.94226,7.7868 1.48322,7.7868 -0.61875,0 -1.125,-0.45 -1.125,-1 0,-0.55 -0.675,-1 -1.5,-1 -0.825,0 -1.5,0.45 -1.5,1 0,0.55 -0.50625,1 -1.125,1 -0.72893,0 -0.90287,-1.1107 -0.49406,-3.1547 z M 990,2387.059 c 0,-4.4345 1.35912,-5.9908 2.90813,-3.33 0.56708,0.974 1.04474,1.2085 1.06146,0.521 0.0167,-0.6875 0.75419,-1.25 1.63882,-1.25 1.2321,0 1.45599,0.6073 0.95694,2.5957 -0.37105,1.4783 -0.14979,3.2001 0.51404,4 1.44302,1.7387 0.56325,1.7998 -2.22361,0.1543 -1.69367,-1 -2.20762,-1 -2.56977,0 -0.95626,2.6406 -2.28601,1.0752 -2.28601,-2.691 z m 10.8215,-0.1338 c -0.3752,-3.9342 0.3282,-5.5687 1.9621,-4.559 0.9993,0.6177 0.2718,8.6338 -0.7836,8.6338 -0.4345,0 -0.9648,-1.8336 -1.1785,-4.0748 z m 6.1785,0.1068 c 0,-6.88 5.4633,-6.4667 6.187,0.468 0.2849,2.7307 0.021,3.0281 -2.937,3.3134 -3.1886,0.3074 -3.25,0.2359 -3.25,-3.7814 z m 5,2.527 c 0,-1.0555 -1.9191,-1.4989 -2.4899,-0.5753 -0.3455,0.559 0.073,1.0163 0.9309,1.0163 0.8574,0 1.559,-0.1984 1.559,-0.441 z m 4,-2.559 c 0,-2.2 0.45,-4 1,-4 0.55,0 1,1.5451 1,3.4336 0,2.978 0.3648,3.4888 2.75,3.8501 2.2121,0.3351 2.0164,0.4459 -1,0.5665 -3.7333,0.1491 -3.75,0.132 -3.75,-3.8502 z m 8.3809,0.8453 c 0.9032,-4.5159 2.5676,-6.3254 4.2609,-4.6321 1.8023,1.8024 2.9422,7.7868 1.4832,7.7868 -0.6187,0 -1.125,-0.45 -1.125,-1 0,-0.55 -0.675,-1 -1.5,-1 -0.825,0 -1.5,0.45 -1.5,1 0,0.55 -0.5062,1 -1.125,1 -0.7289,0 -0.9029,-1.1107 -0.4941,-3.1547 z m 9.4203,0.6178 c -0.9635,-2.1147 -0.8588,-2.8221 0.6288,-4.25 1.6923,-1.6245 1.7521,-1.604 1.1546,0.396 -0.928,3.107 0.3503,5.6412 2.5547,5.0647 1.0249,-0.268 1.6113,-0.079 1.3031,0.4195 -1.1359,1.8378 -4.5046,0.8643 -5.6412,-1.6302 z M 1042,2387 c 0,-3.7347 0.1898,-4 2.8613,-4 2.5146,0 2.8033,0.3036 2.3824,2.5057 -0.2635,1.3782 0.079,3.1782 0.7611,4 1.0088,1.2156 0.9531,1.4943 -0.299,1.4943 -0.8465,0 -1.8016,-0.5625 -2.1225,-1.25 -0.4666,-1 -0.7,-1 -1.1666,0 -1.1841,2.5372 -2.4167,1.1345 -2.4167,-2.75 z m 9,3 c 0,-0.55 0.45,-1 1,-1 0.55,0 1,0.45 1,1 0,0.55 -0.45,1 -1,1 -0.55,0 -1,-0.45 -1,-1 z m 4.8012,-1.5369 c -0.9635,-2.1147 -0.8588,-2.8221 0.6288,-4.25 1.6923,-1.6245 1.7521,-1.604 1.1546,0.396 -0.928,3.107 0.3503,5.6412 2.5547,5.0647 1.0249,-0.268 1.6113,-0.079 1.3031,0.4195 -1.1359,1.8378 -4.5046,0.8643 -5.6412,-1.6302 z m 9,0 c -0.9635,-2.1147 -0.8588,-2.8221 0.6288,-4.25 1.6923,-1.6245 1.7521,-1.604 1.1546,0.396 -0.7889,2.6412 0.2083,5.3909 1.955,5.3909 1.6803,0 2.71,-3.1371 1.8411,-5.6091 -0.6297,-1.7914 -0.5689,-1.8007 1.1547,-0.1778 2.5659,2.416 0.611,6.7869 -3.0354,6.7869 -1.7519,0 -2.9024,-0.7892 -3.6988,-2.5369 z m 16.8372,1.0369 c -0.3166,-0.825 -1.6844,-1.5 -3.0396,-1.5 -1.6156,0 -2.6908,-0.7146 -3.1227,-2.0754 -0.8881,-2.798 -0.1143,-3.3257 2.5572,-1.7439 1.763,1.0439 2.3225,1.0584 2.6807,0.069 0.249,-0.6875 1.0902,-1.25 1.8693,-1.25 0.9861,0 1.4167,1.2157 1.4167,4 0,3.9926 -1.2721,5.3393 -2.3616,2.5 z M 977,2385.059 c 0,-1.1324 0.45,-2.059 1,-2.059 0.55,0 1,0.6484 1,1.441 0,0.7925 -0.45,1.7191 -1,2.059 -0.55,0.3399 -1,-0.3085 -1,-1.441 z m -545,-0.7354 c -67.47655,-1.8564 -133.24019,-8.0915 -181.92624,-17.2488 -43.18885,-8.1233 -71.47166,-16.451 -115.17161,-33.9116 -12.32118,-4.9231 -26.28222,-10.1334 -31.02454,-11.5787 -8.469231,-2.581 -8.650121,-2.7028 -10.183884,-6.8561 -9.202261,-24.919 -18.005001,-82.3006 -24.561646,-160.108 -1.630224,-19.3457 -2.063097,-21.9985 -3.73791,-22.9069 -1.041794,-0.565 -3.981754,-3.0942 -6.533245,-5.6204 C 50.584103,2117.8983 51,2123.7724 51,2015.0653 c 0,-92.8601 0.05723,-95.7702 2.016953,-102.5685 1.577212,-5.4713 1.899084,-8.741 1.476322,-14.9968 -0.70381,-10.4146 -3.192327,-94.508 -4.527624,-153 -2.928658,-128.2884 -2.923458,-345.3587 0.01052,-439 2.761326,-88.131 6.951318,-147.1216 12.145804,-171 6.244598,-28.7056 10.619223,-88.1047 9.500586,-129 -0.596471,-21.80589 -3.015253,-55.83502 -4.254932,-59.86138 -0.468835,-1.52273 -1.236663,-1.75615 -4.220363,-1.28301 C 40.264883,947.98424 20.7703,944.83136 10.569375,935.85215 2.8168297,929.02809 0.15588034,921.16971 2.0537483,910.7036 4.0188525,899.8667 12.607288,884.36963 22.723269,873.40728 c 4.153657,-4.50117 4.736369,-4.65236 23.110115,-5.99584 5.860551,-0.42852 9.507465,-1.1361 9.801234,-1.90165 0.257318,-0.67056 -0.888817,-11.07208 -2.546966,-23.1145 C 46.942481,797.76561 43.194843,761.81238 40.485954,721.5 39.635907,708.85 38.05941,686.125 36.982628,671 33.53974,622.63951 32.83798,604.23166 33.17034,571 l 0.325043,-32.5 -2.497692,-5 L 28.5,528.5 27.966403,425 C 27.55061,344.35008 27.139098,320.11126 26.102449,315.20967 c -1.207958,-5.7116 -1.136389,-7.13766 0.777883,-15.5 C 34.167241,267.87741 39.435144,237.90949 47.484002,182.5 50.519965,161.6 54.134254,138.97351 55.515757,132.21891 61.780462,101.5888 71.043955,81.749765 85.9418,67.057398 124.25307,29.27453 200.28584,16.293672 455,4.0491393 515.34755,1.1481325 549.48333,0.71423109 623,1.9136837 830.99996,5.3072826 917.24644,17.426859 966.49497,50.182476 c 10.13229,6.739072 24.67352,21.147558 30.94285,30.660392 11.18838,16.976785 20.22958,39.806812 27.56608,69.607202 2.1732,8.82746 8.2072,37.19993 13.4089,63.04993 8.8199,43.83075 14.2217,69.32469 18.5544,87.56711 1.6622,6.99858 1.6831,8.1631 0.2781,15.5 -1.2649,6.60586 -1.6216,24.24284 -2.1322,105.43289 l -0.6131,97.5 -2.8039,4.97244 -2.804,4.97244 1.212,23.57401 c 1.3116,25.51383 0.3032,65.76374 -2.618,104.50012 -0.811,10.75319 -2.3855,33.59794 -3.499,50.76612 -2.4224,37.34899 -6.0211,75.69964 -10.1077,107.71487 -4.3217,33.85737 -4.4012,34.87477 -2.7664,35.42145 0.7629,0.2551 9.1465,1.09213 18.6303,1.86009 19.792,1.60267 18.3563,0.91448 27.5082,13.18554 21.8258,29.26433 19.9509,51.90576 -5.1067,61.66685 -7.6642,2.98559 -29.364,3.73625 -43.1346,1.49217 -5.2194,-0.85056 -9.8653,-1.171 -10.3242,-0.71209 -1.1251,1.12512 -4.3196,29.67463 -5.7674,51.54358 -2.7681,41.81381 1.4729,125.98611 7.5054,148.95971 4.6028,17.5294 8.8233,65.7992 11.5487,132.0827 2.912,70.8216 3.5051,114.3656 3.4801,255.5 -0.025,138.504 -0.6794,191.9414 -3.5598,290.5 -0.5947,20.35 -1.0353,46 -0.9792,57 0.056,11 0.2111,65.225 0.3442,120.5 l 0.242,100.5 -2.1776,4.0682 c -1.1977,2.2375 -4.0877,5.7939 -6.4223,7.9031 l -4.2447,3.8348 -1.3173,17.097 c -7.442,96.5914 -15.8281,159.3662 -25.36329,189.8584 -3.57676,11.438 -3.93345,11.7631 -21.48584,19.585 -71.72535,31.9628 -217.06505,52.7593 -392.48897,56.1607 -43.4467,0.8424 -120.78614,1.01 -146,0.3164 z m 128,-6.3191 c 68.96158,-1.1527 98.34185,-2.4322 150.5,-6.554 119.78146,-9.466 215.95238,-28.4195 262.61472,-51.7565 L 983.5,2314.5 l 2.18438,-6.6811 C 1006.206,2245.0516 1022.3054,2014.777 1027.9699,1703 c 3.11,-171.1789 1.9372,-350.8272 -2.9866,-457.5 -2.7638,-59.8767 -6.3538,-97.9789 -10.9768,-116.5 -1.9261,-7.7169 -5.0253,-35.3114 -7.1318,-63.5 -2.4835,-33.234 -1.3765,-82.13246 2.6714,-118 0.807,-7.15 1.5767,-14.74828 1.7105,-16.88507 l 0.2434,-3.88507 -13,-3.91914 c -7.15,-2.15553 -14.575,-4.68224 -16.5,-5.61493 L 978.5,915.5 978.23629,882.06371 c -0.14504,-18.38996 0.0802,-33.78024 0.50064,-34.20064 0.42039,-0.42039 10.21406,0.0488 21.76367,1.04273 11.5497,0.99389 21.3775,1.47106 21.8397,1.06038 2.7508,-2.44455 11.839,-87.01513 15.6321,-145.46618 1.1064,-17.05 2.7186,-40.225 3.5827,-51.5 2.0994,-27.39588 3.0444,-96.57463 1.5435,-113 -0.6282,-6.875 -2.5037,-21.275 -4.1678,-32 -1.664,-10.725 -3.4349,-25.125 -3.9351,-32 -1.9721,-27.10129 2.2176,-69.15162 15.5929,-156.5 l 1.6844,-11 -5.0857,-22.5 c -2.7972,-12.375 -9.6263,-45 -15.1759,-72.5 -14.2534,-70.62977 -19.8296,-91.30174 -30.4817,-113 C 995.38555,87.984291 989.76875,79.799956 981.06511,70.680676 971.43648,60.59224 963.027,54.351347 950,47.626456 900.58658,22.117908 819.5932,12.111982 629.5,8.0318711 603.65,7.4770335 573.725,6.815687 563,6.5622122 544.52219,6.1255074 472.09386,9.0903878 393,13.521225 177.65964,25.584591 111.05374,40.147016 81.361693,81.65648 68.098563,100.19833 62.994707,119.02695 53.484002,184.5 45.616819,238.65881 39.511744,273.27375 32.60554,302.878 c -1.349889,5.78646 -1.263906,7.20945 1.473361,24.38354 10.674682,66.97483 14.286095,100.56662 14.324309,133.23846 0.02743,23.45704 -0.165736,26.17265 -3.129887,44 -5.339655,32.1144 -5.779342,38.09502 -5.697697,77.5 0.07196,34.73026 0.512272,45.01372 3.917806,91.5 0.805848,11 2.160717,30.8 3.01082,44 2.673744,41.51663 6.511357,78.07378 14.028676,133.6373 0.940352,6.95051 1.992632,13.07549 2.338401,13.61105 0.402126,0.62286 8.376326,0.31784 22.128671,-0.84645 11.825,-1.00112 23.64341,-1.8386 26.26313,-1.86106 L 116.02626,862 115.76313,896.25 115.5,930.5 106,933.80104 c -5.225,1.81557 -14.225,4.47838 -20,5.91736 -5.775,1.43898 -10.873849,2.93737 -11.330775,3.32974 -0.456926,0.39238 -0.01102,9.20456 0.99091,19.58263 2.26014,23.41081 2.562283,86.32013 0.530084,110.36923 -2.156462,25.5196 -5.078027,50.1479 -6.643099,56 -6.046924,22.6107 -10.334727,81.6296 -13.622137,187.5 -1.682126,54.1725 -2.304314,262.9691 -1.031038,346 4.877677,318.0756 20.068671,558.9881 40.040591,635 4.442901,16.9094 3.885176,16.0638 12.235214,18.5506 3.99403,1.1894 15.60226,5.5387 25.79607,9.665 61.30486,24.8153 106.27593,35.919 179.2772,44.2646 67.46721,7.7131 135.1798,9.9061 247.75698,8.0243 z m -100,-27.7047 c -18.38259,-0.5516 -64.75174,-3.3776 -87.5,-5.3327 -79.89602,-6.8666 -148.31306,-18.5181 -205.63038,-35.019 -17.03504,-4.9041 -42.60378,-13.6425 -45.71095,-15.6222 -7.02577,-4.4763 -13.34633,-29.0756 -18.06957,-70.3259 -15.321681,-133.8117 -17.377107,-489.195 -5.558123,-961 2.531643,-101.0615 6.111523,-214.0155 8.477943,-267.5 2.35187,-53.15589 2.19697,-51.89605 6.30874,-51.31068 2.08171,0.29635 2.17478,0.74875 2.01844,9.81068 -0.0901,5.225 -0.87247,26.15 -1.7385,46.5 -8.9509,210.3275 -15.577464,548.5128 -15.577612,795 -9.5e-5,157.1385 1.360476,237.7545 5.527272,327.5 4.69041,101.0231 13.32289,162.5634 23.36085,166.5376 7.79634,3.0868 36.5244,12.3366 49.48942,15.9345 120.06325,33.3192 297.74277,46.568 469.10247,34.979 135.09528,-9.1365 248.10909,-32.9407 317.79037,-66.9368 13.88572,-6.7745 14.48975,-7.5813 18.25597,-24.3853 8.84905,-39.4822 14.18913,-125.5782 17.62304,-284.129 1.5544,-71.7699 1.53686,-354.8141 -0.0289,-467 -2.99821,-214.8151 -7.09323,-395.5787 -11.73477,-518 -2.33839,-61.67533 -2.40827,-56.44187 0.75848,-56.80814 1.87671,-0.21706 2.82257,0.22629 3.2001,1.5 0.47729,1.61028 1.56348,22.98199 3.14132,61.80814 0.70532,17.3558 2.25705,66.748 3.48723,111 9.59946,345.3127 12.18016,752.8297 5.99066,946 -4.66334,145.5425 -12.44359,217.4524 -24.73635,228.629 -3.24296,2.9486 -23.62725,12.6652 -41.24712,19.6614 -80.22261,31.8535 -204.24844,52.6246 -347.5,58.1973 -22.97623,0.8938 -103.63721,1.0882 -129.5,0.3121 z m 58,-140.4006 c -4.675,-0.4593 -18.175,-1.7758 -30,-2.9255 -119.70394,-11.6387 -205.76417,-26.3317 -260.96944,-44.5553 -18.60205,-6.1406 -38.43752,-15.4972 -44.80392,-21.1345 l -4.27335,-3.7839 2.52783,-26.5 c 5.01473,-52.5707 20.56168,-192.0692 27.97368,-251 10.8297,-86.1041 21.92121,-161.449 31.09438,-211.225 1.89795,-10.2988 3.45082,-19.8613 3.45082,-21.25 0,-1.9822 0.50415,-2.525 2.34501,-2.525 1.28976,0 3.16897,0.9105 4.17602,2.0232 5.90772,6.528 49.30497,11.5518 130.97897,15.1626 37.31114,1.6495 175.6901,1.6626 215.5,0.02 56.92506,-2.3482 117.87557,-6.1663 148,-9.271 5.225,-0.5385 18.5,-1.8937 29.5,-3.0116 11,-1.1179 32.3676,-3.583 47.48356,-5.478 36.1157,-4.5277 33.59324,-4.6461 34.94134,1.6399 4.89282,22.8144 14.89171,83.5461 19.49585,118.4146 16.84354,127.5611 33.86846,291.957 37.13795,358.6113 l 0.66766,13.6113 -6.62268,7.0204 c -29.68309,31.4656 -110.56998,57.3663 -233.13626,74.6522 -73.43351,10.3566 -126.88614,14.3119 -155.46742,11.504 z M 107.36928,1662.3197 c 6.88849,-381.8585 16.02276,-724.68917 20.26576,-760.62226 l 0.56709,-4.80256 4.13355,0.30256 4.13354,0.30256 4.76156,20.5 c 2.61886,11.275 14.04871,62.8 25.39967,114.5 l 20.63812,94 -0.62077,144 c -0.77589,179.9824 -2.70289,279.9716 -5.70023,295.7765 -0.50955,2.6868 -1.9437,6.2798 -3.18701,7.9844 -1.24331,1.7046 -15.98556,30.5807 -32.76056,64.1692 l -30.5,61.0699 -3.90648,0.3197 -3.90648,0.3197 z m 877.40493,22.4303 c -0.88442,-0.6875 -15.1041,-28.25 -31.59927,-61.25 -16.49517,-33 -31.18457,-61.7473 -32.6431,-63.8829 -2.01394,-2.9487 -2.86672,-5.8355 -3.54498,-12 -2.58882,-23.5288 -4.49598,-132.6566 -5.56828,-318.6171 l -0.66024,-114.5 20.57202,-94 c 24.22677,-110.69974 30.23292,-136.60462 31.92079,-137.67638 2.30877,-1.46602 6.58734,-0.91143 7.14684,0.92638 1.17049,3.8448 2.64153,31.71218 5.10713,96.75 2.72284,71.8233 8.35958,303.6407 12.99659,534.5 0.83406,41.525 1.95147,96.6302 2.48311,122.456 0.75841,36.8414 0.7026,47.1237 -0.25909,47.7347 -1.80635,1.1475 -4.12965,0.9755 -5.95152,-0.4407 z M 197.81241,1085.2404 C 196.33424,1077.6832 190.56314,1051.7 184.98775,1027.5 179.41236,1003.3 169.89632,961.9 163.841,935.5 157.78568,909.1 151.52412,882.325 149.92641,876 144.17527,853.23238 136.41318,814.29536 135.35424,802.9016 134.81271,797.07497 134.42365,796 132.8564,796 131.47064,796 131,795.25785 131,793.07269 c 0,-2.74213 0.52191,-3.12909 8.25,-6.11685 26.13563,-10.10428 82.2694,-27.0437 125.26975,-37.80251 73.27607,-18.33387 149.42387,-30.49957 227.48025,-36.3432 23.62904,-1.76898 136.1728,-1.79063 163,-0.0314 78.95294,5.17755 139.29159,15.76232 206.5,36.2248 26.47158,8.05962 92.71013,30.87323 94.32337,32.48648 1.43644,1.43643 -9.68264,95.90567 -18.8921,160.50996 -10.51759,73.78083 -24.27284,123.19003 -41.51639,149.12803 l -4.68126,7.0417 -5.11681,-0.3799 c -4.70292,-0.3491 -55.67522,-12.0854 -110.61681,-25.4694 -29.73012,-7.2423 -67.59632,-15.3375 -94.65495,-20.2357 -90.01183,-16.2939 -152.2005,-17.925 -232.84505,-6.107 -34.58925,5.0688 -91.26119,16.4164 -127.5,25.5298 -7.425,1.8672 -24.3,5.8756 -37.5,8.9075 -13.2,3.0319 -36.31173,8.4538 -51.35939,12.0488 -15.04767,3.5949 -28.09767,6.5319 -29,6.5266 -1.30935,-0.01 -2.18327,-2.7839 -4.3282,-13.75 z M 133.81023,773.79685 C 120.0779,759.09634 107.7445,708.02288 100.0516,634 92.633198,562.61837 89.635215,494.92248 89.600096,398 c -0.0468,-129.17183 6.492538,-215.87016 19.120594,-253.5 2.41943,-7.20957 3.38969,-8.69162 9.82011,-15 C 137.68148,110.72258 173.91723,96.866803 236,84.586113 327.83912,66.419273 449.0873,58.035008 601.5,59.311931 c 75.59035,0.6333 109.99983,1.910363 168,6.235103 64.64018,4.819847 128.75723,13.206002 168.5,22.038864 5.41134,1.202674 0.18986,-1.489361 -7.63562,-3.936693 C 909.34076,77.074302 877.52788,72.186387 812,65.463017 783.5426,62.543196 783.93984,62.66958 775.36424,53.807391 764.07126,42.137015 754.04155,26.940072 755.36173,23.499738 c 0.65226,-1.699773 2.13107,-1.77219 24.41629,-1.195668 33.52139,0.867204 75.05487,5.096417 115.72198,11.783577 16.39292,2.695595 18.84818,3.373954 27.5,7.597902 8.17781,3.992529 10.82559,5.972512 19.0244,14.226247 14.49485,14.59195 19.59583,25.982069 15.07066,33.651664 l -2.14818,3.640889 3.01084,4.545529 c 13.43905,20.289272 21.01049,72.790542 24.04777,166.750122 3.32664,102.91104 -2.35031,266.18803 -13.54244,389.5 -6.29473,69.35365 -12.9013,107.69039 -18.75247,108.81722 -0.98413,0.18953 -5.7091,-1.66776 -10.49995,-4.1273 C 888.9986,732.9119 770.16108,708.05201 641,696.30657 c -24.49677,-2.22765 -97.39431,-2.53429 -120,-0.50478 -163.16113,14.64842 -334.25053,49.82793 -375.14791,77.13814 -3.344,2.23304 -6.74817,4.06007 -7.56483,4.06007 -0.81666,0 -2.83133,-1.44142 -4.47703,-3.20315 z m 10.45964,-4.47508 c 5.74719,-3.63873 20.40618,-10.38884 30.73013,-14.15049 68.13816,-24.82687 218.10023,-51.92332 350.5,-63.33139 22.7312,-1.95861 86.1434,-1.67142 111,0.50271 106.863,9.34698 214.35124,28.91331 272.96686,49.68881 11.14483,3.95013 30.80695,12.34654 33.76645,14.41945 3.94427,2.76267 6.56534,2.01294 7.69427,-2.20086 14.03999,-52.40514 28.0591,-263.19666 28.04933,-421.75 -0.007,-121.35874 -7.36388,-199.47526 -21.41201,-227.37113 -1.96228,-3.89656 -4.6404,-7.787456 -5.95138,-8.646446 C 946.91547,93.404141 911.1293,85.77876 879.5,81.116346 713.59393,56.660449 449.46267,56.205829 285,80.093098 193.46025,93.388727 134.08318,113.45932 116.80965,136.94467 90.574488,172.61438 84.507562,482.19574 106.60823,657.5 c 7.31724,58.04098 17.09986,96.93996 27.95998,111.17831 3.06533,4.01886 4.24665,4.09721 9.70166,0.64346 z M 953.52732,82.25 C 952.30528,75.658776 947.75408,68.740069 938.50799,59.417689 931.15753,52.006584 927.93594,49.568119 921,46.165643 c -7.50025,-3.6793 -10.61713,-4.51999 -26.5,-7.147627 -20.71604,-3.427228 -50.69466,-7.257271 -74.5,-9.518058 -21.30518,-2.023347 -58,-3.170372 -58,-1.812993 0,3.268294 16.65392,23.79423 22.93384,28.265927 2.32868,1.658165 7.66363,2.484872 32.67463,5.063275 68.9072,7.103698 102.36846,12.896557 125.89153,21.794515 10.67759,4.038959 10.87803,4.027751 10.02732,-0.560682 z m -840.07835,34.28212 c -1.85042,-4.4287 -1.82348,-6.89579 0.14854,-13.60062 5.4664,-18.585677 23.55079,-41.013519 39.05141,-48.430663 5.32402,-2.547575 21.74112,-5.681067 49.35108,-9.419516 38.57862,-5.22363 59.21412,-7.028109 88.75,-7.760777 L 316,36.694191 v 2.222729 c 0,4.68556 -14.46648,21.689874 -25.22226,29.64696 -4.79454,3.546986 -6.74003,4.341868 -12,4.902926 C 234.2346,78.218031 169.03808,96.360131 129.1025,115.11662 123.38388,117.80248 117.84842,120 116.80148,120 c -1.22689,0 -2.4186,-1.23272 -3.35251,-3.46788 z m 17.85867,-7.90971 c 40.85471,-18.019477 96.30049,-33.572958 139.61945,-39.165618 10.44791,-1.348869 13.07575,-2.050759 16.5,-4.40711 4.61852,-3.178172 18.76109,-17.664258 20.60008,-21.100448 l 1.21383,-2.268062 -21.3705,0.628829 C 244.963,43.572557 165.80503,53.540276 154.80453,59.065915 144.07226,64.456819 133.24563,75.539346 125.03228,89.54185 119.08939,99.673562 115.00398,114 118.05764,114 c 0.58171,0 6.54421,-2.41992 13.25,-5.37759 z M 343.6201,63.194334 c -1.2344,-1.997305 2.30546,-3.033129 17.3799,-5.08566 34.4268,-4.687542 83.43161,-8.234437 139.5,-10.096798 72.13158,-2.395914 216.01168,0.09981 219.72316,3.811285 2.01945,2.019447 -1.28122,2.229863 -19.2302,1.225911 -9.62113,-0.538145 -41.59367,-1.527509 -71.0501,-2.198588 C 549.9046,49.027046 463.24203,51.385139 401.5,57.066427 c -21.20179,1.950915 -50.70888,5.463455 -55.14091,6.564003 -1.17749,0.292393 -2.41004,0.09615 -2.73899,-0.436096 z m -0.12126,-12.196207 c -0.98333,-1.591072 3.23317,-2.706213 18.62496,-4.925758 C 418.7687,37.903998 486.178,34.022663 571.5,34.016773 c 59.37248,-0.0041 100.24252,1.471769 139.5,5.03752 14.62824,1.328681 16,1.636777 16,3.59359 0,1.341886 -0.79047,1.505299 -4.75,0.981954 C 713.62014,42.489199 682.85609,40.119073 660,38.83397 630.00084,37.147241 513.2725,37.129017 482,38.80618 c -50.66143,2.717002 -89.67501,6.205859 -120,10.731208 -19.12413,2.853863 -17.7092,2.742149 -18.50116,1.460739 z m 0.0439,-9.929029 c -0.88997,-1.440001 0.75716,-2.049047 9.68724,-3.581963 C 407.55591,28.161669 494.89919,23.353537 592.5,24.315632 c 57.20821,0.563927 75.62167,1.261625 111,4.205858 21.13393,1.758794 23.5,2.167366 23.5,4.057965 0,1.678576 -0.0689,1.681303 -11,0.435036 -15.67822,-1.787501 -52.23574,-3.975557 -83.5,-4.997679 -96.94576,-3.169445 -205.2906,1.585926 -273.89584,12.021581 -14.97975,2.278594 -14.3182,2.233322 -15.06145,1.030705 z m 0.0774,-7.874764 c -1.25842,-2.036175 2.45137,-3.071626 19.8799,-5.548738 64.73204,-9.200348 161.48648,-13.728843 249.15969,-11.661672 56.39422,1.32967 111.37239,4.75874 113.79031,7.09727 2.36861,2.290837 -2.20392,2.484275 -19.95,0.843974 -33.66013,-3.111266 -57.84146,-4.082695 -115.5,-4.639948 -74.55171,-0.720519 -127.9155,1.234458 -185.5,6.795775 -19.26677,1.86072 -54.02042,6.301094 -59.14091,7.556265 -1.17749,0.288637 -2.41004,0.08932 -2.73899,-0.442926 z M 55.789414,940.93314 C 68.094719,939.58121 81.356768,936.74469 96,932.3328 c 17.81405,-5.36723 16,-1.38132 16,-35.15585 0,-17.60377 -0.38332,-29.16027 -0.98726,-29.76421 -0.64968,-0.64968 -14.070634,0.12148 -39.250002,2.2553 -21.044506,1.78341 -39.29818,3.26267 -40.563721,3.28726 -2.903283,0.0564 -7.731016,5.18561 -14.631036,15.5447 -7.0397293,10.56884 -9.6521684,16.69792 -10.2954769,24.15436 -0.7603281,8.81279 0.2297765,12.49862 4.7311309,17.61243 4.741085,5.38616 11.047279,8.54709 20.496365,10.27365 8.97349,1.63966 12.43078,1.69556 24.289414,0.3927 z M 1070.4666,924.16984 c 7.1681,-2.60784 12.228,-6.49087 15.3306,-11.7649 2.0057,-3.40931 2.2505,-4.95336 1.9287,-12.1652 -0.3276,-7.34437 -0.8357,-9.18182 -4.5827,-16.57158 -2.3178,-4.57122 -7.0998,-11.96051 -10.6266,-16.42064 -5.9004,-7.46198 -6.7557,-8.15423 -10.7145,-8.67175 -10.6974,-1.39846 -78.03294,-6.55113 -78.86782,-6.03515 -1.54282,0.95351 -1.21151,58.98441 0.34413,60.27548 1.93382,1.60492 26.89029,8.84112 38.22159,11.08243 14.7511,2.91775 14.8678,2.92833 29.5,2.6754 10.9481,-0.18925 14.6279,-0.6437 19.4666,-2.40409 z"
         style="fill:#b3b3b3" />
      <path
         id="path41"
         d="m 951.16635,2390.124 c -0.88527,-0.5612 -0.32996,-0.8082 1.6517,-0.7347 1.64194,0.061 2.77802,0.4482 2.52463,0.8607 -0.60587,0.9863 -2.51236,0.9288 -4.17633,-0.126 z M 958,2390.025 c 0,-0.5602 1.38255,-0.7118 3.25,-0.3564 4.55729,0.8675 4.70246,1.3314 0.41667,1.3314 C 959.65,2391 958,2390.5613 958,2390.025 Z m 8.8,-0.225 c 0.93333,-0.9333 1.46667,-0.9333 2.4,0 0.93333,0.9333 0.66667,1.2 -1.2,1.2 -1.86667,0 -2.13333,-0.2667 -1.2,-1.2 z m 5.2,0.2 c 0,-0.55 0.45,-1 1,-1 0.55,0 1,0.45 1,1 0,0.55 -0.45,1 -1,1 -0.55,0 -1,-0.45 -1,-1 z m 9,0 c 0,-0.55 0.47656,-1 1.05902,-1 0.58246,0 0.7809,0.45 0.44098,1 -0.33992,0.55 -0.81648,1 -1.05902,1 -0.24254,0 -0.44098,-0.45 -0.44098,-1 z m 5,0 c 0,-0.55 0.45,-1 1,-1 0.55,0 1,0.45 1,1 0,0.55 -0.45,1 -1,1 -0.55,0 -1,-0.45 -1,-1 z m 4,0 c 0,-0.55 0.45,-1 1,-1 0.55,0 1,0.45 1,1 0,0.55 -0.45,1 -1,1 -0.55,0 -1,-0.45 -1,-1 z m 5.5,0 c -0.33992,-0.55 -0.14148,-1 0.44098,-1 0.58246,0 1.05902,0.45 1.05902,1 0,0.55 -0.19844,1 -0.44098,1 -0.24254,0 -0.7191,-0.45 -1.05902,-1 z m 5.5,0 c 0,-0.55 0.45,-1 1,-1 0.55,0 1,0.45 1,1 0,0.55 -0.45,1 -1,1 -0.55,0 -1,-0.45 -1,-1 z m 6,0.1435 c 0,-0.471 1.3058,-0.8085 2.9017,-0.75 1.5959,0.059 2.6944,0.444 2.441,0.8565 -0.6389,1.0401 -5.3427,0.9464 -5.3427,-0.1065 z m 9,-0.1185 c 0,-0.5602 1.3826,-0.7118 3.25,-0.3564 4.5573,0.8675 4.7025,1.3314 0.4167,1.3314 -2.0167,0 -3.6667,-0.4387 -3.6667,-0.975 z m 8,-0.025 c 0,-0.55 0.4766,-1 1.059,-1 0.5825,0 0.7809,0.45 0.441,1 -0.3399,0.55 -0.8165,1 -1.059,1 -0.2426,0 -0.441,-0.45 -0.441,-1 z m 5,0 c 0,-0.55 0.45,-1 1,-1 0.55,0 1,0.45 1,1 0,0.55 -0.45,1 -1,1 -0.55,0 -1,-0.45 -1,-1 z m 6.1664,0.124 c -0.8853,-0.5612 -0.33,-0.8082 1.6517,-0.7347 1.6419,0.061 2.778,0.4482 2.5246,0.8607 -0.6059,0.9863 -2.5124,0.9288 -4.1763,-0.126 z M 1042,2390 c 0,-0.55 0.45,-1 1,-1 0.55,0 1,0.45 1,1 0,0.55 -0.45,1 -1,1 -0.55,0 -1,-0.45 -1,-1 z m 4.5,0 c -0.3399,-0.55 -0.1415,-1 0.441,-1 0.5824,0 1.059,0.45 1.059,1 0,0.55 -0.1984,1 -0.441,1 -0.2425,0 -0.7191,-0.45 -1.059,-1 z m 4.5,0 c 0,-0.55 0.45,-1 1,-1 0.55,0 1,0.45 1,1 0,0.55 -0.45,1 -1,1 -0.55,0 -1,-0.45 -1,-1 z m 6.1664,0.124 c -0.8853,-0.5612 -0.33,-0.8082 1.6517,-0.7347 1.6419,0.061 2.778,0.4482 2.5246,0.8607 -0.6059,0.9863 -2.5124,0.9288 -4.1763,-0.126 z m 9.0982,0.061 c -0.7339,-0.4662 0.1735,-0.7847 2.2354,-0.7847 2.0619,0 2.9693,0.3185 2.2354,0.7847 -0.6795,0.4316 -1.6854,0.7847 -2.2354,0.7847 -0.55,0 -1.5559,-0.3531 -2.2354,-0.7847 z M 1082,2390 c 0,-0.55 0.45,-1 1,-1 0.55,0 1,0.45 1,1 0,0.55 -0.45,1 -1,1 -0.55,0 -1,-0.45 -1,-1 z m -39,-3.5 c 0,-0.825 0.45,-1.5 1,-1.5 0.55,0 1,0.675 1,1.5 0,0.825 -0.45,1.5 -1,1.5 -0.55,0 -1,-0.675 -1,-1.5 z m -623,-3.1011 c -3.575,-0.1838 -16.4,-0.8198 -28.5,-1.4133 -54.77254,-2.6864 -108.16707,-8.7766 -150,-17.1091 -36.09541,-7.1897 -66.23193,-16.2898 -105.31817,-31.8022 -24.7814,-9.8352 -28.08175,-11.0344 -35.93486,-13.0574 -4.935229,-1.2714 -5.898612,-2.9873 -9.792139,-17.4415 -7.559438,-28.0634 -14.753369,-78.974 -20.488578,-144.9955 -1.14285,-13.156 -2.534654,-24.7735 -3.092898,-25.8165 -0.558244,-1.0431 -2.815709,-3.5234 -5.016589,-5.5118 -2.20088,-1.9883 -4.981512,-5.4459 -6.179183,-7.6834 L 53.5,2114.5 53.169143,2021 c -0.241012,-68.1098 -7.37e-4,-96.8944 0.88482,-106 0.941167,-9.6774 0.958515,-19.8388 0.07682,-45 -3.452283,-98.5195 -5.050917,-183.6022 -5.77767,-307.5 -1.315684,-224.2997 4.632673,-389.845 15.61241,-434.5 1.692079,-6.8817 3.392834,-20.6229 6.126664,-49.5 0.57276,-6.05 1.289145,-27.875 1.591966,-48.5 0.440377,-29.9939 0.214577,-41.70339 -1.128092,-58.5 -0.923271,-11.55 -2.01071,-22.575 -2.416532,-24.5 -0.716059,-3.39659 -0.869357,-3.49559 -5.188696,-3.35063 -30.263159,1.01563 -36.104768,0.38979 -46.29415,-4.95971 -19.3814383,-10.1754 -18.1395391,-33.24733 3.224543,-59.90538 L 26.52035,870.5 l 5.989825,-0.6364 c 3.294404,-0.35002 9.893604,-0.9501 14.664888,-1.33352 5.841978,-0.46947 8.844337,-1.13825 9.193387,-2.04786 0.285078,-0.7429 -0.775967,-10.49282 -2.357878,-21.66648 C 47.567564,799.30623 43.367607,757.81696 40.008876,706.5 38.892942,689.45 37.327614,666.65151 36.53037,655.8367 33.982054,621.26814 32.73619,576.16058 33.800516,557 34.7204,540.43975 34.661655,539.20465 32.706576,534 30.688383,528.62733 30.624995,526.24272 29.96862,431 29.458796,357.02255 28.974741,331.56994 27.962232,325.5 25.649984,311.63818 26.115642,305.30376 31.201447,281.43648 37.43883,252.16493 40.861751,232.17082 47.539831,186 55.31503,132.24394 59.043606,114.77329 66.563345,96.863311 75.443212,75.713866 91.06976,59.602458 113.5,48.470305 156.82815,26.966496 231.47204,16.4683 408,7.0507193 428.625,5.9503972 460.125,4.2620793 478,3.2989015 539.21011,6.5184701e-4 670.34768,1.7436871 760,7.0471478 891.57256,14.830437 950.86947,30.647134 985.60729,67.225021 c 8.79194,9.257649 15.01071,18.63495 21.83741,32.928899 10.6886,22.38013 16.0526,42.34918 30.0837,111.9961 5.2465,26.04249 12.0303,58.54056 15.0751,72.21795 l 5.5361,24.86796 -1.5237,9.63204 c -0.838,5.29761 -1.8125,11.43203 -2.1656,13.63203 -0.3531,2.2 -0.9363,44.95 -1.2961,95 -0.6278,87.32386 -0.7321,91.14139 -2.5824,94.5 -2.1907,3.97649 -2.1443,2.03376 -1.076,45 0.797,32.05409 0.1057,52.5018 -3.4823,103 -1.0747,15.125 -2.6494,37.85 -3.4995,50.5 -2.5801,38.39578 -5.2716,65.31979 -10.678,106.8165 -1.7894,13.73405 -2.729,24.17796 -2.2195,24.67032 0.4859,0.46961 8.9835,1.53895 18.8835,2.37633 l 18,1.52249 5.3428,5.80718 c 6.8976,7.49705 14.4443,19.77513 16.8003,27.33313 1.0213,3.27632 2.1944,5.9608 2.6069,5.9655 0.4125,0.005 0.75,2.62403 0.75,5.82072 0,13.77023 -11.0416,25.06071 -27.4803,28.09955 -8.3577,1.54501 -23.0166,1.3476 -35.2931,-0.47528 -7.9618,-1.18222 -10.7064,-1.27819 -11.2531,-0.39351 -0.7727,1.25018 -3.3804,23.04875 -5.0193,41.95707 -4.0038,46.193 -0.3422,128.7235 7.1209,160.5 4.167,17.7423 7.8456,57.2601 10.3794,111.5 3.6383,77.8846 4.0455,105.6183 4.0455,275.5 0,161.772 -0.6117,213.4379 -3.5815,302.5 -0.5594,16.775 -0.9796,82.3718 -0.9338,145.7707 0.063,87.4949 -0.2084,116.2439 -1.1268,119.3092 -0.6655,2.2212 -2.8611,5.9243 -4.8792,8.2293 -2.0181,2.3049 -4.1836,5.1639 -4.8122,6.3531 -0.6287,1.1893 -1.8371,11.0893 -2.6854,22 -7.7107,99.1715 -16.2751,161.2383 -26.26413,190.3377 -2.27138,6.6168 -4.978,8.6877 -20.21708,15.4686 -62.74432,27.9193 -178.18958,46.6238 -336.99989,54.6011 -19.71375,0.9902 -197.96052,2.1026 -213,1.3292 z m 137,-4.407 c 58.01756,-0.9567 99.53192,-2.6053 139,-5.52 127.53489,-9.4182 224.11235,-27.734 276.66845,-52.47 11.57861,-5.4495 11.7952,-5.719 15.724,-19.5624 19.72485,-69.5023 35.29855,-301.3816 40.56235,-603.9395 4.5176,-259.6636 -0.1921,-485.6571 -11.5869,-556 -0.891,-5.5 -2.0224,-11.066 -2.5144,-12.369 -2.2934,-6.0739 -6.3188,-47.3215 -7.923,-81.1864 -1.5974,-33.7195 -0.2469,-69.07972 4.0447,-105.90355 0.9909,-8.50242 1.5787,-16.03992 1.3062,-16.75 -0.6537,-1.70376 2.2175,-1.65661 9.1548,0.15033 3.0436,0.79275 10.8885,1.99323 17.4332,2.66772 21.1641,2.18118 37.037,-1.65168 45.1879,-10.91154 7.6605,-8.70275 7.8139,-18.98138 0.503,-33.69756 -4.7509,-9.56313 -13.416,-21.70608 -17.5603,-24.60833 -2.3553,-1.64941 -17.1358,-3.4108 -36.9056,-4.39805 -3.0769,-0.15365 -5.9844,-0.32757 -6.461,-0.38649 -0.4767,-0.0589 -0.5898,-1.11963 -0.2513,-2.35713 0.9231,-3.37547 6.2326,-43.70163 8.5252,-64.75 2.7484,-25.23281 4.7253,-48.88238 7.1055,-85 1.1055,-16.775 2.6975,-39.725 3.5379,-51 2.1406,-28.72072 3.0357,-91.91352 1.5438,-109 -0.6483,-7.425 -2.6964,-23.625 -4.5513,-36 -1.8549,-12.375 -3.6623,-27.45 -4.0165,-33.5 -1.4377,-24.5597 3.4513,-73.3279 14.0851,-140.5 3.0166,-19.05541 3.4031,-23.26547 2.5245,-27.5 -0.5705,-2.75 -2.8253,-12.875 -5.0106,-22.5 -2.1853,-9.625 -8.5291,-40 -14.0972,-67.5 C 1015.9129,129.96945 1009.502,108.96324 993.47026,84.881739 978.4872,62.375421 957.75657,47.511881 926.05213,36.543983 874.71762,18.78522 797.32906,11.05238 630.5,7.0117442 544.99631,4.9408266 527.67183,5.3266872 404.5,12.045342 228.87469,21.625177 157.58026,31.752927 114.5,53.241368 97.666469,61.637936 84.242398,74.041989 75.796088,89.004389 65.833485,106.65286 60.642615,128.3563 51.99945,188.5 c -6.255963,43.53229 -9.900745,65.23656 -15.08191,89.8111 -7.074463,33.55455 -6.878177,27.9481 -2.080143,59.4142 10.373456,68.0304 12.608654,89.81094 12.599586,122.7747 -0.0067,24.4814 -0.191593,27.10975 -3.164969,45 -5.245299,31.55999 -5.750254,38.25973 -5.690392,75.5 0.05281,32.85124 0.639042,46.43109 3.928415,91 0.791551,10.725 2.137232,30.3 2.990404,43.5 3.250219,50.28636 12.998712,137.57883 16.680945,149.36882 1.19838,3.83704 -0.0934,5.4491 -3.853141,4.80848 -4.270432,-0.72763 -30.208119,1.97811 -31.824851,3.31988 -3.715657,3.08372 -14.106322,18.10969 -17.7270836,25.63517 -3.092658,6.42787 -4.024493,9.67657 -4.4459109,15.5 -0.486451,6.72211 -0.2832277,7.84098 2.3194048,12.76983 5.3475247,10.12712 15.5448257,14.95485 33.4271377,15.8255 9.37249,0.45632 13.562022,0.12087 30.606002,-2.45061 2.741595,-0.41364 3.114222,-0.21744 2.687338,1.41497 -0.272583,1.04236 0.249059,9.30057 1.159204,18.35158 2.190221,21.78081 3.032516,74.13798 1.583917,98.45638 -1.64587,27.6301 -4.979333,59.795 -7.150939,69 -6.790691,28.7844 -10.69302,82.9703 -14.187446,197 -1.662931,54.2646 -1.650729,326.0897 0.01782,397 1.726936,73.3916 3.016887,118.7023 4.72586,166 7.687554,212.7616 20.628542,362.2263 35.944522,415.149 3.375827,11.6649 3.525484,11.849 11.62879,14.3103 3.92286,1.1916 18.31422,6.614 31.98079,12.05 40.26258,16.0146 70.67273,24.9583 110.35399,32.4555 53.47697,10.1037 127.52508,16.6784 201.07321,17.8533 38.55437,0.6159 51.82845,0.5753 106.5,-0.3262 z m -99.5,-29.691 c -85.80352,-2.7444 -181.16425,-14.0092 -248.5,-29.3551 -29.50261,-6.7236 -76.80377,-20.7444 -86.15346,-25.5371 C 105.38479,2285.4576 95.763916,2183.0423 91.995886,1966 c -3.888175,-223.9627 3.046858,-680.6843 14.607374,-962 2.33715,-56.87281 2.47336,-58.5 4.89674,-58.5 1.8845,0 1.98955,0.60635 1.81905,10.5 -0.0995,5.775 -0.87967,27.15 -1.73365,47.5 -13.492593,321.523 -19.632486,835.7188 -12.573628,1053 4.281998,131.8057 11.699688,207.8464 22.288118,228.4812 2.16659,4.2223 2.81654,4.673 11.24978,7.8012 56.65845,21.0172 141.21956,37.5303 236.45033,46.174 78.8177,7.154 183.60466,8.3428 266,3.0179 141.94754,-9.1736 259.22928,-33.5006 328.20657,-68.0779 13.47654,-6.7555 13.66355,-6.9882 17.3725,-21.6093 16.95797,-66.8503 23.48403,-333.2505 18.39215,-750.7871 -2.67199,-219.1046 -9.28132,-494.9977 -13.57347,-566.59744 -0.54119,-9.02793 -0.40637,-10.68528 0.91037,-11.19056 0.85011,-0.32621 1.99381,-0.0531 2.54156,0.60687 1.8049,2.17478 4.91074,81.47883 8.13355,207.68113 9.71977,380.6178 11.30007,752.5695 4.00857,943.5 -4.38935,114.9359 -11.39708,178.7958 -21.24346,193.5871 -2.38979,3.5899 -5.48711,5.3208 -27.24834,15.2276 -77.30279,35.192 -207.20735,58.5005 -360.5,64.6837 -21.67712,0.8743 -110.38246,1.0738 -134.5,0.3025 z M 533,2209.3652 c -2.475,-0.2229 -14.85,-1.3087 -27.5,-2.4131 -12.65,-1.1043 -36.97918,-3.5622 -54.06484,-5.462 -136.66439,-15.1959 -227.30142,-35.4347 -262.40636,-58.594 -4.37149,-2.884 -8.17885,-5.8447 -8.4608,-6.5795 -0.86005,-2.2412 8.10329,-93.4025 17.43446,-177.3166 14.31543,-128.737 29.81535,-239.3804 43.54702,-310.8529 3.89289,-20.2622 4.12232,-20.7187 8.85483,-17.6178 7.20915,4.7236 52.68087,9.4222 122.59569,12.6679 36.60102,1.6991 189.16282,1.7132 229,0.021 92.49756,-3.9288 167.50633,-9.8777 229.67208,-18.2154 21.02728,-2.8201 21.03722,-2.8193 22.23212,1.747 4.39178,16.7832 14.59097,79.8157 23.03495,142.3595 13.47122,99.7801 31.01061,272.3281 33.6348,330.8905 l 0.64974,14.5 -3.67246,4.6561 c -7.63571,9.6809 -26.25732,22.2637 -46.05123,31.1173 -50.92143,22.7766 -136.22795,41.4455 -243,53.1791 -41.13227,4.5203 -74.9735,6.8605 -85.5,5.9127 z M 108.68648,1697.25 c -0.23735,-0.4125 -0.0532,-19.425 0.40914,-42.25 0.46239,-22.825 1.54188,-76.6 2.39887,-119.5 5.99101,-299.9017 11.79738,-523.6157 15.5467,-599 1.8382,-36.95889 2.36127,-39.96053 6.57098,-37.70756 1.66538,0.89129 5.69139,18.1352 27.26981,116.80026 l 25.31597,115.7546 -0.64158,103.5763 c -1.1736,189.465 -3.02086,297.2807 -5.53288,322.9277 -0.8078,8.2474 -1.38178,10.1362 -4.86206,16 -7.22931,12.1804 -49.03974,96.6183 -59.36929,119.8987 -1.46044,3.2915 -2.42569,4.25 -4.27992,4.25 -1.3168,0 -2.58839,-0.3375 -2.82574,-0.75 z m 875.49504,-14.9393 c -0.52459,-0.9959 -8.48008,-17.5607 -17.67886,-36.8107 -19.64941,-41.1197 -36.77097,-75.2618 -42.52249,-84.794 -2.57711,-4.2712 -4.42829,-8.8151 -4.98517,-12.2367 -2.92044,-17.9439 -4.82677,-118.3952 -5.61679,-295.9693 l -0.61396,-138 24.63799,-112.5 c 13.55089,-61.875 25.00372,-113.625 25.45074,-115 0.83987,-2.58342 3.69936,-3.84766 5.23328,-2.31374 2.28649,2.28649 4.83062,57.48805 8.40251,182.31374 4.11211,143.705 12.20661,515.3968 12.77248,586.5 l 0.23875,30 -2.18234,0.3107 c -1.3219,0.1882 -2.55839,-0.4032 -3.13614,-1.5 z M 203.13262,1096.082 c -0.60924,-0.3766 -2.20346,-6.0615 -3.54272,-12.6333 -2.98567,-14.6508 -6.84187,-31.4211 -24.592,-106.9487 -25.88624,-110.14714 -36.4452,-158.80576 -37.72131,-173.83034 -0.34223,-4.02927 -1.19162,-7.44183 -2.07122,-8.32143 -2.39319,-2.39319 -0.25017,-3.58109 18.29463,-10.14089 58.72128,-20.77131 137.74762,-41.28766 204.5,-53.09109 82.3861,-14.56784 149.84018,-20.0467 231,-18.76266 121.38229,1.92041 200.57896,14.52275 300.38624,47.79963 24.60141,8.20239 63.0414,21.95464 64.03884,22.91046 0.97276,0.93217 -1.88884,30.42409 -8.0473,82.93632 -14.76901,125.933 -29.95915,190.9871 -52.26535,223.8344 -3.2495,4.7851 -4.74502,6.1656 -6.67945,6.1656 -1.37087,0 -15.6416,-3.1231 -31.71274,-6.9403 -81.50646,-19.3591 -131.46755,-30.3165 -171.22024,-37.5518 -111.94022,-20.3739 -181.0762,-19.2048 -302.5,5.1155 -32.96136,6.6019 -84.02412,18.072 -142.5,32.0094 -12.65,3.015 -25.53343,6.0786 -28.62984,6.8078 -3.09641,0.7293 -6.1283,1.0179 -6.73754,0.6414 z"
         style="fill:#8d8d8d" />
      <path
         id="path39"
         d="m 958,2390.025 c 0,-0.5602 1.38255,-0.7118 3.25,-0.3564 4.55729,0.8675 4.70246,1.3314 0.41667,1.3314 C 959.65,2391 958,2390.5613 958,2390.025 Z m 8.8,-0.225 c 0.93333,-0.9333 1.46667,-0.9333 2.4,0 0.93333,0.9333 0.66667,1.2 -1.2,1.2 -1.86667,0 -2.13333,-0.2667 -1.2,-1.2 z m 5.2,0.2 c 0,-0.55 0.45,-1 1,-1 0.55,0 1,0.45 1,1 0,0.55 -0.45,1 -1,1 -0.55,0 -1,-0.45 -1,-1 z m 18,0 c 0,-0.55 0.45,-1 1,-1 0.55,0 1,0.45 1,1 0,0.55 -0.45,1 -1,1 -0.55,0 -1,-0.45 -1,-1 z m 11,0 c 0,-0.55 0.45,-1 1,-1 0.55,0 1,0.45 1,1 0,0.55 -0.45,1 -1,1 -0.55,0 -1,-0.45 -1,-1 z m 6,0 c 0,-1.2529 1.0612,-1.2529 3,0 1.213,0.7839 1.0694,0.9723 -0.75,0.9847 -1.2375,0.01 -2.25,-0.4347 -2.25,-0.9847 z m 9,0.025 c 0,-0.5602 1.3826,-0.7118 3.25,-0.3564 4.5573,0.8675 4.7025,1.3314 0.4167,1.3314 -2.0167,0 -3.6667,-0.4387 -3.6667,-0.975 z m 26,-0.025 c 0,-0.55 0.45,-1 1,-1 0.55,0 1,0.45 1,1 0,0.55 -0.45,1 -1,1 -0.55,0 -1,-0.45 -1,-1 z m 9,0 c 0,-0.55 0.45,-1 1,-1 0.55,0 1,0.45 1,1 0,0.55 -0.45,1 -1,1 -0.55,0 -1,-0.45 -1,-1 z m 31,0 c 0,-0.55 0.45,-1 1,-1 0.55,0 1,0.45 1,1 0,0.55 -0.45,1 -1,1 -0.55,0 -1,-0.45 -1,-1 z m -650,-6.6764 c -80.28492,-2.2087 -153.98717,-10.1964 -207.5,-22.4885 -31.30878,-7.1917 -50.90442,-13.4205 -86,-27.3364 -14.3,-5.6702 -29.375,-11.3082 -33.5,-12.5288 -4.125,-1.2206 -8.026699,-2.7257 -8.670442,-3.3446 -2.076953,-1.9968 -6.312555,-16.6923 -9.83575,-34.1253 -6.048606,-29.9289 -12.083599,-77.2434 -16.007598,-125.5 -0.872106,-10.725 -2.005066,-21.6214 -2.517688,-24.2142 -2.83848,-14.3567 -11.610246,-169.8135 -12.486221,-221.2858 -0.243363,-14.3 -0.891352,-39.725 -1.439977,-56.5 -2.883787,-88.176 -3.845031,-135.4079 -5.077724,-249.5 -1.400096,-129.586 0.193882,-269.3457 4.065929,-356.5 2.773966,-62.4381 6.453747,-101.7071 11.479104,-122.5 4.759458,-19.6927 9.169701,-86.5064 8.112567,-122.9026 -0.716609,-24.67225 -3.186927,-56.95914 -4.615808,-60.32834 -0.752699,-1.77481 -0.555799,-2.43984 0.963044,-3.2527 2.222235,-1.18931 3.225738,-0.0976 3.583238,3.89812 0.127229,1.42204 1.02607,11.13552 1.997424,21.58552 2.154439,23.17785 2.469973,76.8988 0.596169,101.5 -2.118586,27.8149 -5.139868,54.1212 -7.120711,62 -12.99515,51.6881 -18.743304,284.065 -13.976028,565 5.131921,302.4234 20.680873,535.0687 40.512562,606.1538 3.945042,14.1407 3.461308,13.4707 11.44017,15.8469 3.90191,1.162 17.74993,6.3912 30.77336,11.6204 29.01643,11.6508 50.12573,18.7231 73.72438,24.7001 87.71786,22.2169 199.91154,29.8635 376.47978,25.6591 164.52069,-3.9175 299.60395,-22.7756 373.4133,-52.1299 16.82285,-6.6905 23.11232,-10.3908 24.91488,-14.6581 18.26624,-43.2432 34.22304,-235.5081 41.67904,-502.1923 2.9073,-103.9897 3.4577,-150.3897 3.4754,-293 0.018,-146.4768 -0.5082,-185.324 -3.4896,-257.5 -2.5704,-62.2261 -6.286,-106.4462 -10.5228,-125.2354 -8.5473,-37.9053 -12.0264,-124.0756 -7.0178,-173.81864 2.5851,-25.67478 4.0014,-35.75831 5.0699,-36.09708 2.6863,-0.85166 3.5543,1.2892 2.5247,6.22673 -4.7022,22.54915 -7.4294,91.39859 -5.1068,128.92439 1.6077,25.9745 4.7765,57.6417 6.5543,65.5 2.9675,13.1167 3.4375,15.7301 4.9463,27.5 11.0565,86.2529 14.9376,363.1294 8.5997,613.5 -0.536,21.175 -1.4387,57.625 -2.0059,81 -2.1756,89.6513 -4.3504,140.8722 -9.5533,225 -0.8333,13.475 -1.9275,26.525 -2.4314,29 -0.5039,2.475 -1.1844,8.775 -1.5123,14 -0.8861,14.1234 -4.3006,53.7541 -6.5911,76.5 -5.6517,56.1243 -13.18428,101.2772 -20.1022,120.4995 l -2.33911,6.4995 -10.4925,5.2406 c -66.26874,33.0987 -215.87025,55.4867 -395.99249,59.2607 -40.51125,0.8488 -123.36263,1.0286 -149,0.3233 z m 45.5,-33.9968 c -111.22446,-2.8323 -212.83431,-15.1993 -291.41508,-35.4682 -27.66605,-7.1361 -61.79041,-18.3771 -65.22596,-21.4862 C 110.88304,2283.3443 102.7334,2229.6414 98.039302,2142 94.6935,2079.532 93.256977,2025.0742 91.8667,1908 c -2.452209,-206.4988 3.632144,-591.8053 13.64337,-864 3.07073,-83.48968 3.88074,-97.50547 5.70013,-98.62991 1.77408,-1.09645 2.84439,1.98265 2.30458,6.62991 -1.17567,10.12134 -5.36292,121.9572 -7.99366,213.5 -12.785365,444.8965 -13.54128,829.589 -1.96793,1001.5 4.67457,69.4363 11.32448,111.759 18.99174,120.871 2.0899,2.4837 5.92466,4.0974 23.72396,9.9828 75.22705,24.8742 165.09726,39.1749 291.23111,46.3424 29.35616,1.6682 139.79868,1.6624 169.5,-0.01 158.92821,-8.9426 277.04833,-31.7308 352.33396,-67.9736 17.97182,-8.6517 17.95661,-8.6356 21.54445,-22.8004 14.74258,-58.2037 21.00009,-238.7322 19.78919,-570.9133 -0.5574,-152.9319 -1.04162,-198.4342 -3.66568,-344.5 -3.068,-170.7775 -9.49776,-400.58559 -11.45303,-409.34645 -0.55474,-2.48558 0.37056,-4.65355 1.98614,-4.65355 1.73283,0 2.24707,5.0428 3.46715,34 4.11461,97.6558 8.32702,273.2972 12.05142,502.5 2.7618,169.9559 2.2217,456.4794 -1.0742,570 -4.33037,149.1456 -12.41575,229.2236 -24.28031,240.4732 -2.54302,2.4112 -26.7977,14.0539 -40.69909,19.5364 -103.05502,40.6432 -280.62231,63.3722 -459.5,58.8172 z m 42,-141.4614 c -25.17824,-2.1647 -73.51179,-7.2722 -99,-10.4617 -123.80518,-15.4924 -200.638,-34.1089 -233.88838,-56.6706 l -5.88837,-3.9956 0.67613,-9.6187 c 1.08957,-15.5004 12.28047,-126.136 17.15711,-169.6188 11.61926,-103.6036 22.4818,-185.4369 33.47757,-252.2043 6.20467,-37.6755 12.93302,-73.5114 14.02288,-74.6873 0.47756,-0.5153 2.22271,-0.2323 4.1347,0.6705 14.39272,6.7963 86.2336,12.012 188.30836,13.6715 138.94565,2.2589 280.33612,-4.7546 393.40179,-19.5141 11.01169,-1.4375 19.77826,-2.1562 20.27237,-1.6621 1.90345,1.9034 11.67331,56.7702 18.73702,105.2258 15.61504,107.1159 37.91116,319.4044 39.29466,374.1372 l 0.29416,11.6371 -4.09756,4.8629 c -13.70788,16.268 -47.32108,33.5875 -90.99712,46.887 -57.19681,17.4167 -146.61851,32.6507 -237.40532,40.4447 -24.44635,2.0987 -41.47967,2.3597 -58.5,0.8965 z M 109.45023,1696.9195 c -0.40493,-0.6552 -0.43484,-16.5426 -0.0665,-35.3054 3.9131,-199.3074 5.24574,-262.2027 8.6472,-408.1141 5.34584,-229.3182 9.57352,-348.81497 12.50877,-353.56431 1.04863,-1.69671 3.48676,-0.97501 4.44012,1.31431 0.51534,1.2375 12.03943,53.1 25.6091,115.25 l 24.67212,113 -0.61405,142.5 c -0.76534,177.6106 -2.67393,275.3229 -5.68829,291.2176 -0.49253,2.5971 -1.96916,6.4231 -3.28139,8.5022 -5.14251,8.1478 -18.09092,33.7931 -39.77652,78.7802 -13.58439,28.181 -23.2682,47.1223 -24.18512,47.3054 -0.84108,0.1679 -1.86055,-0.2307 -2.26548,-0.8859 z M 981.08438,1674.75 c -17.01888,-36.7164 -49.47192,-102.2736 -56.58391,-114.303 -4.00431,-6.773 -4.75502,-8.9355 -5.51749,-15.8933 -2.66977,-24.3628 -4.609,-135.2343 -5.47557,-313.0537 l -0.56531,-116 25.28384,-115 C 961.93338,892.67004 963.6444,885.48078 965.669,885.1917 c 1.39142,-0.19866 2.35524,0.33472 2.71049,1.5 3.6562,11.99331 10.61892,254.0283 18.13233,630.3083 0.85112,42.625 1.93757,96.8221 2.41432,120.438 0.47676,23.6158 0.64027,43.5283 0.36336,44.25 -0.27691,0.7216 -1.37593,1.312 -2.44227,1.312 -1.45271,0 -2.89755,-2.0684 -5.76285,-8.25 z m -778.49639,-580.5 c -0.30073,-0.9625 -1.42486,-6.025 -2.49806,-11.25 -2.66211,-12.9608 -10.45094,-46.7861 -26.48061,-115 -24.22465,-103.08744 -33.14905,-144.06005 -35.61255,-163.5 -0.62729,-4.95 -1.5556,-9.77727 -2.06293,-10.72728 -1.31458,-2.46164 0.78503,-3.36944 31.75461,-13.72967 65.9635,-22.06672 141.56718,-40.6712 211.31155,-51.99934 76.60706,-12.44281 142.89451,-16.87377 224,-14.97319 120.25262,2.81791 200.46772,17.21836 309,55.47257 13.475,4.74951 27.77534,9.76528 31.77853,11.14615 8.87115,3.06004 10.44699,4.45823 9.75919,8.65906 -0.28381,1.73344 -1.43042,11.9267 -2.54801,22.6517 -15.27724,146.60818 -29.9971,224.0888 -50.25004,264.5 -4.51162,9.0021 -11.28565,19.3885 -13.09912,20.0844 -0.66055,0.2535 -12.66241,-2.2773 -26.67078,-5.6241 C 678.64597,1046.4011 613.55684,1035.8821 535,1037.2808 c -70.70403,1.2589 -130.94464,11.5175 -292.24657,49.7681 -20.76061,4.9231 -38.16778,8.9511 -38.68261,8.9511 -0.51482,0 -1.1821,-0.7875 -1.48283,-1.75 z M 1091.3201,902 c 0,-3.575 0.1815,-5.0375 0.4033,-3.25 0.2218,1.7875 0.2218,4.7125 0,6.5 -0.2218,1.7875 -0.4033,0.325 -0.4033,-3.25 z M 57,866.31879 C 57,864.76762 55.654484,853.8563 54.009965,842.07141 47.818595,797.70306 42.563592,744.51641 40.022279,700.5 39.450697,690.6 38.549812,677.325 38.020312,671 35.048059,635.49572 34.505931,620.61555 34.595619,577 l 0.09562,-46.5 3.627438,-23 c 1.995091,-12.65 3.922505,-28.625 4.283142,-35.5 1.11284,-21.21463 -1.648871,-53.11534 -9.6095,-111 C 24.98549,302.77942 25.5121,309.99468 28.356124,297.47786 35.381251,266.55962 40.627185,236.64946 47.995891,185.5 55.538536,133.14314 58.884406,117.17533 66.120965,99 74.761749,77.297819 91.122287,59.946483 113.5,48.75168 155.28034,27.850406 227.59099,17.460629 397,8.0176815 531.03521,0.54648847 541.52686,0.33836833 647.5,3.0485792 840.43279,7.9827403 918.78789,19.68636 965.04145,50.478605 c 29.40463,19.575455 46.16665,47.995702 58.96245,99.971465 2.1732,8.82746 8.2072,37.19993 13.4089,63.04993 8.7751,43.60831 14.1489,68.9807 18.5324,87.5 1.7027,7.1939 1.7017,8.03058 -0.024,20.5 -13.6854,98.89743 -15.4392,116.44207 -14.6697,146.74687 0.3772,14.85269 1.188,23.59571 3.5474,38.25313 5.9035,36.67456 6.469,87.60904 1.6779,151.13915 -0.806,10.68711 -2.3764,33.4778 -3.4899,50.64598 -2.4347,37.53912 -6.0402,75.89651 -10.1249,107.71487 -1.6592,12.925 -3.2702,26.57588 -3.5799,30.33529 -0.3783,4.59119 -1.0317,7.01503 -1.99,7.38278 -3.1361,1.20346 -3.2542,-1.50233 -0.8189,-18.76278 5.4037,-38.29773 9.7897,-83.18547 13.0021,-133.06736 0.8363,-12.98663 2.173,-32.33663 2.9704,-43 3.7464,-50.10201 4.339,-98.69228 1.5176,-124.43065 -0.6003,-5.47651 -2.5094,-18.50728 -4.2424,-28.95728 -2.9644,-17.87502 -3.1514,-20.53945 -3.1581,-45 -0.01,-32.50423 3.8304,-68.99337 13.5204,-128.5 1.6569,-10.175 3.0285,-20.075 3.0481,-22 0.02,-1.925 -2.024,-12.56093 -4.5413,-23.6354 -2.5173,-11.07447 -9.0785,-42.49168 -14.5804,-69.81601 C 1017.0062,132.1038 1010.2032,109.52496 994.45197,85.258428 987.68398,74.831608 973.39414,60.346977 963.45776,53.841725 912.78464,20.666536 823.05884,9.415878 577.5,5.4467413 537.89733,4.8066161 507.6462,5.8707763 404.5,11.532454 232.50472,20.973247 160.9075,30.84833 118.29268,51.007744 96.280972,61.420628 84.156405,72.432855 74.026726,91.212623 65.058544,107.83905 60.041125,129.29863 51.98159,185.5 c -2.760539,19.25 -5.499414,37.925 -6.08639,41.5 -3.457185,21.05611 -8.495583,47.85235 -11.983457,63.73287 l -4.004526,18.23287 4.50697,29.26713 C 48.397766,429.03871 50.504158,465.1316 44.030047,503 c -4.546725,26.59473 -5.213429,34.33483 -5.740366,66.6428 -0.521036,31.94618 0.306307,56.34326 3.233711,95.3572 0.804748,10.725 2.144848,30.3 2.977999,43.5 2.890935,45.8024 6.987511,86.40076 13.168101,130.5 4.438812,31.67145 4.320035,29.43048 1.580508,29.81955 -1.877013,0.26658 -2.25,-0.14798 -2.25,-2.50076 z"
         style="fill:#777777" />
      <path
         id="path37"
         d="m 440.5,2383.3232 c -74.33561,-1.7034 -144.4294,-8.3897 -197.39549,-18.8298 -38.67027,-7.6223 -65.30038,-15.626 -106.60451,-32.0404 -14.3,-5.6829 -28.925,-11.1087 -32.5,-12.0575 -3.575,-0.9487 -7.082151,-2.4383 -7.793668,-3.3102 -5.857094,-7.1773 -15.951708,-62.383 -21.683865,-118.5853 -2.012221,-19.7293 -6.465339,-65.4938 -7.541141,-77.5 -3.901554,-43.5422 -10.450639,-168.4435 -11.430626,-218 -0.26647,-13.475 -0.948045,-38.225 -1.514611,-55 -4.008413,-118.682 -5.375701,-227.5292 -4.72314,-376 0.620297,-141.1301 1.937985,-196.9867 6.239699,-264.5 2.455701,-38.541 6.509905,-73.2739 9.458008,-81.028 2.677713,-7.0429 6.969892,-59.6442 7.667967,-93.972 0.656276,-32.2724 -1.365786,-74.12225 -4.288135,-88.75 -0.446892,-2.23691 -0.190695,-2.75 1.373131,-2.75 1.713846,0 2.048795,1.22115 3.085765,11.25 3.327558,32.18181 4.216057,78.6111 2.129271,111.2671 -1.667469,26.094 -4.946959,56.4055 -7.056504,65.2214 -6.780318,28.3352 -10.714116,84.6207 -14.136088,202.2615 -1.644129,56.522 -1.631173,309.0854 0.01962,382.5 5.871758,261.1305 15.607734,433.2334 30.23703,534.5 4.766115,32.9919 11.84036,64.0579 15.200319,66.7511 0.691332,0.5541 3.945738,1.7788 7.232008,2.7215 3.28627,0.9428 17.01127,6.119 30.5,11.5027 36.89781,14.727 57.37083,21.2621 89.02496,28.4175 51.15957,11.5646 108.11654,18.2303 185,21.6507 30.48233,1.3561 148.89126,1.3371 192.19951,-0.031 169.92511,-5.3672 307.25816,-26.8781 371.22036,-58.1453 4.8551,-2.3734 9.44698,-5.2607 10.20418,-6.4164 3.77413,-5.76 10.38885,-35.0712 14.77048,-65.451 17.14747,-118.8908 28.78807,-356.6916 31.55757,-644.6715 2.3076,-239.9608 -4.0526,-436.1093 -15.429,-475.8285 -1.4993,-5.2346 -4.5058,-31.7912 -6.6795,-59 -2.736,-34.2476 -1.5555,-88.64476 2.7344,-126 2.0254,-17.63654 2.2704,-18.68507 4.2637,-18.24628 0.9121,0.20078 1.543,0.90932 1.402,1.57452 -2.0947,9.88558 -5.1813,43.93391 -6.2054,68.4532 -1.7978,43.04306 2.1353,105.84536 8.4683,135.21856 4.2011,19.4852 7.346,52.1928 9.9515,103.5 6.5132,128.254 7.139,361.1362 1.5123,562.8352 -0.5728,20.5344 -1.4657,55.8594 -1.9842,78.5 -1.6439,71.7859 -7.6809,189.6141 -11.9718,233.6648 -0.509,5.225 -1.8593,20.975 -3.0007,35 -4.6583,57.2403 -11.0418,109.2386 -17.09221,139.2282 -3.57403,17.7151 -8.17142,32.7999 -10.66769,35.0023 -4.53923,4.005 -26.65808,13.5139 -46.7538,20.0995 -55.11908,18.0633 -141.45984,31.8971 -247.5,39.6553 -60.64042,4.4366 -180.14355,6.973 -251.5,5.3379 z m 4,-35.4033 c -118.07837,-5.0775 -222.02129,-21.1265 -298,-46.012 -11.55,-3.783 -22.04979,-7.4308 -23.33286,-8.1064 -16.66215,-8.7722 -26.283504,-109.928 -30.179902,-317.3015 -1.250941,-66.5775 -1.24668,-288.2287 0.0074,-383.5 2.874803,-218.4009 9.172492,-471.8024 14.998542,-603.5 1.7055,-38.55272 2.11896,-43.5 3.6355,-43.5 1.72149,0 1.72154,-0.0172 -0.10512,39 -8.60901,183.8876 -16.513606,572.7295 -16.496613,811.5 0.02099,294.9161 8.828133,459.3462 26.245203,490 2.26902,3.9934 2.3081,4.0119 23.86168,11.2496 76.7419,25.7701 181.77031,41.995 305.8662,47.2506 30.20687,1.2793 110.54448,1.2806 141.5,0 160.04417,-6.6091 294.39433,-32.0777 370.5,-70.2352 11.82859,-5.9306 12.62639,-6.522 14.85307,-11.0109 8.33744,-16.8081 15.1651,-85.0981 19.12188,-191.2563 8.21952,-220.5252 4.09212,-744.0133 -8.55442,-1085 -2.03127,-54.76836 -2.14419,-62.43593 -0.92053,-62.50485 1.56452,-0.0881 2.24694,9.39281 3.92313,54.50485 9.38704,252.636 15.39384,682.5135 12.68084,907.5 -2.6767,221.9771 -9.00236,333.4305 -21.12933,372.2807 -3.467,11.1069 -4.55217,12.1826 -19.41368,19.2443 -81.41689,38.6867 -208.27487,62.6892 -367.06096,69.4507 -27.11652,1.1547 -124.68259,1.1189 -152,-0.056 z m 87,-139.5624 c -154.78639,-13.0146 -270.6348,-33.2996 -324.35664,-56.7948 -9.90478,-4.3318 -22.45781,-11.7745 -24.91875,-14.7742 -1.04188,-1.27 -0.6221,-8.3962 2.29274,-38.9216 16.46584,-172.4366 36.99671,-335.2398 54.08377,-428.8669 4.16905,-22.8439 7.26842,-38.2029 7.82061,-38.7551 0.21582,-0.2158 1.77907,0.3247 3.47387,1.2011 17.48892,9.0439 136.42042,15.4592 263.6044,14.2191 127.93223,-1.2473 209.68081,-6.4534 328.26541,-20.9051 6.20313,-0.756 9.59733,-0.7973 10.26968,-0.1249 3.41104,3.411 18.35278,98.3331 29.41451,186.8649 12.78776,102.346 28.53258,265.8613 28.5469,296.4694 l 0.004,7.4694 -7.75,7.5708 c -4.2625,4.1639 -10.98081,9.7036 -14.92957,12.3105 -30.43384,20.0919 -85.01847,37.6382 -160.52691,51.6015 -65.35136,12.085 -169.95419,23.5665 -195.29352,21.4359 z m 6.07775,-274.7839 c 20.11225,-6.3536 35.24512,-21.4598 38.39108,-38.3236 3.2684,-17.5201 -11.12646,-37.9528 -32.99911,-46.8404 -9.52167,-3.869 -22.8145,-5.7621 -31.86561,-4.538 -22.65808,3.0641 -39.41042,13.8524 -47.76735,30.7615 -3.45624,6.9932 -3.83094,8.5121 -3.77812,15.315 0.0737,9.4895 2.692,16.4824 9.18552,24.5324 15.27632,18.9381 44.05485,26.9207 68.83359,19.0931 z M 110.2599,1696.8002 c -0.75121,-0.9143 -0.80884,-14.0631 -0.19417,-44.3002 0.48077,-23.65 1.57115,-77.65 2.42307,-120 7.12571,-354.2265 13.33439,-580.10905 17.15809,-624.24138 0.62027,-7.15896 1.87725,-9.79747 4.02626,-8.45142 0.60833,0.38104 12.46254,52.65578 26.34267,116.1661 l 25.23661,115.4733 -0.67042,109.0267 c -1.1626,189.0646 -3.06585,297.5863 -5.58933,318.6987 -0.77791,6.5083 -1.68859,9.0109 -6.00412,16.5 -5.86109,10.1711 -24.56812,47.759 -44.95516,90.328 -7.77043,16.225 -14.70792,30.0851 -15.41664,30.8002 -1.05738,1.0669 -1.48023,1.0669 -2.35686,0 z M 127.02609,1655 c 13.629,-28.6531 36.15359,-73.6483 41.6113,-83.1229 4.31978,-7.4992 4.40651,-7.832 5.34317,-20.5 2.48725,-33.6396 4.96874,-205.6999 5.01716,-347.8771 l 0.0252,-74 -22.22999,-101.6981 c -12.2265,-55.93401 -22.34317,-101.58499 -22.4815,-101.44666 -2.28693,2.28693 -10.94764,331.13216 -16.75397,636.14476 -0.81666,42.9 -1.74181,86.5431 -2.0559,96.9848 -0.35446,11.7837 -0.21661,18.6112 0.36343,18 0.51397,-0.5417 5.53647,-10.6598 11.1611,-22.4848 z m 849.00317,8.25 c -18.80256,-39.6191 -43.78679,-90.0114 -49.78754,-100.4198 l -6.15147,-10.6697 -1.02268,-12.3303 C 916.42439,1507.962 914.04111,1347.0384 914.01986,1199 l -0.0123,-85.5 24.81581,-113.4349 c 24.2531,-110.86277 25.94143,-117.63361 28.65548,-114.91956 3.82109,3.8211 10.82775,245.72156 18.99685,655.85446 3.18489,159.8989 3.07477,142 0.87365,142 -1.54735,0 -3.87143,-4.0548 -11.32012,-19.75 z M 203.09144,1093.8148 c -0.50861,-1.2731 -3.02174,-11.9898 -5.58474,-23.8148 -2.56299,-11.825 -10.95169,-48.275 -18.64155,-81 -30.14774,-128.29671 -38.28153,-165.56664 -40.80276,-186.9626 -0.42369,-3.59557 -1.09753,-7.29448 -1.49742,-8.21981 -1.04386,-2.41543 1.57977,-3.55125 30.6043,-13.24918 C 266.32585,747.43732 376.50645,724.59719 476,716.54864 c 68.24369,-5.52058 151.781,-4.57612 221.74797,2.50705 52.27995,5.29261 99.68138,14.51232 151.10246,29.38987 31.38207,9.0797 100.89801,32.90288 103.44626,35.45113 1.16028,1.16028 -4.20855,53.86039 -10.91117,107.10331 -13.71298,108.93046 -27.97894,166.8844 -48.67822,197.75 -3.17868,4.7399 -4.76607,6.25 -6.56976,6.25 -1.30809,0 -18.41166,-3.8032 -38.00794,-8.4516 C 782.15587,1070.899 726.44862,1058.59 694,1052.492 c -127.84484,-24.0253 -196.65847,-21.9524 -348,10.4832 -27.95936,5.9923 -133.75181,30.5938 -140.24191,32.6126 -1.18525,0.3687 -2.03742,-0.1979 -2.66665,-1.773 z M 889.73082,1081.75 c 21.6771,-33.506 36.97935,-106.72117 52.7212,-252.25 2.43923,-22.55 4.1229,-41.29123 3.74147,-41.64718 -1.11503,-1.04057 -56.05296,-20.16543 -75.55615,-26.30243 C 795.64114,737.95161 741.24964,727.75511 656,721.31337 c -33.829,-2.55623 -138.74859,-2.5607 -170,-0.007 -60.07176,4.90828 -110.77262,12.34768 -169,24.7976 -53.04869,11.34264 -120.90693,30.34217 -164.88307,46.16539 l -8.38307,3.01634 0.55973,6.60727 c 1.43743,16.96778 18.76153,96.58393 40.71366,187.10728 7.65299,31.55845 19.70772,83.71435 21.11481,91.35515 0.69431,3.7704 1.79107,7.0581 2.43723,7.306 0.64617,0.248 19.56076,-3.8815 42.03243,-9.1766 49.90719,-11.7598 115.39692,-25.8281 148.65163,-31.9327 106.04585,-19.467 173.36081,-20.3145 273.18876,-3.4393 45.16049,7.6341 122.4644,24.1256 189.06789,40.3346 12.1,2.9447 22.34658,5.3987 22.77017,5.4535 0.4236,0.055 2.88089,-3.1631 5.46065,-7.1506 z M 58.25,868.29167 c -0.6875,-0.25209 -1.251296,-1.88334 -1.252881,-3.625 C 56.995534,862.925 55.670524,852.05 54.052652,840.5 48.347483,799.77076 43.540447,752.32656 40.982402,711.5 40.396564,702.15 39.048718,682.575 37.987189,668 34.647012,622.13875 33.694344,594.28736 34.378521,562.5 c 0.59709,-27.74123 0.914392,-31.69408 4.214269,-52.5 7.539236,-47.53533 6.101847,-72.34877 -11.064211,-191 -1.366909,-9.44803 -1.363357,-11.15122 0.03546,-17 6.789821,-28.38992 12.876513,-62.55471 20.39896,-114.5 8.2108,-56.69862 11.512965,-72.29372 18.970427,-89.591462 C 72.355852,85.331099 76.421786,78.902644 84.354348,70.365141 96.525879,57.265404 113.67587,47.290176 137.5,39.453181 180.69781,25.243172 248.14855,16.89733 383.5,9.0150092 518.74604,1.1388268 543.7292,0.53900137 636.75782,2.934494 708.89922,4.7921393 752.65283,6.7704949 794.5,10.066937 c 103.65228,8.165038 154.59359,22.936911 187.26501,54.302781 19.89389,19.098925 32.29849,45.205782 43.24679,91.017562 1.6816,7.03664 7.5172,34.91563 12.968,61.9533 5.4508,27.03768 11.7621,57.25942 14.0251,67.15942 2.263,9.9 4.3751,19.48418 4.6935,21.29819 0.5918,3.3716 0.1499,7.05624 -6.6808,55.70181 -11.0042,78.36812 -12.0076,104.80212 -5.5042,145 2.7135,16.77163 2.8272,18.04648 4.439,49.75242 1.1698,23.01385 0.044,63.04427 -2.9316,104.24758 -1.0725,14.85 -2.6499,38.025 -3.5054,51.5 -3.1272,49.25945 -12.8374,138.65891 -15.3375,141.20836 -0.382,0.3896 -1.2122,0.38849 -1.8447,-0.002 -0.8166,-0.50464 -0.8916,-2.16038 -0.2588,-5.70836 4.6622,-26.13881 12.3232,-102.48411 14.9012,-148.49755 0.5701,-10.175 1.266,-20.525 1.5464,-23 3.3956,-29.97096 5.501,-107.76563 3.5724,-132 -0.6347,-7.975 -2.7925,-24.85 -4.7952,-37.5 -3.3511,-21.16772 -3.6431,-24.71278 -3.6646,-44.5 -0.033,-30.14711 3.3975,-63.21288 12.8835,-124.18562 l 4.4629,-28.68563 -5.4072,-24.31437 C 1045.5998,271.44147 1039.0609,240.025 1034.0429,215 1020.0469,145.20087 1014.2247,123.49841 1003.5257,101.24655 970.60709,32.781871 903.81652,14.161175 665.5,7.0075988 593.52523,4.8471232 535.70637,4.6369073 499,6.4022434 323.38826,14.848018 249.18247,20.567089 192.75132,30.00496 152.43957,36.74693 122.55308,46.276545 103.46771,58.473954 94.880513,63.962014 83.7069,75.198223 78.018856,84.065379 65.605916,103.41605 60.533663,122.99168 51.476954,186.5 c -5.978519,41.92315 -9.718355,64.28664 -15.134271,90.5 -7.410527,35.8674 -7.16234,29.91642 -2.502322,60 10.35835,66.87018 12.619602,88.91481 12.616863,123 -0.0021,26.23151 -0.148674,28.37641 -3.17746,46.5 -3.744147,22.40415 -4.957791,34.15089 -5.837436,56.5 -0.6982,17.73911 0.750271,61.17183 3.098313,92.90361 0.797536,10.77802 2.122355,30.17139 2.944043,43.09639 3.626561,57.04516 6.813202,89.09188 14.154773,142.34862 1.959812,14.21675 3.180176,26.198 2.711919,26.625 -0.468257,0.42701 -1.413876,0.57013 -2.101376,0.31805 z"
         style="fill:#676767" />
      <path
         id="path35"
         d="m 424.5,2382.3923 c -97.24627,-4.1446 -157.06226,-11.394 -214.87223,-26.0415 -24.0807,-6.1015 -43.12583,-12.4835 -74.12777,-24.8404 -14.3,-5.6998 -28.25,-10.9112 -31,-11.5809 -2.75,-0.6697 -5.769958,-1.6093 -6.711018,-2.0879 C 91.8013,2314.7962 80.966302,2256.8603 74.535006,2193.5 62.095447,2070.9471 55.786393,1939.7781 50.846424,1701 c -1.556654,-75.2424 -1.565058,-303.359 -0.0133,-361 3.241101,-120.3927 7.48523,-183.7389 14.136775,-211 3.248684,-13.3146 6.445612,-46.6623 8.113108,-84.6293 1.197818,-27.273 0.190277,-61.39445 -2.592524,-87.79866 -0.807345,-7.66038 -1.240481,-14.15538 -0.962525,-14.43333 1.368143,-1.36814 2.287535,2.45378 3.334432,13.86129 2.590712,28.22966 3.366319,49.3776 2.787322,76 -0.806254,37.0716 -4.896046,85.0733 -8.218239,96.4571 -5.730273,19.6352 -9.991181,77.0486 -13.658647,184.0429 -1.734841,50.6121 -1.73522,353.0506 -5.29e-4,423 5.283774,213.062 12.111567,347.7603 23.266494,459 5.457465,54.4232 13.738857,103.1662 19.890633,117.0734 1.803605,4.0773 2.262424,4.3989 9.234236,6.4717 4.03499,1.1996 18.36134,6.5785 31.83634,11.9531 50.46952,20.1299 89.07561,30.3509 145,38.3891 72.85352,10.4715 148.82563,13.778 270.5,11.773 69.53675,-1.1459 84.88439,-1.6618 124,-4.1684 139.23469,-8.9223 247.02558,-28.9981 300.42299,-55.953 6.90045,-3.4834 7.92448,-5.0315 11.50843,-17.399 23.16588,-79.9407 40.08788,-376.874 42.20828,-740.6399 1.3096,-224.6575 -4.5026,-386.4914 -15.587,-434 -1.9658,-8.4259 -3.759,-23.0413 -6.2571,-51 -1.9712,-22.0613 -1.7009,-97.11625 0.4214,-117 3.0195,-28.29006 3.9319,-34 5.4329,-34 0.9173,0 1.2229,0.76319 0.9009,2.25 -4.9169,22.70481 -7.9281,91.0704 -5.6489,128.25 2.1803,35.5653 5.0255,61.7692 8.1435,75 5.7647,24.4621 9.5337,77.3956 13.03,183 1.679,50.7129 2.31,270.4414 1.0138,353 -2.6934,171.5437 -8.5887,336.0794 -15.0664,420.5 -8.7159,113.59 -16.1342,175.7416 -25.06507,210 -5.02294,19.2677 -5.04285,19.3021 -13.82417,23.8633 -58.05798,30.1568 -183.53774,51.3168 -351.13356,59.2126 -20.42746,0.9624 -186.58686,2.0372 -203.5,1.3164 z m 43,-34.0557 c -95.47573,-3.1135 -183.15319,-13.0671 -254,-28.8354 -26.19441,-5.8301 -45.50613,-11.1377 -70,-19.2389 -15.64291,-5.1738 -20.57537,-7.2276 -22.64108,-9.4277 -2.89556,-3.0839 -7.80711,-17.3558 -10.26732,-29.8346 -18.790522,-95.3098 -23.507736,-422.091 -13.056814,-904.5 3.189224,-147.2128 6.928804,-272.7384 10.993024,-369 1.59583,-37.79743 1.83664,-40.5 3.60873,-40.5 0.75419,0 0.90321,2.27212 0.47549,7.25 -1.26017,14.66628 -4.93599,111.7603 -7.58114,200.25 -11.051802,369.723 -13.525779,755.7151 -6.015214,938.5 5.233444,127.3665 13.851444,193.7836 25.754564,198.4847 7.99343,3.157 36.5667,12.3635 49.62729,15.9902 133.27644,37.0084 334.78112,49.0087 520.10247,30.9737 113.98132,-11.0923 210.75017,-33.9829 270.6434,-64.0205 9.42546,-4.7271 11.07514,-5.9362 12.8524,-9.4199 21.81908,-42.7689 29.2957,-385.0576 19.99754,-915.5082 -2.8594,-163.1256 -7.80485,-346.493 -11.3005,-419 -0.10606,-2.2 0.25716,-4.225 0.80716,-4.5 3.31873,-1.65937 9.27943,210.7423 14.5789,519.5 1.6714,97.3764 2.3304,413.4109 1.026,492 -2.1322,128.4687 -5.48976,207.9516 -11.17306,264.5 -3.57175,35.5387 -8.80401,60.7539 -13.96928,67.3205 -3.4261,4.3556 -34.08162,18.2275 -59.82038,27.0693 -85.22616,29.277 -196.06863,46.4456 -333.14218,51.6011 -23.22457,0.8734 -94.85377,1.0842 -117.5,0.3457 z m 52,-141.4775 c -126.94072,-10.9927 -234.09248,-28.6319 -291.33138,-47.9585 -16.63355,-5.6162 -36.87915,-15.2096 -42.6794,-20.2235 l -3.90251,-3.3734 1.76171,-19.4019 c 9.55752,-105.258 25.08107,-241.7414 37.75034,-331.9018 8.93704,-63.6001 23.56514,-150.0639 25.75929,-152.2581 0.42505,-0.425 2.12867,-0.096 3.78583,0.7303 10.11297,5.045 67.37491,10.1468 140.35612,12.505 40.21673,1.2995 150.06252,1.3115 191,0.021 93.61839,-2.9515 170.15512,-8.5015 241.48897,-17.5112 15.57052,-1.9667 27.36186,-3.036 27.87033,-2.5275 3.18396,3.184 17.70443,93.1532 27.60491,171.0407 13.77746,108.388 29.2976,266.3438 30.28356,308.2103 l 0.25223,10.7104 -6.5,6.612 c -15.33257,15.5969 -41.40952,29.1534 -79.71856,41.4431 -59.09503,18.9578 -149.00857,34.704 -245.65526,43.0205 -24.11749,2.0754 -41.19644,2.3289 -58.12618,0.8628 z m 54.5,-4.3774 c 133.82051,-11.5232 246.1368,-35.3335 298,-63.174 17.7044,-9.5038 34,-23.1636 34,-28.5005 0,-5.0003 -2.15382,-35.6802 -4.54966,-64.8072 -8.86191,-107.7371 -24.0972,-241.5804 -38.01899,-334 -5.14469,-34.153 -13.21547,-79.6993 -14.57626,-82.259 -0.61225,-1.1517 -1.69812,-1.5915 -3.1451,-1.2738 -3.45482,0.7587 -23.14348,3.2396 -47.20999,5.9489 -53.63891,6.0385 -113.69871,10.3708 -189,13.6333 -39.52963,1.7127 -166.50279,2.3452 -208.5,1.0386 -72.46682,-2.2546 -120.10623,-5.7964 -143.8546,-10.6951 -4.04503,-0.8343 -7.49856,-1.3731 -7.6745,-1.1971 -0.70743,0.7074 -7.81501,39.0742 -12.46835,67.3042 -11.37085,68.9825 -21.29176,143.0243 -32.42576,242 -7.05894,62.7504 -18.56247,177.4178 -18.57265,185.1325 -0.004,2.7514 0.77536,3.6404 6.4015,7.306 35.80929,23.3307 140.19789,45.3194 285.09436,60.053 53.62676,5.4529 67.76713,5.9644 96.5,3.4902 z M 110.39254,1695.5806 c -0.37452,-0.976 -0.381,-16.6934 -0.0144,-34.9276 0.36659,-18.2341 1.33332,-66.678 2.14829,-107.653 7.07356,-355.6449 13.72659,-600.1576 17.45169,-641.38566 0.81974,-9.07257 2.04049,-12.92907 3.59921,-11.37035 0.33586,0.33586 11.85299,51.83086 25.59361,114.43331 l 24.98295,113.8227 -0.55262,143 c -0.68149,176.3465 -2.58095,275.5739 -5.57764,291.3755 -0.48454,2.5549 -2.51555,7.3406 -4.51337,10.6349 -5.17158,8.5276 -25.62065,49.428 -43.99235,87.9896 -8.64712,18.15 -16.33457,33.6424 -17.08322,34.4275 -1.17492,1.2322 -1.45437,1.1848 -2.04214,-0.3469 z M 126.00735,1661 c 14.01228,-29.5129 40.39483,-82.2407 44.69554,-89.3279 2.82331,-4.6525 3.70485,-7.3751 4.37111,-13.5 2.46995,-22.7062 4.42308,-135.6309 5.48574,-317.1721 l 0.64097,-109.5 -23.18252,-106 C 145.26781,967.2 134.46546,919.11532 134.01298,918.64515 132.9398,917.53 132.2104,926.92739 130.99718,957.5 c -3.74313,94.325 -8.3018,273.2338 -13.98877,549 -2.99413,145.188 -3.41018,178.1466 -2.23439,177 0.56401,-0.55 5.61901,-10.675 11.23333,-22.5 z m 853.06429,7.2343 C 971.27362,1651.5737 929.67202,1567.471 924.04934,1557 l -4.02731,-7.5 -0.98928,-18 c -2.33479,-42.4814 -5.01044,-239.131 -5.02067,-369 l -0.004,-46 25.02659,-114.4808 c 13.76463,-62.96448 25.46273,-114.91698 25.99577,-115.45002 0.61193,-0.61193 1.31007,-0.619 1.89398,-0.0192 3.89283,3.9989 10.56832,230.22752 18.58838,629.95002 0.84971,42.35 1.94249,96.5692 2.42839,120.4871 0.4859,23.9178 0.67126,43.8303 0.41192,44.25 -1.41515,2.2897 -3.47422,-0.5948 -9.28185,-13.0028 z m 5.51214,-9.4843 c -0.30249,-5.6375 -0.79863,-26.225 -1.10253,-45.75 -3.66105,-235.216 -15.45348,-694.06784 -18.14412,-706 -0.53058,-2.35297 -0.61379,-2.38237 -1.41494,-0.5 -0.46817,1.1 -10.99218,48.49336 -23.3867,105.3186 L 918,1115.1372 l 0.01,60.1814 c 0.0226,136.0796 2.64188,322.6359 5.04931,359.6395 l 1.00569,15.4581 4.34457,7.5419 c 5.17619,8.9856 31.2398,61.1319 45.1294,90.2919 5.43605,11.4125 10.26871,20.75 10.73925,20.75 0.47054,0 0.60803,-4.6125 0.30554,-10.25 z m -780.91371,-564.5 c -0.24638,-0.4125 -0.98503,-3.45 -1.64143,-6.75 -2.40725,-12.1022 -10.52738,-47.539 -25.54953,-111.5 -8.46098,-36.025 -18.29407,-78.325 -21.85131,-94 -11.07441,-48.79949 -18.45595,-88.46004 -16.78152,-90.16605 1.14317,-1.16474 31.67873,-11.6966 53.18068,-18.34228 99.91449,-30.88092 201.14497,-50.43855 297.47304,-57.47152 56.73277,-4.1421 138.22289,-3.10536 198.5,2.52536 61.83156,5.77592 114.12391,15.99225 171.94965,33.59371 31.30416,9.52862 90.61016,30.12019 92.73878,32.19974 0.87833,0.85809 0.94807,3.2485 0.26726,9.16104 -0.50665,4.4 -2.75352,24.65 -4.99305,45 -13.87643,126.0914 -27.02366,193.4674 -45.50755,233.214 -4.65536,10.0106 -12.06272,21.9215 -14.1251,22.7129 -0.70997,0.2724 -13.56216,-2.4307 -28.56042,-6.0069 C 720.7964,1055.5216 659.85698,1043.8064 595.5,1037.8083 c -18.42978,-1.7177 -80.29089,-1.7125 -99.5,0.01 -62.46688,5.5961 -126.88463,18.0133 -267.81191,51.6236 -26.22986,6.2556 -23.92452,5.8034 -24.51802,4.8097 z M 240,1083.09 c 127.48603,-30.0985 181.50087,-40.6611 241.35784,-47.1976 24.40287,-2.6649 80.38038,-3.6992 105.30104,-1.9457 62.31052,4.3844 121.98778,15.4717 264.67226,49.1728 37.32801,8.8166 34.85313,8.7171 39.35637,1.5835 22.59013,-35.7851 36.98006,-103.71254 53.31202,-251.65857 4.01914,-36.40812 4.76737,-45.68886 3.75919,-46.62768 C 946.37419,785.12749 912.69736,773.10299 884.5,763.82988 795.14794,734.44516 724.67861,722.14358 622,718.00617 c -129.91914,-5.23505 -251.58901,9.18641 -385,45.63381 -32.37739,8.84539 -86.88161,26.10425 -93.38617,29.57089 -1.66768,0.88881 -1.82005,1.83251 -1.31538,8.14719 1.23143,15.40829 11.71574,64.50556 33.33871,156.12282 17.26557,73.15482 22.9111,97.42032 26.97756,115.95442 1.92295,8.7644 3.73417,16.3202 4.02493,16.7907 0.29077,0.4704 1.27829,0.6244 2.19451,0.3421 0.91621,-0.2824 14.94084,-3.6475 31.16584,-7.4781 z M 58.551599,866.91722 C 57.722785,864.63183 51.29318,816.43975 48.556429,792 46.143085,770.44835 42.77998,731.65883 41.490266,710.5 c -0.335247,-5.5 -1.472411,-22.15 -2.52703,-37 -3.315567,-46.6862 -3.963304,-61.87236 -3.960808,-92.86093 0.0029,-35.76651 0.961796,-49.87437 5.073238,-74.63907 7.022448,-42.29874 4.841351,-76.82196 -11.702871,-185.23749 -0.901198,-5.90561 -1.378386,-12.20561 -1.060417,-14 C 27.630346,304.96813 29.933547,293.825 32.430603,282 38.222165,254.57361 42.671061,228.38121 48.991414,184.5 56.568145,131.89596 59.570774,117.49299 66.594159,100.06343 78.218094,71.216932 98.7282,53.376665 134.41428,41.071582 185.96502,23.296133 266.24431,14.831499 481.12061,4.5149236 509.51195,3.1518074 533.50886,1.7419618 534.44708,1.3819333 535.3853,1.0219048 553.33102,1.2468443 574.32647,1.8817989 595.32191,2.5167535 630.725,3.4890708 653,4.0425041 891.10946,9.95845 964.53703,28.000504 1000.795,89.5 c 8.4726,14.37077 16.9224,37.73161 23.3302,64.5 1.6458,6.875 6.9866,32.3 11.8685,56.5 9.924,49.19413 13.6925,67.0734 18.0817,85.78723 2.6361,11.23955 2.8767,13.47867 1.9881,18.5 -2.1575,12.19146 -11.1047,76.62223 -13.0135,93.71277 -5.0001,44.77025 -4.8312,64.1803 0.8734,100.37581 4.1234,26.16292 5.5216,51.61621 4.7309,86.12419 -0.6449,28.14476 -1.202,38.83389 -4.1177,79 -0.8185,11.275 -2.19,31.075 -3.0479,44 -0.8579,12.925 -2.4523,33.175 -3.5431,45 -1.9774,21.43559 -9.6615,86.22608 -10.5456,88.91722 -0.2882,0.87734 -0.8211,1.06167 -1.3989,0.48386 -0.5778,-0.5778 -0.2124,-6.06987 0.9594,-14.41721 5.2437,-37.35611 9.8329,-82.97309 12.5235,-124.48387 0.8556,-13.2 2.4378,-36.375 3.5161,-51.5 5.4533,-76.49701 4.9232,-112.19183 -2.3094,-155.5 -3.0313,-18.15107 -3.1723,-20.22871 -3.1565,-46.5 0.02,-33.73596 2.474,-57.92496 12.1216,-119.5 5.2471,-33.48912 5.316,-29.53944 -1.0116,-58 -3.057,-13.75 -9.86,-46.31521 -15.1179,-72.36713 -13.2796,-65.79877 -18.8355,-86.77898 -28.5478,-107.80121 C 993.20867,76.855998 974.08705,57.081964 949.0847,44.530832 911.80723,25.817623 851.35706,15.343701 750,10.036346 702.63737,7.5562992 667.267,6.4042894 594.5,4.9717253 538.61671,3.8715507 519.60283,4.4394319 409,10.511991 226.73179,20.51928 156.03443,30.504982 113.67331,52.225631 86.183368,66.321089 71.783617,85.1442 63.007356,118.45531 59.02411,133.57409 56.878315,145.73448 51.00035,186.5 43.775631,236.60567 39.13916,263.16053 31.914152,295.81399 l -2.945895,13.31399 2.975329,18.68601 c 12.133549,76.20252 16.579995,122.79985 14.307446,149.93746 -0.63323,7.5617 -2.290092,20.72355 -3.681917,29.24855 -4.049978,24.80633 -4.663358,31.91147 -5.266075,61 -0.595647,28.74735 0.382248,55.5579 3.665665,100.5 1.044741,14.3 2.404148,34.1 3.020903,44 2.635789,42.309 7.772055,92.00789 13.900267,134.5 1.546759,10.725 2.444055,19.91275 1.99399,20.41722 -0.478262,0.53607 -1.031874,0.3283 -1.332266,-0.5 z"
         style="fill:#282828" />
    </g>
  </g>
</svg>
