<?xml version="1.0" encoding="UTF-8" standalone="no"?>
<svg
   xmlns:dc="http://purl.org/dc/elements/1.1/"
   xmlns:cc="http://creativecommons.org/ns#"
   xmlns:rdf="http://www.w3.org/1999/02/22-rdf-syntax-ns#"
   xmlns:svg="http://www.w3.org/2000/svg"
   xmlns="http://www.w3.org/2000/svg"
   viewBox="0 0 1457.3333 3188"
   height="3188"
   width="1457.3333"
   id="svg2"
   version="1.1">
  <metadata
     id="metadata8">
    <rdf:RDF>
      <cc:Work
         rdf:about="">
        <dc:format>image/svg+xml</dc:format>
        <dc:type
           rdf:resource="http://purl.org/dc/dcmitype/StillImage" />
        <dc:title></dc:title>
      </cc:Work>
    </rdf:RDF>
  </metadata>
  <defs
     id="defs6" />
  <g
     style="display:inline"
     id="layer1">
    <g
       transform="translate(4.8954632,24.477202)"
       id="g66">
      <path
         id="path80"
         d="m 1274,3172.6667 c -2.4373,-1.5751 -0.3321,-1.5751 3.3333,0 1.7583,0.7556 1.9854,1.1709 0.6667,1.2192 -1.1,0.04 -2.9,-0.5083 -4,-1.2192 z m 9.3333,0.033 c 0,-0.7469 1.8434,-0.9491 4.3333,-0.4752 6.0764,1.1567 6.27,1.7752 0.5556,1.7752 -2.6889,0 -4.8889,-0.5849 -4.8889,-1.3 z m 11.7333,-0.3 c 1.2445,-1.2444 1.9556,-1.2444 3.2,0 1.2445,1.2444 0.8889,1.6 -1.6,1.6 -2.4889,0 -2.8444,-0.3556 -1.6,-1.6 z m 6.9334,0.2667 c 0,-0.7334 0.6,-1.3334 1.3333,-1.3334 0.7333,0 1.3333,0.6 1.3333,1.3334 0,0.7333 -0.6,1.3333 -1.3333,1.3333 -0.7333,0 -1.3333,-0.6 -1.3333,-1.3333 z m 12,0 c 0,-0.7334 0.6354,-1.3334 1.412,-1.3334 0.7766,0 1.0412,0.6 0.588,1.3334 -0.4533,0.7333 -1.0887,1.3333 -1.4121,1.3333 -0.3233,0 -0.5879,-0.6 -0.5879,-1.3333 z m 7.3333,0 c -0.4532,-0.7334 -0.1886,-1.3334 0.588,-1.3334 0.7766,0 1.412,0.6 1.412,1.3334 0,0.7333 -0.2646,1.3333 -0.588,1.3333 -0.3234,0 -0.9588,-0.6 -1.412,-1.3333 z m 4.6667,0 c 0,-0.7334 0.6,-1.3334 1.3333,-1.3334 0.7333,0 1.3333,0.6 1.3333,1.3334 0,0.7333 -0.6,1.3333 -1.3333,1.3333 -0.7333,0 -1.3333,-0.6 -1.3333,-1.3333 z m 7.3333,0 c -0.4532,-0.7334 -0.1886,-1.3334 0.588,-1.3334 0.7766,0 1.412,0.6 1.412,1.3334 0,0.7333 -0.2646,1.3333 -0.588,1.3333 -0.3234,0 -0.9588,-0.6 -1.412,-1.3333 z m 7.3333,0 c 0,-0.7334 0.6,-1.3334 1.3334,-1.3334 0.7333,0 1.3333,0.6 1.3333,1.3334 0,0.7333 -0.6,1.3333 -1.3333,1.3333 -0.7334,0 -1.3334,-0.6 -1.3334,-1.3333 z m 8,0.1913 c 0,-0.628 1.7411,-1.078 3.869,-1 2.1278,0.079 3.5925,0.592 3.2546,1.142 -0.8518,1.3868 -7.1236,1.2619 -7.1236,-0.142 z m 12,-0.158 c 0,-0.7469 1.8435,-0.9491 4.3334,-0.4752 6.0764,1.1567 6.27,1.7752 0.5556,1.7752 -2.689,0 -4.889,-0.5849 -4.889,-1.3 z m 10.6667,-0.033 c 0,-0.7334 0.6355,-1.3334 1.412,-1.3334 0.7767,0 1.0412,0.6 0.588,1.3334 -0.4532,0.7333 -1.0887,1.3333 -1.412,1.3333 -0.3235,0 -0.588,-0.6 -0.588,-1.3333 z m 7.3333,0 c -0.4532,-0.7334 -0.1886,-1.3334 0.588,-1.3334 0.7766,0 1.412,0.6 1.412,1.3334 0,0.7333 -0.2645,1.3333 -0.588,1.3333 -0.3233,0 -0.9588,-0.6 -1.412,-1.3333 z m 7.3334,0 c -2.4374,-1.5751 -0.3322,-1.5751 3.3333,0 1.7583,0.7556 1.9855,1.1709 0.6667,1.2192 -1.1,0.04 -2.9,-0.5083 -4,-1.2192 z m 9.3333,0 c 0,-0.7334 0.6,-1.3334 1.3333,-1.3334 0.7334,0 1.3334,0.6 1.3334,1.3334 0,0.7333 -0.6,1.3333 -1.3334,1.3333 -0.7333,0 -1.3333,-0.6 -1.3333,-1.3333 z m 6,0 c -0.4532,-0.7334 -0.1887,-1.3334 0.588,-1.3334 0.7765,0 1.412,0.6 1.412,1.3334 0,0.7333 -0.2645,1.3333 -0.588,1.3333 -0.3233,0 -0.9588,-0.6 -1.412,-1.3333 z m 6,0 c 0,-0.7334 0.6,-1.3334 1.3333,-1.3334 0.7334,0 1.3334,0.6 1.3334,1.3334 0,0.7333 -0.6,1.3333 -1.3334,1.3333 -0.7333,0 -1.3333,-0.6 -1.3333,-1.3333 z m 8,0 c -2.4373,-1.5751 -0.3321,-1.5751 3.3333,0 1.7583,0.7556 1.9855,1.1709 0.6667,1.2192 -1.1,0.04 -2.9,-0.5083 -4,-1.2192 z m 12.3528,0.2462 c -0.9785,-0.6216 0.2313,-1.0462 2.9805,-1.0462 2.7492,0 3.9591,0.4246 2.9806,1.0462 -0.906,0.5755 -2.2472,1.0463 -2.9806,1.0463 -0.7333,0 -2.0745,-0.4708 -2.9805,-1.0463 z m 20.9805,-0.2462 c 0,-0.7334 0.6,-1.3334 1.3334,-1.3334 0.7333,0 1.3333,0.6 1.3333,1.3334 0,0.7333 -0.6,1.3333 -1.3333,1.3333 -0.7334,0 -1.3334,-0.6 -1.3334,-1.3333 z m -894.66661,-9.354 c -122.89605,-5.5366 -216.26694,-18.3836 -290.36964,-39.9523 -27.63288,-8.0431 -38.59394,-11.9124 -75.63035,-26.6979 -16.13334,-6.4406 -34.73334,-13.3781 -41.33334,-15.4164 -6.6,-2.0382 -12.45134,-4.3525 -13.00298,-5.1428 -2.46565,-3.5318 -9.14831,-27.2462 -12.81694,-45.4829 -7.69521,-38.2525 -14.0715,-87.9947 -20.8458,-162.6204 -2.773185,-30.5495 -3.782462,-37.5756 -5.55429,-38.6667 -7.934097,-4.8856 -13.421584,-10.2398 -16.373849,-15.9761 l -3.406136,-6.6181 -0.357033,-132.0362 -0.357034,-132.0362 2.914928,-8.271 c 2.91267,-8.2646 2.913704,-8.309 1.334524,-57.3333 -12.714233,-394.7029 -9.922075,-798.5801 6.528968,-944.3957 1.447868,-12.8334 3.881252,-29.0334 5.407521,-36 8.778348,-40.0688 14.368301,-127.0914 11.842151,-184.3549 -1.50936,-34.2148 -4.465969,-65.9971 -6.31116,-67.8423 -0.701587,-0.7016 -4.997605,-0.6429 -10.431194,0.1424 -43.202025,6.2442 -73.427392,-7.1987 -76.1813515,-33.882 -1.5466767,-14.9859 9.1840105,-37.9479 27.4628295,-58.7664 5.258964,-5.9896 7.91366,-6.7693 27.138135,-7.9705 8.433796,-0.5269 16.036875,-1.3924 16.895732,-1.9232 1.164649,-0.7198 0.37932,-9.5779 -3.089731,-34.8508 -8.822746,-64.2757 -13.981834,-116.7007 -18.752055,-190.55233 -1.113135,-17.23334 -2.941757,-44.23334 -4.063605,-60 C 51.73197,815.68016 50.166527,757.17281 51.259154,730 l 0.93824,-23.33333 -4.098698,-7.33334 L 43.999999,692 43.03886,549.33333 c -0.528626,-78.46666 -1.118713,-146.26666 -1.311303,-150.66666 -0.238491,-5.44866 1.221227,-15.0162 4.577093,-30 C 53.879959,334.84323 59.932241,299.93956 68.719644,239.39885 81.010597,154.72047 86.810389,129.79225 99.986757,105.00901 125.09637,57.780695 171.95684,34.741236 275.33333,18.797963 343.30306,8.315308 424.49842,2.023587 633.33332,-8.9429859 773.22853,-16.28932 1026.8971,-8.7340849 1138,6.087945 c 108.2865,14.44631 166.0456,40.714987 198.2895,90.181505 20.6599,31.69519 31.7041,66.50286 49.8347,157.06388 13.4602,67.23258 17.9408,88.70375 24.6855,118.2909 5.6252,24.67661 5.8935,26.72332 4.3692,33.33333 -1.1892,5.15725 -1.832,42.94461 -2.4015,141.16147 L 1412,680.23807 l -4.3806,7.04546 -4.3805,7.04547 1.3751,18.16883 c 2.6434,34.92652 1.4802,89.11477 -3.3312,155.18757 -1.1088,15.22697 -2.898,41.62697 -3.976,58.66667 -3.6591,57.83846 -10.201,124.86103 -16.6854,170.94483 -1.4418,10.2466 -2.6214,19.949 -2.6214,21.5607 0,3.6497 1.0472,3.8658 28.6666,5.9153 l 21.3334,1.583 5.8016,6.152 c 15.0265,15.9342 28.1984,42.0354 28.1984,55.8776 0,8.7272 -4.9304,19.9084 -11.0678,25.0991 -15.3118,12.9504 -40.1136,16.3798 -75.5326,10.444 -8.1559,-1.3668 -11.5192,-1.4804 -12.18,-0.4113 -1.151,1.8624 -3.2106,17.9315 -6.1283,47.816 -2.8653,29.3463 -3.2648,111.6331 -0.6959,143.3334 2.6815,33.089 6.8747,68.6493 8.9616,76 5.8535,20.6166 11.7351,85.3372 15.2674,168 4.1084,96.1438 4.7024,140.3773 4.7005,350 0,213.1629 -0.7785,274.201 -5.3399,419.6321 -1.6577,52.8556 -1.6501,60.982 0.061,65.8343 1.6658,4.7214 1.9488,25.0686 1.9237,138.3678 -0.029,130.8078 -0.071,132.9238 -2.7485,138.8275 -1.4955,3.2973 -5.7331,8.7805 -9.4168,12.1848 l -6.6976,6.1897 -2.534,32.4819 c -9.001,115.378 -19.6176,195.4285 -31.3527,236.4012 -5.1717,18.0568 -5.5639,18.5587 -20.2588,25.9275 -79.3601,39.7953 -238.7816,66.4798 -463.62892,77.604 -35.51989,1.7573 -258.54665,2.6724 -291.33333,1.1952 z"
         style="fill:#d82323;stroke-width:1.33333337" />
      <path
         id="path78"
         d="m 1274,3172.6667 c -2.4373,-1.5751 -0.3321,-1.5751 3.3333,0 1.7583,0.7556 1.9854,1.1709 0.6667,1.2192 -1.1,0.04 -2.9,-0.5083 -4,-1.2192 z m 9.3333,0.033 c 0,-0.7469 1.8434,-0.9491 4.3333,-0.4752 6.0764,1.1567 6.27,1.7752 0.5556,1.7752 -2.6889,0 -4.8889,-0.5849 -4.8889,-1.3 z m 11.7333,-0.3 c 1.2445,-1.2444 1.9556,-1.2444 3.2,0 1.2445,1.2444 0.8889,1.6 -1.6,1.6 -2.4889,0 -2.8444,-0.3556 -1.6,-1.6 z m 6.9334,0.2667 c 0,-0.7334 0.6,-1.3334 1.3333,-1.3334 0.7333,0 1.3333,0.6 1.3333,1.3334 0,0.7333 -0.6,1.3333 -1.3333,1.3333 -0.7333,0 -1.3333,-0.6 -1.3333,-1.3333 z m 12,0 c 0,-0.7334 0.6354,-1.3334 1.412,-1.3334 0.7766,0 1.0412,0.6 0.588,1.3334 -0.4533,0.7333 -1.0887,1.3333 -1.4121,1.3333 -0.3233,0 -0.5879,-0.6 -0.5879,-1.3333 z m 7.3333,0 c -0.4532,-0.7334 -0.1886,-1.3334 0.588,-1.3334 0.7766,0 1.412,0.6 1.412,1.3334 0,0.7333 -0.2646,1.3333 -0.588,1.3333 -0.3234,0 -0.9588,-0.6 -1.412,-1.3333 z m 4.6667,0 c 0,-0.7334 0.6,-1.3334 1.3333,-1.3334 0.7333,0 1.3333,0.6 1.3333,1.3334 0,0.7333 -0.6,1.3333 -1.3333,1.3333 -0.7333,0 -1.3333,-0.6 -1.3333,-1.3333 z m 7.3333,0 c -0.4532,-0.7334 -0.1886,-1.3334 0.588,-1.3334 0.7766,0 1.412,0.6 1.412,1.3334 0,0.7333 -0.2646,1.3333 -0.588,1.3333 -0.3234,0 -0.9588,-0.6 -1.412,-1.3333 z m 7.3333,0 c 0,-0.7334 0.6,-1.3334 1.3334,-1.3334 0.7333,0 1.3333,0.6 1.3333,1.3334 0,0.7333 -0.6,1.3333 -1.3333,1.3333 -0.7334,0 -1.3334,-0.6 -1.3334,-1.3333 z m 8,0.1913 c 0,-0.628 1.7411,-1.078 3.869,-1 2.1278,0.079 3.5925,0.592 3.2546,1.142 -0.8518,1.3868 -7.1236,1.2619 -7.1236,-0.142 z m 12,-0.158 c 0,-0.7469 1.8435,-0.9491 4.3334,-0.4752 6.0764,1.1567 6.27,1.7752 0.5556,1.7752 -2.689,0 -4.889,-0.5849 -4.889,-1.3 z m 10.6667,-0.033 c 0,-0.7334 0.6355,-1.3334 1.412,-1.3334 0.7767,0 1.0412,0.6 0.588,1.3334 -0.4532,0.7333 -1.0887,1.3333 -1.412,1.3333 -0.3235,0 -0.588,-0.6 -0.588,-1.3333 z m 7.3333,0 c -0.4532,-0.7334 -0.1886,-1.3334 0.588,-1.3334 0.7766,0 1.412,0.6 1.412,1.3334 0,0.7333 -0.2645,1.3333 -0.588,1.3333 -0.3233,0 -0.9588,-0.6 -1.412,-1.3333 z m 7.3334,0 c -2.4374,-1.5751 -0.3322,-1.5751 3.3333,0 1.7583,0.7556 1.9855,1.1709 0.6667,1.2192 -1.1,0.04 -2.9,-0.5083 -4,-1.2192 z m 9.3333,0 c 0,-0.7334 0.6,-1.3334 1.3333,-1.3334 0.7334,0 1.3334,0.6 1.3334,1.3334 0,0.7333 -0.6,1.3333 -1.3334,1.3333 -0.7333,0 -1.3333,-0.6 -1.3333,-1.3333 z m 6,0 c -0.4532,-0.7334 -0.1887,-1.3334 0.588,-1.3334 0.7765,0 1.412,0.6 1.412,1.3334 0,0.7333 -0.2645,1.3333 -0.588,1.3333 -0.3233,0 -0.9588,-0.6 -1.412,-1.3333 z m 6,0 c 0,-0.7334 0.6,-1.3334 1.3333,-1.3334 0.7334,0 1.3334,0.6 1.3334,1.3334 0,0.7333 -0.6,1.3333 -1.3334,1.3333 -0.7333,0 -1.3333,-0.6 -1.3333,-1.3333 z m 8,0 c -2.4373,-1.5751 -0.3321,-1.5751 3.3333,0 1.7583,0.7556 1.9855,1.1709 0.6667,1.2192 -1.1,0.04 -2.9,-0.5083 -4,-1.2192 z m 12.3528,0.2462 c -0.9785,-0.6216 0.2313,-1.0462 2.9805,-1.0462 2.7492,0 3.9591,0.4246 2.9806,1.0462 -0.906,0.5755 -2.2472,1.0463 -2.9806,1.0463 -0.7333,0 -2.0745,-0.4708 -2.9805,-1.0463 z m 20.9805,-0.2462 c 0,-0.7334 0.6,-1.3334 1.3334,-1.3334 0.7333,0 1.3333,0.6 1.3333,1.3334 0,0.7333 -0.6,1.3333 -1.3333,1.3333 -0.7334,0 -1.3334,-0.6 -1.3334,-1.3333 z m -894.66661,-9.354 c -122.89605,-5.5366 -216.26694,-18.3836 -290.36964,-39.9523 -27.63288,-8.0431 -38.59394,-11.9124 -75.63035,-26.6979 -16.13334,-6.4406 -34.73334,-13.3781 -41.33334,-15.4164 -6.6,-2.0382 -12.45134,-4.3525 -13.00298,-5.1428 -2.46565,-3.5318 -9.14831,-27.2462 -12.81694,-45.4829 -7.69545,-38.2536 -14.07232,-88.0009 -20.84555,-162.6204 -2.948729,-32.4856 -3.714231,-37.5931 -5.895232,-39.3333 -1.378557,-1.1 -4.59842,-3.6214 -7.155251,-5.6031 -2.556829,-1.9816 -6.216714,-6.7495 -8.133078,-10.5951 l -3.484297,-6.9921 v -132.1673 c 0,-120.0234 0.204824,-132.7686 2.22917,-138.7096 2.043426,-5.9972 2.096088,-10.7666 0.632015,-57.2376 -4.842671,-153.711 -6.587728,-245.4018 -7.680221,-403.5434 -1.942287,-281.1513 6.00921,-515.006 19.624243,-577.1518 8.778348,-40.0688 14.368301,-127.0914 11.842151,-184.3549 -1.52727,-34.6208 -4.471061,-66.0022 -6.369549,-67.9007 -0.779438,-0.7794 -6.472392,-0.6692 -15.09786,0.2922 -39.865887,4.4438 -65.826461,-6.8936 -70.6372622,-30.8484 -2.6825473,-13.3574 4.0604582,-31.9538 18.6785702,-51.5133 12.361744,-16.5404 11.323926,-15.978 32.796838,-17.7733 10.256714,-0.8575 19.123957,-1.9916 19.704982,-2.5201 0.581025,-0.5286 -1.036125,-16.2056 -3.593668,-34.8379 -8.821492,-64.2667 -13.980836,-116.6953 -18.750846,-190.54363 -1.113135,-17.23334 -2.942265,-44.23334 -4.064735,-60 -2.983382,-41.90586 -4.498208,-98.44676 -3.391181,-126.57602 l 0.967189,-24.576 -4.111585,-7.97064 -4.111584,-7.97062 -0.967265,-141.45336 C 42.500738,470.32068 41.910651,403.06667 41.72143,398.66667 c -0.233635,-5.43276 1.237144,-15.05991 4.58322,-30 C 53.879959,334.84323 59.932241,299.93956 68.719644,239.39885 81.010597,154.72047 86.810389,129.79225 99.986757,105.00901 125.09637,57.780695 171.95684,34.741236 275.33333,18.797963 343.30306,8.315308 424.49842,2.023587 633.33332,-8.9429859 773.22853,-16.28932 1026.8971,-8.7340849 1138,6.087945 c 108.2865,14.44631 166.0456,40.714987 198.2895,90.181505 20.6599,31.69519 31.7041,66.50286 49.8347,157.06388 13.4602,67.23258 17.9408,88.70375 24.6855,118.2909 5.6197,24.65292 5.8924,26.72966 4.376,33.33333 -1.1785,5.13204 -1.8299,42.86952 -2.4015,139.114 L 1412,676.14312 l -4.4111,8.68845 -4.4109,8.68847 1.4056,18.57331 c 2.674,35.33433 1.5302,89.25073 -3.3008,155.59205 -1.1088,15.22697 -2.898,41.62697 -3.976,58.66667 -3.6966,58.43024 -8.9527,112.73223 -16.1262,166.60273 -1.9253,14.4585 -3.1862,27.1076 -2.8018,28.1092 0.5138,1.3391 6.4662,2.2503 22.4933,3.4432 11.9869,0.8922 23.4029,1.9316 25.3688,2.3098 6.8327,1.3145 30.3044,35.097 32.5609,46.8644 0.4586,2.3914 1.3658,4.6768 2.016,5.0787 0.6502,0.4018 1.175,4.4452 1.1663,8.9853 -0.029,14.9878 -10.0641,28.0539 -26.4361,34.4202 -10.4964,4.0816 -38.238,5.0215 -57.6176,1.9521 -10.1834,-1.6129 -13.9812,-1.781 -14.6803,-0.6496 -1.1801,1.9093 -3.2191,17.7558 -6.1588,47.8652 -2.8653,29.3463 -3.2648,111.6331 -0.6959,143.3334 2.6815,33.089 6.8747,68.6493 8.9616,76 5.8535,20.6166 11.7351,85.3372 15.2674,168 4.1084,96.1438 4.7024,140.3773 4.7005,350 0,213.2121 -0.7783,274.1949 -5.3443,419.7676 -1.6741,53.3784 -1.6632,61.4357 0.093,69.0117 1.705,7.352 1.937,27.1033 1.6241,138.2324 l -0.3652,129.6549 -3.0887,6 c -1.6988,3.3 -5.7672,8.4018 -9.0406,11.3374 l -5.952,5.3372 -2.6074,33.3294 c -9.1281,116.6798 -19.6553,196.16 -31.4236,237.2487 -5.1717,18.0568 -5.5638,18.5587 -20.2588,25.9275 -79.3601,39.7953 -238.7816,66.4798 -463.62889,77.604 -35.51989,1.7573 -258.54664,2.6724 -291.33332,1.1952 z M 718.66665,2159.3352 c 117.00618,-2.1732 198.16148,-6.3595 299.33335,-15.4405 45.4442,-4.0791 55.9877,-5.3272 57.3615,-6.7902 1.6579,-1.7656 18.0476,-52.9854 26.7676,-83.6521 32.9054,-115.7228 55.0138,-243.6 65.1416,-376.7857 4.5348,-59.6342 5.5019,-82.2988 6.3222,-148.1615 l 0.7908,-63.4948 -70.5252,-17.4387 c -130.93716,-32.3768 -192.35748,-45.33 -256.72684,-54.1421 -92.74598,-12.6968 -159.37248,-11.52 -257.79834,4.5535 -58.17621,9.5005 -102.27517,19.0629 -210.33333,45.6086 l -71.66666,17.6058 -0.2075,17.4012 c -2.50313,209.9308 25.31544,422.7246 78.01121,596.7346 9.27812,30.6379 24.17163,74.5232 25.84738,76.1622 2.2388,2.1896 81.82864,6.088 157.68223,7.7234 70.09315,1.5112 74.69807,1.5148 150,0.116 z M 93.333331,1235.8795 c 14.016369,-2.2937 37.643069,-8.3326 49.999999,-12.7798 l 8.66667,-3.1191 0.35409,-37.657 0.35411,-37.6569 h -4.25091 c -2.33799,0 -26.41143,1.8622 -53.496525,4.1383 l -49.24563,4.1384 -3.88497,4.195 c -5.812411,6.2762 -17.921561,24.6501 -21.227087,32.2091 -3.605978,8.246 -4.943904,23.0012 -2.59896,28.6624 0.929852,2.2449 4.357007,6.4286 7.615899,9.2972 12.858348,11.3184 34.325474,14.0361 67.713314,8.5724 z M 1432.4121,1215.6168 c 15.9353,-6.1993 22.1923,-14.9119 21.3547,-29.7357 -0.6362,-11.2583 -7.8654,-26.3323 -19.9194,-41.535 -9.5513,-12.0464 -2.6637,-10.3551 -61.1808,-15.0236 -23.1,-1.8429 -44.8593,-3.702 -48.354,-4.1313 l -6.354,-0.7805 0.354,38.413 0.354,38.413 15.849,5.0453 c 13.6793,4.3547 39.1342,10.3238 52.151,12.2293 2.2,0.322 11.8,0.4222 21.3334,0.2225 13.7196,-0.2874 18.8092,-0.9373 24.4121,-3.117 z M 212.66666,1000.428 c 48.44693,-22.64425 145.61483,-46.70017 270.66666,-67.00909 86.44419,-14.03888 175.06135,-24.85803 236.4924,-28.87303 30.43598,-1.98923 110.41149,-0.84489 142.84093,2.04384 165.71475,14.76149 321.67305,46.75956 393.60065,80.75528 l 13.6007,6.4282 1.3158,-4.2199 c 9.7732,-31.34435 22.71,-164.09653 30.1012,-308.88663 14.4473,-283.01599 6.023,-500.45406 -21.4382,-553.33334 -6.1346,-11.81281 -4.8577,-11.15575 -34.5135,-17.75979 C 1171.4058,93.11066 1067.7509,82.039115 923.99998,75.251436 875.63859,72.967892 724.19868,72.142999 669.33332,73.864267 453.92211,80.622272 298.03497,102.37459 214.64829,137.31052 c -25.47296,10.67223 -45.16988,24.25665 -51.90975,35.80076 -28.68904,49.13881 -38.87308,371.52676 -19.31866,611.55539 9.35358,114.81452 24.61205,193.49032 42.96177,221.51983 l 4.09819,6.2601 6.76008,-3.9839 c 3.71804,-2.1911 10.66008,-5.8067 15.42674,-8.0347 z m 638.30555,-83.23356 c -0.44306,-0.44305 -1.59307,-0.49041 -2.55556,-0.1052 -1.06364,0.42563 -0.74771,0.74157 0.80556,0.80555 1.40554,0.0579 2.19305,-0.25724 1.75,-0.7003 z m -123.95668,-1.44388 c -1.27479,-0.33372 -3.67479,-0.34583 -5.33333,-0.0269 -1.65855,0.31892 -0.61555,0.59197 2.31778,0.60677 2.93334,0.0148 4.29034,-0.24615 3.01555,-0.57987 z m 92.31778,-0.47235 c -8.43333,-0.51005 -22.23333,-0.89012 -30.66666,-0.84457 l -15.33333,0.0828 13.33333,0.81689 c 7.33333,0.4493 21.13333,0.82935 30.66666,0.84459 l 17.33334,0.0277 -15.33334,-0.9274 z m -61.66666,-0.89988 c -2.01667,-0.3055 -5.31667,-0.3055 -7.33333,0 -2.01667,0.3055 -0.36667,0.55546 3.66666,0.55546 4.03334,0 5.68334,-0.24996 3.66667,-0.55546 z"
         style="fill:#d42222;stroke-width:1.33333337" />
      <path
         id="path76"
         d="m 1274,3172.6667 c -2.4373,-1.5751 -0.3321,-1.5751 3.3333,0 1.7583,0.7556 1.9854,1.1709 0.6667,1.2192 -1.1,0.04 -2.9,-0.5083 -4,-1.2192 z m 9.3333,0.033 c 0,-0.7469 1.8434,-0.9491 4.3333,-0.4752 6.0764,1.1567 6.27,1.7752 0.5556,1.7752 -2.6889,0 -4.8889,-0.5849 -4.8889,-1.3 z m 11.7333,-0.3 c 1.2445,-1.2444 1.9556,-1.2444 3.2,0 1.2445,1.2444 0.8889,1.6 -1.6,1.6 -2.4889,0 -2.8444,-0.3556 -1.6,-1.6 z m 6.9334,0.2667 c 0,-0.7334 0.6,-1.3334 1.3333,-1.3334 0.7333,0 1.3333,0.6 1.3333,1.3334 0,0.7333 -0.6,1.3333 -1.3333,1.3333 -0.7333,0 -1.3333,-0.6 -1.3333,-1.3333 z m 12,0 c 0,-0.7334 0.6354,-1.3334 1.412,-1.3334 0.7766,0 1.0412,0.6 0.588,1.3334 -0.4533,0.7333 -1.0887,1.3333 -1.4121,1.3333 -0.3233,0 -0.5879,-0.6 -0.5879,-1.3333 z m 7.3333,0 c -0.4532,-0.7334 -0.1886,-1.3334 0.588,-1.3334 0.7766,0 1.412,0.6 1.412,1.3334 0,0.7333 -0.2646,1.3333 -0.588,1.3333 -0.3234,0 -0.9588,-0.6 -1.412,-1.3333 z m 4.6667,0 c 0,-0.7334 0.6,-1.3334 1.3333,-1.3334 0.7333,0 1.3333,0.6 1.3333,1.3334 0,0.7333 -0.6,1.3333 -1.3333,1.3333 -0.7333,0 -1.3333,-0.6 -1.3333,-1.3333 z m 7.3333,0 c -0.4532,-0.7334 -0.1886,-1.3334 0.588,-1.3334 0.7766,0 1.412,0.6 1.412,1.3334 0,0.7333 -0.2646,1.3333 -0.588,1.3333 -0.3234,0 -0.9588,-0.6 -1.412,-1.3333 z m 7.3333,0 c 0,-0.7334 0.6,-1.3334 1.3334,-1.3334 0.7333,0 1.3333,0.6 1.3333,1.3334 0,0.7333 -0.6,1.3333 -1.3333,1.3333 -0.7334,0 -1.3334,-0.6 -1.3334,-1.3333 z m 8,0.1913 c 0,-0.628 1.7411,-1.078 3.869,-1 2.1278,0.079 3.5925,0.592 3.2546,1.142 -0.8518,1.3868 -7.1236,1.2619 -7.1236,-0.142 z m 12,-0.158 c 0,-0.7469 1.8435,-0.9491 4.3334,-0.4752 6.0764,1.1567 6.27,1.7752 0.5556,1.7752 -2.689,0 -4.889,-0.5849 -4.889,-1.3 z m 10.6667,-0.033 c 0,-0.7334 0.6355,-1.3334 1.412,-1.3334 0.7767,0 1.0412,0.6 0.588,1.3334 -0.4532,0.7333 -1.0887,1.3333 -1.412,1.3333 -0.3235,0 -0.588,-0.6 -0.588,-1.3333 z m 7.3333,0 c -0.4532,-0.7334 -0.1886,-1.3334 0.588,-1.3334 0.7766,0 1.412,0.6 1.412,1.3334 0,0.7333 -0.2645,1.3333 -0.588,1.3333 -0.3233,0 -0.9588,-0.6 -1.412,-1.3333 z m 7.3334,0 c -2.4374,-1.5751 -0.3322,-1.5751 3.3333,0 1.7583,0.7556 1.9855,1.1709 0.6667,1.2192 -1.1,0.04 -2.9,-0.5083 -4,-1.2192 z m 9.3333,0 c 0,-0.7334 0.6,-1.3334 1.3333,-1.3334 0.7334,0 1.3334,0.6 1.3334,1.3334 0,0.7333 -0.6,1.3333 -1.3334,1.3333 -0.7333,0 -1.3333,-0.6 -1.3333,-1.3333 z m 6,0 c -0.4532,-0.7334 -0.1887,-1.3334 0.588,-1.3334 0.7765,0 1.412,0.6 1.412,1.3334 0,0.7333 -0.2645,1.3333 -0.588,1.3333 -0.3233,0 -0.9588,-0.6 -1.412,-1.3333 z m 6,0 c 0,-0.7334 0.6,-1.3334 1.3333,-1.3334 0.7334,0 1.3334,0.6 1.3334,1.3334 0,0.7333 -0.6,1.3333 -1.3334,1.3333 -0.7333,0 -1.3333,-0.6 -1.3333,-1.3333 z m 8,0 c -2.4373,-1.5751 -0.3321,-1.5751 3.3333,0 1.7583,0.7556 1.9855,1.1709 0.6667,1.2192 -1.1,0.04 -2.9,-0.5083 -4,-1.2192 z m 12.3528,0.2462 c -0.9785,-0.6216 0.2313,-1.0462 2.9805,-1.0462 2.7492,0 3.9591,0.4246 2.9806,1.0462 -0.906,0.5755 -2.2472,1.0463 -2.9806,1.0463 -0.7333,0 -2.0745,-0.4708 -2.9805,-1.0463 z m 20.9805,-0.2462 c 0,-0.7334 0.6,-1.3334 1.3334,-1.3334 0.7333,0 1.3333,0.6 1.3333,1.3334 0,0.7333 -0.6,1.3333 -1.3333,1.3333 -0.7334,0 -1.3334,-0.6 -1.3334,-1.3333 z m -894.66661,-9.354 c -122.89605,-5.5366 -216.26694,-18.3836 -290.36964,-39.9523 -27.63288,-8.0431 -38.59394,-11.9124 -75.63035,-26.6979 -16.13334,-6.4406 -34.73334,-13.3781 -41.33334,-15.4164 -6.6,-2.0382 -12.45134,-4.3525 -13.00298,-5.1428 -2.46565,-3.5318 -9.14831,-27.2462 -12.81694,-45.4829 -7.71952,-38.3733 -14.15216,-88.6148 -20.821,-162.6204 l -3.364213,-37.3333 -4.24659,-3.3334 c -6.441228,-5.056 -11.673772,-10.682 -14.168244,-15.2337 -2.056399,-3.7524 -2.279211,-15.28 -2.630581,-136.0996 -0.351572,-120.8881 -0.192211,-132.7477 1.893073,-140.882 2.092323,-8.1617 2.148657,-12.8649 0.694711,-58 -12.716205,-394.7511 -9.925017,-798.626 6.527122,-944.4513 1.447868,-12.8334 3.881252,-29.0334 5.407521,-36 8.778348,-40.0688 14.368301,-127.0914 11.842161,-184.3549 -1.52728,-34.6208 -4.471071,-66.0022 -6.369559,-67.9007 -0.779438,-0.7794 -6.472392,-0.6692 -15.09786,0.2922 -39.865887,4.4438 -65.826461,-6.8936 -70.6372622,-30.8484 -2.6825473,-13.3574 4.0604582,-31.9538 18.6785702,-51.5133 12.361744,-16.5404 11.323926,-15.978 32.796838,-17.7733 10.256714,-0.8575 19.123957,-1.9916 19.704982,-2.5201 0.581025,-0.5286 -1.036125,-16.2056 -3.593668,-34.8379 C 68.641249,1042.9436 63.481905,990.515 58.711895,916.66667 57.59876,899.43333 55.76963,872.43333 54.64716,856.66667 51.659595,814.70208 50.149342,758.20387 51.261234,730 l 0.972444,-24.66667 -3.782455,-8 -3.782453,-8 -0.05177,-120 C 44.585152,495.54585 43.994399,441.11777 43.082982,428 40.80521,395.21664 40.948215,392.58292 46.30465,368.66667 53.879959,334.84323 59.932241,299.93956 68.719644,239.39885 81.010597,154.72047 86.810389,129.79225 99.986757,105.00901 125.09637,57.780695 171.95684,34.741236 275.33333,18.797963 343.30306,8.315308 424.49842,2.023587 633.33332,-8.9429859 773.22853,-16.28932 1026.8971,-8.7340849 1138,6.087945 c 108.2865,14.44631 166.0456,40.714987 198.2895,90.181505 20.6599,31.69519 31.7041,66.50286 49.8347,157.06388 13.4476,67.16998 17.9404,88.70164 24.6528,118.1488 l 5.9606,26.1488 -2.2628,12.51787 c -1.9867,10.98957 -2.3574,28.22667 -3.0356,141.18453 L 1410.6666,680 l -3.758,6.39317 -3.7578,6.39318 1.4245,19.19001 c 2.6761,36.04845 1.5529,89.16945 -3.2925,155.70904 -1.1088,15.22697 -2.898,41.62697 -3.976,58.66667 -3.6966,58.43024 -8.9527,112.73223 -16.1262,166.60273 -1.9253,14.4585 -3.1862,27.1076 -2.8018,28.1092 0.5138,1.3391 6.4662,2.2503 22.4933,3.4432 11.9869,0.8922 23.4029,1.9316 25.3688,2.3098 6.8327,1.3145 30.3044,35.097 32.5609,46.8644 0.4586,2.3914 1.3658,4.6768 2.016,5.0787 0.6502,0.4018 1.175,4.4452 1.1663,8.9853 -0.029,14.9878 -10.0641,28.0539 -26.4361,34.4202 -10.4964,4.0816 -38.238,5.0215 -57.6176,1.9521 -10.1834,-1.6129 -13.9812,-1.781 -14.6803,-0.6496 -1.1801,1.9093 -3.2191,17.7558 -6.1588,47.8652 -2.8653,29.3463 -3.2648,111.6331 -0.6959,143.3334 2.6815,33.089 6.8747,68.6493 8.9616,76 5.8535,20.6166 11.7351,85.3372 15.2674,168 4.1174,96.3581 4.7052,140.2522 4.695,350.6666 -0.013,213.7695 -0.7578,272.4542 -5.334,418.7282 -1.526,48.7813 -1.5849,62.478 -0.2864,66.6666 1.2436,4.0118 1.6343,36.8248 1.6343,137.2719 0,131.79 0,132.0097 -2.8341,138.128 -1.5588,3.3704 -5.6299,8.8068 -9.0468,12.0811 l -6.2126,5.953 -2.6013,33.2523 c -9.1212,116.5943 -19.6523,196.0936 -31.4175,237.1716 -5.1717,18.0568 -5.5638,18.5587 -20.2588,25.9275 -79.3601,39.7953 -238.7816,66.4798 -463.62889,77.604 -35.51989,1.7573 -258.54664,2.6724 -291.33332,1.1952 z m 194.66666,-6.6402 c 73.7985,-1.2092 108.88841,-2.425 156,-5.4053 185.34165,-11.7248 328.67765,-37.9743 400.27465,-73.3031 13.264,-6.545 13.3129,-6.6196 18.9487,-28.8792 16.1681,-63.8596 29.9069,-202.7381 40.0738,-405.0849 19.3,-384.1192 19.922,-922.9868 1.2752,-1104.6667 -2.2054,-21.4888 -5.1184,-39.9069 -7.9076,-50 -5.7798,-20.9148 -12.2362,-118.8633 -10.7664,-163.3333 1.2022,-36.3674 5.2779,-86.184 8.2038,-100.2694 0.7104,-3.4201 0.355,-3.7122 -7.0103,-5.7641 -14.9796,-4.1731 -33.1224,-10.2912 -36.1577,-12.1932 l -3.0658,-1.921 0.8978,-44.2595 c 0.4939,-24.3427 1.3549,-44.7609 1.9134,-45.3737 0.5585,-0.6128 13.7081,-0.087 29.2214,1.1689 15.5132,1.2557 28.4949,1.9939 28.8482,1.6405 0.9004,-0.9003 6.5802,-43.3702 10.5243,-78.6935 4.1741,-37.3827 6.6861,-66.88133 10.0769,-118.335 1.474,-22.36667 3.5967,-52.96667 4.7172,-68 2.8542,-38.29429 4.0476,-122.55136 2.0584,-145.33333 -0.8644,-9.9 -3.7286,-31.8 -6.3652,-48.66667 -4.3941,-28.11101 -4.7906,-33.00009 -4.7582,-58.66667 0.049,-39.41273 4.7177,-84.2965 17.0994,-164.41376 l 6.0396,-39.08041 -6.6754,-29.58625 C 1398.4612,351.98048 1389.4022,308.66667 1382.0017,272 1362.4882,175.32007 1355.9453,151.23271 1340.6705,119.84257 1299.5932,35.428005 1214.0707,9.718485 939.99998,-0.605693 910.18123,-1.728958 866.88633,-2.794739 755.33332,-5.1515925 725.98432,-5.7716681 566.41081,1.51404 466.66666,8.028172 224.14788,23.866687 143.4153,45.305215 109.8374,102.78415 94.579161,128.90332 89.483779,149.74219 76.612292,238.66667 68.176893,296.9438 63.778641,322.77579 55.953614,360 c -3.391443,16.13333 -6.473408,32.03333 -6.848811,35.33333 -0.422765,3.71634 1.618339,20.97068 5.362715,45.33334 12.840935,83.54913 16.181793,116.68736 16.13053,160 -0.03763,31.79028 -0.313387,35.64645 -4.243013,59.33333 -7.033024,42.39343 -7.670791,50.94863 -7.55411,101.33333 0.103534,44.70619 0.890278,62.99044 5.192126,120.66667 1.066582,14.3 2.869973,40.4 4.007536,58 1.137561,17.6 3.262408,44.9 4.721881,60.6667 4.670834,50.4589 15.621798,136.122 17.662381,138.1626 0.493336,0.4933 16.058561,-0.3294 34.589391,-1.8283 18.53084,-1.4989 34.14242,-2.4519 34.69242,-2.1178 0.55,0.3341 1,20.8986 1,45.6989 0,34.4662 -0.39273,45.4086 -1.66666,46.4376 -2.16039,1.745 -27.82753,9.9932 -42.72306,13.7291 -8.70752,2.1839 -11.59649,3.4544 -11.55513,5.0816 0.0303,1.1933 0.94395,10.5696 2.03027,20.8363 2.79718,26.4357 3.94713,99.592 2.05397,130.6666 -2.42466,39.7986 -6.72727,80.0575 -10.188612,95.3334 -8.585544,37.8904 -13.606112,109.0586 -18.247669,258.6666 -2.226689,71.7714 -2.218435,433.9462 0.01213,530 9.958325,428.8408 29.522781,700.0926 56.367371,781.5066 l 2.69494,8.1732 8.03544,2.2545 c 4.41949,1.2401 23.14348,8.2688 41.60887,15.6195 18.46538,7.3506 42.2745,16.27 52.90914,19.8209 77.84745,25.9927 179.43561,41.2761 310.00238,46.6385 63.39932,2.6038 102.566,2.8679 196.66666,1.326 z m -132.66666,-36.938 C 493.8967,3115.8292 363.95165,3099.8552 270.00453,3077.202 225.05089,3066.3624 172.1608,3049.5233 166.20357,3044.1541 147.76977,3027.5399 136.27489,2927.142 130.00602,2728 c -7.99907,-254.1051 -3.92969,-744.7021 10.02007,-1208 4.08388,-135.6333 9.19629,-265.7824 10.70088,-272.4174 0.55341,-2.4404 1.45489,-2.997 4.31953,-2.6667 l 3.62016,0.4174 -0.23237,14.6667 c -0.12773,8.0667 -1.17608,36.8667 -2.32951,64 -13.07412,307.5585 -21.71671,784.7072 -20.34693,1123.3333 0.71483,176.7174 1.37301,219.2564 4.89955,316.6667 5.79008,159.9343 16.82348,256.32 31.12957,271.9424 6.58989,7.1961 80.17018,28.6224 141.67425,41.2548 111.48284,22.8977 240.1755,34.2825 388.53876,34.3721 246.42725,0.1491 461.25082,-34.2068 584.84312,-93.5312 l 18.843,-9.0446 2.6598,-7.1635 c 22.8616,-61.5723 33.1014,-350.47 29.6962,-837.83 -1.5742,-225.3017 -3.574,-364.9196 -8.0499,-562 -3.6799,-162.0307 -8.6623,-322.6583 -11.4575,-369.3766 -0.7322,-12.2373 -0.549,-14.285 1.4243,-15.9227 1.6564,-1.3747 2.8611,-1.5043 4.4861,-0.4827 2.8618,1.7992 3.4253,9.3562 6.099,81.782 12.0813,327.2687 19.9735,876.5715 16.8985,1176.1556 -0.8082,78.7477 -2.0553,165.9777 -2.7712,193.8444 -5.1804,201.6683 -14.7315,311.4304 -29.7596,342 -2.723,5.5392 -4.1259,6.59 -18.264,13.6805 -105.7761,53.0487 -282.8786,86.8399 -501.31448,95.6507 -28.90283,1.1657 -147.17661,1.4317 -179.33333,0.4033 z m 101.33333,-177.3189 c -22.90547,-1.5819 -88.83869,-7.8845 -124,-11.8536 -134.62084,-15.1959 -237.41102,-34.1635 -303.1507,-55.9397 -24.15635,-8.0019 -51.35013,-20.6483 -59.44279,-27.6438 l -5.11581,-4.4222 3.60539,-38.6115 c 5.04881,-54.0697 14.94988,-147.9845 18.19773,-172.6115 1.49907,-11.3666 3.86015,-29.9666 5.24684,-41.3333 1.38669,-11.3667 2.93719,-23.5408 3.44556,-27.0537 l 0.92431,-6.3871 4.41389,17.5451 c 2.42763,9.6498 4.72864,17.8598 5.11335,18.2446 1.1069,1.1068 1.7472,-2.0826 3.28202,-16.3489 4.94958,-46.0064 24.44771,-202.4335 27.42227,-220 0.65893,-3.8913 0.58477,-3.8552 -2.73167,1.3333 -1.87494,2.9334 -6.36678,11.2852 -9.98188,18.5598 l -6.57289,13.2265 0.71149,-6.5599 c 4.28188,-39.4772 14.23884,-111.5454 21.37983,-154.7466 6.24481,-37.7795 14.61731,-81.6218 15.81612,-82.8206 0.38369,-0.3837 4.16397,0.2688 8.40061,1.4499 24.03476,6.7008 102.79445,13.3245 216.36966,18.1968 14.3,0.6135 26.3,1.2096 26.66667,1.3248 0.36667,0.1147 -6.23333,2.1669 -14.66667,4.5595 l -15.33333,4.3502 12.53816,0.8964 c 34.17361,2.4435 262.09957,0.1858 288.75731,-2.8604 l 7.96214,-0.9097 -16.6288,-4.2653 c -9.14586,-2.3459 -15.72882,-4.3174 -14.62882,-4.3808 125.69003,-7.2558 233.65299,-16.4456 311.73689,-26.5351 15.622,-2.0185 28.6797,-3.2235 29.0171,-2.6776 2.0507,3.3183 14.2531,72.7184 22.4808,127.8588 22.4777,150.6392 49.8012,405.7291 57.4169,536.0375 l 0.8204,14.0376 -4.0337,5.5682 c -5.929,8.1847 -21.497,20.4891 -37.5876,29.7078 -52.297,29.9622 -144.1559,55.3565 -269.88347,74.609 -73.84772,11.3083 -183.80818,22.1239 -207.96731,20.4555 z M 140.66704,2268.6 c 2.1e-4,-7.6633 0.59962,-38.2333 1.33204,-67.9333 0.7324,-29.7 2.53582,-104.1 4.00761,-165.3334 11.29244,-469.82 21.53572,-789.2064 28.11573,-876.6518 1.34384,-17.859 1.78715,-20.5497 3.15956,-19.1773 0.33843,0.3384 19.5577,73.1884 42.70947,161.8889 l 42.09414,161.2736 -0.0561,113.3333 c -0.118,238.1409 -4.37041,469.2208 -9.41889,511.8321 -1.1807,9.9656 -1.71058,11.1846 -10.43298,24 -12.14658,17.8466 -38.86694,62.6228 -72.10839,120.8346 -14.86618,26.0333 -27.56335,47.9033 -28.21595,48.6 -0.69828,0.7454 -1.18639,-4.467 -1.18617,-12.6667 z m 1193.75256,-8.2344 c -0.7116,-0.9344 -2.9662,-4.6989 -5.0102,-8.3656 -2.044,-3.6667 -6.871,-12.0667 -10.7267,-18.6667 -3.8556,-6.6 -14.6891,-25.5 -24.0742,-42 -22.6258,-39.7781 -46.8709,-80.2661 -57.771,-96.4746 -4.8607,-7.2278 -9.5318,-14.4278 -10.3804,-16 -3.4837,-6.455 -6.1668,-60.5344 -8.4769,-170.8587 -1.2534,-59.8603 -3.9101,-344.5815 -3.9594,-424.3333 -0.023,-37.698 -0.3442,-38.772 -7.8388,-26.2418 -2.4426,4.0836 -5.1488,7.6964 -6.0138,8.0284 -0.865,0.3319 -32.7567,-7.1728 -70.8705,-16.6773 -38.1138,-9.5044 -91.4977,-22.4292 -118.6311,-28.7217 -27.13329,-6.2926 -54.43329,-12.6896 -60.66662,-14.2158 -6.23333,-1.5261 -17.03333,-3.9702 -24,-5.4314 -6.96667,-1.4612 -13.16177,-3.1256 -13.76691,-3.6988 -0.60513,-0.5732 1.63088,-1.4516 4.96892,-1.9523 8.99755,-1.3492 8.48276,-2.8515 -1.57446,-4.5944 -84.39936,-14.6272 -124.83963,-18.8003 -182.29421,-18.8112 -48.47848,-0.013 -82.73351,2.8361 -136,11.2961 -41.11639,6.5303 -55.33333,9.138 -55.33333,10.1491 0,0.4959 2.77238,1.3173 6.16085,1.8255 8.35489,1.2529 6.18959,2.8052 -8.2,5.8784 -33.58785,7.1734 -136.96453,31.7636 -213.96085,50.8946 -31.9,7.9262 -58.37384,14.0051 -58.83076,13.5086 -0.45692,-0.4964 -2.72874,-10.5027 -5.0485,-22.236 -2.31976,-11.7334 -13.46807,-63.0334 -24.77403,-114 -47.49969,-214.1261 -59.34566,-272.1924 -59.34644,-290.9031 l -2.6e-4,-6.2364 10.33333,-3.9782 c 111.2455,-42.82789 263.80825,-80.32975 390.99999,-96.11277 68.15988,-8.45784 109.67814,-10.88486 185.91404,-10.86784 183.88325,0.0411 300.18954,19.11024 452.08594,74.12251 36.729,13.3022 68.5356,25.4002 69.614,26.4786 1.3602,1.3603 -12.887,136.5019 -20.2588,192.1638 -1.8453,13.9334 -3.3062,27.7334 -3.2464,30.6667 l 0.1087,5.3333 2.0224,-4.6455 c 1.1124,-2.555 8.5947,-29.855 16.6273,-60.6667 8.0327,-30.8116 15.2458,-58.4211 16.0291,-61.3544 1.1904,-4.4577 1.5868,-4.8955 2.4141,-2.6667 2.9106,7.8408 8.2096,121.7688 14.0155,301.3333 6.8583,212.1118 22.9516,838.8336 21.5754,840.2098 -0.2868,0.2868 -1.1035,-0.2431 -1.8151,-1.1775 z M 184.18865,1018.0332 C 155.87169,986.6897 136.6192,867.83568 127.05682,665.33333 c -2.32059,-49.14312 -2.31785,-248.30234 0.004,-294 5.39172,-106.11528 13.81393,-171.82402 25.52553,-199.14609 5.02297,-11.71812 19.7244,-23.80779 46.04204,-37.86253 16.83073,-8.98832 12.36785,-7.89528 -13.29511,3.25621 -25.08765,10.90151 -25.17267,10.92125 -28.05725,6.51883 -8.5951,-13.11778 6.2832,-46.79817 31.60448,-71.543934 16.24233,-15.873149 23.93024,-18.510341 75.11943,-25.768279 47.95668,-6.799609 90.02598,-10.828608 128.05931,-12.264306 27.65649,-1.043988 36.60736,-0.229802 36.60736,3.329873 0,6.328273 -22.67687,32.371603 -35.84215,41.163035 -6.99901,4.673762 -8.90568,5.257069 -22.23992,6.80385 -20.5076,2.378901 -52.31521,8.519771 -76.5846,14.785651 -18.99828,4.90499 -41.68097,11.69413 -39.93401,11.95262 0.40296,0.0596 12.10296,-2.5521 26,-5.80384 C 388.64851,81.347473 516.7338,68.619024 705.06724,64.520013 877.44774,60.768212 1066.3564,70.732755 1190,90.09922 c 18.8774,2.9568 52.7327,9.02248 56.5003,10.12288 1.5167,0.44299 2.1675,0.19182 1.6543,-0.63851 -1.191,-1.92718 -30.9818,-8.77707 -55.488,-12.75852 -27.0454,-4.394014 -56.5771,-7.985085 -100,-12.160078 -41.4431,-3.984639 -42.3031,-4.274644 -55.9203,-18.855847 -10.7564,-11.517794 -25.413,-33.008236 -25.413,-37.26209 0,-2.721092 0.8407,-3.091834 9,-3.968806 10.2326,-1.099809 58.2494,1.17025 88.6248,4.189851 39.9214,3.968567 98.3142,12.173429 113.3733,15.930257 14.9193,3.721974 30.1105,13.630931 44.4623,29.002166 15.9354,17.067177 21.6136,32.898997 15.5739,43.422627 -2.1166,3.68789 -2.1287,4.19926 -0.152,6.44138 13.4679,15.27692 24.2857,67.33587 29.7364,143.10214 6.2162,86.40848 6.4982,237.15181 0.6957,372 -7.7385,179.83926 -22.6493,337.30066 -34.8845,368.38643 -0.8052,2.0459 -2.6264,4.5339 -4.0469,5.5289 -2.2952,1.6076 -4.5397,0.8789 -20.1496,-6.5414 -47.7339,-22.69077 -124.6249,-42.93037 -227.9891,-60.01239 -119.07383,-19.67817 -218.75947,-27.56157 -295.57762,-23.37505 -86.81895,4.73157 -237.40242,25.48044 -344.41795,47.45732 -91.74805,18.84151 -160.46658,40.18402 -186.41551,57.89652 -4.29167,2.9295 -8.34,5.3263 -8.9963,5.3263 -0.65629,0 -3.348,-2.385 -5.98157,-5.3001 z M 196,1012.5873 c 45.98495,-31.3667 214.52974,-70.17198 407.99999,-93.93675 79.92434,-9.81746 118.63154,-12.65459 172.43939,-12.63935 55.53687,0.0157 107.04316,3.86889 179.5606,13.43281 136.26372,17.97108 245.22152,43.91683 303.08512,72.17269 6.5239,3.1858 11.5762,4.922 12.2786,4.2196 6.693,-6.693 18.6531,-104.1557 26.5682,-216.50297 8.5711,-121.6605 12.4036,-228.37325 12.4503,-346.66666 0.033,-84.6076 -1.2118,-128.61303 -5.0932,-180 -5.9095,-78.23674 -17.5037,-128.65327 -31.7297,-137.97455 -6.8198,-4.46848 -65.8429,-16.13919 -114.226,-22.58604 -71.4671,-9.522693 -139.1853,-15.055961 -241.33332,-19.7194 -49.14741,-2.243763 -239.21705,-2.232676 -287.99999,0.0168 -137.61535,6.345707 -240.25295,17.35628 -320.66666,34.39991 -85.06895,18.0303 -140.20447,43.23402 -151.32339,69.1734 -11.79436,27.51514 -20.99046,107.09522 -25.4254,220.02321 -2.97394,75.72631 -1.64866,223.14227 2.76894,308 8.48701,163.0272 27.92912,279.29979 51.35785,307.1433 4.16392,4.9485 4.15337,4.9469 9.28867,1.444 z M 463.33332,69.300332 c 0,-3.061323 3.9305,-4.0366 28.66667,-7.1131 91.4572,-11.374756 220.2895,-16.419629 348.7876,-13.657984 65.73148,1.412683 121.19675,3.551303 124.87905,4.815061 0.91667,0.314599 1.66667,1.584764 1.66667,2.822591 0,2.053591 -1.8382,2.174177 -21,1.3776 -96.37158,-4.006271 -251.05321,-4.464743 -316.99999,-0.93958 -59.15997,3.162377 -116.61678,8.136755 -147.65789,12.783621 -16.33115,2.444782 -18.34211,2.435111 -18.34211,-0.08821 z m 1.66667,-13.607853 c -1.84888,-0.644928 -2.2556,-3.83779 -0.6178,-4.850002 0.57688,-0.356529 11.52688,-2.173517 24.33333,-4.037752 122.52331,-17.835697 326.47673,-21.936594 463.95113,-9.328678 21.86143,2.004934 25.97374,3.08354 23.01955,6.037726 -1.12948,1.129478 -8.22084,0.947196 -27.93333,-0.718013 -50.9643,-4.305201 -68.45218,-4.953677 -153.84554,-5.704808 -109.52401,-0.963388 -174.42349,1.364953 -250.57401,8.989621 -24.38843,2.441923 -71.84417,8.582578 -75.33333,9.747944 -0.73333,0.244931 -2.08333,0.183714 -3,-0.136038 z m -1.18361,-14.356834 c -0.46043,-1.199857 -0.30747,-2.696445 0.3399,-3.32575 2.21858,-2.156654 59.01344,-9.446832 103.84371,-13.329358 72.80728,-6.305477 178.4663,-9.10726 260.55776,-6.909266 75.7434,2.028025 144.07935,6.516398 147.37556,9.679776 0.79664,0.76453 0.69059,1.791702 -0.28579,2.768078 -1.18106,1.181056 -7.86369,1.013302 -27.93333,-0.701212 -50.27516,-4.294914 -70.78456,-5.062906 -154.52679,-5.786388 -107.0973,-0.925256 -175.08755,1.53403 -249.18741,9.013394 -26.20336,2.644869 -72.41076,8.68648 -77.00657,10.068596 -1.41943,0.42687 -2.66922,-0.154494 -3.17704,-1.47787 z m -0.27231,-12.13503 c 0.60724,-3.182099 7.07463,-4.547659 43.12259,-9.105152 82.8179,-10.470551 178.5179,-14.952208 291.33332,-13.643222 76.90599,0.892332 127.52961,3.249143 165.33333,7.697184 11.74597,1.382048 14.96235,2.75489 12.41723,5.300018 -1.04371,1.0437 -7.92996,0.861752 -24.6,-0.649983 -38.13831,-3.458599 -62.564,-4.704311 -123.75872,-6.311699 -114.75437,-3.014229 -252.62586,3.201515 -332.0585,14.970394 -31.07556,4.604209 -32.34866,4.673992 -31.78925,1.74246 z M 102.66666,1236.7467 c 15.09,-3.3398 38.67132,-9.9699 46.26051,-13.0065 L 154,1221.7105 v -40.0481 -40.048 l -8.33334,0.7612 c -4.58333,0.4187 -29.03333,2.3964 -54.333329,4.395 l -45.999999,3.6337 -6.666666,7.0171 c -8.111728,8.538 -18.313778,25.1063 -22.11854,35.9209 -7.5794205,21.5436 2.133026,38.8212 25.451873,45.2766 10.859835,3.0064 43.122623,2.0107 60.666661,-1.8722 z m 1319.24584,-16.1588 c 12.6404,-2.0509 20.6481,-6.0034 27.4179,-13.533 6.6582,-7.4056 8.0714,-12.2129 6.9069,-23.4961 -0.9511,-9.2147 -8.6779,-25.3627 -17.974,-37.5635 -12.0557,-15.8227 -5.7231,-14.0179 -66.7275,-19.017 -29.5193,-2.419 -53.941,-4.1287 -54.2704,-3.7993 -0.3293,0.3293 -0.5988,18.1834 -0.5988,39.6757 v 39.0768 l 3.7676,1.9483 c 4.9902,2.5805 33.4346,10.8066 46.5066,13.4496 22.568,4.5631 40.412,5.6208 54.9717,3.2585 z"
         style="fill:#b21d1d;stroke-width:1.33333337" />
      <path
         id="path74"
         d="m 574.48188,3163.2349 c -123.76778,-3.8828 -224.07273,-16.4901 -302.01439,-37.9601 -24.8298,-6.8397 -55.24544,-17.4428 -89.32668,-31.14 -16.60588,-6.6739 -34.25171,-13.1844 -39.21293,-14.4679 -8.48652,-2.1954 -9.1638,-2.6564 -11.44267,-7.788 C 121.54547,3047.2447 107.93124,2958.488 99.98549,2860 c -1.283507,-15.9091 -2.939292,-28.4635 -4.104493,-31.1208 -3.344559,-7.6275 -9.868796,-106.5241 -15.922499,-241.3588 -1.570889,-34.9885 -1.745928,-48.8753 -0.67878,-53.8512 1.016926,-4.7417 1.044755,-17.0941 0.09505,-42.1871 -5.81516,-153.647 -7.322324,-252.2541 -7.34905,-480.8154 -0.02493,-213.2843 0.591522,-259.6944 4.684427,-352.6667 3.703608,-84.1292 9.45292,-146.9113 15.347433,-167.5931 2.108691,-7.3985 6.028249,-40.8657 8.870462,-75.7402 2.59733,-31.87 2.18419,-113.9008 -0.72385,-143.7234 -1.272319,-13.0478 -2.850449,-25.1361 -3.506959,-26.8629 -1.396992,-3.6744 -0.655029,-4.7471 3.283424,-4.7471 2.766375,0 2.962135,1.0188 5.444445,28.3334 3.14842,34.6441 3.6,117.4434 0.81991,150.3333 -2.9183,34.5248 -6.738672,66.3229 -8.853329,73.6888 -7.875915,27.434 -13.726172,109.7331 -18.362137,258.3112 -2.236488,71.6772 -2.222216,440.5719 0.02068,534.6667 9.271526,388.9616 25.142446,634.7721 48.252086,747.3333 3.2718,15.9361 9.09061,36.7193 10.88904,38.8927 0.70968,0.8576 5.57201,2.8598 10.80519,4.4493 5.23316,1.5896 23.35416,8.4545 40.26886,15.2555 51.93939,20.8836 91.48862,32.7636 142.02573,42.6624 105.05616,20.5776 224.77588,27.8401 409.37551,24.8337 108.36043,-1.7647 158.41348,-4.068 235.33333,-10.8295 135.15213,-11.8801 242.24143,-32.2446 309.05783,-58.7714 15.4862,-6.1482 30.5226,-13.5628 32.542,-16.047 2.5533,-3.1409 8.3875,-23.6733 12.4093,-43.6726 17.9954,-89.4859 33.2279,-286.5226 41.9611,-542.7731 14.9875,-439.7685 9.0707,-906.0769 -12.6126,-994 -1.4468,-5.8667 -3.8092,-22.0667 -5.2499,-36 -8.3645,-80.8977 -8.1603,-151.3376 0.6373,-219.713 1.112,-8.6421 1.6354,-16.3382 1.1631,-17.1023 -0.5389,-0.8719 0.5596,-1.227 2.95,-0.9536 2.9301,0.3351 3.7241,1.0506 3.4425,3.1022 -6.1214,44.6049 -8.5322,79.4392 -8.5356,123.3334 0,53.0286 4.9876,119.7645 10.8704,145.3333 9.1299,39.6816 14.5832,119.0807 18.9567,276 3.4887,125.1785 1.7996,462.4388 -3.0985,618.6667 -0.7932,25.3 -1.6114,75.1 -1.818,110.6666 -0.3511,60.4035 -1.6094,95.6806 -6.7298,188.6667 -4.0734,73.9736 -5.9144,97.8353 -7.8934,102.3091 -1.1992,2.7109 -2.7382,15.4421 -4.0726,33.6909 -8.3018,113.5357 -20.6294,204.9079 -32.7558,242.7888 -2.1343,6.6671 -4.9635,13.1021 -6.2871,14.2999 -5.114,4.6281 -34.5859,17.3106 -59.1932,25.4724 -86.7724,28.7804 -220.1235,48.5093 -388.41039,57.464 -72.68287,3.8676 -225.5504,5.5094 -298.85144,3.2098 z m 45.51811,-44.7844 c -173.8544,-6.7158 -313.8638,-27.7154 -421.25399,-63.1828 -16.59326,-5.4801 -29.60242,-10.534 -31.38119,-12.1912 -18.30008,-17.0492 -29.84031,-119.0181 -36.03573,-318.4098 -6.19108,-199.2522 -5.14957,-552.8556 2.69604,-915.3334 5.96556,-275.6169 15.30822,-556.6065 18.68854,-562.076 0.57162,-0.9249 2.03094,-1.2569 3.33135,-0.7579 2.07987,0.7982 2.22696,2.4039 1.45296,15.861 -5.84512,101.6259 -14.82955,413.5601 -19.51757,677.6396 -5.42167,305.4057 -5.41127,620.0052 0.0261,789.3333 5.78693,180.2143 16.34785,283.993 31.20821,306.6727 4.99032,7.6163 83.95705,30.6436 150.7853,43.9704 151.78838,30.2693 355.7716,40.7527 543.99999,27.958 184.1924,-12.5203 336.1023,-44.7673 428.6332,-90.9891 10.5065,-5.2482 13.137,-7.2057 15.6258,-11.628 31.3375,-55.6808 40.6032,-593.0464 23.6916,-1373.984 -3.8917,-179.7097 -9.2957,-358.459 -12.0743,-399.389 -0.6594,-9.7122 -0.4373,-12.3722 1.1424,-13.6832 1.5469,-1.2838 2.2552,-1.2721 3.3555,0.056 3.6233,4.3726 10.9826,239.6681 16.2956,521.0164 7.969,421.9937 7.9636,797.7811 -0.015,1012 -5.5032,147.7665 -14.3138,231.7735 -26.984,257.2832 -2.6467,5.3289 -4.4354,6.7996 -15.005,12.3377 -40.4057,21.1715 -104.0568,42.53 -171.4787,57.5407 -95.2053,21.1965 -206.8183,34.4303 -333.00493,39.484 -29.42016,1.1783 -147.60513,1.4983 -174.18297,0.4716 z m 99.99999,-186.6452 c -2.93333,-0.2669 -19.73333,-1.7148 -37.33333,-3.2172 -154.80745,-13.215 -295.21301,-36.4921 -370.66666,-61.4505 -23.96881,-7.9284 -52.49292,-21.4871 -60.2658,-28.6468 l -5.59913,-5.1575 1.9258,-20 c 27.80117,-288.7232 52.77395,-485.3265 79.51523,-626 2.99716,-15.7666 5.6504,-28.8984 5.89606,-29.1816 0.24568,-0.2833 3.31658,0.7196 6.82423,2.2286 15.85061,6.8186 65.39298,11.9768 159.03694,16.5578 47.46932,2.3223 261.08353,2.327 313.99999,0.013 120.4746,-5.282 196.45659,-11.211 288.42539,-22.5062 33.665,-4.1345 40.614,-4.6597 41.5532,-3.1401 4.1458,6.708 23.9284,131.3237 36.6237,230.7013 17.0213,133.2407 36.1436,326.2622 40.1821,405.5991 l 0.9298,18.2657 -9.0876,9.4131 c -35.2068,36.468 -117.0025,66.2428 -245.29326,89.2903 -79.60757,14.3016 -219.31079,29.7277 -246.66666,27.2372 z m -568.92157,-683.472 c -0.29713,-0.9166 -0.0904,-23.5666 0.45935,-50.3333 0.54976,-26.7667 1.94678,-96.0667 3.10449,-154 10.20192,-510.518 19.23868,-829.8438 24.21711,-855.7434 0.59557,-3.0984 1.31226,-3.6727 4.15946,-3.3333 l 3.43992,0.41 33.2674,151.3334 33.26739,151.3333 -0.2144,133.3333 c -0.34708,215.836 -3.2024,401.0998 -6.78514,440.2435 -1.18556,12.9531 -1.55713,14.1169 -8.08796,25.3333 -7.07829,12.1567 -44.20525,86.9082 -67.26093,135.4232 -11.24238,23.6568 -13.57394,27.6667 -16.08721,27.6667 -1.61659,0 -3.18236,-0.75 -3.47948,-1.6667 z M 1313.4668,2219 c -27.3551,-58.3785 -67.6968,-139.754 -76.1799,-153.6667 -3.3138,-5.4348 -5.2426,-10.5652 -6.0153,-16 -3.6463,-25.6452 -6.2647,-169.3925 -7.3636,-404.2634 L 1223.0983,1472 l 33.4924,-152.6137 c 18.4208,-83.9375 34.2237,-153.0868 35.1175,-153.665 3.4552,-2.2352 5.5981,-0.3462 6.4625,5.6968 2.4055,16.8164 6.2343,114.5959 10.4909,267.9152 6.1835,222.7272 18.0929,788.3672 16.648,790.705 -0.4402,0.7122 -1.9846,1.295 -3.432,1.295 -2.0138,0 -3.9885,-2.8956 -8.4108,-12.3333 z M 275.30033,1443.9132 c -0.71519,-1.8811 -1.30034,-4.0915 -1.30034,-4.912 0,-2.5947 -12.54674,-57.6461 -31.8316,-139.6679 -39.92009,-169.7869 -53.50173,-232.6776 -53.50173,-247.7436 0,-2.5922 -0.95385,-5.767 -2.11966,-7.0553 -1.96272,-2.1687 -1.83934,-2.4857 1.66666,-4.2811 2.08248,-1.0665 14.28634,-5.5491 27.11967,-9.9615 135.00129,-46.41597 281.6459,-77.60947 421.33332,-89.62384 87.52456,-7.52789 204.54082,-6.4542 296.66666,2.72211 87.14569,8.68025 163.30849,25.06053 251.99999,54.19743 39.556,12.995 89.0614,30.9024 91.1193,32.9604 1.5159,1.5159 1.2375,7.0927 -1.7457,34.9612 -17.3203,161.8069 -30.5025,244.4945 -48.9339,306.9468 -10.9611,37.14 -30.0248,74.8774 -37.8257,74.8774 -1.6497,0 -14.3128,-2.734 -28.1401,-6.0756 -181.35902,-43.8281 -281.68165,-63.1402 -364.47388,-70.1613 -26.19787,-2.2217 -98.5026,-2.2251 -124,0 -83.72681,7.2877 -169.17662,23.6973 -358.41587,68.8297 -17.0954,4.0771 -32.26026,7.413 -33.69967,7.413 -1.58247,0 -3.1312,-1.3522 -3.91745,-3.4202 z M 1461.0662,1188.6667 c 0,-4.0334 0.2499,-5.6834 0.5555,-3.6667 0.3055,2.0167 0.3055,5.3167 0,7.3333 -0.3056,2.0167 -0.5555,0.3667 -0.5555,-3.6666 z M 81.999998,1139.4065 c 0,-2.8931 -1.218921,-13.5431 -2.708713,-23.6667 -8.354046,-56.7681 -14.999961,-122.1801 -19.289952,-189.86024 -1.096556,-17.29959 -2.87584,-43.39959 -3.953966,-58 -3.771251,-51.07183 -4.909344,-87.93385 -4.236367,-137.21289 0.610954,-44.73734 0.991599,-51.25868 4.085832,-70 8.418596,-50.9902 7.195641,-88.76828 -5.874958,-181.48231 C 47.89096,464.06909 45.77933,445.46909 45.329363,437.85103 44.879395,430.23296 43.628979,417.97612 42.55066,410.61361 40.637927,397.55392 40.670001,396.88685 43.864892,383.28028 52.604418,346.05992 60.882817,299.26691 69.331317,239.33333 76.343289,189.59047 81.637786,159.77616 86.811681,140.89812 101.35495,87.83397 128.89054,59.444871 184.59716,40.081643 246.40493,18.597697 347.26062,6.738547 564.66665,-4.6089551 c 28.23334,-1.473638 70.83334,-3.739475 94.66667,-5.0351933 73.94853,-4.0202716 230.92859,-1.5104196 357.33328,5.7131704 233.486,13.342907 307.3537,45.905969 343.1358,151.264308 8.0805,23.79279 14.898,52.67738 29.4242,124.66667 7.6948,38.13333 16.4603,80.13333 19.4788,93.33333 7.291,31.88212 7.228,31.24071 4.8582,49.45859 -1.1358,8.73111 -2.451,21.87475 -2.9226,29.20808 -0.4717,7.33333 -2.2718,23.23333 -4.0004,35.33333 -12.2677,85.87778 -14.0133,131.83966 -6.7098,176.66667 3.9696,24.36391 5.642,62.53879 5.0528,115.33333 -0.4426,39.64894 -1.5438,59.22263 -10.3896,184.66667 -2.7822,39.4536 -7.7855,88.6891 -13.2547,130.4343 -2.4813,18.9388 -4.1836,35.2888 -3.7828,36.3333 0.5377,1.4012 -0.3981,1.8991 -3.5693,1.8991 -3.8136,0 -4.205,-0.3383 -3.4712,-3 1.0017,-3.6339 5.3232,-34.1402 8.0746,-57 5.6995,-47.3526 9.0443,-84.44695 12.7442,-141.33337 1.4548,-22.36666 3.5793,-52.96666 4.7212,-68 2.8588,-37.63536 4.0828,-124.89585 2.0758,-148 -0.8598,-9.9 -3.3545,-29.23398 -5.5434,-42.96441 -5.7219,-35.88985 -6.9539,-55.65397 -5.2594,-84.36892 2.3862,-40.43405 7.0391,-79.42776 17.5011,-146.66667 2.9667,-19.06666 5.0793,-36.46666 4.6948,-38.66666 -0.3844,-2.2 -3.166,-14.8 -6.1813,-28 -3.0152,-13.2 -11.7319,-54.95828 -19.3703,-92.79619 -14.646,-72.55051 -21.5913,-102.03709 -29.4737,-125.13236 -17.773,-52.0739 -43.365,-82.315303 -87.495,-103.390415 -66.3852,-31.703481 -175.3454,-44.57428 -423.00462,-49.9669711 -34.46667,-0.7504994 -74.06666,-1.6135562 -88,-1.9179043 C 723.30028,-7.2514355 566.79069,0.003992 455.33332,7.401052 254.03499,20.760559 169.7543,38.814417 128.89612,77.327516 113.21206,92.11138 103.55593,107.30562 96.269458,128.66667 c -7.745585,22.70697 -11.010534,39.76362 -21.56643,112.66666 -8.321492,57.4714 -14.620273,94.08508 -21.676225,126 -2.675144,12.1 -5.092969,25 -5.372944,28.66667 -0.292521,3.83097 2.066691,23.39729 5.546453,46 C 71.474023,560.6964 73.646473,604.54675 64.208937,664.20624 54.807494,723.63756 54.470522,769.90192 62.622608,882 c 1.093265,15.03333 2.937708,42.03333 4.09876,60 4.228775,65.4381 18.223102,189.3239 22.629949,200.3333 0.769322,1.922 0.20363,2.3334 -3.208667,2.3334 -3.934605,0 -4.142652,-0.2642 -4.142652,-5.2602 z"
         style="fill:#741212;stroke-width:1.33333337" />
      <path
         id="path72"
         d="m 619.33332,3163.7253 c -101.47151,-1.0716 -202.00094,-9.4558 -277.33333,-23.1296 -52.54592,-9.5378 -97.43592,-22.6669 -153.11555,-44.7822 -19.31355,-7.6711 -39.0443,-14.9674 -43.84608,-16.2139 -10.33722,-2.6833 -11.59285,-4.1957 -15.93777,-19.1968 -10.31923,-35.6276 -19.56042,-98.8512 -27.73311,-189.7361 -1.846433,-20.5334 -3.931317,-39.7334 -4.633077,-42.6667 -1.251254,-5.2301 -2.060578,-15.6239 -6.021728,-77.3333 -5.524603,-86.066 -9.862075,-181.1834 -10.640307,-233.3334 -0.31736,-21.2666 -1.204996,-57.5666 -1.972524,-80.6666 -8.212055,-247.1554 -8.825947,-576.7684 -1.425407,-765.3334 3.603497,-91.8166 8.988455,-152.8838 15.990146,-181.3333 2.494154,-10.1343 6.933568,-51.3732 9.329767,-86.6667 2.90328,-42.7622 0.75784,-128.6582 -3.874063,-155.1044 -0.892621,-5.0964 -0.732836,-6.5892 0.766924,-7.1647 1.041954,-0.3998 2.117619,-0.5028 2.390359,-0.2289 0.27275,0.2739 1.51628,10.098 2.7634,21.8314 2.9869,28.1017 4.14827,106.4028 2.06931,139.515 -2.44801,38.9903 -6.57893,76.6711 -10.065974,91.8183 -14.342284,62.3008 -21.961984,278.7229 -20.232626,574.6667 2.768962,473.851 24.153577,860.0348 54.21404,979.0489 6.22642,24.6513 6.12249,24.5109 21.97428,29.6812 7.33333,2.3917 25.93333,9.4347 41.33333,15.6508 74.59597,30.1105 146.03017,46.6623 245.33333,56.8452 79.06565,8.1077 134.09801,9.9432 270.66666,9.0272 124.50866,-0.8351 159.78057,-2.1228 246.63359,-9.0041 157.39819,-12.4706 285.48999,-37.9047 347.60549,-69.0212 l 15.0942,-7.5614 3.819,-11.3333 c 30.6532,-90.9689 54.68,-482.2336 57.9692,-944 2.3784,-333.9027 -4.922,-563.8963 -19.8178,-624.3364 -2.665,-10.8136 -6.6202,-44.0916 -9.5477,-80.3303 -2.5709,-31.8268 -2.1689,-111.5098 0.7096,-140.6666 4.8299,-48.9204 5.3901,-52.6024 8.0819,-53.1208 2.1226,-0.4088 2.3522,0.1456 1.6526,3.9897 -1.2156,6.6797 -4.509,36.5831 -6.4392,58.4644 -2.1878,24.804 -2.1657,102.046 0.037,130 2.5944,32.9215 6.8014,69.8859 8.8773,78 6.4231,25.1063 11.6507,81.0933 15.3128,164 7.648,173.1368 7.6335,515.1199 -0.032,762 -0.7515,24.2 -1.6092,62.3 -1.9061,84.6667 -0.8854,66.6988 -10.8834,267.3416 -14.1143,283.249 -0.7353,3.6204 -2.5333,21.9204 -3.9956,40.6667 -9.4673,121.372 -21.4839,206.8132 -34.3252,244.0611 -2.9171,8.4616 -5.3779,10.2318 -28.2815,20.3453 -78.4791,34.6536 -228.5114,59.9225 -417.33329,70.2885 -55.04005,3.0216 -184.82689,5.242 -259.99999,4.448 z m 42.66666,-45.2348 c -185.11578,-3.4004 -344.36241,-25.2886 -461.33332,-63.4094 -31.18344,-10.1627 -32.72976,-10.9051 -36.63125,-17.5879 -18.36316,-31.4539 -29.31654,-164.084 -34.03865,-412.1599 -1.69409,-88.999 -1.69423,-395.2016 -2.3e-4,-522 3.87337,-289.9281 12.40007,-631.0056 19.99945,-800 2.28722,-50.8628 2.74843,-56 5.02768,-56 1.77988,0 1.92264,2.5795 1.12539,20.3334 -0.50221,11.1833 -1.47772,32.9333 -2.16781,48.3333 -4.14447,92.4876 -10.01579,290.9011 -13.94736,471.3333 -15.82918,726.45 -5.86525,1185.9278 27.01837,1245.9283 l 3.61441,6.5951 18.66667,6.5022 c 93.54072,32.5835 219.2729,54.3996 366.66666,63.6214 87.24197,5.4582 205.52354,5.4589 292.66666,0 189.49575,-11.8675 349.40095,-44.8215 441.33335,-90.952 15.643,-7.8495 16.841,-8.7316 19.505,-14.3631 15.5304,-32.83 25.3684,-169.796 29.8804,-416 2.5858,-141.0905 1.516,-522.2813 -2.0393,-726.6667 -4.9405,-284.016 -9.4164,-463.0553 -14.8108,-592.4384 -1.1566,-27.7411 -1.7901,-50.7512 -1.4078,-51.1335 1.9408,-1.9409 3.3416,1.9103 4.0852,11.2311 3.547,44.4634 11.3466,329.4182 15.4467,564.3408 9.1762,525.7686 5.7244,933.324 -9.3785,1107.3334 -5.5077,63.4574 -13.444,104.6778 -21.6355,112.3734 -5.8849,5.5286 -46.9409,23.817 -77.6454,34.5872 -105.5632,37.0283 -260.69362,61.6263 -430.66668,68.288 -38.19446,1.497 -108.96626,2.4664 -139.33334,1.9086 z m 52.66667,-187.9625 c -2.93333,-0.3011 -16.43333,-1.4809 -30,-2.622 -33.2366,-2.7956 -80.51697,-7.804 -119.33333,-12.6412 -154.67621,-19.2751 -260.36686,-44.0261 -303.92455,-71.1745 -15.98406,-9.9624 -14.99083,-3.4807 -9.4438,-61.6292 20.66861,-216.665 45.63868,-417.7194 68.03362,-547.7944 6.59966,-38.3323 13.4628,-73.9059 14.44876,-74.8919 0.35099,-0.3509 2.36614,0.2555 4.47811,1.3476 20.68145,10.6948 162.65246,19.5283 313.74119,19.5211 132.78643,0 269.16357,-6.3872 385.33335,-18.0291 33.8694,-3.3941 96.3916,-10.9055 100.1451,-12.0312 1.1798,-0.3539 2.8576,0.2152 3.7285,1.2645 4.8955,5.8988 25.0329,133.1534 39.3743,248.819 17.3905,140.2564 34.98,319.889 37.6388,384.3861 l 0.8741,21.2021 -11.9324,11.5392 c -20.6075,19.9284 -50.0503,35.1454 -99.8284,51.5946 -67.4595,22.2918 -161.57649,40.4748 -275.33335,53.193 -56.33111,6.2979 -103.26525,9.4586 -118,7.9463 z M 153.03082,2248.8964 c -1.28405,-0.7972 -1.36074,-14.3363 -0.35664,-62.956 0.70358,-34.0672 2.20187,-107.8404 3.32956,-163.9404 3.63611,-180.8872 10.07834,-466.2249 11.99619,-531.3333 0.41043,-13.9334 1.63232,-55.9334 2.71532,-93.3334 2.56567,-88.6018 5.6078,-167.2887 7.37143,-190.6666 1.3697,-18.1561 2.79006,-23.0103 6.12892,-20.9459 0.85192,0.5268 16.60192,69.758 35,153.8472 l 33.45106,152.8895 -0.0136,65.1046 c -0.0368,176.2458 -3.56108,435.3032 -6.68119,491.1046 -1.28817,23.0385 -1.36362,23.4428 -5.97021,32 -8.82543,16.394 -54.71434,108.7028 -67.9403,136.6666 -13.76898,29.112 -16.27752,33.2726 -19.03055,31.5631 z m 51.66895,-118.2297 C 214.12089,2111.6 224.95026,2090.6 228.76505,2084 c 5.96382,-10.3181 7.08784,-13.4016 8.0196,-22 3.1618,-29.1776 5.7779,-182.6643 7.28368,-427.3333 L 244.92173,1496 215.33101,1360.6667 c -16.27489,-74.4334 -29.74323,-135.4943 -29.92963,-135.691 -0.70692,-0.746 -4.10744,89.8713 -6.7181,179.0243 -4.58431,156.5527 -13.62418,556.6583 -17.41222,770.6667 l -0.82601,46.6666 13.56271,-28 c 7.45949,-15.4 21.2709,-43.6 30.69201,-62.6666 z M 1306.0389,2201 c -24.4314,-51.2572 -60.993,-124.6993 -67.2453,-135.0773 -5.8709,-9.745 -6.1145,-10.5808 -7.3843,-25.3334 -3.6099,-41.9408 -6.7009,-245.9985 -6.7264,-444.0597 l -0.016,-126.1371 32.7263,-149.8629 c 17.9994,-82.4246 33.0399,-150.9129 33.4232,-152.1963 0.3833,-1.2833 1.8037,-2.3333 3.1565,-2.3333 1.8238,0 2.6481,1.2926 3.1886,5 4.9227,33.7631 13.315,330.8495 23.4746,831 4.947,243.5364 4.822,228 1.8336,228 -2.0845,0 -5.3813,-5.8188 -16.4305,-29 z M 277.06765,1445.6968 c -0.71986,-0.9332 -2.33532,-7.0968 -3.58991,-13.6968 -2.82645,-14.8689 -7.73708,-36.3104 -32.82683,-143.3333 -34.4543,-146.9684 -47.36459,-206.0107 -50.58374,-231.3334 -0.7458,-5.8666 -1.7036,-11.8928 -2.12844,-13.3914 -0.69299,-2.4444 0.98472,-3.3551 16.31108,-8.8537 100.42269,-36.0284 232.55034,-68.10693 344.67682,-83.68217 83.7254,-11.63012 148.43811,-15.48747 239.74002,-14.29027 142.23046,1.865 235.69855,14.20345 345.41895,45.59779 42.1042,12.04725 138.0961,44.93475 141.7133,48.55195 1.0364,1.0365 0.2074,13.0097 -2.9374,42.4226 -20.088,187.8828 -37.3596,281.6563 -62.2237,337.8327 -5.9351,13.4093 -18.2277,33.7864 -21.0201,34.8443 -0.8897,0.337 -15.1177,-2.6064 -31.6177,-6.5411 -146.3604,-34.9017 -230.21871,-52.4917 -294.00395,-61.6696 -133.98003,-19.2781 -225.02404,-12.7699 -417.32939,29.8329 -36.00431,7.9763 -160.84061,37.0822 -166.14509,38.737 -1.1798,0.3681 -2.73406,-0.095 -3.45392,-1.0275 z m 182.26567,-49.6145 c 71.95384,-15.3079 150.01121,-27.8183 206,-33.016 24.93125,-2.3146 112.68796,-2.3106 136.66666,0 60.14453,5.8109 109.16608,13.7354 216.79962,35.0468 8.0471,1.5933 8.2935,1.55 23.3334,-4.0982 83.7541,-31.4536 145.5737,-74.0536 178.5876,-123.0654 28.9258,-42.9426 33.7841,-84.815 14.9181,-128.5752 -9.6428,-22.3665 -30.7905,-50.6161 -51.5446,-68.8544 -69.0763,-60.7028 -175.0552,-102.49265 -311.74652,-122.92873 -61.01949,-9.12274 -185.4677,-7.09604 -284.52606,4.63367 -76.7071,9.08304 -117.07017,18.61415 -173.82153,41.04516 -75.91786,30.0067 -131.88356,68.4192 -164.88641,113.1711 -14.95652,20.281 -28.20945,50.4976 -26.59002,60.625 0.42664,2.668 5.93931,26.9932 12.25041,54.056 13.15121,56.3942 11.45993,52.647 34.45682,76.3413 29.30818,30.1969 70.14758,57.3435 118.7692,78.9479 23.43243,10.4119 48.30385,19.7954 52.66667,19.8699 1.83333,0.032 10.23333,-1.4109 18.66666,-3.2051 z M 84.19178,1143.6436 c -0.930359,-1.5053 -8.962992,-59.6211 -12.758915,-92.3103 -4.208508,-36.2421 -7.773208,-76.84805 -10.735252,-122.28646 -1.492214,-22.89091 -3.582137,-53.19091 -4.644273,-67.33333 -3.193097,-42.51634 -5.026402,-98.84275 -4.070008,-125.04684 0.495155,-13.56667 1.119199,-30.66667 1.386764,-38 0.267564,-7.33334 2.362863,-24.43334 4.656219,-38 3.23987,-19.16591 4.331772,-30.3161 4.896332,-50 C 63.933753,575.41353 61.628877,549.14704 50.05269,464 c -8.353407,-61.44233 -8.701229,-65.10653 -6.99862,-73.72836 0.825992,-4.18273 3.356402,-16.30497 5.623134,-26.93831 7.377088,-34.60622 13.022636,-67.6603 21.292737,-124.66666 12.14252,-83.69922 17.170632,-105.6522 30.113049,-131.47506 29.98327,-59.822937 100.37254,-84.275757 287.25033,-99.789095 97.84951,-8.122807 307.99406,-19.501811 355.33333,-19.240752 68.13749,0.375753 201.27237,4.3396135 265.99995,7.919689 201.409,11.139899 282.7387,35.893416 325.652,99.115508 3.6823,5.425 9.876,16.525 13.7639,24.66667 13.9632,29.24094 21.3101,56.42385 39.1371,144.80304 13.1049,64.96946 17.8342,87.42314 24.1518,114.66666 l 4.174,18 -2.0245,14 c -1.1136,7.7 -2.396,17.9 -2.8499,22.66667 -0.454,4.76667 -2.8724,23.06667 -5.3742,40.66667 -6.1612,43.34124 -9.6244,75.19518 -11.3794,104.66666 -1.6977,28.5092 -0.549,47.97455 4.8222,81.71688 3.9236,24.64795 4.0744,26.97296 5.3462,82.39076 0.9442,41.13923 -0.1253,74.44486 -4.0846,127.2257 -1.0454,13.93333 -2.8438,40.33333 -3.9967,58.66666 -3.7723,59.98967 -8.2895,104.35927 -19.1397,187.99997 -0.6036,4.6527 -1.469,6.6667 -2.8648,6.6667 -2.3358,0 -2.3742,0.8343 1.167,-25.3333 7.1,-52.466 12.0372,-100.9821 15.4682,-152.00003 1.1342,-16.86667 2.6665,-39.06667 3.405,-49.33334 0.7386,-10.26666 2.255,-31.56666 3.37,-47.33333 1.1151,-15.76667 2.3907,-48.16667 2.835,-72 0.9337,-50.10429 -0.4846,-74.95232 -6.3464,-111.18648 -2.1486,-13.28077 -4.5814,-31.34685 -5.4064,-40.14685 -3.2692,-34.8718 2.1328,-95.99012 16.8528,-190.66878 l 5.9698,-38.39866 -3.94,-16.79962 c -5.6509,-24.09406 -10.6108,-47.65576 -24.1344,-114.6499 -17.6208,-87.291 -25.2324,-115.67343 -38.5413,-143.71435 -9.0597,-19.08813 -16.9541,-30.71752 -30.1305,-44.385936 C 1288.2522,50.750148 1253.8182,34.255651 1196.5303,21.506911 1120.9055,4.677524 992.02707,-4.1168043 781.47128,-6.8156433 715.66425,-7.6591375 673.83661,-6.2530595 537.99999,1.368887 242.33275,17.959108 153.19954,37.26148 113.33266,93.33333 94.47935,119.85007 87.869599,144.10616 74.665156,235.23317 65.817488,296.29303 61.290011,323.18163 53.993796,358 44.685455,402.42047 44.889758,394.77548 51.820268,439.33333 69.866761,555.35843 72.601933,607.33552 63.572653,662.66667 54.084126,720.81207 53.415384,767.78572 60.649421,868 c 1.429278,19.8 3.238367,46.5 4.020199,59.33333 3.508928,57.59708 9.393229,116.05997 18.098538,179.81627 3.117332,22.8308 4.343759,35.6051 3.499413,36.4495 -0.805355,0.8054 -1.595111,0.8223 -2.075791,0.045 z"
         style="fill:#671010;stroke-width:1.33333337" />
      <path
         id="path70"
         d="m 552.66665,3161.8835 c -118.50457,-5.0203 -215.12652,-18.3439 -289.0363,-39.8564 -27.44006,-7.987 -38.9553,-12.0415 -72.96369,-25.6908 C 176,3090.4497 157.4,3083.4649 149.33333,3080.8144 l -14.66667,-4.8189 -4.23591,-12.6644 C 120.23954,3032.8617 109.5033,2961.8116 102.02283,2875.3333 100.53212,2858.1 98.413642,2837.7 97.315095,2830 92.350657,2795.2029 82.66957,2619.5592 80.669538,2528 c -0.672798,-30.8 -1.841805,-74.9 -2.59779,-98 -9.050168,-276.538 -8.463153,-640.9991 1.309982,-813.3333 3.371507,-59.4514 7.433061,-99.127 12.625524,-123.3334 5.457003,-25.4396 9.311026,-65.2722 11.264506,-116.4224 1.60005,-41.8957 -0.0376,-86.102 -4.763245,-128.5776 -0.697146,-6.2661 -0.492241,-7.6666 1.121706,-7.6666 1.587959,0 2.470299,5.0263 4.505559,25.6666 3.09761,31.4141 3.58005,121.5956 0.81849,153 -3.56069,40.4922 -5.925281,59.7959 -8.982873,73.3334 -8.682968,38.4437 -13.712493,110.5722 -18.269257,262 -2.220698,73.7969 -2.207372,427.7006 0.01973,524 9.49025,410.3562 27.46037,674.7664 52.3273,769.9376 6.28814,24.0661 5.81922,23.4941 24.6175,30.0268 8.8,3.0581 26.76758,9.9257 39.92796,15.2612 89.64306,36.3428 184.63543,54.5874 326.71107,62.7493 93.04694,5.3453 275.6333,4.0685 382.02762,-2.6715 187.43448,-11.8738 333.70628,-38.6957 404.30388,-74.1372 10.5679,-5.3053 12.4635,-7.8417 16.6622,-22.2941 17.4572,-60.0907 32.3618,-208.5079 43.002,-428.2055 21.4559,-443.0166 17.993,-1040.126 -6.591,-1136.5054 -6.0608,-23.7606 -11.2386,-92.1844 -11.2116,-148.1612 0.02,-42.0231 1.0326,-61.058 5.2474,-98.6667 2.728,-24.3427 3.2082,-26.6667 5.508,-26.6667 1.4246,0 1.7579,0.9987 1.2243,3.6667 -6.5787,32.892 -10.4495,118.2855 -7.6305,168.3333 1.9533,34.6808 6.388,80.5567 8.9576,92.6667 10.2056,48.0957 14.5085,104.4509 19.496,255.3333 1.1576,35.017 1.6965,120.6248 1.6958,269.3334 -10e-4,207.4498 -0.879,281.5412 -4.7482,400.6666 -0.7384,22.7334 -1.595,60.5334 -1.9034,84 -0.9648,73.3896 -10.1185,255.6687 -14.6973,292.6667 -1.1344,9.1667 -3.5599,35.5667 -5.39,58.6667 -8.6893,109.6784 -20.8299,192.8418 -32.8526,225.0428 -2.5514,6.8334 -2.9728,7.2148 -14.1844,12.8333 -85.9562,43.0764 -272.5849,72.4401 -504.88818,79.4377 -50.47397,1.5204 -215.98621,1.457 -252.66666,-0.097 z m 49.33334,-45.3192 c -165.71156,-6.8828 -310.89314,-30.0246 -414.32431,-66.0427 -21.22147,-7.39 -23.58756,-9.5291 -28.73975,-25.9808 -13.97255,-44.6167 -21.85344,-142.0489 -27.70672,-342.5408 -2.23215,-76.4577 -3.06564,-406.8656 -1.37566,-545.3333 3.63993,-298.2352 10.90199,-599.5846 19.6001,-813.3334 2.68329,-65.9394 3.36651,-74.9479 5.74396,-75.736 1.56256,-0.5179 1.72015,2.1622 0.97369,16.559 -8.65717,166.9721 -18.17531,539.9873 -22.31467,874.5104 -1.70255,137.5922 -0.86528,465.4177 1.38258,541.3333 5.97437,201.7685 13.88117,300.4651 27.49572,343.2145 4.53623,14.2438 6.82849,16.4904 22.58025,22.1307 89.65365,32.1027 221.97805,55.4225 366.68481,64.6219 95.28678,6.0574 214.45918,5.7841 310.66666,-0.7126 186.54275,-12.5968 345.47155,-46.6944 433.33335,-92.9698 9.1895,-4.84 11.0839,-6.4582 13.6797,-11.6848 12.4776,-25.1244 21.449,-121.781 26.9724,-290.5999 6.1507,-187.9853 6.1461,-552.1804 -0.011,-906 -3.6023,-207.0037 -8.0507,-384.7376 -12.7646,-510 -2.716,-72.1732 -2.8132,-78.5175 -1.2099,-78.9629 1.9389,-0.5387 2.8486,12.7931 5.2063,76.2962 15.1953,409.2798 22.0518,1075.463 14.1362,1373.4867 -5.4859,206.5451 -15.3871,317.4376 -30.5378,342.0219 -2.7248,4.4213 -17.1022,12.0341 -45.353,24.0142 -104.9509,44.5059 -274.05176,73.9792 -469.2687,81.7907 -38.10887,1.5249 -157.3642,1.4744 -194.84964,-0.083 z m 116.66666,-186.1048 c -136.56201,-10.3768 -278.30287,-30.6934 -362.66666,-51.9831 -46.60962,-11.7623 -90.05117,-28.8548 -103.64096,-40.7785 l -4.97429,-4.3646 4.63987,-48 c 25.0841,-259.4978 51.45625,-465.2808 76.11894,-593.9594 3.2987,-17.2111 6.25135,-31.5466 6.56148,-31.8567 0.31012,-0.3101 1.32835,0.065 2.26274,0.8335 10.06752,8.2802 88.09789,15.5046 206.36555,19.106 56.78968,1.7293 219.81134,0.9128 271.33333,-1.359 122.13744,-5.3856 197.47475,-11.2398 286.38525,-22.2545 21.1119,-2.6155 39.1818,-4.4496 40.1553,-4.0761 4.5353,1.7404 25.0593,130.6813 40.0428,251.5662 16.7589,135.209 33.9822,311.2882 37.5252,383.6319 l 0.9289,18.9652 -9.8521,9.8493 c -35.6851,35.6754 -115.7069,64.4479 -243.18536,87.4391 -81.21886,14.6483 -217.18108,29.5825 -247.99999,27.2407 z m 3.73724,-97.8268 c 160.9742,-8.9259 297.50551,-89.5427 354.88401,-209.5462 54.2083,-113.3733 25.6417,-241.0549 -74.4787,-332.8909 -50.0967,-45.9515 -118.77647,-81.0496 -192.07291,-98.1571 l -19.91105,-4.6473 -97.41263,0.7528 -97.41262,0.7529 -16.66667,3.9359 c -86.82589,20.5041 -165.95009,66.3435 -217.20478,125.8339 -27.04432,31.3898 -46.0012,63.3434 -57.95725,97.6922 -4.66032,13.3888 -8.01722,34.0292 -13.58446,83.5263 -2.39073,21.2556 -1.68338,35.3252 2.92172,58.1148 30.32538,150.0733 186.08567,264.2779 374.49143,274.5799 27.24479,1.4897 28.46688,1.4909 54.40391,0.053 z M 152.38597,2247.7405 c -0.29112,-0.5906 -0.074,-23.8738 0.48249,-51.7405 13.18294,-660.1409 22.12887,-990.6941 27.27098,-1007.6667 0.71218,-2.3506 3.84509,-3.1889 4.98316,-1.3333 0.33732,0.55 15.66789,69.8302 34.06794,153.956 l 33.45465,152.9561 -1.31836,198.3772 c -1.64792,247.9664 -4.04709,363.8535 -7.87964,380.6087 -0.6162,2.6939 -2.32021,6.5939 -3.7867,8.6667 -5.09951,7.2077 -23.77777,44.1389 -53.15625,105.102 -26.82848,55.6716 -32.1158,65.1362 -34.11827,61.0738 z M 197.07546,2150 c 11.962,-24.5667 25.26415,-50.9667 29.56035,-58.6667 4.29618,-7.7 8.57676,-15.5 9.51236,-17.3333 4.38257,-8.5877 6.7449,-111.6372 8.58896,-374.6667 L 246.17201,1494.6667 216.69285,1360 c -16.21355,-74.0667 -29.96908,-136.4667 -30.56787,-138.6667 l -1.0887,-4 -0.79098,4.6667 c -0.43505,2.5667 -1.1258,13.6667 -1.53502,24.6667 -4.56596,122.7357 -6.6463,193.138 -10.7165,362.6666 -4.59408,191.348 -10.57178,474.517 -11.9905,568 l -0.7487,49.3334 8.03591,-16 c 4.41975,-8.8 17.82299,-36.1 29.78497,-60.6667 z m 1122.62474,78.3333 c -0.7112,-0.9166 -9.5688,-19.0666 -19.6835,-40.3333 -23.9145,-50.2809 -54.108,-110.6773 -60.9135,-121.846 -3.7971,-6.2315 -5.7052,-11.1689 -6.5005,-16.8207 -3.697,-26.2737 -6.3164,-168.9436 -7.3931,-402.6666 L 1224.405,1472 l 33.3079,-151.7771 c 18.3194,-83.4774 33.9782,-152.4474 34.7975,-153.2667 2.8678,-2.8678 4.1344,1.1238 5.4266,17.1009 4.7648,58.9148 13.1597,365.5082 22.0494,805.2762 1.0969,54.2667 2.6407,130.0062 3.4305,168.3099 0.7898,38.3039 1.0587,70.2539 0.5975,71 -1.1283,1.8257 -2.7477,1.7093 -4.3142,-0.3099 z M 1316.1217,2165 c -0.4858,-21.0833 -2.0627,-97.4333 -3.5043,-169.6667 -6.1118,-306.2529 -13.0189,-588.2546 -17.292,-706 -0.7185,-19.8 -1.6464,-45.6 -2.0619,-57.3333 -0.4156,-11.7333 -1.0889,-22.8333 -1.4964,-24.6667 -0.452,-2.0338 -12.1516,48.3887 -30.0095,129.3334 l -29.2686,132.6666 0.1361,131.3334 c 0.2166,208.8792 3.1705,403.7372 6.6802,440.6666 1.0531,11.0806 1.672,12.9195 8.0768,24 7.9352,13.7279 32.7452,63.2258 53.9663,107.6667 7.9664,16.6833 14.7482,30.3333 15.0705,30.3333 0.3223,0 0.1885,-17.25 -0.2972,-38.3333 z M 276.66666,1445.3799 c 0,-3.05 -13.89928,-64.2244 -33.33439,-146.7132 C 204.5311,1133.982 190,1066.5837 190,1051.3004 c 0,-2.6219 -0.66772,-5.4348 -1.48383,-6.2509 -2.22376,-2.2238 -0.53105,-3.8899 6.48539,-6.3836 143.98969,-51.1747 300.67584,-85.18627 448.33176,-97.31854 85.1322,-6.99496 209.70471,-5.30917 297.33333,4.02368 66.63675,7.09712 127.53775,18.92552 192.08565,37.30755 26.343,7.50201 94.4285,30.02511 125.9143,41.65331 l 17.3334,6.4014 -0.3795,9.3 c -0.5086,12.463 -11.0731,107.1301 -16.9589,151.9667 -16.064,122.3713 -33.5227,194.8536 -57.0811,236.9797 -6.2464,11.1696 -11.1344,17.0203 -14.2199,17.0203 -1.3212,0 -18.8179,-3.9217 -38.8814,-8.7148 -236.59542,-56.5227 -333.90498,-72.1756 -431.81255,-69.4604 -92.03738,2.5525 -171.74626,16.1381 -373.16934,63.6036 -57.95065,13.656 -66.83065,15.5099 -66.83065,13.9515 z m 910.08794,-7.067 c 2.9103,-2.0057 10.3861,-14.2714 15.9086,-26.1017 24.6067,-52.7117 43.5191,-153.2868 61.9683,-329.5445 2.226,-21.2667 4.3582,-40.5445 4.7382,-42.8395 l 0.6909,-4.1729 -23.0303,-8.3225 c -167.9175,-60.68065 -275.7684,-80.418 -456.36365,-83.51717 -86.38096,-1.48239 -164.76346,3.44946 -248.66666,15.64617 -99.76576,14.50259 -208.59456,40.203 -305.33333,72.1059 -39.954,13.1762 -40,13.1979 -40,18.8346 0,15.345 18.70436,101.9272 54.64088,252.932 12.25847,51.5099 22.76743,97.0183 28.71148,124.3334 1.49947,6.8905 2.86987,10.3333 4.11317,10.3333 1.02548,0 19.71526,-4.2276 41.53283,-9.3948 161.97518,-38.3609 242.83253,-54.1035 323.00163,-62.8864 23.92649,-2.6213 34.39629,-2.9981 84,-3.0233 57.58897,-0.029 65.49068,0.4034 112,6.1338 63.63568,7.8407 148.16567,24.7603 286.66665,57.3798 28.2333,6.6494 51.5833,12.3226 51.8889,12.607 0.8163,0.76 1.9298,0.6014 3.5324,-0.5032 z M 79.541722,1113 C 70.59292,1048.0562 65.021903,993.7588 61.312787,935.33333 60.17218,917.36667 58.070772,886.46667 56.642991,866.66667 53.478795,822.78664 50.965132,755.62063 51.977388,742 c 0.408748,-5.5 1.009563,-19.9 1.335144,-32 0.439371,-16.32885 1.669396,-28.35856 4.771624,-46.66667 8.519811,-50.28052 6.80168,-98.39621 -6.8798,-192.66666 -2.235004,-15.4 -4.937977,-35.5 -6.006608,-44.66667 -1.06863,-9.16667 -2.294628,-19.67515 -2.724437,-23.35219 -0.570662,-4.88204 0.313389,-11.5361 3.277181,-24.66666 9.267895,-41.05976 14.649979,-71.90738 24.959073,-143.0538 13.029864,-89.92335 19.937498,-115.7903 37.989965,-142.26068 5.76408,-8.451883 21.77229,-24.22571 30.86692,-30.414981 15.69847,-10.683462 40.89369,-21.320198 66.92068,-28.252088 72.2432,-19.240866 179.89074,-29.546437 438.5594,-41.9852087 37.97561,-1.8261582 70.57371,-3.7035783 72.44023,-4.1720453 1.86652,-0.468467 27.79557,-0.168461 57.62012,0.666681 29.82454,0.835142 77.92643,2.1277196 106.8931,2.8723945 C 1208.69,-0.220029 1304.2164,26.089245 1347.9682,119.71544 c 14.0695,30.10808 21.9859,59.55143 39.5102,146.95123 6.6168,33 15.4178,75 19.5578,93.33333 4.14,18.33333 7.5236,35.43333 7.5191,38 -0.013,5.26424 -2.7995,27.50029 -8.6164,68.66667 -11.0277,78.04425 -14.7983,126.57454 -12.23,157.41428 0.8512,10.22214 3.0123,27.88572 4.8024,39.25238 7.6609,48.64534 8.1156,112.42176 1.4541,204 -1.0934,15.03334 -2.8917,41.73334 -3.9961,59.33334 -3.5423,56.4485 -8.3869,107.59703 -14.6641,154.81973 -1.841,13.8491 -3.7246,28.9303 -4.1858,33.5136 -0.5745,5.711 -1.407,8.3333 -2.6456,8.3333 -2.271,0 -2.24,-2.6191 0.2364,-20 6.3919,-44.8603 12.6278,-105.0139 15.9643,-153.99997 1.1489,-16.86666 3.2659,-47.46666 4.7045,-68 4.2619,-60.83089 5.2868,-84.67324 5.2731,-122.66666 -0.015,-41.55579 -1.2175,-58.2222 -6.7341,-93.33334 -2.1894,-13.93333 -4.6128,-32.83333 -5.3855,-42 -2.916,-34.58786 2.7539,-96.17946 17.5779,-190.94774 l 5.3622,-34.2811 -7.358,-33.05224 C 1400.0677,346.87351 1391.0164,303.5 1384.0006,268.66667 1370.243,200.36085 1363.3288,171.37963 1355.053,147.33333 1331.1979,78.018036 1292.1367,45.070581 1209.0614,24.191911 1135.74,5.764597 1016.6956,-3.109842 787.99998,-7.1970749 737.19328,-8.1050889 724.51916,-7.8499272 651.33332,-4.4456331 385.59592,7.91534 274.04407,18.672219 203.63378,38.725769 156.67001,52.101517 128.72325,69.505677 110.71723,96.5906 93.64347,122.2732 87.458786,145.83147 74.643526,234 c -9.210831,63.3702 -13.456398,88.41827 -21.356579,126 -3.391443,16.13333 -6.476312,32.03333 -6.855267,35.33333 -0.415438,3.61772 1.191728,18.1761 4.047808,36.66667 19.984157,129.37967 22.214376,171.76933 12.311287,234 -8.526593,53.58081 -9.320395,110.52677 -2.748667,197.18447 1.078237,14.21813 3.173512,44.51813 4.656165,67.33333 4.282164,65.8943 9.780223,119.6878 18.684995,182.8155 4.611767,32.6938 4.419242,30 2.14412,30 -1.343632,0 -2.87593,-7.7651 -5.985666,-30.3333 z"
         style="fill:#5a0e0e;stroke-width:1.33333337" />
      <path
         id="path68"
         d="m 567.41909,3161.8915 c -111.61643,-3.8164 -204.27935,-14.9402 -277.83804,-33.3532 -33.16814,-8.3027 -57.35446,-16.2754 -97.55155,-32.1567 -20.51712,-8.106 -41.76244,-16.0156 -47.21184,-17.5768 l -9.90799,-2.8385 -2.52233,-7.3164 c -11.76688,-34.132 -20.99546,-95.4795 -31.78858,-211.3166 -1.503222,-16.1333 -3.268207,-35.0333 -3.922189,-42 -4.588584,-48.8808 -13.762759,-220.4505 -15.328637,-286.6666 -0.372849,-15.7667 -1.56639,-57.1667 -2.652313,-92 -8.395606,-269.3074 -8.672988,-601.326 -0.654427,-783.3334 2.472398,-56.119 7.177552,-117.8517 10.721363,-140.6666 0.740401,-4.7667 2.48401,-13.5054 3.874685,-19.4191 2.869851,-12.2041 5.637047,-34.7807 8.896208,-72.5809 4.18197,-48.5031 2.45234,-148.8069 -3.020409,-175.158 -0.594311,-2.8616 -0.339238,-3.673 1.012982,-3.2223 4.025367,1.3416 8.503377,75.1211 7.346877,121.0469 -1.24909,49.6026 -6.41227,108.0012 -11.436861,129.3579 C 83.968781,1541.4319 77.369564,1671.864 75.536572,1886 c -4.160735,486.0705 17.21725,982.8665 49.113528,1141.3333 4.23682,21.0494 10.0166,42.2568 12.2498,44.9478 0.77513,0.934 5.56875,2.9368 10.65248,4.4508 5.08374,1.514 23.45054,8.4573 40.81511,15.4296 71.12425,28.558 126.63014,42.8118 209.47074,53.7918 97.59817,12.9359 202.46394,16.6748 375.49509,13.3883 228.02378,-4.3311 413.88898,-29.7479 515.99998,-70.562 19.139,-7.65 29.0875,-13.582 31.4946,-18.7796 9.3624,-20.2155 21.3426,-94.2515 29.7743,-184 13.9218,-148.1872 22.717,-334.2041 28.9994,-613.3333 2.2013,-97.805 2.2145,-440.0592 0.02,-514.6667 -4.4768,-152.1831 -9.7054,-227.8589 -18.3323,-265.3333 -3.5505,-15.4226 -7.6529,-53.3454 -10.0687,-93.0747 -1.9561,-32.1717 -0.8626,-106.6977 1.9702,-134.2587 3.4252,-33.3258 5.0733,-44.6666 6.491,-44.6666 0.862,0 1.0251,2.7796 0.4498,7.6666 -6.2038,52.7021 -7.4647,72.3994 -7.4647,116.606 0,52.5107 5.0564,120.8096 10.6899,144.394 8.9934,37.6506 14.3429,113.5807 18.9284,268.6667 1.0822,36.6048 1.666,125.1129 1.6489,250 -0.024,179.5489 -0.9944,259.9199 -4.6332,384 -0.7097,24.2 -1.8859,68 -2.6136,97.3333 -2.4576,99.0632 -9.66,238.7471 -16.0187,310.6667 -0.7132,8.0667 -2.2292,26.3667 -3.369,40.6667 -7.3071,91.6737 -17.5522,169.6249 -27.4251,208.6666 -6.4478,25.4972 -6.8477,26.1214 -21.4278,33.444 -75.1861,37.7607 -228.3387,64.7296 -431.11312,75.9156 -72.4151,3.9948 -236.95978,5.693 -309.91422,3.1986 z m 67.24756,-44.6874 c -108.71018,-3.996 -190.18273,-11.3822 -271.17911,-24.5849 -67.45315,-10.9951 -134.11957,-27.4884 -181.9037,-45.0032 -12.34547,-4.5251 -13.76432,-5.4065 -16.55244,-10.2827 C 144.89117,3002.11 134.05797,2857.6052 129.99646,2570 c -3.6755,-260.2713 1.74058,-676.8271 14.01622,-1078 3.4153,-111.6137 8.08882,-229.4098 9.45578,-238.3333 1.36815,-8.9313 3.5299,-5.6766 2.65676,4 -3.39084,37.5792 -11.78526,299.5725 -16.7786,523.6666 -8.48909,380.9791 -9.5413,761.3918 -2.65901,961.3334 5.68681,165.2113 15.33139,262.2392 28.80368,289.7756 4.11147,8.4034 4.30813,8.5054 37.19407,19.2805 100.64635,32.9767 223.88406,52.2723 390.64796,61.1648 40.48131,2.1587 179.1629,2.1768 217.99999,0.028 97.0187,-5.3665 169.54897,-12.7653 239.33329,-24.4143 101.8918,-17.0085 181.3088,-39.7613 240,-68.7594 18.5615,-9.1708 20.0955,-11.0244 24.57,-29.6912 19.4619,-81.1911 28.0544,-329.4915 26.3016,-760.0512 -0.9274,-227.8027 -2.9841,-382.0632 -8.2486,-618.6667 -4.0112,-180.2801 -9.8999,-368.8932 -12.0164,-384.8818 -0.7799,-5.8911 1.4854,-9.4314 2.67,-4.1727 2.7522,12.218 11.144,307.5826 15.391,541.7212 3.6207,199.6078 4.1706,252.4728 4.8956,470.6666 0.8995,270.7144 -0.6546,404.6606 -6.2734,540.6667 -5.9361,143.6904 -16.2222,226.3615 -29.6367,238.1952 -1.6425,1.4491 -10.7864,6.296 -20.3197,10.7711 -103.7255,48.6904 -256.1657,78.741 -458.66669,90.417 -33.33997,1.9223 -164.45975,3.5978 -194.66666,2.4875 z m 64.66667,-188.7097 c -212.41814,-19.1688 -359.06954,-46.2708 -424.69766,-78.4864 -8.81705,-4.3281 -18.38356,-9.9029 -21.25888,-12.3885 l -5.22788,-4.5191 1.67052,-18.5503 c 13.59556,-150.9713 36.70929,-352.0616 54.83803,-477.0928 10.68469,-73.6908 27.94385,-172.8453 30.60226,-175.8112 0.50312,-0.5613 2.67551,-0.1536 4.82752,0.9062 17.7314,8.7317 119.64768,16.1265 246.57942,17.8913 198.41387,2.7584 397.67173,-7.2551 538.59575,-27.0668 9.2791,-1.3045 15.0599,-1.5879 15.87,-0.7777 4.4481,4.4481 26.0411,140.9229 39.4601,249.4009 15.5704,125.8705 32.435,296.1939 37.3992,377.7124 1.5969,26.2239 1.7684,25.6305 -10.9288,37.8132 -41.6218,39.9351 -147.9801,73.0245 -307.72959,95.7388 -94.73878,13.4705 -162.40057,18.6231 -199.99999,15.23 z m 72.66666,-5.9424 c 75.26337,-5.9109 169.77209,-19.0899 234.66662,-32.7233 102.8783,-21.6132 170.6735,-48.0871 199.1885,-77.7826 l 8.4803,-8.8313 -0.8851,-14.9407 c -5.7689,-97.384 -23.9572,-279.1158 -41.5286,-414.9408 -13.2268,-102.2418 -30.8964,-211.6546 -34.7735,-215.3233 -0.6315,-0.5976 -7.1482,-0.2415 -14.4816,0.7915 -76.2634,10.7422 -183.23486,19.2864 -310.66662,24.8137 -52.51545,2.2779 -262.55891,2.2863 -310.66666,0.013 -70.36776,-3.326 -120.18604,-7.3946 -143.99999,-11.7605 -5.86667,-1.0755 -12.53524,-2.3009 -14.81904,-2.7231 -4.99758,-0.9237 -3.8297,-4.7536 -11.84894,38.856 -22.70962,123.4975 -46.65425,308.5915 -67.87328,524.6667 -9.53181,97.0632 -9.63006,98.4013 -7.38945,100.6331 7.59851,7.5686 42.72359,22.9609 72.59737,31.8133 85.00123,25.1881 241.98976,48.9843 395.33333,59.9243 6.56584,0.4684 19.40833,-0.1875 48.66666,-2.4854 z M 153.29997,2247.2793 c -0.55856,-0.9037 -0.61616,-21.5113 -0.128,-45.7945 0.48816,-24.2833 1.77663,-88.8515 2.86325,-143.4848 9.41099,-473.1661 18.36418,-802.8951 23.25707,-856.5142 1.09553,-12.0055 2.73464,-17.2366 4.76479,-15.2065 0.4225,0.4225 15.8007,69.3825 34.17377,153.2444 L 251.63643,1492 l -0.78725,189.3333 c -0.97329,234.0732 -3.56001,367.8076 -7.51792,388.6776 -0.62759,3.3092 -3.32096,9.6106 -5.98527,14.003 -6.84173,11.2793 -35.41769,68.4165 -59.34167,118.6528 -11.17551,23.4666 -21.07728,43.4742 -22.00395,44.4613 -1.31619,1.4019 -1.90705,1.4351 -2.7004,0.1513 z m 22.47475,-50.0398 c 19.87296,-41.6604 50.3103,-102.5022 57.67445,-115.2867 l 5.7874,-10.0471 1.35622,-23.2862 c 3.09259,-53.0988 6.68748,-317.4532 6.727,-494.6754 l 0.0135,-60.7226 -30.74451,-140.535 c -16.90948,-77.2941 -31.24913,-141.4365 -31.86589,-142.5386 -1.55016,-2.77 -2.44641,8.2995 -4.03629,49.8521 -0.72954,19.0667 -1.64392,42.7667 -2.03198,52.6667 -2.81525,71.822 -8.7482,305.1338 -13.93524,548 -5.92161,277.2604 -7.60237,366.9208 -6.91885,369.0896 0.30444,0.966 1.02851,1.266 1.60905,0.6666 0.58054,-0.5993 7.94483,-15.5318 16.3651,-33.1834 z m 1136.98278,15.725 c -13.6035,-29.36 -66.7955,-136.7949 -72.7962,-147.0304 -5.0073,-8.5412 -6.1953,-11.9365 -7.2568,-20.7404 -3.4934,-28.9744 -6.0854,-173.3678 -7.4771,-416.527 L 1224.3536,1476 l 33.572,-153.3333 c 18.4646,-84.3334 34.0827,-153.8511 34.707,-154.4839 2.3286,-2.3603 3.6833,0.684 4.5005,10.1135 5.1011,58.8623 13.4434,361.8457 22.8818,831.037 1.1359,56.4667 2.5876,128.4667 3.226,160 0.6384,31.5334 0.885,57.7834 0.5479,58.3334 -1.8201,2.9697 -4.4954,-0.5958 -11.0313,-14.7022 z m 6.032,-17.9645 c -0.4116,-8.9833 -1.0705,-36.4333 -1.4643,-61 -5.2598,-328.118 -20.442,-917.8255 -24.1663,-938.6667 -0.8071,-4.5164 -0.8698,-4.5594 -1.9484,-1.3333 -0.613,1.8333 -14.6361,65.2415 -31.1625,140.9071 l -30.048,137.5736 0.013,81.7597 c 0.03,182.3496 3.4851,429.7105 6.6912,479.0077 l 1.2951,19.9148 7.1903,12.7519 c 8.3895,14.8787 36.7617,71.6735 57.4916,115.0852 7.9666,16.6833 15.0183,30.3333 15.6705,30.3333 0.6684,0 0.8593,-7.1269 0.4375,-16.3333 z M 277.55557,1445 c -0.331,-0.55 -1.61654,-6.1 -2.85678,-12.3333 -3.24642,-16.3164 -13.97069,-63.0791 -34.55304,-150.6667 -32.24478,-137.2169 -43.61807,-189.0926 -48.08699,-219.3333 -1.19207,-8.0667 -2.45148,-16.0051 -2.79868,-17.6409 -0.79274,-3.7349 -0.16594,-4.0067 40.84599,-17.7104 137.36232,-45.898 286.01704,-75.96797 428.56058,-86.68948 52.28092,-3.93233 159.30745,-3.91732 220.66666,0.0309 108.56957,6.98614 198.25689,24.02263 298.68249,56.73608 41.245,13.4355 94.9101,32.4959 96.8961,34.415 2.4526,2.3699 -13.7303,144.2561 -24.3537,213.5254 -12.2927,80.1536 -27.724,140.1812 -44.9014,174.6667 -5.1191,10.2772 -14.3489,24.391 -16.487,25.2116 -0.9119,0.3498 -14.1481,-2.3563 -29.4139,-6.0138 -179.03083,-42.8934 -269.18889,-60.5485 -351.08925,-68.7517 -29.39265,-2.944 -113.52871,-3.3612 -142,-0.704 -86.24745,8.049 -167.66934,23.7106 -351.14584,67.5431 -41.19288,9.8409 -37.17687,9.0248 -37.96524,7.7148 z m 65.77776,-18.8473 c 164.50959,-38.5871 238.6317,-52.582 319.99999,-60.419 24.0304,-2.3145 117.26246,-2.3224 140.66666,-0.013 81.77208,8.0725 162.06489,23.2193 316.66662,59.7372 20.1667,4.7635 43.1542,10.1931 51.0834,12.0656 17.0413,4.0245 16.4718,4.2683 25.2888,-10.8284 28.2709,-48.4064 47.6621,-144.2077 68.9448,-340.6186 4.3691,-40.3212 5.0832,-50.2329 3.7129,-51.5365 -2.0791,-1.9765 -68.8479,-25.5258 -101.6965,-35.867 -111.0667,-34.96517 -198.74345,-49.72823 -328.66669,-55.3411 -161.24746,-6.96612 -313.43855,9.13153 -478.72253,50.6358 -53.48273,13.4299 -138.2197,39.0205 -159.79902,48.2592 l -5.85491,2.5067 0.74359,10.3 c 1.46829,20.3382 14.5164,80.7043 50.89659,235.4693 13.46707,57.2902 26.40031,113.1641 28.74054,124.1641 5.14672,24.1916 5.9275,26.4001 9.00654,25.4753 1.2774,-0.3837 27.82255,-6.6789 58.98922,-13.9893 z M 84.161276,1141.8896 C 83.835232,1140.8503 82.024814,1128.6 80.138126,1114.6667 71.253519,1049.0532 66.370231,1002.427 62.682665,948 61.539905,931.13333 59.414167,900.53333 57.958801,880 53.86249,822.20629 52.677884,794.82341 52.70983,758.66667 c 0.03925,-44.42207 1.600316,-66.84415 6.822949,-98 4.1119,-24.52972 4.361269,-27.92267 4.409788,-60 0.02893,-19.12803 -0.704728,-40.99858 -1.677276,-50 -2.914584,-26.97592 -8.151605,-68.01575 -12.165323,-95.33334 -2.10107,-14.3 -4.806157,-33.2 -6.011305,-42 l -2.191177,-16 4.656438,-20.66758 C 54.127854,343.04888 61.515449,301.00209 69.360757,246.8598 73.414073,218.88691 77.953157,188.8 79.44761,180 90.31475,116.00947 106.74771,84.769007 141.79717,61.468176 198.84486,23.542936 315.85385,7.502988 643.33332,-7.2839375 c 32.63333,-1.473517 64.83004,-3.3558995 71.54822,-4.1830725 9.0456,-1.113735 21.15376,-1.117672 46.66667,-0.01517 18.94848,0.818826 62.95177,2.1082322 97.7851,2.865347 343.66179,7.469612 441.10849,32.672643 486.77369,125.896273 15.4968,31.63606 22.2106,56.6655 43.838,163.43435 8.0906,39.94074 17.0126,82.61489 19.8268,94.83144 5.102,22.14808 5.1118,22.24574 3.3826,34 -18.2243,123.88161 -23.5074,178.16465 -20.6558,212.23268 0.7878,9.41208 3.2126,28.76246 5.3884,43.00081 7.9528,52.04288 8.362,109.80372 1.4634,206.55462 -1.438,20.16666 -3.5463,50.76666 -4.6851,68 -3.6867,55.78756 -9.5352,113.37256 -16.7204,164.63026 -1.4364,10.2466 -2.6116,18.9166 -2.6116,19.2666 0,0.3501 -0.5643,0.066 -1.2539,-0.6302 -0.7836,-0.7915 -0.3164,-8.0187 1.2456,-19.2667 7.6559,-55.1314 13.1583,-110.5252 17.3123,-174.28646 1.4913,-22.89091 3.5795,-53.19091 4.6401,-67.33333 3.2132,-42.83875 5.0788,-98.96924 4.1339,-124.38018 -1.1407,-30.67697 -2.5549,-44.734 -7.6463,-76 -8.9202,-54.78064 -6.3589,-103.38156 11.601,-220.12136 3.282,-21.33341 5.9673,-40.57318 5.9673,-42.75505 0,-2.18188 -2.4312,-14.72727 -5.4027,-27.87865 -2.9714,-13.15138 -11.6429,-54.8116 -19.27,-92.57827 C 1362.8694,160.19323 1354.0072,130.95811 1332.1209,98.08419 1322.3166,83.357904 1303.979,64.943143 1290.3892,56.176969 1228.0348,15.95508 1122.2944,0.454088 866.66665,-5.9385924 725.85292,-9.4600295 716.72309,-9.2762877 536.66665,0.702805 260.09709,16.030852 167.42022,33.973656 122.50486,80.887049 96.724477,107.81426 88.195166,134.7446 74.011298,234 64.609237,299.79343 57.655381,339.49093 47.959708,382.72083 l -3.420438,15.25062 4.681982,29.68095 C 63.745043,519.72444 69.931157,581.10673 68.135757,615.33333 67.654908,624.5 65.195519,645.5 62.670448,662 60.145377,678.5 57.387037,700.7 56.540806,711.33333 54.658391,734.9868 55.744092,810.68399 58.529659,850 c 3.943532,55.65976 4.803129,68.00975 6.821104,98 3.614272,53.7137 12.007219,131.3402 19.173215,177.3333 1.37684,8.8369 1.986376,16.5475 1.3615,17.223 -0.668653,0.7228 -1.373852,0.4501 -1.724202,-0.6667 z"
         style="fill:#280a0a;stroke-width:1.33333337" />
    </g>
  </g>
</svg>
