<?xml version="1.0" encoding="UTF-8" standalone="no"?>
<svg
   xmlns:dc="http://purl.org/dc/elements/1.1/"
   xmlns:cc="http://creativecommons.org/ns#"
   xmlns:rdf="http://www.w3.org/1999/02/22-rdf-syntax-ns#"
   xmlns:svg="http://www.w3.org/2000/svg"
   xmlns="http://www.w3.org/2000/svg"
   viewBox="0 0 1093 2391"
   height="2391"
   width="1093"
   id="svg2"
   version="1.1">
  <metadata
     id="metadata8">
    <rdf:RDF>
      <cc:Work
         rdf:about="">
        <dc:format>image/svg+xml</dc:format>
        <dc:type
           rdf:resource="http://purl.org/dc/dcmitype/StillImage" />
        <dc:title></dc:title>
      </cc:Work>
    </rdf:RDF>
  </metadata>
  <defs
     id="defs6" />
  <g
     style="display:none"
     id="layer2">
    <g
       style="display:inline"
       id="layer3" />
  </g>
  <g
     style="display:inline"
     id="layer4">
    <g
       id="g33"
       style="display:inline">
      <g
         transform="translate(-12.181567,2.183182)"
         id="g109">
        <path
           id="path123"
           d="m 958.86187,2398.0449 c -0.96661,-0.7338 -1.75748,-2.2311 -1.75748,-3.3275 0,-3.7142 5.85992,-7.0186 7.56219,-4.2642 0.44739,0.7239 1.07997,0.6968 2.02382,-0.086 0.75515,-0.6268 1.7948,-0.8788 2.31032,-0.5603 1.35413,0.837 1.9713,7.6041 0.7065,7.7467 -0.57953,0.065 0.30208,0.4638 1.95913,0.8854 l 3.01282,0.7667 -3.65858,0.1188 c -3.7676,0.1223 -4.87774,-1.0121 -4.87774,-4.9847 0,-2.061 -3.39226,-2.7456 -4.52478,-0.9132 -1.05949,1.7143 0.48094,4.9597 2.06551,4.3516 0.80025,-0.3071 1.455,-0.058 1.455,0.5534 0,1.5298 -4.13265,1.3413 -6.27671,-0.2862 z m 16.45531,-3.491 -0.22308,-4.8889 5.81817,-0.055 c 4.05969,-0.038 6.37424,0.4462 7.65799,1.6041 1.71295,1.545 1.90683,1.5397 2.81165,-0.077 1.33885,-2.3924 3.57964,-2.1749 5.00358,0.4858 1.18407,2.2125 1.19283,2.2132 1.95664,0.1484 0.70692,-1.9111 1.63353,-2.0849 11.78787,-2.2111 8.6933,-0.1081 11.2847,0.181 12.2708,1.3692 1.1051,1.3316 1.3917,1.3125 2.4718,-0.1648 0.6721,-0.919 1.6924,-1.3802 2.2676,-1.0247 1.4401,0.89 2.1095,7.561 0.813,8.1018 -0.5785,0.2412 0.4436,0.4743 2.2713,0.518 1.8753,0.044 3.0646,-0.339 2.7298,-0.8808 -0.9603,-1.5538 2.238,-8.0784 3.9601,-8.0784 0.8686,0 2.0849,1.11 2.7031,2.4667 l 1.1238,2.4667 1.9403,-2.4667 c 2.004,-2.5478 5.2025,-3.2605 6.3439,-1.4136 0.3925,0.635 1.1136,0.6976 1.8167,0.1578 0.6413,-0.4922 2.5217,-0.8532 4.1788,-0.8019 2.9113,0.09 3.0129,0.2538 3.015,4.8634 0,4.5952 -1.4424,6.3106 -3.0813,3.6588 -0.479,-0.7751 -0.9528,-0.6992 -1.5656,0.2511 -0.7286,1.1298 -1.0477,1.1052 -1.8677,-0.1439 -0.5439,-0.8285 -0.9958,-2.5232 -1.0043,-3.766 -0.011,-1.5619 -0.6172,-2.2596 -1.9646,-2.2596 -2.441,0 -3.3843,1.4514 -2.5834,3.9748 0.3737,1.1771 1.1944,1.7274 2.0734,1.39 0.8002,-0.3071 1.455,-0.058 1.455,0.5534 0,1.3852 -4.6776,1.4762 -5.5235,0.1074 -0.3414,-0.5523 -1.2985,-1.0042 -2.1271,-1.0042 -0.8285,0 -1.2271,0.4519 -0.8857,1.0042 0.3413,0.5524 -0.083,1.0043 -0.945,1.0043 -0.8611,0 -1.5657,-0.4519 -1.5657,-1.0043 0,-0.5523 -0.6779,-1.0042 -1.5064,-1.0042 -0.8285,0 -1.5064,0.4519 -1.5064,1.0042 0,1.4965 -9.782,1.2589 -10.3357,-0.251 -0.3682,-1.0043 -0.7264,-1.0043 -1.7909,0 -0.7318,0.6904 -2.5478,1.2553 -4.0352,1.2553 -2.7578,0 -3.9237,-1.534 -3.9237,-5.1627 0,-2.8985 -1.6483,-1.4089 -2.3558,2.129 -0.3337,1.6685 -1.0813,3.0337 -1.6613,3.0337 -0.5799,0 -1.3275,-1.3652 -1.6612,-3.0337 -1.1059,-5.5293 -2.6479,-4.7794 -2.6243,1.2762 0,0.9667 -0.6122,1.7575 -1.3688,1.7575 -0.7566,0 -1.3756,-0.4519 -1.3756,-1.0043 0,-1.4412 -2.7349,-1.241 -3.4313,0.2511 -0.4686,1.0043 -0.7029,1.0043 -1.1716,0 -0.32221,-0.6904 -1.02675,-1.2553 -1.56568,-1.2553 -0.53892,0 -0.70055,0.4519 -0.35918,1.0042 0.34138,0.5524 -0.0838,1.0043 -0.945,1.0043 -0.86112,0 -1.56568,-0.4519 -1.56568,-1.0043 0,-0.5523 -0.67788,-1.0042 -1.50641,-1.0042 -0.82852,0 -1.50641,0.4519 -1.50641,1.0042 0,0.5524 -0.67788,1.0043 -1.50641,1.0043 -0.82852,0 -1.39342,-0.5649 -1.25534,-1.2553 0.31999,-1.6 -5.39451,-1.0993 -6.59154,0.5775 -0.63784,0.8934 -0.96601,0.8752 -1.35171,-0.075 -0.28016,-0.6904 -1.17627,-1.2553 -1.99136,-1.2553 -0.8151,0 -1.20269,0.4519 -0.86132,1.0042 0.34137,0.5524 -0.22907,1.0043 -1.26766,1.0043 -1.55913,0 -1.92723,-0.8523 -2.11142,-4.8889 z m 85.22732,3.3825 c 0,-0.8285 0.4519,-1.5064 1.0043,-1.5064 0.5523,0 1.0042,0.6779 1.0042,1.5064 0,0.8285 -0.4519,1.5064 -1.0042,1.5064 -0.5524,0 -1.0043,-0.6779 -1.0043,-1.5064 z m 4.7703,0.1085 c -0.9666,-0.7338 -1.7575,-2.2311 -1.7575,-3.3275 0,-2.5379 3.3334,-5.5969 5.6166,-5.1543 2.212,0.4289 3.1075,2.8498 1.0542,2.8498 -2.0497,0 -2.9196,1.5971 -2.165,3.9748 0.3737,1.1771 1.1944,1.7274 2.0734,1.39 0.8002,-0.3071 1.455,-0.058 1.455,0.5534 0,1.5298 -4.1327,1.3413 -6.2767,-0.2862 z m 9.0384,0 c -0.9666,-0.7338 -1.7574,-2.2311 -1.7574,-3.3275 0,-4.0547 6.0412,-6.9086 8.795,-4.1548 0.8805,0.8806 1.5505,0.8406 2.7619,-0.1648 1.3405,-1.1124 1.8667,-1.0601 3.2501,0.3234 1.5048,1.5047 1.8055,1.5105 3.4012,0.066 2.3509,-2.1275 3.8891,-0.9591 3.8704,2.9399 -0.017,3.6572 -1.819,7.0235 -2.6555,4.9621 -0.2801,-0.6904 -1.8275,-1.2553 -3.4384,-1.2553 -1.6656,0 -2.9358,0.5415 -2.9445,1.2553 -0.01,0.8343 -0.3369,0.7501 -0.9737,-0.2511 -0.7899,-1.2416 -1.3143,-1.2857 -2.9838,-0.251 -2.5805,1.5992 -5.0952,1.5503 -7.3253,-0.1426 z m 5.2725,-3.1213 c 0,-0.8285 -0.6779,-1.5064 -1.5064,-1.5064 -0.8286,0 -1.5064,0.6779 -1.5064,1.5064 0,0.8285 0.6778,1.5064 1.5064,1.5064 0.8285,0 1.5064,-0.6779 1.5064,-1.5064 z m -625.15986,-1.1849 c -58.85891,-1.1102 -119.6664,-5.6546 -166.70928,-12.459 -56.01365,-8.1019 -96.1227,-18.7749 -146.55484,-38.9984 -12.6661,-5.0791 -26.87411,-10.349 -31.57336,-11.7108 -4.69925,-1.3618 -8.65622,-2.5881 -8.79328,-2.7252 -1.39288,-1.3928 -5.005858,-12.4948 -7.841725,-24.0959 -7.351912,-30.0759 -14.651305,-85.6751 -20.24329,-154.1928 -0.676706,-8.2915 -0.712226,-8.3775 -4.43241,-10.7259 -2.06263,-1.3021 -5.152249,-4.0683 -6.865818,-6.1471 -6.459057,-7.836 -6.184441,-2.9076 -6.184441,-110.9886 0,-97.19 0.02166,-98.26 2.101427,-103.8187 2.058591,-5.5021 2.078944,-6.2347 0.998514,-35.9405 -1.4334,-39.4104 -2.773622,-86.8806 -4.31526,-152.8451 -1.691564,-72.3796 -1.701737,-347.9367 -0.01485,-402.2112 3.521557,-113.3039 7.089712,-163.7505 13.780504,-194.829 5.509445,-25.5912 9.023828,-77.508 8.22578,-121.517 -0.477159,-26.31327 -2.765122,-61.6613 -4.075986,-62.97216 -0.186193,-0.1862 -4.810756,0.17047 -10.276808,0.79258 C 36.23053,951.25164 16.942988,945.3424 9.2721468,932.29416 6.7814531,928.05743 6.5678315,926.84647 6.6541749,917.4536 c 0.08992,-9.78192 0.2690349,-10.5912 4.1120231,-18.57905 3.861847,-8.02704 13.614639,-22.02846 18.542497,-26.6202 2.027877,-1.88956 4.275253,-2.3598 15.917457,-3.33053 7.455907,-0.62167 14.051682,-1.28547 14.657278,-1.47509 0.772007,-0.24175 0.539026,-4.19871 -0.779556,-13.23999 -6.15414,-42.19783 -11.639448,-94.17308 -14.344431,-135.91861 -0.87687,-13.53258 -2.26426,-33.64314 -3.083088,-44.69014 -3.39868,-45.85242 -3.745445,-54.02179 -3.964429,-93.39737 l -0.228992,-41.17519 -2.647096,-5.5235 -2.647095,-5.5235 -0.01119,-101.43155 c -0.0093,-84.67149 -0.254804,-102.81587 -1.485567,-109.80938 -1.384412,-7.8666 -1.349577,-8.9084 0.570865,-17.07264 6.63881,-28.22311 12.88946,-63.25536 19.48131,-109.1845 7.788328,-54.26565 10.563461,-68.81464 16.25303,-85.20856 C 73.631107,86.158843 83.30157,70.854482 94.824618,61.234441 134.60527,28.023477 204.22441,15.461469 410.27784,4.3143755 c 20.43695,-1.1055997 47.1004,-2.5658708 59.2521,-3.2450469 27.78465,-1.55292422 197.55293,-1.46312435 238.51479,0.1261637 119.48243,4.6358236 184.42506,12.6038607 229.31289,28.1351977 39.37454,13.623722 64.76368,35.223016 80.42408,68.419096 10.7382,22.762464 16.3188,43.619334 30.715,114.795084 5.5756,27.56586 11.9454,58.07065 14.1551,67.78841 6.6319,29.16474 6.3596,26.79872 4.538,39.4415 -1.4214,9.8644 -1.6371,23.67287 -1.631,104.38822 0.01,99.62314 0.127,97.09938 -4.9283,104.19877 -1.8315,2.57216 -1.8938,3.50425 -0.9181,13.7424 1.4038,14.73098 0.3764,84.5131 -1.633,110.90823 -0.862,11.32317 -2.4637,34.37123 -3.5594,51.21791 -3.1868,48.99751 -7.0631,89.07202 -12.5307,129.5479 -1.3056,9.66432 -2.1496,17.79893 -1.8756,18.07691 0.2739,0.27799 8.6095,1.21553 18.5236,2.08343 l 18.0254,1.57801 4.0398,3.94471 c 9.6798,9.45219 18.9973,26.07662 20.9533,37.38549 3.2327,18.6905 -5.0811,30.7448 -24.7349,35.86398 -7.4443,1.939 -27.0914,1.95181 -38.9599,0.0254 -4.9642,-0.80576 -9.3173,-1.14298 -9.6736,-0.74939 -1.6135,1.7825 -5.5339,47.26297 -6.4678,75.03185 -1.253,37.2618 3.2599,100.5095 9.1006,127.5426 7.9561,36.8245 12.4245,121.9817 14.6498,279.1879 1.7333,122.4436 -0.4513,318.284 -5.0074,448.9099 -0.5707,16.3637 -0.4398,21.962 0.5847,24.982 1.0566,3.115 1.3159,23.8744 1.2982,103.9422 -0.022,98.4985 -0.053,100.1201 -2.0686,104.5693 -1.1257,2.4855 -4.2319,6.5731 -6.9028,9.0836 l -4.856,4.5644 -2.1714,27.5723 c -7.4668,94.8185 -17.6302,164.9313 -26.96795,186.0408 -1.87776,4.2449 -2.79804,5.0044 -11.14395,9.1959 -59.91494,30.0911 -182.58523,51.0953 -343.55925,58.826 -40.96715,1.9673 -142.78424,3.1996 -190.30971,2.3032 z"
           style="fill:#dce1f3;stroke-width:1.00427282" />
        <path
           id="path121"
           d="m 958.60711,2397.4302 c -2.50558,-2.7686 -0.69082,-7.0258 2.99498,-7.0258 2.92625,0 3.21315,0.787 0.90273,2.4765 -2.02572,1.4812 -0.96001,5.9955 1.21807,5.1597 0.77863,-0.2988 1.41569,-0.1056 1.41569,0.4295 0,1.7589 -4.67171,1.0151 -6.53147,-1.0399 z m 8.14532,0.4241 c -0.33527,-0.8738 -0.60958,-2.9405 -0.60958,-4.5929 0,-2.3207 0.39992,-2.9273 1.75748,-2.6658 1.27299,0.2451 1.75748,1.3036 1.75748,3.8396 0,2.8959 0.43403,3.6109 2.51068,4.1356 2.12752,0.5376 1.95234,0.6525 -1.1479,0.7532 -2.48956,0.081 -3.85335,-0.3887 -4.26816,-1.4697 z m 8.57467,-2.8455 c -0.23289,-4.4993 1.17706,-6.6961 3.07772,-4.7954 0.7171,0.7171 1.78117,0.7022 3.42745,-0.048 1.73352,-0.7898 3.07521,-0.7744 4.89817,0.056 3.42926,1.5625 3.30512,4.9518 -0.23063,6.2961 -1.50771,0.5732 -3.08944,1.5789 -3.51495,2.2348 -1.04764,1.6148 -2.74619,-0.9926 -2.76681,-4.2474 -0.0216,-3.4129 -0.90753,-2.1407 -1.2022,1.7265 -0.16554,2.1725 -0.76456,3.2112 -1.85196,3.2112 -1.19616,0 -1.66597,-1.1341 -1.83679,-4.434 z m 14.42511,2.1744 c 0.13027,-1.2428 0.29452,-2.7923 0.36502,-3.4432 0.21051,-1.944 3.09736,-4.2936 4.5775,-3.7256 0.7581,0.2908 1.67195,1.5145 2.03076,2.7191 l 0.65237,2.1901 0.92888,-2.2819 c 1.16565,-2.8636 2.93666,-3.5669 6.06406,-2.4083 2.0501,0.7596 2.4451,1.5764 2.4451,5.0565 0,2.2828 -0.1191,4.151 -0.2647,4.1517 -0.1456,7e-4 -1.1762,-0.5637 -2.2903,-1.2541 -1.6682,-1.0339 -2.2107,-0.9896 -3.0756,0.251 -0.7898,1.1331 -1.1764,1.1952 -1.55945,0.2511 -0.28016,-0.6904 -0.9503,-1.2553 -1.48923,-1.2553 -0.53892,0 -0.70055,0.4519 -0.35918,1.0042 0.34138,0.5524 -0.0838,1.0043 -0.945,1.0043 -0.86112,0 -1.56568,-0.4519 -1.56568,-1.0043 0,-0.5523 -0.67788,-1.0042 -1.50641,-1.0042 -0.82852,0 -1.50641,0.4519 -1.50641,1.0042 0,0.5524 -0.61618,1.0043 -1.36928,1.0043 -0.82067,0 -1.2744,-0.9053 -1.13245,-2.2596 z m 20.08969,0 c -1.651,-7.0749 -1.5186,-7.2749 4.8658,-7.3517 5.7803,-0.069 8.5962,1.1894 8.7424,3.9085 0.035,0.6509 0.4863,0.1289 1.0029,-1.1601 1.3677,-3.4122 3.4526,-2.0915 3.4526,2.187 0,3.3375 0.2523,3.673 2.7618,3.6724 1.5189,-4e-4 2.6757,-0.3397 2.5704,-0.754 -0.1052,-0.4142 0.1483,-2.1841 0.5635,-3.9332 1.2012,-5.0607 4.6208,-5.2841 6.1466,-0.4014 l 0.7637,2.4443 1.4122,-2.6954 c 0.9508,-1.8147 2.222,-2.6952 3.8908,-2.6952 2.8755,0 3.1483,0.7954 0.8491,2.4765 -2.0256,1.4812 -0.96,5.9955 1.2181,5.1597 0.7787,-0.2988 1.4157,-0.1056 1.4157,0.4295 0,1.2848 -4.7266,1.2578 -5.5235,-0.031 -0.3414,-0.5524 -1.2985,-1.0043 -2.1271,-1.0043 -0.8285,0 -1.2271,0.4519 -0.8857,1.0043 0.3413,0.5523 -0.083,1.0042 -0.945,1.0042 -0.8611,0 -1.5657,-0.4519 -1.5657,-1.0042 0,-0.5524 -0.6779,-1.0043 -1.5064,-1.0043 -0.8285,0 -1.5064,0.4519 -1.5064,1.0043 0,1.4964 -9.782,1.2588 -10.3357,-0.2511 -0.3682,-1.0043 -0.7264,-1.0043 -1.7909,0 -0.7319,0.6904 -2.5478,1.2553 -4.0352,1.2553 -2.744,0 -3.9237,-1.5345 -3.9237,-5.1035 0,-1.0595 -0.4519,-1.9264 -1.0043,-1.9264 -0.5523,0 -1.0042,0.8669 -1.0042,1.9264 0,4.7847 -2.5632,6.8663 -3.5018,2.8439 z m 41.2695,0.6711 c -0.3354,-0.8738 -0.6096,-2.9074 -0.6096,-4.5193 0,-2.7206 0.2717,-2.9306 3.7926,-2.9306 h 3.7926 l -0.027,4.516 c -0.025,4.3474 -1.6261,6.1164 -2.9558,3.2671 -0.4685,-1.0043 -0.7029,-1.0043 -1.1715,0 -0.8053,1.7253 -2.09,1.5736 -2.8217,-0.3332 z m 9.4331,0.5842 c 0,-0.5523 0.4519,-1.0042 1.0043,-1.0042 0.5523,0 1.0042,0.4519 1.0042,1.0042 0,0.5524 -0.4519,1.0043 -1.0042,1.0043 -0.5524,0 -1.0043,-0.4519 -1.0043,-1.0043 z m 4.5768,-0.5351 c -2.8435,-2.1507 -1.0855,-6.8736 2.7227,-7.3146 3.0966,-0.3588 3.5272,0.5273 1.1137,2.2921 -2.0256,1.4812 -0.96,5.9955 1.2181,5.1597 0.7787,-0.2988 1.4157,-0.1056 1.4157,0.4295 0,1.4758 -4.2633,1.1024 -6.4702,-0.5667 z m 9.2319,0.1415 c -2.1562,-1.6369 -2.2801,-4.9523 -0.2479,-6.6389 1.841,-1.5279 6.288,-1.6399 7.7331,-0.1949 0.7409,0.741 1.6603,0.7034 3.0688,-0.1255 1.5655,-0.9214 2.1114,-0.9054 2.4654,0.072 0.5759,1.59 3.0049,1.6385 3.5276,0.07 0.7615,-2.2843 3.79,0.051 3.7742,2.9109 -0.018,3.3343 -1.8649,6.4989 -2.6555,4.5507 -0.2801,-0.6904 -1.8275,-1.2553 -3.4384,-1.2553 -1.6656,0 -2.9358,0.5415 -2.9445,1.2553 -0.01,0.8343 -0.3369,0.7501 -0.9737,-0.2511 -0.7899,-1.2416 -1.3143,-1.2857 -2.9838,-0.251 -2.5805,1.5992 -5.0952,1.5503 -7.3253,-0.1426 z m 4.8215,-4.3546 c -0.9765,-2.5445 -2.8988,0.096 -2.0398,2.8022 0.6494,2.0464 0.8181,2.1005 1.6902,0.5423 0.5327,-0.9521 0.6901,-2.4571 0.3496,-3.3445 z m -625.21099,-0.3729 c -116.74559,-2.1933 -205.64958,-14.0801 -273.74517,-36.601 -7.44207,-2.4612 -24.83794,-8.9983 -38.65749,-14.5269 -13.81955,-5.5285 -28.31691,-10.9359 -32.21634,-12.0165 -3.89945,-1.0806 -7.6943,-2.4663 -8.43302,-3.0794 -0.73871,-0.6131 -2.253806,-3.905 -3.366867,-7.3154 -8.934284,-27.3744 -16.644295,-78.7935 -23.141047,-154.3309 l -2.029802,-23.6005 -3.217457,-2.5106 c -5.67021,-4.4247 -9.124271,-8.4216 -11.282349,-13.0556 -2.09206,-4.4922 -2.104635,-5.1132 -2.104635,-103.9422 0,-95.2784 0.07956,-99.6293 1.908392,-104.371 1.829029,-4.7422 1.859453,-6.4128 0.731609,-40.1709 -4.375598,-130.9684 -5.574709,-207.6651 -5.590794,-357.5945 -0.01421,-132.4296 0.682455,-182.901 3.48632,-252.5746 2.779884,-69.0778 6.716687,-114.0412 11.958456,-136.5811 1.89242,-8.1376 3.503165,-21.1945 6.318398,-51.218 1.927655,-20.5577 1.611013,-98.76625 -0.475079,-117.34158 -0.889677,-7.92202 -1.838169,-14.62424 -2.107761,-14.89383 -0.269592,-0.2696 -5.464124,0.007 -11.543404,0.61485 C 34.620202,950.79055 17.561021,945.08162 8.5022274,930.82129 5.4938929,926.08558 5.9738015,910.47415 9.3809259,902.23724 12.48244,894.73915 21.249532,881.39403 27.395974,874.81504 l 4.354438,-4.66087 10.001014,-0.74034 c 17.485609,-1.29439 19.075381,-1.67768 18.805164,-4.5339 -0.128868,-1.36216 -1.80647,-14.22664 -3.728005,-28.58774 -6.059659,-45.28851 -9.854172,-84.62451 -13.126734,-136.07897 -0.825558,-12.98023 -2.159557,-32.41291 -2.964443,-43.18373 -2.471139,-33.06833 -3.82373,-81.09413 -2.800133,-99.42301 l 0.925398,-16.5705 -3.095708,-5.95973 -3.095707,-5.95974 -0.658764,-106.01668 c -0.36232,-58.30918 -0.96784,-108.34481 -1.3456,-111.19027 -0.544678,-4.10278 0.155602,-9.09143 3.383379,-24.10255 6.450073,-29.99673 10.612206,-54.02352 17.164164,-99.08372 3.358236,-23.09583 7.021652,-46.82177 8.140923,-52.72433 C 65.6507,102.80001 74.236261,83.009201 89.085925,67.466233 102.42242,53.507077 118.04148,44.429299 142.63913,36.341164 185.86432,22.127973 249.88652,13.994444 379.14538,6.2948623 490.2091,-0.32088675 530.2123,-1.2950915 632.24942,0.13097646 839.05574,3.0212958 925.95942,15.12049 975.15654,47.872335 c 30.40556,20.241805 47.35976,49.435667 60.40206,104.007925 1.65,6.90438 7.0544,32.66398 12.0097,57.24355 4.9553,24.57958 11.7525,57.0367 15.105,72.12696 6.0033,27.02332 6.0754,27.53034 4.7826,33.64314 -1.0069,4.76107 -1.4382,29.26276 -1.8524,105.21768 l -0.5398,99.01136 -3.235,6.27133 -3.235,6.27132 1.1011,13.72365 c 0.6857,8.54772 0.8811,26.60167 0.5181,47.86891 -0.5626,32.95318 -0.9091,40.01648 -4.1626,84.86106 -0.8216,11.32317 -2.1927,31.20777 -3.047,44.188 -2.4596,37.37159 -7.4003,84.6148 -13.1548,125.78517 -0.6349,4.54214 -0.5521,4.77089 1.7294,4.7827 1.3178,0.007 9.8075,0.66952 18.866,1.47266 18.7791,1.665 17.5736,1.07481 26.7083,13.07689 12.0244,15.79876 17.0483,30.2772 14.622,42.13821 -1.5653,7.65219 -3.0804,10.51198 -7.7325,14.59662 -10.55,9.26303 -30.0878,12.29205 -55.034,8.53212 -5.4932,-0.82794 -10.3227,-1.16422 -10.7322,-0.74729 -0.7911,0.80542 -3.1262,19.96359 -4.8665,39.92472 -4.3863,50.31208 -0.916,120.60438 8.3294,168.71778 5.1724,26.9171 8.3502,72.4755 11.8382,169.7222 1.6341,45.5543 2.3125,301.3905 1.0003,377.1428 -1.2097,69.8254 -2.597,127.4553 -4.0971,170.1858 -0.7698,21.9295 -0.6811,26.9268 0.5548,31.2044 1.2565,4.3496 1.4319,19.5987 1.2011,104.4444 l -0.2703,99.3511 -2.2646,4.2379 c -1.2455,2.3309 -4.3035,6.1918 -6.7955,8.5796 l -4.531,4.3417 -1.4827,19.0379 c -7.3558,94.4455 -15.1638,153.6586 -24.427,185.245 -3.62964,12.3765 -4.28814,13.3386 -11.83587,17.2923 -48.10313,25.198 -144.06657,44.7612 -269.52845,54.9464 -55.20813,4.4817 -90.59156,6.0186 -152.64947,6.6299 -27.34133,0.2693 -56.03842,0.6175 -63.77132,0.7738 -7.7329,0.1561 -30.555,-0.026 -50.71578,-0.4046 z m 125.56044,-152.5755 c 13.18547,-1.5959 28.2015,-4.8186 40.48728,-8.6891 11.32905,-3.5691 31.1404,-11.3547 30.50652,-11.9886 -0.18922,-0.1892 -10.25818,0.7524 -22.37547,2.0925 -62.17548,6.8761 -82.52627,7.393 -126.04527,3.2012 -32.07257,-3.0893 -31.64853,-3.0732 -27.04377,-1.0249 15.00217,6.6733 39.23484,13.3633 57.24355,15.8035 12.72348,1.7241 35.56591,2.0169 47.22716,0.6054 z m 342.64578,-392.3938 c 17.83902,-49.3769 32.75012,-98.1462 46.38567,-151.7122 l 7.37474,-28.971 -16.07915,-27.5349 c -18.51572,-31.7075 -30.46898,-51.1537 -35.47259,-57.7088 -2.13982,-2.8032 -3.86334,-6.4947 -4.43176,-9.4921 -3.70526,-19.5377 -5.92386,-128.2009 -7.65388,-374.8735 l -0.62528,-89.1552 -3.23037,3.7369 -3.23036,3.737 -69.20613,-17.2614 c -158.97289,-39.6511 -218.31516,-49.4195 -292.15469,-48.0918 -45.38607,0.8161 -80.85159,5.0289 -136.62156,16.2286 -45.89889,9.2174 -123.81717,27.66 -189.35227,44.8179 l -16.65779,4.3612 -0.71834,141.1281 c -0.39509,77.6205 -0.90062,149.2627 -1.1234,159.205 -0.22277,9.9423 -0.66086,35.7019 -0.97351,57.2435 -0.88623,61.0603 -3.29349,111.5741 -5.60711,117.6594 -0.50023,1.3157 -2.68549,4.7556 -4.85613,7.6441 -4.61769,6.145 -18.25374,28.4076 -34.20509,55.8442 l -11.31371,19.4598 3.10103,12.677 c 10.01792,40.9529 24.6603,90.9923 38.67971,132.1854 10.8886,31.9938 13.38517,38.5292 14.00285,36.6559 0.27319,-0.8285 1.24853,-7.6073 2.16742,-15.0641 8.88558,-72.1057 27.64354,-191.6138 34.32404,-218.6804 0.66107,-2.6784 3.63102,-2.9688 8.01169,-0.7835 8.97055,4.4751 60.66652,9.5095 131.42006,12.7982 37.06329,1.7228 202.18346,1.728 240.52334,0.01 56.67561,-2.5431 111.34179,-6.2225 160.59446,-10.8089 25.74019,-2.3969 90.22688,-10.0314 93.6997,-11.0929 3.37372,-1.0313 5.34324,1.2713 7.09412,8.2938 4.79176,19.2189 14.29001,78.2094 23.25727,144.4434 4.33323,32.0063 12.61806,100.4144 12.61873,104.1934 2.6e-4,1.5189 0.36964,2.7617 0.82083,2.7617 0.45119,0 4.69805,-10.7332 9.43746,-23.8515 z m 83.71817,-386.1429 c -3.1011,-201.587 -7.89173,-402.8302 -11.66057,-489.83405 -0.56227,-12.98022 -1.2461,-29.46904 -1.51961,-36.64181 -0.45934,-12.04599 -0.65634,-13.10021 -2.58106,-13.81222 -2.04696,-0.75721 -2.07306,-0.58892 -1.47776,9.52644 1.00524,17.08148 3.83596,94.90844 6.10931,167.96814 3.26598,104.9596 8.84539,309.579 10.19349,373.8405 0.3738,17.8133 0.8876,32.3878 1.1419,32.3878 0.2544,0 0.1618,-19.5456 -0.2057,-43.4348 z m -895.38642,-54.9839 c 8.32024,-325.9559 15.52774,-525.92024 19.70283,-546.63328 0.46941,-2.32885 1.01936,-2.76578 3.16013,-2.51069 1.74748,0.20824 2.84032,1.12677 3.35462,2.81954 0.41953,1.38087 8.11816,30.85009 17.10805,65.48714 8.9899,34.63705 16.50707,62.81466 16.70483,62.61691 0.19775,-0.19777 -3.49712,-17.69102 -8.21084,-38.87392 -20.49717,-92.112 -29.50346,-137.50524 -31.26846,-157.59828 -0.73164,-8.32892 0.15498,-10.33056 5.12875,-11.57891 2.59345,-0.65091 3.14247,-1.8509 1.35284,-2.95695 -2.00519,-1.23928 -7.58617,-10.92169 -10.82961,-18.78823 -1.76716,-4.28602 -4.68929,-13.19343 -6.49364,-19.79426 l -3.28062,-12.00151 -2.28324,13.76862 c -4.92586,29.7044 -9.25438,59.18524 -12.63814,86.07625 -1.94609,15.4658 -3.782786,29.86876 -4.081541,32.00658 l -0.54319,3.88693 7.814321,-0.65746 c 4.29787,-0.3616 10.18691,-0.92001 13.08675,-1.2409 l 5.27243,-0.58345 v 37.12938 37.12937 l -12.80448,4.11949 c -7.04246,2.26572 -14.663059,4.59103 -16.934657,5.16736 l -4.130179,1.04787 -0.649598,8.28369 c -3.936428,50.19741 -5.708962,97.25391 -6.345774,168.46521 -0.850375,95.0929 2.655611,173.8791 11.793639,265.0259 1.627975,16.2381 2.959954,30.436 2.959954,31.5508 0,1.115 0.197199,1.8299 0.43822,1.5889 0.241021,-0.241 0.92484,-21.6697 1.5196,-47.6193 4.479605,-195.4471 9.678815,-362.5923 12.932285,-415.74918 l 0.67612,-11.047 4.42098,-0.31627 4.42097,-0.31629 -0.66449,13.87397 c -4.41566,92.19367 -8.66295,226.14747 -12.15799,383.44637 -2.52194,113.5032 -2.85209,138.3938 -1.94492,146.6314 1.1403,10.3547 0.93413,15.2981 3.41405,-81.8558 z m 910.30882,-8.5363 c 6.2745,-58.8275 10.9181,-127.0351 10.9737,-161.1858 0.054,-33.5862 -4.5523,-84.2621 -9.3125,-102.4359 -2.0094,-7.672 -5.2833,-37 -7.0626,-63.2691 -2.7208,-40.1688 -2.1848,-79.10019 1.5972,-115.99355 0.9059,-8.8376 1.6953,-18.0461 1.754,-20.46332 l 0.1069,-4.39496 -8.0342,-2.35999 c -4.4188,-1.298 -8.4312,-2.37075 -8.9164,-2.38389 -0.494,-0.0133 -0.5962,5.16926 -0.2321,11.77632 2.2655,41.11886 5.8578,158.77109 8.6395,282.95389 0.9424,42.0699 1.8963,91.003 3.6998,189.8075 l 0.7333,40.1709 1.7414,-14.0598 c 0.9578,-7.7329 2.8982,-24.9059 4.312,-38.1623 z M 172.44907,995.28113 c -0.32058,-0.80114 -0.55855,-0.56318 -0.60674,0.60675 -0.0436,1.05866 0.19375,1.65181 0.52747,1.31811 0.33371,-0.33371 0.36938,-1.19991 0.0792,-1.92486 z m -1.00427,-4.0171 c -0.32058,-0.80113 -0.55856,-0.56317 -0.60674,0.60676 -0.0436,1.05866 0.19374,1.65181 0.52746,1.3181 0.33371,-0.33371 0.36938,-1.1999 0.0792,-1.92486 z M 76.357126,939.25857 c 9.681321,-1.96006 29.900384,-7.50269 36.442014,-9.98981 l 2.72463,-1.0359 v -29.14877 c 0,-16.03182 -0.33895,-29.13701 -0.75321,-29.12263 -0.41426,0.0144 -18.504474,1.52428 -40.200471,3.35537 l -39.447266,3.32926 -2.996459,2.87079 c -4.249486,4.07126 -12.4994,16.2679 -15.975497,23.61811 -8.9043717,18.82828 -2.045326,33.01865 18.193184,37.63905 8.620217,1.96797 28.316521,1.25749 42.013075,-1.51547 z M 1076.3421,925.83303 c 7.2124,-1.87086 13.9747,-6.19343 17.1148,-10.94005 2.3645,-3.57409 2.7338,-5.13652 2.6989,-11.41831 -0.037,-6.61028 -0.4691,-8.13637 -4.7153,-16.64247 -5.1724,-10.36175 -14.6409,-23.00547 -18.1123,-24.18612 -1.9684,-0.66948 -72.1295,-6.77057 -77.86,-6.77057 h -2.20998 v 29.08828 29.08827 l 11.07008,3.50537 c 29.9968,9.4986 55.847,12.46922 72.0138,8.2756 z M 969.23884,874.46024 c 7.98486,-30.82534 8.58008,-32.63351 10.74428,-32.63887 2.79134,-0.007 3.02025,0.55172 4.11278,10.03704 l 0.86756,7.53205 0.13028,-6.2767 c 0.15259,-7.35061 -1.68146,-6.8268 17.98446,-5.13632 7.3342,0.63045 13.5509,0.93039 13.8147,0.66652 0.9538,-0.9538 -7.6666,-62.49527 -14.6722,-104.74487 -4.20092,-25.33559 -19.51671,-104.7885 -20.36264,-105.63443 -0.14527,-0.14527 -0.83903,6.84191 -1.54169,15.52706 -2.91441,36.02319 -8.55593,80.61843 -12.22483,96.63514 -2.69944,11.78451 -4.6827,15.97963 -7.88552,16.67994 -1.42972,0.31261 -3.00043,0.66251 -3.49048,0.77754 -0.49003,0.11503 3.23833,1.75122 8.28525,3.63596 6.15239,2.29758 9.17624,3.9405 9.17624,4.98563 0,4.59397 -12.13234,117.45588 -13.63295,126.82147 -1.46043,9.11485 0.80065,1.60792 8.69476,-28.86716 z m -820.7291,-104.825 c 10.11517,-7.13885 38.49326,-18.01651 69.77217,-26.74449 74.50453,-20.78956 206.53198,-42.59935 310.50012,-51.29195 24.9599,-2.08685 84.44154,-2.40923 106.95506,-0.57968 132.30467,10.75171 257.34575,35.8553 312.14059,62.66622 l 9.35233,4.57606 0.89349,-2.35005 c 5.05412,-13.29336 13.2462,-83.59347 18.54438,-159.13823 7.09978,-101.23313 10.08006,-193.97603 9.24598,-287.72416 -0.56496,-63.49911 -1.16605,-80.1811 -4.23377,-117.49992 C 977.62218,142.1846 969.50199,105.99433 960.60927,97.640054 953.68006,91.130403 882.3422,79.076613 812.48911,72.61254 738.45663,65.761715 675.53278,63.159399 583.5149,63.14295 486.22025,63.125557 422.13264,66.051787 343.4937,74.10228 229.59903,85.762004 149.69243,107.74012 126.20114,133.86809 c -6.58522,7.32436 -10.32996,19.68986 -14.57869,48.14036 -7.13715,47.79194 -11.14064,125.1684 -11.14575,215.41652 -0.009,161.7299 12.85257,301.76377 32.53073,354.18301 3.78509,10.08278 9.43438,19.90861 11.44634,19.90861 0.76464,0 2.58983,-0.8466 4.05597,-1.88135 z m 49.6824,-10.19215 c 10.51548,-3.30188 19.74553,-6.00341 20.51122,-6.00341 0.76569,0 9.38513,-2.3021 19.15431,-5.11576 9.76919,-2.81366 25.44484,-7.07561 34.83479,-9.47098 9.38995,-2.39538 16.49918,-4.38657 15.79829,-4.42484 -1.67471,-0.0915 -28.72839,6.05126 -48.75775,11.07079 -15.68536,3.93089 -59.43257,17.90668 -62.74668,20.0455 -1.5363,0.99147 -1.51724,1.04205 0.18922,0.5023 1.04364,-0.33011 10.50111,-3.30173 21.0166,-6.6036 z m 753.89089,6.56121 c 0,-0.73115 -14.54618,-7.8542 -22.59614,-11.06499 -24.66345,-9.83725 -48.88609,-17.15607 -82.85251,-25.03375 -29.5809,-6.86057 -36.80498,-7.92907 -15.06409,-2.22811 18.82979,4.93761 35.25382,9.83141 52.67728,15.69604 6.60234,2.22231 12.77261,4.04055 13.71171,4.04055 1.69586,0 51.01172,17.64295 51.95637,18.58759 0.63797,0.63798 2.16738,0.63986 2.16738,0.003 z M 293.00807,733.75174 c -0.33371,-0.33371 -1.19991,-0.36938 -1.92486,-0.0792 -0.80114,0.32058 -0.56318,0.55855 0.60675,0.60674 1.05867,0.0436 1.65182,-0.19376 1.31811,-0.52747 z m 5.02136,-1.00427 c -0.33371,-0.33371 -1.1999,-0.36938 -1.92486,-0.0792 -0.80114,0.32059 -0.56317,0.55856 0.60676,0.60674 1.05866,0.0436 1.65181,-0.19375 1.3181,-0.52746 z m 369.59332,-31.21798 c -0.96661,-0.2526 -2.54834,-0.2526 -3.51495,0 -0.96662,0.2526 -0.17575,0.45928 1.75748,0.45928 1.93322,0 2.72409,-0.20668 1.75747,-0.45928 z m -14.81302,-1.37607 c -22.32988,-2.34604 -50.34085,-3.21014 -82.29475,-2.53867 -18.53432,0.38947 -36.63626,1.02048 -40.22654,1.40223 -3.59027,0.38175 11.7751,0.56343 34.14528,0.40372 22.37018,-0.15971 49.7115,0.11021 60.75851,0.59981 11.047,0.4896 23.47487,0.89786 27.6175,0.90723 l 7.53204,0.0171 -7.53204,-0.79135 z M 587.8792,55.010425 c 50.78966,0.0053 52.90547,-0.0678 49.20937,-1.70144 -3.43986,-1.520385 -8.80376,-1.714626 -49.05444,-1.776385 -57.42085,-0.0881 -107.98094,1.465098 -112.35338,3.451494 -2.75353,1.250927 0.67633,1.339528 27.99446,0.723158 17.12286,-0.386336 55.01465,-0.699908 84.20399,-0.696827 z m 11.50371,-13.120841 c 0.16597,-0.135295 -4.85175,-1.025023 -11.15049,-1.977175 -15.85516,-2.396751 -54.05366,-1.668032 -67.48457,1.287415 l -9.03845,1.988896 43.68586,-0.526573 c 24.02723,-0.289615 43.82167,-0.637268 43.98765,-0.772563 z"
           style="fill:#d7dcf1;stroke-width:1.00427282" />
        <path
           id="path119"
           d="m 959.3138,2398.2377 c -2.21225,-2.2122 -0.83952,-7.8333 1.91297,-7.8333 0.38933,0 0.45591,1.8784 0.14797,4.1743 -0.5223,3.894 -0.41465,4.1363 1.60336,3.6086 1.18979,-0.3111 1.90999,-0.1559 1.60045,0.3449 -0.80135,1.2967 -3.84381,1.1264 -5.26475,-0.2945 z m 7.71882,0.4519 c -0.64117,-4.2174 -0.60624,-6.1148 0.13463,-7.3135 1.18264,-1.9135 1.73106,-1.1344 2.14362,3.0454 0.27343,2.7702 0.87884,3.6493 2.85762,4.1493 2.09126,0.5284 1.88155,0.6542 -1.25534,0.7532 -2.07132,0.065 -3.81756,-0.2201 -3.88053,-0.6344 z m 8.65359,-3.5149 c 0.0335,-3.0378 0.46705,-4.2682 1.50364,-4.2682 1.03659,0 1.47008,1.2304 1.50364,4.2682 0.0353,3.199 -0.34129,4.2681 -1.50364,4.2681 -1.16234,0 -1.53898,-1.0691 -1.50364,-4.2681 z m 5.42031,3.2638 c -0.0552,-0.5523 -0.10043,-2.134 -0.10043,-3.5149 0,-4.3206 0.1324,-4.5192 3.01282,-4.5192 3.7137,0 5.43743,1.7385 4.1356,4.1709 -0.54593,1.0201 -1.66877,1.8547 -2.49519,1.8547 -0.82643,0 -1.76272,0.6779 -2.08066,1.5064 -0.65137,1.6974 -2.31875,2.0361 -2.47214,0.5021 z m 9.13888,-0.9388 c 0,-3.2787 1.87584,-7.0953 3.48722,-7.0953 0.84061,0 2.16394,1.4687 2.94075,3.2639 l 1.41236,3.2638 0.73528,-3.3173 c 0.66106,-2.9824 1.05112,-3.2867 3.86299,-3.0128 2.8558,0.278 3.1771,0.6754 3.6973,4.5727 0.6385,4.7843 0.6688,4.7413 -2.1204,3.0128 -1.6693,-1.0346 -2.1967,-0.9904 -2.9991,0.251 -0.8655,1.339 -1.0853,1.339 -1.97795,0 -0.89268,-1.3389 -1.12435,-1.3389 -2.085,0 -0.81376,1.1344 -1.20656,1.1963 -1.59009,0.2511 -0.60484,-1.4906 -3.35482,-1.6964 -3.35482,-0.2511 0,0.5524 -0.45192,1.0043 -1.00427,1.0043 -0.55235,0 -1.00427,-0.8744 -1.00427,-1.9431 z m 20.0717,-0.3165 c -0.01,-1.2428 -0.2861,-3.2764 -0.6192,-4.5192 -0.4957,-1.8496 -0.1986,-2.2596 1.6372,-2.2596 1.8358,0 2.1329,0.41 1.6373,2.2596 -0.3331,1.2428 -0.6117,3.2764 -0.6192,4.5192 -0.01,1.2428 -0.4657,2.2596 -1.0181,2.2596 -0.5523,0 -1.0104,-1.0168 -1.018,-2.2596 z m 5.7871,-1.5064 c -0.2596,-2.0713 -0.2824,-4.105 -0.05,-4.5192 0.7681,-1.3728 5.379,-0.7799 5.8579,0.7532 1.5423,4.9366 1.7441,5.0648 2.7658,1.7575 0.5545,-1.7952 1.3947,-3.2639 1.8672,-3.2639 0.7499,0 1.2081,4.6712 0.6649,6.7788 -0.1068,0.4143 1.136,1.0387 2.7617,1.3876 2.8515,0.612 2.8258,0.6385 -0.7265,0.7532 -2.1271,0.068 -3.8767,-0.4113 -4.1426,-1.1365 -0.3682,-1.0043 -0.7264,-1.0043 -1.7909,0 -0.7319,0.6904 -2.5467,1.2553 -4.0328,1.2553 -2.369,0 -2.7602,-0.4643 -3.1741,-3.766 z m 17.6593,0.086 c 0.6983,-4.3036 1.9474,-5.8545 4.0619,-5.0431 1.6622,0.6378 3.3365,7.3827 2.1145,8.5182 -0.418,0.3885 -0.9619,0.1415 -1.2084,-0.549 -0.532,-1.4893 -3.2938,-1.6998 -3.2938,-0.2511 0,0.5524 -0.5111,1.0043 -1.1357,1.0043 -0.7467,0 -0.9312,-1.2601 -0.5385,-3.6793 z m 9.9092,2.4742 c -2.2122,-2.2122 -0.8395,-7.8333 1.913,-7.8333 0.3893,0 0.4559,1.8784 0.148,4.1743 -0.5223,3.894 -0.4147,4.1363 1.6033,3.6086 1.1898,-0.3111 1.91,-0.1559 1.6005,0.3449 -0.8014,1.2967 -3.8438,1.1264 -5.2648,-0.2945 z m 7.7052,0.4519 c -1.1054,-6.4959 -0.5106,-7.9505 3.251,-7.9505 2.6872,0 2.9683,0.2719 2.4432,2.3639 -0.3264,1.3002 -0.1146,3.2585 0.4706,4.3519 0.8332,1.5568 0.7477,1.9879 -0.3942,1.9879 -0.8019,0 -1.7216,-0.5649 -2.0438,-1.2553 -0.4686,-1.0043 -0.703,-1.0043 -1.1716,0 -0.6401,1.3714 -2.3501,1.7075 -2.5552,0.5021 z m 9.1666,-0.2508 c 0,-0.5523 0.4519,-1.0042 1.0043,-1.0042 0.5523,0 1.0042,0.4519 1.0042,1.0042 0,0.5524 -0.4519,1.0043 -1.0042,1.0043 -0.5524,0 -1.0043,-0.4519 -1.0043,-1.0043 z m 5.2222,-0.2008 c -2.2122,-2.2122 -0.8395,-7.8333 1.913,-7.8333 0.3893,0 0.4559,1.8784 0.148,4.1743 -0.5223,3.894 -0.4147,4.1363 1.6033,3.6086 1.1898,-0.3111 1.91,-0.1559 1.6005,0.3449 -0.8014,1.2967 -3.8438,1.1264 -5.2648,-0.2945 z m 9.0385,0 c -4.021,-4.021 1.4399,-9.6213 6.2857,-6.4462 3.0198,1.9786 3.2272,3.716 0.7154,5.9893 -2.1576,1.9525 -5.3004,2.1576 -7.0011,0.4569 z m 4.6331,-3.063 c -0.1732,-1.7952 -0.7667,-3.2639 -1.319,-3.2639 -0.5524,0 -1.1459,1.4687 -1.319,3.2639 -0.2386,2.4737 0.081,3.2638 1.319,3.2638 1.2381,0 1.5575,-0.7901 1.319,-3.2638 z m 5.4059,0.8543 c -0.1927,-5.1257 0.5784,-6.1428 2.9977,-3.9535 1.8798,1.7013 2.0455,1.7049 2.963,0.065 1.6957,-3.0299 2.8806,-1.8853 2.8806,2.7826 0,2.4856 -0.4519,4.5192 -1.0043,4.5192 -0.5523,0 -1.0042,-0.4519 -1.0042,-1.0043 0,-1.4557 -5.7809,-1.2362 -6.2724,0.2383 -0.2278,0.6833 -0.48,-0.5082 -0.5604,-2.6478 z m -652.47236,-3.2214 c -99.07617,-4.2306 -158.61277,-11.417 -216.92293,-26.1837 -24.4517,-6.1923 -42.00656,-12.0612 -75.32046,-25.1811 -15.4658,-6.0909 -30.50559,-11.6241 -33.42177,-12.2962 -6.2313,-1.4359 -6.937082,-2.4644 -10.790492,-15.7261 -7.69441,-26.4804 -14.588111,-74.0293 -21.016585,-144.9604 -2.363134,-26.0746 -2.62847,-27.7017 -4.749384,-29.1239 -4.975391,-3.3364 -8.024495,-6.4622 -10.63436,-10.9018 l -2.742054,-4.6645 -0.270057,-100.3471 c -0.255943,-95.1026 -0.173607,-100.64 1.575389,-105.9508 1.746592,-5.3035 1.779974,-7.4327 0.62319,-39.7489 -7.565281,-211.3456 -8.169918,-483.1447 -1.397416,-628.1727 2.611386,-55.9208 6.233921,-95.5263 10.517549,-114.9892 4.060383,-18.4486 7.858719,-59.2583 9.066791,-97.4145 0.904077,-28.5546 -2.277522,-85.92118 -4.952644,-89.29963 -0.893919,-1.12894 -2.435457,-1.20172 -8.132892,-0.38397 -10.397796,1.4924 -28.884857,0.43585 -35.885759,-2.05088 -24.6403545,-8.75231 -28.40921639,-30.33728 -10.04809,-57.54729 2.742439,-4.06412 6.987138,-9.59935 9.432665,-12.30053 l 4.446412,-4.91121 14.276977,-1.2029 c 7.852337,-0.66158 14.513211,-1.43912 14.801942,-1.72785 0.288731,-0.28874 -1.04764,-11.99789 -2.969715,-26.02034 C 51.180583,792.98607 47.816786,759.09103 44.215234,704.23031 43.109266,687.38363 41.470469,664.33557 40.573463,653.0124 39.492266,639.36414 38.828003,616.68437 38.602729,585.72612 l -0.339813,-46.69869 -2.795829,-5.5235 -2.795829,-5.5235 -0.193131,-100.92942 C 32.345264,357.61695 31.92244,323.29257 31.123154,317.05574 c -1.142297,-8.91333 -1.093575,-9.37795 2.896183,-27.6175 6.854008,-31.33373 10.803471,-54.30386 18.212375,-105.92338 8.268368,-57.6076 12.97021,-77.40027 22.828395,-96.097405 C 101.24381,37.757168 161.50207,20.453054 350.52361,8.313731 478.41334,0.10040931 533.14399,-1.4732667 634.73282,0.14183446 820.48731,3.0950361 908.80007,13.700361 959.59976,39.15454 c 26.73919,13.398189 45.65074,32.848574 58.33934,60.00152 10.5083,22.48697 16.0168,43.40748 31.0708,118.00194 5.7407,28.44602 12.474,60.62332 14.9629,71.50509 l 4.525,19.78505 -1.6424,8.83673 c -1.4198,7.63933 -1.7206,22.03662 -2.2192,106.25119 l -0.5767,97.41446 -2.8232,4.80283 -2.8232,4.80282 1.2111,18.29545 c 0.7856,11.86815 0.9829,28.17406 0.5615,46.41509 -0.6431,27.835 -1.2195,38.8508 -4.1255,78.83542 -0.8229,11.32317 -2.197,31.43374 -3.0535,44.69014 -2.4431,37.81525 -5.8356,71.8972 -11.2205,112.72198 -1.4748,11.18088 -2.3765,20.63379 -2.0039,21.00645 0.3726,0.37267 8.699,1.32909 18.503,2.12537 l 17.8254,1.4478 4.3141,4.15898 c 4.9677,4.7892 12.8026,15.83354 16.6573,23.48074 1.4587,2.89407 3.344,8.54311 4.1895,12.55341 2.5107,11.9082 0.1521,20.22886 -7.7468,27.3307 -11.1131,9.99161 -30.9197,12.76985 -57.8634,8.11641 -4.0196,-0.69423 -7.5316,-0.90079 -7.8047,-0.45904 -0.9282,1.50197 -4.3378,34.49637 -5.5441,53.64949 -2.7504,43.67404 1.4411,121.21744 8.0709,149.31484 4.6181,19.5715 8.3753,62.9143 11.084,127.8645 2.5083,60.1436 3.1581,97.4953 3.6952,212.4037 0.6698,143.3026 -0.7795,258.3926 -4.7531,377.4485 -0.9216,27.6154 -0.8556,32.3581 0.5382,38.6645 1.3995,6.3316 1.5547,18.6736 1.3033,103.5981 l -0.2857,96.4102 -2.402,5.316 c -1.4359,3.178 -4.1966,6.8501 -6.8638,9.1299 l -4.4618,3.8138 -0.9371,11.9599 c -7.6397,97.4937 -14.6338,153.0113 -23.584,187.2055 -1.9518,7.4567 -4.33273,14.9134 -5.29102,16.5705 -4.24827,7.3461 -39.94748,21.7531 -77.97724,31.4692 -70.99244,18.1377 -164.90062,29.7663 -285.71562,35.3802 -21.33337,0.9913 -185.10185,2.0706 -202.36098,1.3337 z m 143.10888,-6.9063 c 155.00458,-1.7738 298.18335,-19.4034 377.10445,-46.433 16.47786,-5.6435 37.28508,-14.8744 39.28403,-17.428 1.44506,-1.8461 4.91655,-12.5536 6.95176,-21.4423 21.24454,-92.7837 36.38694,-357.1261 39.58374,-691.0157 2.2048,-230.2756 -3.54,-423.1068 -14.0319,-471.004 -4.4182,-20.1695 -7.4533,-49.8674 -9.2112,-90.1301 -1.3798,-31.6003 -0.2175,-66.5176 3.2173,-96.66464 2.7002,-23.69871 2.8351,-22.29545 -2.2735,-23.65267 -9.3172,-2.47538 -26.49279,-8.25598 -28.70313,-9.66033 l -2.34099,-1.48735 0.60433,8.86385 c 2.77789,40.74403 10.25513,290.80194 18.19289,608.41474 0.8834,35.3504 2.2203,87.7734 2.9708,116.4956 l 1.3645,52.2222 -0.4348,-101.4315 c -0.8906,-207.7426 -7.75974,-530.1636 -14.11357,-662.45839 -0.64705,-13.47238 -0.62176,-13.70959 1.53419,-14.39386 5.11898,-1.6247 5.33388,-0.26206 7.12238,45.16462 9.389,238.46903 15.9122,696.42863 13.1533,923.42883 -2.6982,221.9961 -8.7514,330.749 -20.71037,372.0831 -4.05768,14.0248 -4.15763,14.1366 -19.50329,21.8368 -77.13071,38.7029 -210.26174,64.1835 -371.13914,71.034 -30.80704,1.3118 -118.46264,1.3246 -149.13452,0.021 -125.78057,-5.3432 -227.05115,-21.0945 -307.53686,-47.8333 -17.16939,-5.704 -20.20381,-7.0276 -22.74426,-9.921 -13.24238,-15.0823 -21.50533,-88.1981 -26.21598,-231.9756 -4.834359,-147.5533 -4.041432,-425.537 2.01382,-706.0038 4.05568,-187.8506 11.24872,-405.83183 13.67832,-414.51357 0.32531,-1.16245 1.48895,-1.75747 3.43697,-1.75747 3.59856,0 3.50919,-2.52147 1.4595,41.17518 -2.36966,50.51826 -5.45078,142.27016 -8.04328,239.51906 -11.365122,426.3251 -11.352739,792.298 0.0322,952.5528 5.10825,71.9035 12.29792,113.0869 20.5096,117.4816 4.9771,2.6637 42.82539,14.5175 62.29902,19.5115 73.40066,18.8238 161.28417,30.3824 264.12375,34.7377 30.64132,1.2977 110.71758,1.2869 142.39452,-0.019 160.89162,-6.6337 288.73173,-30.8316 371.52632,-70.3234 10.6098,-5.0607 11.40961,-5.6523 13.41839,-9.9258 4.36306,-9.282 8.5088,-34.0229 11.87625,-70.8748 6.96104,-76.1782 10.21954,-184.1682 11.68414,-387.2235 0.595,-82.4939 0.32,-100.0079 -1.5522,-98.8509 -0.421,0.2602 -10.38305,-16.3531 -22.13787,-36.9184 -26.05406,-45.5821 -46.10465,-79.191 -55.33506,-92.7529 -6.56325,-9.6431 -6.97022,-10.5782 -7.86742,-18.0769 -3.81186,-31.8589 -7.03613,-207.4541 -7.05465,-384.1997 -0.005,-48.0978 -0.37689,-79.255 -0.95009,-79.6094 -0.51799,-0.32 -2.38859,1.5739 -4.15687,4.209 -1.76828,2.635 -3.82746,5.2908 -4.57596,5.9018 -1.02625,0.8376 -13.52412,-1.9115 -50.82707,-11.1802 -172.62979,-42.8937 -233.17863,-53.6749 -301.56157,-53.6956 -67.55081,-0.02 -130.5561,11.1142 -296.03932,52.3179 -28.61318,7.1248 -53.28195,12.9538 -54.81953,12.9538 h -2.79556 l -0.68994,118.7553 c -1.23144,211.9637 -3.92649,337.7903 -7.58936,354.3306 -0.43704,1.9735 -4.6367,9.4302 -9.33258,16.5705 -10.89714,16.5694 -25.09574,40.4664 -52.46573,88.3027 -12.00924,20.9893 -22.01708,38.3506 -22.23966,38.5808 -0.22257,0.2301 -0.6693,0.1538 -0.99271,-0.1696 -1.20168,-1.2017 10.41912,-458.6097 16.15688,-635.9536 4.47948,-138.45255 8.71137,-226.97592 10.95809,-229.22264 0.28227,-0.28227 0.97124,0.562 1.53102,1.87616 0.55978,1.31417 14.57204,54.36051 31.13834,117.88077 33.17411,127.19961 32.38066,124.26591 32.94115,121.79511 0.54871,-2.419 -1.89456,-14.2404 -18.32323,-88.6541 -36.53631,-165.49128 -38.52419,-174.85004 -43.67544,-205.61924 -4.03744,-24.11626 -3.98804,-24.64503 2.60419,-27.8742 l 5.12547,-2.51068 -4.39485,-4.36062 C 117.16227,754.07747 100.88445,650.34408 95.493545,493.33302 91.568498,379.01526 94.666619,263.249 103.52953,193.05545 c 4.67117,-36.9952 9.79127,-55.27413 17.8191,-63.61473 4.38198,-4.5527 13.17868,-11.00441 22.86941,-16.77296 8.44651,-5.02791 5.58886,-4.34564 -9.11089,2.17527 -6.07582,2.69528 -11.76779,4.9005 -12.64883,4.9005 -3.42602,0 -5.43246,-3.90297 -5.34745,-10.40194 0.16837,-12.871451 8.79003,-28.95467 23.51972,-43.874789 12.99378,-13.161765 17.13214,-15.116591 40.17091,-18.975445 43.49623,-7.285353 85.03,-11.329568 117.98232,-11.488148 22.10033,-0.106356 25.1241,0.06775 25.39794,1.462336 0.83689,4.261982 -19.97327,28.103432 -29.28456,33.550278 -2.83677,1.659431 -6.95476,2.758631 -13.16628,3.514421 -14.53431,1.768474 -31.96545,4.903109 -47.65167,8.569181 -25.03175,5.850242 -27.59871,7.317184 -4.34037,2.480396 94.32357,-19.615465 226.44379,-29.257987 380.38925,-27.761923 76.38027,0.742273 112.11191,2.197318 178.25843,7.258948 47.42633,3.629133 90.00577,8.711602 125.99582,15.039414 15.3358,2.696357 19.90798,3.042812 12.09169,0.916242 -15.97914,-4.347433 -51.8884,-9.506183 -101.33347,-14.557641 -16.51657,-1.687382 -30.9781,-3.56522 -32.13674,-4.172973 -8.40039,-4.406331 -29.13369,-29.758653 -31.2577,-38.221382 -0.58182,-2.31816 -0.30519,-2.764325 2.08601,-3.364479 4.12483,-1.035267 45.8131,0.280643 64.7253,2.043084 41.61407,3.878045 88.66498,10.87881 98.9321,14.720229 16.65483,6.231374 37.30869,27.107305 40.66636,41.103613 1.30356,5.433862 0.73772,9.528542 -1.68888,12.221638 -1.38308,1.53497 -1.18755,2.24871 2.06347,7.532046 11.88692,19.317784 19.14956,64.758064 22.68206,141.915364 5.26064,114.90294 -1.72634,314.02224 -15.60853,444.82212 -5.73406,54.02712 -10.76528,79.09738 -16.22115,80.82901 -1.26211,0.40059 -6.66881,-1.65855 -15.47867,-5.89498 -43.13988,-20.74492 -128.38078,-40.56076 -231.04503,-53.71074 -53.24161,-6.81957 -85.09982,-9.08473 -127.83789,-9.08945 -34.41473,-0.004 -47.18365,0.63476 -81.84823,4.09316 -30.86535,3.07937 -84.59548,10.04335 -82.60581,10.70658 0.64415,0.21471 8.7608,-0.525 18.03702,-1.64381 18.01563,-2.17288 42.53304,-4.52115 64.56879,-6.18438 22.94106,-1.73156 93.40045,-2.31803 125.5341,-1.0449 110.60974,4.38238 189.09087,19.11606 283.37565,53.19962 28.57504,10.32976 57.54626,21.30784 58.37497,22.12006 1.17044,1.14715 -8.75586,96.14359 -14.90027,142.59807 -1.35859,10.27161 -2.47018,19.71915 -2.4702,20.99454 -4e-5,2.83094 1.5864,2.09084 2.24795,-1.0487 0.61411,-2.91443 20.45317,-78.84595 22.47338,-86.01405 0.92712,-3.28958 1.88532,-5.04468 2.44733,-4.48267 1.03691,1.03691 2.50388,17.39028 3.89091,43.37473 0.51135,9.57956 1.18886,17.67651 1.50557,17.99321 0.3167,0.31672 0.57584,-13.2973 0.57584,-30.25337 0,-28.18186 0.14774,-30.88591 1.72044,-31.48941 0.94623,-0.3631 11.18646,0.10635 22.75605,1.04325 11.5696,0.93689 21.1665,1.57256 21.3265,1.4126 0.442,-0.44203 5.1501,-36.13135 7.3825,-55.96335 2.7319,-24.26873 4.7567,-46.79665 6.544,-72.80978 2.9382,-42.76236 3.6838,-53.41129 5.1327,-73.31192 2.0998,-28.84257 2.9409,-87.06552 1.5161,-104.94651 -0.6382,-8.00907 -2.7117,-24.73022 -4.6079,-37.15809 -1.896,-12.42788 -3.7408,-28.47114 -4.0994,-35.65169 -1.3137,-26.30211 3.7378,-75.97358 14.671,-144.26352 l 2.9987,-18.72943 -5.4787,-24.45431 c -3.0132,-13.44986 -9.818,-45.92063 -15.122,-72.15726 -14.0358,-69.4302 -19.1586,-88.79051 -29.1534,-110.17898 C 982.3225,38.845795 922.03904,18.435829 739.67933,9.8216517 659.79218,6.0480002 554.17592,4.3120594 516.73076,6.1572017 431.21286,10.371169 409.69148,11.490972 379.14538,13.316054 257.4154,20.589234 192.14038,28.512194 150.85965,41.024949 96.277471,57.56955 76.752384,80.322793 65.843182,140.09751 c -1.387845,7.60441 -4.792186,29.6348 -7.5652,48.9564 -6.032806,42.03495 -9.796128,64.30705 -15.184821,89.86686 -6.856059,32.51987 -6.683418,27.6238 -2.036179,57.74569 10.453705,67.75752 12.663795,89.31993 12.661046,123.52556 -0.0021,26.37776 -0.145994,28.47594 -3.20507,46.74085 -3.672461,21.92727 -4.934,34.34902 -5.860299,57.70352 -0.69859,17.61334 0.73989,60.03645 3.132859,92.3931 0.796568,10.77082 2.134195,30.42946 2.972504,43.68587 3.118192,49.30873 7.473457,94.30405 13.122989,135.57683 2.964432,21.65672 4.239139,29.758 4.765065,30.28393 0.215546,0.21555 12.039723,-0.56684 26.275948,-1.73863 21.585036,-1.77668 26.026626,-1.90556 26.742466,-0.77597 0.47214,0.74501 0.86535,16.12277 0.87381,34.17278 0.0132,28.1099 -0.20471,33.03829 -1.51871,34.35228 -1.75869,1.7587 -22.283372,8.56427 -33.968369,11.26323 l -7.884953,1.82124 0.585784,4.56267 c 2.565535,19.98294 3.103631,32.38409 3.117582,71.84898 0.0096,27.3601 -0.45801,48.3355 -1.276334,57.2435 -2.903191,31.603 -4.472318,44.5991 -6.331631,52.4409 -11.181042,47.1576 -16.867865,204.9236 -15.6305,433.6271 2.001801,369.995 19.407052,670.7066 43.307461,748.2255 l 2.49008,8.0763 7.60624,2.2379 c 4.18342,1.2307 18.09182,6.4644 30.90755,11.6302 38.74568,15.618 67.93105,24.3739 107.18077,32.1555 66.72424,13.2284 159.84697,20.0462 258.57758,18.9312 12.1517,-0.1373 41.75264,-0.4745 65.77987,-0.7495 z m -50.21364,-161.3541 c -104.30211,-8.6806 -207.33972,-23.7544 -270.14939,-39.5212 -39.68779,-9.9627 -71.42332,-22.4664 -82.4781,-32.4961 l -2.91964,-2.6489 3.03217,-31.6346 c 8.51173,-88.8027 19.69037,-187.1887 33.66121,-296.2604 9.32272,-72.7835 20.27889,-144.3629 27.89969,-182.2756 3.64743,-18.1456 2.48191,-16.9016 13.27262,-14.1661 25.63424,6.4982 115.42375,12.0966 213.40798,13.3062 125.23509,1.5459 266.86848,-6.0096 380.47518,-20.2964 15.66265,-1.9697 29.00336,-3.3795 29.64602,-3.1328 1.87873,0.7209 7.84545,32.6205 16.09572,86.0519 17.03444,110.3205 41.78368,338.9514 44.46419,410.7557 l 0.6189,16.5788 -5.09754,5.5775 c -31.11313,34.0426 -127.90907,63.3448 -268.36072,81.2383 -68.29581,8.701 -105.98727,11.2191 -133.56829,8.9237 z M 349.42109,61.879463 c -1.12308,-1.353228 -1.06139,-1.80351 0.39282,-2.866846 4.54254,-3.321591 70.57502,-9.68866 130.76303,-12.608602 36.52093,-1.771765 132.33671,-2.346208 176.75202,-1.059679 67.87367,1.96602 75.63035,2.712267 71.46834,6.875763 -1.00476,1.005106 -5.22948,1.060285 -20.30021,0.26514 -95.98548,-5.064281 -220.20907,-3.38832 -301.23207,4.064067 -20.50713,1.886219 -49.38529,5.310384 -54.36689,6.446435 -1.24883,0.284797 -2.70123,-0.181484 -3.47704,-1.116278 z m -0.20353,-11.772895 c -0.98817,-2.575144 0.88668,-3.540268 9.85721,-5.074211 55.64806,-9.515707 142.53294,-14.326489 241.01063,-13.344663 58.21113,0.580367 75.20272,1.231843 111.94254,4.292002 21.27047,1.771673 24.48044,2.467096 23.92126,5.182415 -0.42374,2.057622 -0.6999,2.055639 -27.33573,-0.196285 -38.67459,-3.269742 -62.91678,-4.01906 -130.11993,-4.021967 -66.61698,-0.0029 -86.79729,0.600647 -134.57256,4.024642 -25.69137,1.841269 -61.97836,5.739874 -79.10831,8.499246 -14.62508,2.355878 -14.9314,2.368425 -15.59511,0.638821 z m -0.14435,-9.609961 c -0.44884,-0.72624 0.2134,-4.10718 0.80464,-4.107891 0.0789,-9.6e-5 7.60035,-1.108771 16.71412,-2.463724 30.9626,-4.603237 68.56835,-8.045502 118.00206,-10.80139 30.6533,-1.708896 159.09044,-1.726531 187.29688,-0.02572 29.87226,1.801262 59.39655,4.36035 62.08692,5.381531 1.46873,0.557484 2.204,1.535248 1.98522,2.639967 -0.42823,2.162299 -1.14099,2.160698 -27.41618,-0.06157 -33.2766,-2.814425 -54.89437,-3.704229 -105.95078,-4.361023 -90.90657,-1.169428 -176.27282,3.410747 -237.40592,12.737592 -14.83313,2.263034 -15.35363,2.297338 -16.11696,1.06223 z m 0.44785,-8.624861 c -2.84161,-3.42394 0.98275,-4.405522 33.13928,-8.505703 54.691,-6.973484 116.39834,-10.176749 196.33534,-10.19189 61.59794,-0.01167 104.37826,1.552985 142.1046,5.197346 13.99169,1.351596 15.06409,1.627047 15.06409,3.869257 0,2.60557 -1.51022,2.944435 -9.03845,2.028054 -11.48838,-1.398433 -49.947,-3.926012 -75.32046,-4.950214 -31.79913,-1.283575 -112.53848,-1.281077 -146.62384,0.0045 -59.19901,2.232837 -124.56806,8.097839 -151.73624,13.613985 -1.67499,0.340085 -3.07284,-0.0394 -3.92432,-1.065372 z M 585.36593,1045.0175 c 8.84205,-0.5094 10.97733,-0.8988 9.54059,-1.7396 -2.39415,-1.4011 -76.51679,-1.5156 -82.19285,-0.127 -3.95705,0.9681 -3.90451,0.9917 3.51495,1.5766 10.97989,0.8655 55.88031,1.0539 69.13731,0.29 z M 76.357126,940.25399 c 15.42862,-3.13659 36.210904,-9.18379 38.915574,-11.3236 1.4914,-1.17994 1.84866,-58.50983 0.3703,-59.42351 -0.80137,-0.49528 -68.004472,4.67403 -78.19757,6.01499 -3.885197,0.51113 -4.804029,1.24748 -10.335823,8.28316 -8.237487,10.47694 -14.876727,23.99397 -15.66857,31.9001 -1.318783,13.16734 6.845051,22.38729 23.127038,26.11887 8.402406,1.92571 28.264474,1.17949 41.789051,-1.57001 z M 1069.2592,928.10947 c 20.22,-2.77452 30.2744,-13.15987 27.6962,-28.60786 -2.2621,-13.55437 -18.7709,-38.60363 -25.4428,-38.60538 -1.3375,-3.5e-4 -18.475,-1.35583 -38.0835,-3.01218 -19.6084,-1.65635 -36.90117,-3.01182 -38.42835,-3.01217 l -2.77669,-6.5e-4 0.26601,29.87712 0.26601,29.87712 11.05992,3.66223 c 17.9899,5.95687 39.0461,10.12439 54.3962,10.76627 1.7551,0.0734 6.7263,-0.35162 11.047,-0.9445 z M 165.73741,773.56874 c 68.64039,-24.21816 147.54944,-44.23041 227.95809,-57.8128 14.09143,-2.38029 24.82546,-4.36558 23.85339,-4.41176 -2.04039,-0.0969 -50.68839,7.01452 -68.53169,10.01808 -99.17708,16.69446 -182.09064,39.98062 -200.43045,56.29062 -2.32697,2.06943 -2.78828,2.84756 -1.42839,2.40946 1.1047,-0.3559 9.46527,-3.27802 18.57905,-6.4936 z m -14.50382,-4.35748 c 45.76762,-27.31819 205.32023,-60.25367 365.99931,-75.55103 24.55453,-2.33771 76.20219,-3.60815 99.42301,-2.44565 62.45803,3.12685 141.52067,13.40815 208.38661,27.0986 56.87712,11.64529 98.07472,24.06173 125.25883,37.75143 5.58222,2.81116 7.26048,3.28355 7.91776,2.22866 3.73209,-5.98979 9.88898,-48.85377 14.90597,-103.77446 9.84044,-107.72299 14.72656,-229.32232 13.801,-343.46131 -0.54332,-66.99887 -1.13287,-83.70274 -4.27124,-121.01487 C 978.04126,135.19159 969.21658,99.80939 958.91873,94.873764 954.68111,92.84273 927.46016,86.944558 904.88221,83.16526 755.86759,58.221871 505.25235,54.496133 328.42961,74.595505 218.58371,87.081644 143.14557,109.49664 123.31735,135.54066 c -10.25201,13.46586 -17.02933,61.04 -22.0709,154.92925 -1.702365,31.70307 -1.707608,181.85107 -0.008,217.9272 6.98288,148.18592 20.36486,235.64553 40.07007,261.88295 1.35598,1.80549 2.77491,3.12067 3.15317,2.92262 0.37826,-0.19804 3.42544,-1.99418 6.77152,-3.99142 z"
           style="fill:#b9c7e6;stroke-width:1.00427282" />
        <path
           id="path117"
           d="m 960.28427,2398.5631 c -0.88905,-0.5636 -0.33137,-0.8117 1.65876,-0.7379 1.64896,0.061 2.78989,0.4502 2.53542,0.8644 -0.60846,0.9905 -2.5231,0.9328 -4.19418,-0.1265 z m 6.86285,-0.099 c 0,-0.5626 1.38846,-0.7149 3.26389,-0.358 4.57676,0.8712 4.72255,1.3371 0.41845,1.3371 -2.02529,0 -3.68234,-0.4406 -3.68234,-0.9791 z m 8.8376,-0.226 c 0.93732,-0.9373 1.47294,-0.9373 2.41026,0 0.93732,0.9373 0.66952,1.2051 -1.20513,1.2051 -1.87464,0 -2.14244,-0.2678 -1.20513,-1.2051 z m 5.22222,0.2008 c 0,-0.5523 0.45193,-1.0042 1.00428,-1.0042 0.55235,0 1.00427,0.4519 1.00427,1.0042 0,0.5524 -0.45192,1.0043 -1.00427,1.0043 -0.55235,0 -1.00428,-0.4519 -1.00428,-1.0043 z m 9.03846,0 c 0,-0.5523 0.45192,-1.0042 1.00427,-1.0042 0.55235,0 1.00427,0.4519 1.00427,1.0042 0,0.5524 -0.45192,1.0043 -1.00427,1.0043 -0.55235,0 -1.00427,-0.4519 -1.00427,-1.0043 z m 5.02136,0 c 0,-0.5523 0.45193,-1.0042 1.00428,-1.0042 0.55235,0 1.00427,0.4519 1.00427,1.0042 0,0.5524 -0.45192,1.0043 -1.00427,1.0043 -0.55235,0 -1.00428,-0.4519 -1.00428,-1.0043 z m 4.01709,0 c 0,-0.5523 0.45193,-1.0042 1.00425,-1.0042 0.5524,0 1.0043,0.4519 1.0043,1.0042 0,0.5524 -0.4519,1.0043 -1.0043,1.0043 -0.55232,0 -1.00425,-0.4519 -1.00425,-1.0043 z m 5.52355,0 c -0.3414,-0.5523 -0.1421,-1.0042 0.4428,-1.0042 0.585,0 1.0636,0.4519 1.0636,1.0042 0,0.5524 -0.1993,1.0043 -0.4429,1.0043 -0.2436,0 -0.7222,-0.4519 -1.0635,-1.0043 z m 5.5235,0 c 0,-0.5523 0.4519,-1.0042 1.0042,-1.0042 0.5524,0 1.0043,0.4519 1.0043,1.0042 0,0.5524 -0.4519,1.0043 -1.0043,1.0043 -0.5523,0 -1.0042,-0.4519 -1.0042,-1.0043 z m 6.0256,0.1442 c 0,-0.4731 1.3114,-0.812 2.9141,-0.7532 1.6027,0.059 2.7059,0.4459 2.4514,0.8601 -0.6416,1.0446 -5.3655,0.9505 -5.3655,-0.1069 z m 9.0384,-0.119 c 0,-0.5626 1.3886,-0.7149 3.2639,-0.358 4.5768,0.8712 4.7226,1.3371 0.4185,1.3371 -2.0253,0 -3.6824,-0.4406 -3.6824,-0.9791 z m 8.0342,-0.025 c 0,-0.5523 0.452,-1.0042 1.0043,-1.0042 0.5524,0 1.0043,0.4519 1.0043,1.0042 0,0.5524 -0.4519,1.0043 -1.0043,1.0043 -0.5523,0 -1.0043,-0.4519 -1.0043,-1.0043 z m 5.0214,0 c 0,-0.5523 0.4519,-1.0042 1.0043,-1.0042 0.5523,0 1.0042,0.4519 1.0042,1.0042 0,0.5524 -0.4519,1.0043 -1.0042,1.0043 -0.5524,0 -1.0043,-0.4519 -1.0043,-1.0043 z m 6.1927,0.1246 c -0.889,-0.5636 -0.3314,-0.8117 1.6588,-0.7379 1.6489,0.061 2.7899,0.4502 2.5354,0.8644 -0.6085,0.9905 -2.5231,0.9328 -4.1942,-0.1265 z m 6.8628,-0.1246 c 0,-0.5523 0.452,-1.0042 1.0043,-1.0042 0.5524,0 1.0043,0.4519 1.0043,1.0042 0,0.5524 -0.4519,1.0043 -1.0043,1.0043 -0.5523,0 -1.0043,-0.4519 -1.0043,-1.0043 z m 4.5193,0 c -0.3414,-0.5523 -0.1421,-1.0042 0.4429,-1.0042 0.5848,0 1.0635,0.4519 1.0635,1.0042 0,0.5524 -0.1993,1.0043 -0.4429,1.0043 -0.2435,0 -0.7222,-0.4519 -1.0635,-1.0043 z m 4.5192,0 c 0,-0.5523 0.4519,-1.0042 1.0043,-1.0042 0.5523,0 1.0042,0.4519 1.0042,1.0042 0,0.5524 -0.4519,1.0043 -1.0042,1.0043 -0.5524,0 -1.0043,-0.4519 -1.0043,-1.0043 z m 6.1927,0.1246 c -0.889,-0.5636 -0.3314,-0.8117 1.6588,-0.7379 1.6489,0.061 2.7899,0.4502 2.5354,0.8644 -0.6085,0.9905 -2.5231,0.9328 -4.1942,-0.1265 z m 9.1371,0.061 c -0.737,-0.4682 0.1743,-0.788 2.245,-0.788 2.0707,0 2.982,0.3198 2.2449,0.788 -0.6824,0.4335 -1.6926,0.7881 -2.2449,0.7881 -0.5524,0 -1.5626,-0.3546 -2.245,-0.7881 z m 15.8027,-0.1858 c 0,-0.5523 0.4519,-1.0042 1.0042,-1.0042 0.5524,0 1.0043,0.4519 1.0043,1.0042 0,0.5524 -0.4519,1.0043 -1.0043,1.0043 -0.5523,0 -1.0042,-0.4519 -1.0042,-1.0043 z m -39.1667,-3.5149 c 0,-0.8285 0.4519,-1.5064 1.0043,-1.5064 0.5523,0 1.0043,0.6779 1.0043,1.5064 0,0.8285 -0.452,1.5064 -1.0043,1.5064 -0.5524,0 -1.0043,-0.6779 -1.0043,-1.5064 z m -59.1728,-2.0922 c 0.0482,-1.17 0.28616,-1.4079 0.60675,-0.6068 0.2901,0.725 0.25443,1.5912 -0.0792,1.9249 -0.33371,0.3337 -0.57107,-0.2595 -0.52747,-1.3181 z m 43.1837,0 c 0.048,-1.17 0.2862,-1.4079 0.6068,-0.6068 0.2901,0.725 0.2544,1.5912 -0.079,1.9249 -0.3337,0.3337 -0.5711,-0.2595 -0.5275,-1.3181 z m -568.99981,-0.1141 c -89.15936,-0.9653 -172.71852,-8.8826 -231.98702,-21.9809 -34.10116,-7.5363 -56.28507,-14.5221 -94.14971,-29.6479 -13.67018,-5.4608 -28.01251,-10.8037 -31.87184,-11.8732 -3.85933,-1.0695 -7.46569,-2.2218 -8.01414,-2.5608 -0.54845,-0.3389 -2.368532,-5.0016 -4.044633,-10.3616 -7.9322,-25.366 -15.142603,-73.9219 -21.579941,-145.3221 -1.394371,-15.4658 -2.743895,-29.0382 -2.998942,-30.1608 -0.255047,-1.1226 -2.455751,-3.4452 -4.890454,-5.1614 -3.062786,-2.1588 -5.317172,-4.9337 -7.316682,-9.0058 l -2.88995,-5.8857 -0.305185,-95.4059 c -0.275538,-86.1377 -0.140201,-96.2981 1.393141,-104.5898 1.534121,-8.2959 1.587804,-12.374 0.55522,-42.1795 -3.656875,-105.5553 -5.115105,-183.8279 -5.816015,-312.1834 -1.258756,-230.512 4.439559,-388.6713 15.703377,-435.8544 2.150217,-9.007 5.337511,-38.8379 7.122397,-66.6607 2.165458,-33.7551 -0.461678,-114.39575 -3.836779,-117.77085 -0.448455,-0.44846 -6.137718,-0.29392 -12.642808,0.34341 C 32.017427,949.19279 13.104689,941.5625 8.5248423,925.70809 7.0410786,920.57162 6.9636565,918.80011 7.9815136,913.27599 10.104991,901.75147 17.648835,888.00668 27.862144,877.05375 l 4.809114,-5.15738 13.557683,-1.11287 c 7.456725,-0.61207 14.142678,-1.57724 14.857672,-2.14481 0.76387,-0.60637 1.076196,-2.10492 0.757332,-3.63368 -0.953179,-4.56995 -7.416095,-54.17428 -9.498199,-72.90083 -2.957952,-26.60396 -4.814735,-48.45262 -7.095873,-83.49672 -1.119669,-17.20099 -2.704008,-40.24905 -3.520754,-51.21791 -2.592329,-34.81488 -3.755399,-72.85766 -2.897122,-94.76171 0.94183,-24.03636 0.998823,-23.14898 -1.902745,-29.62604 l -2.249449,-5.02137 -0.56034,-101.43155 C 33.67934,346.8788 33.260981,323.35738 32.169465,316.91413 30.625264,307.79867 30.362762,309.88317 37.080482,277.9165 42.440044,252.41271 46.011759,231.23529 52.747887,185.02127 60.953194,128.72776 64.213384,113.45452 71.815768,95.692688 93.655112,44.66831 144.0523,25.840816 292.27578,13.332748 350.8656,8.3885553 473.39474,1.5270561 536.31408,-0.33313316 559.05378,-1.0054247 658.85796,0.52673376 705.27858,2.26075 c 212.84005,7.950519 278.10209,27.880993 310.70492,94.886644 11.5505,23.738976 17.2276,44.521526 30.999,113.482826 4.7431,23.75105 11.3552,55.51202 14.6937,70.5799 l 6.0699,27.39618 -1.8059,10.26405 c -1.6242,9.23075 -1.8603,19.81837 -2.3455,105.16785 l -0.5395,94.90378 -2.8083,5.71532 -2.8082,5.71534 1.0404,11.85944 c 2.2698,25.87244 1.2803,69.31144 -2.9581,129.8615 -1.1019,15.74198 -2.69,38.79004 -3.5292,51.21791 -2.5532,37.81219 -6.4966,76.35543 -11.6448,113.81757 -1.1259,8.19318 -1.8306,15.46095 -1.566,16.15059 0.3294,0.85853 5.6573,1.63917 16.8969,2.47572 9.0286,0.672 17.6548,1.46095 19.1691,1.75321 5.4223,1.04649 19.1997,20.79889 24.779,35.52502 6.5773,17.36031 -2.4266,32.3867 -22.5462,37.62718 -7.6103,1.98226 -27.1187,2.01457 -39.1311,0.0648 -7.0816,-1.14944 -9.2834,-1.20295 -10.1707,-0.24726 -2.2519,2.42522 -6.1374,44.98739 -7.0333,77.04238 -1.1222,40.1479 3.3373,102.3911 9.1737,128.0448 4.2819,18.8204 7.9369,60.0291 10.5106,118.5041 5.9467,135.1084 5.7733,389.6554 -0.4002,587.5604 -0.7285,23.3535 -0.9536,44.4583 -0.5035,47.2008 0.4477,2.7283 0.8409,48.6021 0.8739,101.9417 0.068,110.2473 0.5458,103.5193 -7.9751,112.3135 -2.7614,2.8498 -5.0206,5.7838 -5.0206,6.5198 0,3.9174 -5.3944,66.8437 -7.585,88.4803 -5.8368,57.6506 -12.7209,99.6802 -19.7388,120.5127 -2.86704,8.5105 -5.46771,10.555 -22.88985,17.9948 -65.08539,27.7933 -184.48521,46.9246 -335.92926,53.8257 -27.44344,1.2505 -136.839,2.6975 -173.7392,2.298 z m 92.3931,-5.3115 c 60.78547,-0.9644 88.53883,-1.9546 128.04479,-4.5685 138.00913,-9.1314 239.79311,-27.9896 296.09702,-54.8598 9.71209,-4.6351 10.36346,-5.6357 14.60318,-22.4342 11.71192,-46.4046 21.59372,-143.1993 29.21992,-286.2177 12.8606,-241.1815 16.0063,-589.0175 7.0204,-776.3029 -2.6256,-54.7217 -6.3963,-94.1932 -10.5053,-109.9679 -4.5187,-17.3472 -8.3336,-66.6456 -8.4319,-108.9636 -0.077,-33.42388 0.9525,-52.36704 4.3524,-80.03417 0.9712,-7.90212 1.5586,-14.93398 1.3054,-15.6264 -0.2531,-0.6924 -3.0098,-1.96822 -6.126,-2.83515 -10.2303,-2.84613 -24.72225,-7.70418 -26.00221,-8.7166 -1.63847,-1.29599 -1.83704,-64.54241 -0.20581,-65.55057 0.57724,-0.35676 10.32411,0.12834 21.65972,1.078 11.8882,0.99594 20.9716,1.35161 21.4643,0.84044 2.3635,-2.45239 11.1747,-80.61016 14.5352,-128.93098 7.2641,-104.45012 7.5431,-109.75773 7.5484,-143.61102 0,-31.79376 -0.8981,-44.41846 -5.0325,-70.36864 -1.634,-10.25673 -3.4624,-24.49229 -4.063,-31.63459 -2.2184,-26.37975 1.6162,-68.92724 12.6978,-140.89098 l 4.5405,-29.48625 -5.0255,-22.2338 c -2.764,-12.2286 -9.5803,-44.82995 -15.1475,-72.44745 -14.4903,-71.88396 -20.3335,-93.40051 -31.3639,-115.491373 C 1004.1152,84.16305 997.55103,75.064003 987.40435,65.305516 977.2141,55.505136 969.4303,50.154282 955.59799,43.440734 905.91689,19.32789 825.86117,9.7873999 635.23495,5.2620696 553.31297,3.3173004 524.37467,4.0073388 403.24793,10.793837 235.28355,20.204557 164.61213,30.287381 122.03117,50.915556 94.723888,64.144465 79.825993,82.281718 70.857945,113.21576 c -4.174518,14.39942 -7.101082,30.48142 -13.066998,71.80551 -6.718288,46.53554 -10.172417,66.86428 -16.210765,95.40591 -2.51242,11.87553 -4.791533,23.62552 -5.064699,26.1111 -0.303261,2.75943 1.286945,16.05566 4.083717,34.14527 4.409754,28.52244 8.109298,56.43704 10.847408,81.84824 0.726524,6.74255 1.290561,23.5535 1.280414,38.16236 -0.017,24.47329 -0.217529,27.33945 -3.196996,45.69442 -1.748373,10.77082 -3.646896,23.87658 -4.21894,29.12391 -2.822299,25.88877 -2.246119,73.94775 1.474931,123.02342 0.795733,10.49465 2.129764,29.92733 2.964515,43.18373 1.925177,30.57314 5.006679,67.29625 7.542194,89.88242 2.98715,26.6093 9.187128,72.5166 10.138443,75.06939 1.039663,2.78987 0.85584,2.78789 29.495967,0.31711 12.142024,-1.04749 22.423274,-1.69015 22.847204,-1.42815 0.42393,0.26201 0.77079,14.90081 0.77079,32.53068 v 32.05431 l -2.25961,1.4362 c -2.66378,1.69308 -17.80648,6.58171 -29.877121,9.64545 -4.694975,1.19166 -8.900864,2.52084 -9.346419,2.95374 -0.445555,0.4329 -0.06322,8.19561 0.849637,17.25048 4.842647,48.03554 1.692933,137.33334 -6.053507,171.62354 -6.541864,28.958 -10.344949,83.537 -13.785691,197.8417 -1.657347,55.0587 -1.650275,320.0526 0.01048,392.6707 7.042804,307.9536 20.455512,506.5437 39.204741,580.4697 4.57587,18.0421 4.80682,18.4274 12.30482,20.5313 3.49405,0.9803 16.99306,6.0637 29.99781,11.2961 47.25741,19.0143 80.45722,28.3475 131.17534,36.8766 50.39181,8.4742 120.69278,14.0336 189.23229,14.9647 9.66612,0.1313 22.31996,0.3291 28.11964,0.4396 5.79967,0.1103 37.2083,-0.2223 69.79696,-0.7394 z m -94.90378,-29.8013 c -106.89284,-4.5222 -188.51789,-14.5476 -261.10752,-32.0698 -28.17898,-6.8022 -66.473,-18.5323 -75.53589,-23.1381 -14.86718,-7.5556 -23.94491,-82.2788 -28.898638,-237.8788 -4.764097,-149.6435 -3.979186,-422.1964 2.010048,-697.9696 3.69756,-170.2537 9.85926,-366.0941 12.87589,-409.24114 0.62181,-8.89371 0.82024,-9.56235 2.92664,-9.86151 2.7629,-0.3924 2.70559,-3.20231 0.77458,37.98115 -8.80265,187.7378 -16.58071,571.2645 -16.56857,816.9759 0.0146,295.2611 8.44444,456.7608 25.60981,490.635 l 2.3577,4.6527 13.37103,4.637 c 80.04391,27.7593 187.78446,44.8032 316.11166,50.0069 32.79593,1.3298 139.06362,0.6754 166.75691,-1.0271 157.41771,-9.6771 274.66468,-33.3771 348.70531,-70.4863 11.24339,-5.6351 11.7898,-6.361 15.34821,-20.3887 16.98912,-66.9732 23.43202,-326.5444 18.53532,-746.7579 -2.554,-219.181 -9.00222,-491.6605 -13.62064,-575.56532 -0.65694,-11.93505 -0.004,-14.52247 3.03068,-12.00416 1.88805,1.56694 2.97726,21.44457 5.58926,102.00358 10.6419,328.2083 14.7363,776.9579 9.0531,992.2215 -4.2875,162.3976 -12.2123,244.9111 -24.86488,258.892 -2.59671,2.8693 -28.96499,15.2319 -46.93683,22.006 -82.07817,30.9374 -199.54278,50.3314 -339.44421,56.0438 -21.06173,0.86 -118.0135,1.0972 -136.07897,0.3329 z m 72.30764,-140.5752 c -2.48557,-0.2376 -16.9471,-1.5581 -32.13673,-2.9345 -139.00456,-12.5957 -253.53664,-34.4196 -298.77116,-56.9305 -8.85673,-4.4074 -19.38795,-11.6134 -20.05798,-13.7245 -1.12195,-3.5349 11.82709,-131.7381 22.62888,-224.0394 12.36943,-105.6968 26.85096,-205.841 38.17665,-264.0032 2.19202,-11.257 4.23758,-20.8751 4.54569,-21.3737 0.30811,-0.4985 1.99317,-0.026 3.74458,1.0507 13.80084,8.4819 118.94559,15.1749 238.18421,15.1616 120.37247,-0.013 237.44587,-6.6371 337.9378,-19.1197 13.53258,-1.681 25.30628,-3.2615 26.16378,-3.5124 3.52354,-1.0308 4.82536,1.9275 7.97911,18.1324 7.0451,36.1996 16.29815,97.7257 24.59274,163.524 13.2305,104.9532 27.44342,249.2116 29.31784,297.5702 l 0.62797,16.2013 -7.13565,7.1357 c -7.44129,7.4413 -21.16662,17.0802 -32.33642,22.7091 -54.30955,27.3682 -160.50599,50.1614 -287.74528,61.7593 -22.67853,2.0671 -47.82802,3.1476 -55.71603,2.3936 z M 115.17294,1703.1982 c -1.51447,-1.1225 -1.56848,-5.1376 -0.65814,-48.9258 0.54545,-26.2366 1.68288,-82.0491 2.52761,-124.0277 7.17966,-356.7927 13.7977,-593.79141 17.39811,-623.04342 0.75533,-6.13686 3.08805,-8.6831 5.60356,-6.11648 0.87346,0.89121 11.61503,47.87431 26.74486,116.9808 l 25.28514,115.4913 -0.64907,119.0064 c -0.98527,180.6511 -2.95185,290.7209 -5.58138,312.3921 -0.74358,6.1283 -1.69255,8.8644 -4.91297,14.1652 -5.27789,8.6876 -21.47461,41.0242 -43.37854,86.6047 -9.79565,20.3841 -18.46705,37.4296 -19.26979,37.8788 -0.84932,0.4753 -2.14928,0.3056 -3.10939,-0.4059 z m 870.66729,-31.0256 c -33.01295,-68.7494 -44.2648,-91.3423 -53.43778,-107.2995 -4.06096,-7.0643 -4.40555,-8.2616 -5.34699,-18.579 -2.72678,-29.8828 -5.06906,-183.8982 -5.08837,-334.5832 l -0.0122,-95.5854 24.62069,-112.8013 c 13.54138,-62.0407 25.05572,-113.81811 25.58742,-115.0609 0.99368,-2.3226 4.40567,-3.07296 5.55046,-1.22066 2.08136,3.36772 4.70445,61.05727 8.01234,176.21516 4.3812,152.5239 12.39083,520.8701 12.82967,590.0103 l 0.22629,35.6517 -2.29354,0.3254 c -2.05934,0.2921 -3.14666,-1.4513 -10.64795,-17.0726 z M 207.94984,1097.6542 c -0.51055,-1.2428 -1.6576,-6.101 -2.54902,-10.7959 -1.81734,-9.5718 -10.84456,-48.9015 -28.05912,-122.24794 -22.73705,-96.8762 -32.41897,-141.47908 -34.58305,-159.3178 -0.5272,-4.34574 -1.44765,-8.39044 -2.04544,-8.98824 -3.18621,-3.1862 -2.46849,-3.5303 31.04983,-14.88591 72.23369,-24.47192 165.42286,-46.42207 242.22557,-57.05477 63.12902,-8.73969 111.79399,-11.65076 180.07116,-10.77158 61.7414,0.79502 100.57409,3.40595 146.11202,9.82389 64.16362,9.04296 125.36179,25.34164 207.89415,55.36765 14.31597,5.20828 14.56717,5.35143 14.8706,8.47479 0.59226,6.09643 -10.55356,102.85176 -16.92808,146.95039 -11.48627,79.46152 -25.11405,129.69212 -42.46127,156.50822 -2.5073,3.8759 -5.37927,7.4761 -6.38215,8.0006 -1.30131,0.6806 -7.14323,-0.3167 -20.40247,-3.483 -32.65337,-7.7976 -100.26603,-23.4045 -121.01488,-27.9337 -147.75255,-32.2524 -220.11199,-35.033 -340.44849,-13.0831 -40.44029,7.3765 -90.56059,18.3832 -174.05425,38.2233 -17.29614,4.11 -31.65438,7.4727 -31.9072,7.4727 -0.25281,0 -0.87738,-1.0168 -1.38791,-2.2596 z M 70.833625,943.25488 c 18.950033,-3.16627 46.092615,-11.03952 47.098945,-13.66197 0.33221,-0.86573 0.60401,-15.10894 0.60401,-31.6516 0,-25.03272 -0.23879,-30.1692 -1.42371,-30.6239 -1.49756,-0.57467 -34.912139,1.94321 -47.785654,3.60079 -4.142626,0.53339 -13.804857,1.4027 -21.471624,1.93181 -13.87792,0.95775 -13.954693,0.97665 -17.356309,4.27363 -7.944787,7.70039 -17.391709,23.8023 -20.048099,34.1712 -4.0932973,15.9777 4.924822,28.14384 24.116891,32.53552 6.989112,1.59931 24.955877,1.3142 36.26555,-0.57548 z M 1075.3368,928.96672 c 12.4297,-2.58909 22.3191,-11.36405 23.779,-21.09943 0.7382,-4.92331 -0.7337,-13.08187 -3.5424,-19.63424 -3.8727,-9.03485 -15.9517,-25.6574 -20.3256,-27.97135 -1.1825,-0.62552 -10.0585,-1.66014 -19.7247,-2.29914 -9.6661,-0.639 -20.5122,-1.58535 -24.1025,-2.10299 -10.5307,-1.51832 -37.75991,-3.36621 -39.53947,-2.68334 -1.46184,0.56096 -1.63573,3.87429 -1.63573,31.16656 0,23.22406 0.30069,30.78028 1.25534,31.54673 1.49139,1.19738 13.87936,5.39578 22.35036,7.57475 27.7526,7.13873 45.8536,8.75862 61.4857,5.50245 z"
           style="fill:#648abd;stroke-width:1.00427282" />
        <path
           id="path115"
           d="m 447.43594,2391.8158 c -62.42068,-2.0652 -101.55851,-4.8189 -142.10461,-9.9987 -65.72544,-8.3964 -109.10992,-19.3488 -163.51783,-41.2802 -12.88197,-5.1927 -27.07172,-10.495 -31.53278,-11.7828 -9.35559,-2.701 -9.38262,-2.7341 -13.245367,-16.2205 -8.694773,-30.3572 -16.266733,-87.3747 -25.201275,-189.7679 -3.997189,-45.8093 -10.149105,-164.1656 -11.014206,-211.9016 -0.240241,-13.2564 -0.908389,-38.1122 -1.484774,-55.235 -4.052734,-120.3957 -5.412655,-228.7393 -4.758601,-379.113 0.530982,-122.0783 1.067767,-153.6074 3.693124,-216.9229 2.615187,-63.0703 7.073897,-112.349 11.603104,-128.2404 1.588275,-5.5726 4.540505,-30.7803 6.68127,-57.048 1.922976,-23.5953 1.646817,-85.8258 -0.476861,-107.45715 -0.921867,-9.38995 -1.970371,-18.54139 -2.330008,-20.33652 -0.573676,-2.86352 -0.392102,-3.26389 1.480193,-3.26389 1.359802,0 2.137069,0.63764 2.142319,1.75748 0.0045,0.96661 0.438225,5.59882 0.963763,10.29379 3.246766,29.00554 4.209031,80.54639 2.081218,111.47429 -1.916358,27.8544 -5.045635,56.5655 -7.060019,64.7756 -6.793933,27.6903 -10.942027,87.6672 -14.273428,206.3781 -1.607243,57.2723 -1.600761,303.1006 0.0099,376.6023 6.848673,312.5297 20.323948,514.3524 39.379402,589.796 4.633796,18.346 4.833666,18.636 15.044716,21.8354 4.69498,1.4712 18.78072,6.7802 31.30165,11.7979 58.54722,23.4628 110.62039,35.5846 186.12342,43.3271 59.20574,6.0712 102.29086,7.5049 204.2726,6.7972 95.84602,-0.665 124.03477,-1.7417 190.90876,-7.292 117.84793,-9.781 209.98145,-28.2871 256.26967,-51.4749 11.22099,-5.6212 11.39261,-5.7599 13.17873,-10.654 17.82318,-48.837 32.63598,-223.8595 40.33568,-476.5901 3.6077,-118.4174 4.0386,-152.3852 4.0449,-318.8566 0.01,-163.635 -0.4469,-197.8868 -3.533,-267.1366 -2.803,-62.8912 -7.1039,-109.6601 -11.456,-124.5729 -3.2023,-10.9731 -7.3429,-58.5797 -8.2506,-94.8607 -0.7223,-28.8727 0.5791,-57.6968 4.0127,-88.87813 2.0463,-18.58273 2.3601,-20.08546 4.1947,-20.08546 1.2497,0 1.8526,0.55699 1.6305,1.50641 -0.7416,3.16927 -4.0588,34.30988 -5.1885,48.70723 -3.4026,43.36465 0.4535,123.38095 7.5017,155.66225 5.1395,23.5391 8.8734,67.7371 11.5809,137.0833 4.6598,119.3505 5.0939,328.7655 1.0229,493.6001 -0.5183,20.9893 -1.415,57.595 -1.9927,81.3461 -1.4914,61.3205 -2.8183,99.4652 -5.0829,146.1217 -1.7119,35.2695 -2.6067,51.4186 -5.5366,99.9251 -0.3003,4.9712 -0.9711,11.75 -1.4906,15.0641 -0.5195,3.3141 -1.6394,15.29 -2.4888,26.6132 -6.5361,87.1401 -15.5746,153.9598 -24.6685,182.3675 -1.60762,5.0217 -3.73856,9.8686 -4.73547,10.7708 -3.85189,3.4859 -26.05029,13.0384 -44.58464,19.1859 -71.32444,23.6567 -186.83245,39.4716 -326.69777,44.7301 -26.27874,0.988 -158.04982,2.0697 -176.75201,1.451 z m 50.71577,-34.173 c -122.31277,-2.2723 -233.921,-15.9704 -317.51753,-38.97 -16.40767,-4.5142 -47.4724,-14.6192 -51.88701,-16.8783 -16.66365,-8.5272 -26.41351,-109.7556 -30.301395,-314.6057 -1.271202,-66.9788 -1.269277,-302.9815 0.0032,-396.6877 2.923885,-215.3111 8.766935,-451.1778 14.578805,-588.5039 2.04001,-48.20227 2.46583,-53.7286 4.13996,-53.7286 1.72941,0 1.72755,0.68373 -0.11005,40.67305 -2.76513,60.17395 -6.33092,170.91755 -9.03796,280.69425 -14.618493,592.8137 -7.75097,976.197 18.3393,1023.8021 l 2.72239,4.9674 14.05982,4.8976 c 79.12761,27.5629 187.08677,44.6062 316.34594,49.9409 31.30778,1.2922 106.79452,1.2853 139.2296,-0.013 159.1267,-6.3674 290.9275,-30.9794 371.15058,-69.3074 16.77098,-8.0126 17.08438,-8.3742 20.81754,-24.0244 9.955,-41.7333 15.7516,-137.0918 18.7448,-308.3624 1.3236,-75.7421 0.6486,-413.6011 -1.0164,-508.6641 -4.5239,-258.2954 -8.3893,-410.4275 -12.78076,-503.02257 -0.55471,-11.69611 -0.43522,-13.86648 0.74183,-13.47483 2.06928,0.68852 2.55741,6.74355 4.31513,53.5276 6.9217,184.2339 12.0921,459.942 13.2869,708.5145 1.5521,322.9169 -6.1003,529.2237 -21.43793,577.959 -3.75276,11.9243 -4.79691,12.9849 -19.79875,20.1108 -73.3219,34.8281 -181.97145,57.5821 -320.93429,67.2118 -41.52044,2.8772 -112.70578,4.7042 -153.65375,3.9435 z m 22.09401,-143.017 c -165.03158,-14.9999 -281.62076,-37.9961 -322.8169,-63.6725 -12.03926,-7.5037 -11.29116,-2.6217 -7.11311,-46.4194 12.67301,-132.8485 28.3381,-265.122 42.26326,-356.8641 7.47655,-49.2572 18.41461,-110.6978 19.98708,-112.2703 0.33269,-0.3326 1.83377,0.1208 3.33574,1.0078 13.67947,8.078 121.46074,14.8311 236.72642,14.8324 122.1412,0 251.88218,-7.5132 345.46985,-20.0095 16.3446,-2.1824 21.37853,-2.5476 22.37332,-1.623 3.52354,3.2749 17.84929,92.5444 28.83027,179.6529 13.79089,109.3987 29.59395,272.3084 29.63224,305.4714 l 0.009,8.0342 -8.82714,8.5363 c -15.43704,14.9284 -37.44603,26.2818 -75.03077,38.7047 -57.51822,19.0113 -145.21368,34.8211 -241.96161,43.6209 -33.62784,3.0587 -48.03762,3.256 -72.87793,0.9982 z M 115.79805,1702.6505 c -0.96715,-0.6004 -1.02492,-10.7981 -0.26862,-47.4187 0.52993,-25.6596 1.65737,-81.2259 2.50543,-123.4807 2.70141,-134.5991 7.58804,-350.9793 9.03799,-400.2027 0.30914,-10.4947 1.22947,-42.1293 2.04519,-70.2991 1.93248,-66.73531 4.22383,-126.00267 5.5522,-143.61102 1.03282,-13.69055 2.10097,-17.33176 4.62626,-15.77037 0.64713,0.40012 12.51011,52.554 26.36216,115.89759 l 25.18557,115.17 -0.0103,49.0179 c -0.0277,132.732 -2.68238,327.8561 -5.0323,369.8832 -0.97025,17.3527 -1.02709,17.6572 -4.49679,24.1025 -6.64735,12.348 -41.2111,81.8755 -51.17295,102.938 -10.37086,21.9273 -12.2603,25.061 -14.3339,23.7734 z m 868.45107,-36.0758 c -18.4019,-38.6071 -45.94023,-93.9241 -50.64954,-101.7408 -4.42197,-7.34 -4.60547,-7.9695 -5.56187,-19.0812 -2.71956,-31.5967 -5.04712,-185.2916 -5.06635,-334.544 l -0.0122,-95.0832 24.64666,-112.8013 c 13.55568,-62.0407 24.8842,-113.59215 25.1745,-114.55876 0.29031,-0.96661 1.3615,-1.75748 2.38043,-1.75748 1.37364,0 1.99454,0.97363 2.40168,3.76603 3.71216,25.46066 10.0198,248.75131 17.68114,625.91301 3.72611,183.4328 3.632,171.7307 1.38108,171.7307 -1.57007,0 -4.05321,-4.3828 -12.37549,-21.843 z M 209.22316,1097.6769 c -0.54219,-0.7029 -1.75897,-5.3454 -2.70393,-10.3165 -2.1289,-11.1994 -5.8276,-27.3492 -24.72532,-107.95934 -26.30924,-112.22474 -35.60397,-154.73747 -38.0951,-174.24133 -0.56438,-4.4188 -1.28797,-8.9577 -1.60796,-10.08646 -0.52196,-1.84117 0.7417,-2.52709 12.28558,-6.66866 75.63884,-27.13676 175.158,-51.29848 259.61218,-63.02982 63.08303,-8.76273 111.43293,-11.65568 180.07116,-10.77431 107.38558,1.37891 177.95655,10.68036 260.67329,34.35749 32.07401,9.18097 103.99019,33.8185 106.73908,36.56738 0.78066,0.78066 0.15624,9.79892 -2.2124,31.95287 -15.13038,141.51418 -28.13949,212.14478 -46.8672,254.45718 -4.47034,10.0999 -13.7292,25.448 -15.83243,26.2448 -0.67017,0.2539 -11.38676,-1.9631 -23.81463,-4.9267 -110.2393,-26.2882 -173.40179,-39.5371 -221.44512,-46.4499 -100.91438,-14.5203 -169.48915,-9.6183 -314.33444,22.4703 -27.11861,6.0078 -121.14589,27.9305 -125.14125,29.1769 -0.88863,0.2773 -2.0593,-0.071 -2.60151,-0.7739 z M 63.001538,870.3048 c -0.387328,-0.38733 -0.704299,-2.09766 -0.704381,-3.80074 -8.2e-5,-1.70308 -1.342207,-12.58689 -2.9825,-24.18624 -5.859636,-41.43647 -10.467943,-87.68793 -13.608384,-136.5811 -0.851468,-13.2564 -2.197235,-32.91504 -2.990593,-43.68587 -4.013472,-54.48786 -4.479592,-117.11242 -1.039011,-139.59392 0.803054,-5.24732 2.406031,-15.41559 3.562172,-22.59614 5.826295,-36.18592 3.630535,-67.87872 -12.558948,-181.27124 -1.351328,-9.46483 -1.345328,-11.21346 0.05859,-17.07264 6.434824,-26.85546 13.408111,-65.94607 19.975222,-111.97642 7.331466,-51.38788 10.477839,-67.75341 16.315049,-84.86105 C 88.15656,48.619848 134.14921,28.799055 276.20742,15.394614 c 41.50939,-3.916777 93.02691,-7.2115626 201.3567,-12.877699 58.68464,-3.06947162 91.12359,-3.32448481 168.2157,-1.3223986 229.70544,5.9654631 305.10003,19.8674336 347.6424,64.1016186 10.01458,10.412871 15.18718,17.996415 22.41018,32.855532 10.9526,22.531753 16.2298,42.169553 31.1078,115.759233 5.7772,28.57488 12.3583,60.08894 14.6247,70.03124 2.2665,9.9423 4.3826,19.56743 4.7023,21.38919 0.5928,3.37704 0.2763,6.05357 -6.734,56.94409 -11.0836,80.45929 -11.8784,103.33249 -5.0956,146.62383 1.6443,10.49465 2.9434,20.21099 2.8869,21.59186 -0.056,1.38088 0.4264,12.45904 1.0733,24.61815 1.277,24.00732 0.3884,60.93466 -2.4163,100.41382 -0.8241,11.59935 -2.4028,34.87337 -3.5081,51.72005 -3.1895,48.60864 -7.0718,87.74168 -13.1764,132.81508 -1.5143,11.18074 -2.5237,15.8173 -3.4437,15.8173 -2.135,0 -2.2185,-1.09185 -0.8064,-10.54487 5.6728,-37.97598 10.8499,-89.18748 13.9151,-137.64957 0.8407,-13.29171 2.1823,-32.95035 2.9813,-43.68587 2.838,-38.13036 3.8633,-68.44182 3.2585,-96.32047 -0.6081,-28.02478 -1.422,-36.52729 -6.3466,-66.30753 -5.8623,-35.44959 -3.2267,-77.8924 10.1995,-164.2493 l 4.483,-28.83545 -3.0542,-13.17444 c -4.6686,-20.13829 -8.2803,-37.29411 -18.1016,-85.9842 -13.2459,-65.66866 -18.9516,-86.9338 -29.0136,-108.13355 C 1006.5444,86.612993 1000.5984,77.853689 990.67384,67.558572 970.85759,47.002354 945.0914,34.655376 901.76666,24.954876 845.55987,12.370054 747.95589,5.7106479 589.54054,3.6520486 539.50334,3.0018177 508.41773,4.0421189 405.75861,9.8024379 165.62719,23.276482 104.89503,38.591222 77.919833,92.473072 69.310579,109.6697 65.180388,127.92643 56.772669,185.9501 c -6.664105,45.99056 -10.074222,66.24318 -15.569764,92.46854 -7.011146,33.45799 -6.857324,27.69932 -1.636366,61.26064 9.05406,58.20124 12.684065,93.31157 12.667291,122.52128 -0.01065,18.5568 -0.302817,21.45516 -5.972759,59.2521 -4.736443,31.57406 -4.748667,75.52607 -0.03925,141.10033 1.071058,14.91345 2.423029,34.79805 3.004379,44.188 1.665437,26.90007 4.89835,64.30828 7.637679,88.37601 2.058829,18.08886 8.835594,69.72302 9.72026,74.06151 0.266425,1.30659 -2.524812,2.18409 -3.582608,1.12629 z"
           style="fill:#457dc0;stroke-width:1.00427282" />
        <path
           id="path113"
           d="m 447.43594,2391.8158 c -62.42068,-2.0652 -101.55851,-4.8189 -142.10461,-9.9987 -65.72544,-8.3964 -109.10992,-19.3488 -163.51783,-41.2802 -12.88197,-5.1927 -27.07172,-10.495 -31.53278,-11.7828 -9.35559,-2.701 -9.38262,-2.7341 -13.245367,-16.2205 -8.694773,-30.3572 -16.266733,-87.3747 -25.201275,-189.7679 -3.997189,-45.8093 -10.149105,-164.1656 -11.014206,-211.9016 -0.240241,-13.2564 -0.908389,-38.1122 -1.484774,-55.235 -4.052734,-120.3957 -5.412655,-228.7393 -4.758601,-379.113 0.530982,-122.0783 1.067767,-153.6074 3.693124,-216.9229 2.615187,-63.0703 7.073897,-112.349 11.603104,-128.2404 1.588275,-5.5726 4.540505,-30.7803 6.68127,-57.048 1.922976,-23.5953 1.646817,-85.8258 -0.476861,-107.45715 -0.921867,-9.38995 -1.970371,-18.54139 -2.330008,-20.33652 -0.573676,-2.86352 -0.392102,-3.26389 1.480193,-3.26389 1.359802,0 2.137069,0.63764 2.142319,1.75748 0.0045,0.96661 0.438225,5.59882 0.963763,10.29379 3.246766,29.00554 4.209031,80.54639 2.081218,111.47429 -1.916358,27.8544 -5.045635,56.5655 -7.060019,64.7756 -6.793933,27.6903 -10.942027,87.6672 -14.273428,206.3781 -1.607243,57.2723 -1.600761,303.1006 0.0099,376.6023 6.848673,312.5297 20.323948,514.3524 39.379402,589.796 4.633796,18.346 4.833666,18.636 15.044716,21.8354 4.69498,1.4712 18.78072,6.7802 31.30165,11.7979 58.54722,23.4628 110.62039,35.5846 186.12342,43.3271 59.20574,6.0712 102.29086,7.5049 204.2726,6.7972 95.84602,-0.665 124.03477,-1.7417 190.90876,-7.292 117.84793,-9.781 209.98145,-28.2871 256.26967,-51.4749 11.22099,-5.6212 11.39261,-5.7599 13.17873,-10.654 17.82318,-48.837 32.63598,-223.8595 40.33568,-476.5901 3.6077,-118.4174 4.0386,-152.3852 4.0449,-318.8566 0.01,-163.635 -0.4469,-197.8868 -3.533,-267.1366 -2.803,-62.8912 -7.1039,-109.6601 -11.456,-124.5729 -3.2023,-10.9731 -7.3429,-58.5797 -8.2506,-94.8607 -0.7223,-28.8727 0.5791,-57.6968 4.0127,-88.87813 2.0463,-18.58273 2.3601,-20.08546 4.1947,-20.08546 1.2497,0 1.8526,0.55699 1.6305,1.50641 -0.7416,3.16927 -4.0588,34.30988 -5.1885,48.70723 -3.4026,43.36465 0.4535,123.38095 7.5017,155.66225 5.1395,23.5391 8.8734,67.7371 11.5809,137.0833 4.6598,119.3505 5.0939,328.7655 1.0229,493.6001 -0.5183,20.9893 -1.415,57.595 -1.9927,81.3461 -1.4914,61.3205 -2.8183,99.4652 -5.0829,146.1217 -1.7119,35.2695 -2.6067,51.4186 -5.5366,99.9251 -0.3003,4.9712 -0.9711,11.75 -1.4906,15.0641 -0.5195,3.3141 -1.6394,15.29 -2.4888,26.6132 -6.5361,87.1401 -15.5746,153.9598 -24.6685,182.3675 -1.60762,5.0217 -3.73856,9.8686 -4.73547,10.7708 -3.85189,3.4859 -26.05029,13.0384 -44.58464,19.1859 -71.32444,23.6567 -186.83245,39.4716 -326.69777,44.7301 -26.27874,0.988 -158.04982,2.0697 -176.75201,1.451 z m 50.71577,-34.173 c -122.31277,-2.2723 -233.921,-15.9704 -317.51753,-38.97 -16.40767,-4.5142 -47.4724,-14.6192 -51.88701,-16.8783 -16.66365,-8.5272 -26.41351,-109.7556 -30.301395,-314.6057 -1.271202,-66.9788 -1.269277,-302.9815 0.0032,-396.6877 2.923885,-215.3111 8.766935,-451.1778 14.578805,-588.5039 2.04001,-48.20227 2.46583,-53.7286 4.13996,-53.7286 1.72941,0 1.72755,0.68373 -0.11005,40.67305 -2.76513,60.17395 -6.33092,170.91755 -9.03796,280.69425 -14.618493,592.8137 -7.75097,976.197 18.3393,1023.8021 l 2.72239,4.9674 14.05982,4.8976 c 79.12761,27.5629 187.08677,44.6062 316.34594,49.9409 31.30778,1.2922 106.79452,1.2853 139.2296,-0.013 159.1267,-6.3674 290.9275,-30.9794 371.15058,-69.3074 16.77098,-8.0126 17.08438,-8.3742 20.81754,-24.0244 9.955,-41.7333 15.7516,-137.0918 18.7448,-308.3624 1.3236,-75.7421 0.6486,-413.6011 -1.0164,-508.6641 -4.5239,-258.2954 -8.3893,-410.4275 -12.78076,-503.02257 -0.55471,-11.69611 -0.43522,-13.86648 0.74183,-13.47483 2.06928,0.68852 2.55741,6.74355 4.31513,53.5276 6.9217,184.2339 12.0921,459.942 13.2869,708.5145 1.5521,322.9169 -6.1003,529.2237 -21.43793,577.959 -3.75276,11.9243 -4.79691,12.9849 -19.79875,20.1108 -73.3219,34.8281 -181.97145,57.5821 -320.93429,67.2118 -41.52044,2.8772 -112.70578,4.7042 -153.65375,3.9435 z m 22.09401,-143.017 c -165.03158,-14.9999 -281.62076,-37.9961 -322.8169,-63.6725 -12.03926,-7.5037 -11.29116,-2.6217 -7.11311,-46.4194 12.67301,-132.8485 28.3381,-265.122 42.26326,-356.8641 7.47655,-49.2572 18.41461,-110.6978 19.98708,-112.2703 0.33269,-0.3326 1.83377,0.1208 3.33574,1.0078 13.67947,8.078 121.46074,14.8311 236.72642,14.8324 122.1412,0 251.88218,-7.5132 345.46985,-20.0095 16.3446,-2.1824 21.37853,-2.5476 22.37332,-1.623 3.52354,3.2749 17.84929,92.5444 28.83027,179.6529 13.79089,109.3987 29.59395,272.3084 29.63224,305.4714 l 0.009,8.0342 -8.82714,8.5363 c -15.43704,14.9284 -37.44603,26.2818 -75.03077,38.7047 -57.51822,19.0113 -145.21368,34.8211 -241.96161,43.6209 -33.62784,3.0587 -48.03762,3.256 -72.87793,0.9982 z M 115.79805,1702.6505 c -0.96715,-0.6004 -1.02492,-10.7981 -0.26862,-47.4187 0.52993,-25.6596 1.65737,-81.2259 2.50543,-123.4807 2.70141,-134.5991 7.58804,-350.9793 9.03799,-400.2027 0.30914,-10.4947 1.22947,-42.1293 2.04519,-70.2991 1.93248,-66.73531 4.22383,-126.00267 5.5522,-143.61102 1.03282,-13.69055 2.10097,-17.33176 4.62626,-15.77037 0.64713,0.40012 12.51011,52.554 26.36216,115.89759 l 25.18557,115.17 -0.0103,49.0179 c -0.0277,132.732 -2.68238,327.8561 -5.0323,369.8832 -0.97025,17.3527 -1.02709,17.6572 -4.49679,24.1025 -6.64735,12.348 -41.2111,81.8755 -51.17295,102.938 -10.37086,21.9273 -12.2603,25.061 -14.3339,23.7734 z m 32.1617,-75.4935 c 9.55853,-19.6084 20.06737,-40.3966 23.35297,-46.1962 3.28561,-5.7995 6.29028,-11.3141 6.67706,-12.2548 2.67532,-6.5061 4.57163,-98.218 5.85157,-283.0017 l 1.03998,-150.1388 -22.37645,-102.4106 -22.37643,-102.41064 -0.66842,13.53247 c -3.84598,77.86347 -12.58972,432.23947 -17.39426,704.97427 l -0.55728,31.6346 4.53606,-9.0384 c 2.49482,-4.9712 12.35666,-25.0817 21.9152,-44.6902 z m 836.28937,39.4177 c -18.4019,-38.6071 -45.94023,-93.9241 -50.64954,-101.7408 -4.42197,-7.34 -4.60547,-7.9695 -5.56187,-19.0812 -2.71956,-31.5967 -5.04712,-185.2916 -5.06635,-334.544 l -0.0122,-95.0832 24.64666,-112.8013 c 13.55568,-62.0407 24.8842,-113.59215 25.1745,-114.55876 0.29031,-0.96661 1.3615,-1.75748 2.38043,-1.75748 1.37364,0 1.99454,0.97363 2.40168,3.76603 3.71216,25.46066 10.0198,248.75131 17.68114,625.91301 3.72611,183.4328 3.632,171.7307 1.38108,171.7307 -1.57007,0 -4.05321,-4.3828 -12.37549,-21.843 z M 209.22316,1097.6769 c -0.54219,-0.7029 -1.75897,-5.3454 -2.70393,-10.3165 -2.1289,-11.1994 -5.8276,-27.3492 -24.72532,-107.95934 -26.30924,-112.22474 -35.60397,-154.73747 -38.0951,-174.24133 -0.56438,-4.4188 -1.28797,-8.9577 -1.60796,-10.08646 -0.52196,-1.84117 0.7417,-2.52709 12.28558,-6.66866 75.63884,-27.13676 175.158,-51.29848 259.61218,-63.02982 63.08303,-8.76273 111.43293,-11.65568 180.07116,-10.77431 107.38558,1.37891 177.95655,10.68036 260.67329,34.35749 32.07401,9.18097 103.99019,33.8185 106.73908,36.56738 0.78066,0.78066 0.15624,9.79892 -2.2124,31.95287 -15.13038,141.51418 -28.13949,212.14478 -46.8672,254.45718 -4.47034,10.0999 -13.7292,25.448 -15.83243,26.2448 -0.67017,0.2539 -11.38676,-1.9631 -23.81463,-4.9267 -110.2393,-26.2882 -173.40179,-39.5371 -221.44512,-46.4499 -100.91438,-14.5203 -169.48915,-9.6183 -314.33444,22.4703 -27.11861,6.0078 -121.14589,27.9305 -125.14125,29.1769 -0.88863,0.2773 -2.0593,-0.071 -2.60151,-0.7739 z m 134.48271,-36.857 c 4.57828,-1.0647 12.16549,-2.6323 16.86047,-3.4838 4.69497,-0.8513 16.89689,-3.1467 27.11536,-5.101 66.46433,-12.7108 105.92148,-17.4047 153.65374,-18.2789 60.62102,-1.1104 105.89432,4.0929 203.8041,23.423 l 28.55848,5.6382 5.08466,-1.7732 c 43.56296,-15.1926 85.76974,-38.8652 113.51516,-63.66753 31.65095,-28.29367 49.53299,-63.97906 47.35436,-94.50034 -4.41373,-61.83369 -67.46527,-118.01747 -171.3511,-152.68706 -33.11649,-11.05189 -69.37416,-19.44364 -110.71033,-25.62361 -45.96016,-6.87129 -139.69513,-5.34477 -214.30635,3.4901 -57.77615,6.84139 -88.17779,14.02026 -130.92318,30.91543 -57.18169,22.60114 -99.33531,51.5336 -124.19321,85.24093 -11.26532,15.27578 -21.24749,38.03507 -20.02773,45.66305 0.32135,2.00957 4.47352,20.33144 9.22707,40.71525 9.90555,42.47634 8.63167,39.65399 25.95304,57.50062 22.07505,22.74446 52.83548,43.19136 89.45751,59.46396 18.09782,8.0415 36.41244,14.9125 39.88095,14.9619 1.49758,0.021 6.46873,-0.8323 11.047,-1.897 z M 63.001538,870.3048 c -0.387328,-0.38733 -0.704299,-2.09766 -0.704381,-3.80074 -8.2e-5,-1.70308 -1.342207,-12.58689 -2.9825,-24.18624 -5.859636,-41.43647 -10.467943,-87.68793 -13.608384,-136.5811 -0.851468,-13.2564 -2.197235,-32.91504 -2.990593,-43.68587 -4.013472,-54.48786 -4.479592,-117.11242 -1.039011,-139.59392 0.803054,-5.24732 2.406031,-15.41559 3.562172,-22.59614 5.826295,-36.18592 3.630535,-67.87872 -12.558948,-181.27124 -1.351328,-9.46483 -1.345328,-11.21346 0.05859,-17.07264 6.434824,-26.85546 13.408111,-65.94607 19.975222,-111.97642 7.331466,-51.38788 10.477839,-67.75341 16.315049,-84.86105 C 88.15656,48.619848 134.14921,28.799055 276.20742,15.394614 c 41.50939,-3.916777 93.02691,-7.2115626 201.3567,-12.877699 58.68464,-3.06947162 91.12359,-3.32448481 168.2157,-1.3223986 229.70544,5.9654631 305.10003,19.8674336 347.6424,64.1016186 10.01458,10.412871 15.18718,17.996415 22.41018,32.855532 10.9526,22.531753 16.2298,42.169553 31.1078,115.759233 5.7772,28.57488 12.3583,60.08894 14.6247,70.03124 2.2665,9.9423 4.3826,19.56743 4.7023,21.38919 0.5928,3.37704 0.2763,6.05357 -6.734,56.94409 -11.0836,80.45929 -11.8784,103.33249 -5.0956,146.62383 1.6443,10.49465 2.9434,20.21099 2.8869,21.59186 -0.056,1.38088 0.4264,12.45904 1.0733,24.61815 1.277,24.00732 0.3884,60.93466 -2.4163,100.41382 -0.8241,11.59935 -2.4028,34.87337 -3.5081,51.72005 -3.1895,48.60864 -7.0718,87.74168 -13.1764,132.81508 -1.5143,11.18074 -2.5237,15.8173 -3.4437,15.8173 -2.135,0 -2.2185,-1.09185 -0.8064,-10.54487 5.6728,-37.97598 10.8499,-89.18748 13.9151,-137.64957 0.8407,-13.29171 2.1823,-32.95035 2.9813,-43.68587 2.838,-38.13036 3.8633,-68.44182 3.2585,-96.32047 -0.6081,-28.02478 -1.422,-36.52729 -6.3466,-66.30753 -5.8623,-35.44959 -3.2267,-77.8924 10.1995,-164.2493 l 4.483,-28.83545 -3.0542,-13.17444 c -4.6686,-20.13829 -8.2803,-37.29411 -18.1016,-85.9842 -13.2459,-65.66866 -18.9516,-86.9338 -29.0136,-108.13355 C 1006.5444,86.612993 1000.5984,77.853689 990.67384,67.558572 970.85759,47.002354 945.0914,34.655376 901.76666,24.954876 845.55987,12.370054 747.95589,5.7106479 589.54054,3.6520486 539.50334,3.0018177 508.41773,4.0421189 405.75861,9.8024379 165.62719,23.276482 104.89503,38.591222 77.919833,92.473072 69.310579,109.6697 65.180388,127.92643 56.772669,185.9501 c -6.664105,45.99056 -10.074222,66.24318 -15.569764,92.46854 -7.011146,33.45799 -6.857324,27.69932 -1.636366,61.26064 9.05406,58.20124 12.684065,93.31157 12.667291,122.52128 -0.01065,18.5568 -0.302817,21.45516 -5.972759,59.2521 -4.736443,31.57406 -4.748667,75.52607 -0.03925,141.10033 1.071058,14.91345 2.423029,34.79805 3.004379,44.188 1.665437,26.90007 4.89835,64.30828 7.637679,88.37601 2.058829,18.08886 8.835594,69.72302 9.72026,74.06151 0.266425,1.30659 -2.524812,2.18409 -3.582608,1.12629 z"
           style="fill:#386caa;stroke-width:1.00427282" />
        <path
           id="path111"
           d="m 453.96371,2391.7307 c -68.44208,-1.3514 -133.50152,-6.7679 -184.84039,-15.3884 -47.64899,-8.001 -81.59672,-17.578 -127.48846,-35.9657 -12.42788,-4.9795 -26.54584,-10.2737 -31.37326,-11.7648 l -8.77713,-2.7112 -2.935775,-9.1744 C 76.411154,2247.546 60.386496,2007.5164 55.160568,1666.8258 c -1.276772,-83.2357 -0.653751,-291.2391 1.033261,-344.9677 3.468589,-110.4689 7.149435,-160.5113 14.145883,-192.3183 4.923324,-22.3822 8.504225,-77.6539 7.742612,-119.5084 -0.459669,-25.26112 -1.1561,-36.37089 -4.029072,-64.27348 -0.124358,-1.20777 0.393771,-2.00854 1.299601,-2.00854 1.803779,0 3.204577,11.03721 5.078541,40.01497 2.737196,42.32625 -1.628241,127.81175 -7.597091,148.76905 -4.472489,15.7033 -8.790554,64.6426 -11.520999,130.5747 -3.002748,72.5074 -3.505012,109.5702 -3.497672,258.0981 0.0082,166.9559 1.130926,236.6216 6.020465,373.5895 7.740809,216.8391 21.762743,374.3651 37.448283,420.7038 l 2.69025,7.9476 10.04273,3.2031 c 5.5235,1.7618 18.4488,6.6441 28.72289,10.8496 84.81985,34.7195 170.65217,48.2917 325.28328,51.4352 33.12408,0.6735 142.04977,-0.8871 176.24988,-2.5249 155.48429,-7.4465 277.49668,-27.6491 336.4314,-55.7056 6.07585,-2.8925 11.79123,-6.1217 12.70085,-7.176 3.96854,-4.5995 10.47734,-32.2679 15.33454,-65.186 12.7912,-86.6875 23.3793,-256.304 28.6806,-459.4548 4.7021,-180.1862 4.6991,-405.077 -0.01,-524.2304 -2.9031,-73.5018 -7.0406,-122.7376 -11.9074,-141.6969 -1.9885,-7.7464 -5.1258,-34.9473 -7.2865,-63.1748 -1.5712,-20.5266 -1.5486,-74.80364 0.039,-94.40163 1.7456,-21.54478 4.8726,-46.34378 5.9837,-47.45485 1.7535,-1.75346 2.1777,1.05544 1.2014,7.95437 -2.0911,14.77723 -4.0937,38.61571 -5.1733,61.57962 -1.982,42.16269 2.0944,106.82309 8.6433,137.09809 10.0797,46.5987 14.9076,170.8724 14.9036,383.6322 -0.01,316.7443 -12.1791,600.912 -31.5341,736.132 -4.8169,33.6516 -11.6233,64.4449 -15.59433,70.5508 -2.88728,4.4396 -28.6878,15.6566 -53.57772,23.2935 -67.4265,20.6881 -173.03725,35.3134 -297.83418,41.245 -41.93238,1.9929 -144.68163,3.2368 -191.31398,2.316 z m 13.05555,-35.0702 c -115.61985,-5.0822 -198.2945,-15.6732 -274.00749,-35.1013 -28.16165,-7.2264 -63.48772,-18.878 -66.18566,-21.83 -15.9615,-17.4648 -24.93811,-121.8997 -28.374756,-330.1151 -3.783193,-229.2115 3.021866,-676.7153 14.630276,-962.0934 2.09839,-51.58637 2.60507,-58.47541 4.34311,-59.05149 1.16876,-0.38739 1.28922,1.58145 0.73238,11.97022 -4.8271,90.05767 -11.05382,306.29417 -14.70183,510.55317 -4.076958,228.276 -4.068062,465.698 0.0222,593.0231 4.77258,148.5645 13.49267,226.0815 26.37006,234.4161 1.23569,0.7997 8.21707,3.4927 15.5142,5.9844 78.96244,26.9631 178.80955,42.745 309.60621,48.9365 31.66502,1.499 115.64996,1.4933 148.63238,-0.01 161.1196,-7.344 286.65636,-31.1559 367.98153,-69.799 12.69724,-6.0333 13.3649,-6.5029 15.39839,-10.8289 19.86654,-42.2643 27.99754,-322.7365 22.32534,-770.0875 -2.8313,-223.2845 -9.58389,-502.87685 -13.6616,-565.65666 -0.54024,-8.31731 -0.40915,-9.79166 0.87058,-9.79166 1.72247,0 2.13947,5.16651 3.76912,46.69868 8.9848,228.98364 15.3848,667.97394 13.1038,898.82414 -2.3259,235.4007 -8.662,352.7338 -21.27392,393.9569 -3.49752,11.4318 -4.24734,12.1772 -19.67202,19.5538 -77.72697,37.1718 -190.84503,59.5883 -348.75576,69.1126 -16.54254,0.9978 -140.34184,2.0531 -156.66656,1.3355 z m 78.83541,-140.7311 c -21.92234,-1.2747 -78.92838,-6.7838 -111.97642,-10.8215 -87.63479,-10.7069 -153.7709,-23.3522 -196.8413,-37.6362 -20.2925,-6.73 -32.33223,-12.0511 -42.37809,-18.7295 l -7.11168,-4.7278 0.62562,-10.1223 c 0.91072,-14.7347 11.97165,-124.3592 17.79135,-176.3293 14.28614,-127.5759 28.43112,-227.9666 42.28526,-300.1098 3.95311,-20.5852 4.19763,-21.397 6.24444,-20.7318 21.37671,6.9476 65.32987,10.9233 150.76263,13.6371 41.08909,1.3053 175.64293,0.647 213.40797,-1.044 91.06263,-4.0776 159.91162,-9.6762 224.80256,-18.2804 13.47676,-1.787 16.56317,-1.9384 17.23821,-0.8462 2.01502,3.2603 12.87254,67.0257 20.00654,117.4968 15.34126,108.5352 32.40504,271.7344 37.76968,361.2316 0.80199,13.3795 0.13874,14.9703 -9.89753,23.7406 -30.97566,27.0686 -96.00139,48.7494 -196.01995,65.3567 -57.37947,9.5273 -146.41596,19.0961 -166.70929,17.916 z m 55.23501,-7.7618 c 124.9873,-12.2802 223.59504,-33.7034 276.07873,-59.9797 16.96636,-8.4943 33.0541,-20.6452 35.96306,-27.1626 1.62842,-3.6484 1.27911,-14.4526 -1.7133,-52.9925 -7.96694,-102.608 -24.56331,-251.2329 -38.24087,-342.457 -6.37294,-42.5053 -14.6897,-89.9132 -16.00401,-91.2275 -0.31651,-0.3164 -6.77157,0.221 -14.34458,1.1943 -77.20042,9.9223 -161.29219,16.0427 -258.81167,18.8368 -45.63435,1.3075 -181.65914,0.6462 -214.41225,-1.0425 -50.96329,-2.6276 -84.06676,-5.4633 -102.43583,-8.775 -4.69497,-0.8464 -9.2142,-1.6065 -10.04273,-1.6888 -1.87023,-0.186 -5.54044,17.5425 -13.48293,65.1279 -17.81473,106.7323 -34.50205,245.1513 -51.40312,426.3816 -0.61064,6.5479 -0.59071,6.6162 2.7605,9.4607 4.81463,4.0866 25.40085,13.6707 39.52942,18.4032 56.35757,18.8779 158.39152,36.1839 273.1622,46.3312 12.70406,1.1232 24.68001,2.2332 26.61323,2.4666 8.16989,0.9862 42.53304,-0.494 66.78415,-2.8767 z M 115.90423,1663.6659 c 5.6433,-316.7777 14.41355,-662.6006 18.72862,-738.49557 1.18685,-20.87476 1.58982,-23.32081 3.7727,-22.90043 1.27982,0.24647 6.68307,23.46439 26.48106,113.7898 l 24.87315,113.4801 0.0299,96.9124 c 0.0454,147.3997 -2.26157,302.1009 -4.97702,333.7443 -0.9024,10.5157 -1.10016,11.163 -6.05639,19.8239 -5.33023,9.3144 -40.71301,80.6549 -53.01466,106.8909 -10.86819,23.1787 -10.6726,23.6408 -9.83734,-23.2454 z m 21.02903,-8.9152 c 18.07756,-37.6068 31.8791,-65.0458 38.3785,-76.3009 4.25316,-7.3652 4.7134,-8.8286 5.52756,-17.5748 2.64613,-28.4264 4.89444,-176.1807 5.02764,-330.4057 l 0.0863,-99.9252 -22.20061,-101.4315 c -22.7425,-103.90763 -23.99286,-109.43184 -24.6258,-108.79889 -0.48265,0.48264 -2.26281,37.33411 -3.50923,72.64503 -3.97743,112.68016 -9.39892,342.09946 -15.66332,662.82006 -0.46691,23.9044 -0.34219,32.8545 0.4475,32.1129 0.60215,-0.5654 8.04132,-15.4788 16.53149,-33.141 z m 852.34593,21.3646 c -18.8816,-39.7479 -42.95004,-88.735 -49.29117,-100.3236 -4.03588,-7.3756 -8.14649,-14.992 -9.1347,-16.9252 -2.3174,-4.5335 -3.48959,-23.6065 -4.87595,-79.3376 -1.21239,-48.738 -2.99353,-231.0571 -3.00812,-307.9156 l -0.0101,-53.3326 25.11122,-114.8373 c 13.81116,-63.16057 25.56115,-115.28733 26.11109,-115.83727 2.04646,-2.04646 2.89832,1.18813 3.94202,14.96806 3.69981,48.84826 10.0355,284.50481 17.14509,637.71321 0.56701,28.1699 1.47041,72.6242 2.00752,98.7875 0.53713,26.1632 0.73002,47.9685 0.42865,48.4562 -1.37525,2.2252 -2.97571,0.057 -8.42552,-11.4158 z m 3.83958,-41.4262 c -7.05556,-366.6877 -15.80441,-707.52309 -18.57344,-723.57859 -0.5223,-3.02844 -0.72381,-3.23695 -1.45588,-1.50641 -0.46732,1.1047 -11.03398,48.70056 -23.48146,105.7686 l -22.63178,103.7601 0.009,49.8936 c 0.005,27.4416 0.44916,98.7014 0.98676,158.3552 1.41129,156.6045 3.27468,223.3771 6.40192,229.4074 0.73577,1.4188 4.6675,8.6806 8.73719,16.1373 6.55057,12.0024 45.87167,92.0833 48.28227,98.3312 0.51421,1.3327 1.27358,2.0106 1.6875,1.5064 0.41392,-0.5042 0.43086,-17.6379 0.0376,-38.0748 z M 208.461,1094.1392 c -1.63013,-8.9797 -8.79093,-40.3683 -23.65542,-103.69114 -31.84493,-135.65955 -37.3977,-161.39417 -41.62003,-192.89064 l -0.61526,-4.58949 18.86454,-6.59006 c 88.62248,-30.95901 197.71294,-55.39516 292.52888,-65.52614 76.03179,-8.12393 167.84081,-8.304 248.05539,-0.48655 58.93167,5.74328 109.44699,15.7967 166.20715,33.07807 27.08676,8.24692 91.41745,30.39504 93.21057,32.09105 0.95546,0.90372 -7.69478,80.64117 -13.40514,123.56766 -10.80279,81.20804 -21.63812,129.91764 -36.30503,163.20724 -4.75956,10.8027 -12.96472,24.3058 -15.3183,25.2089 -0.79396,0.3047 -18.75782,-3.5241 -39.91966,-8.5083 -163.64109,-38.5425 -220.24227,-48.269 -291.0507,-50.0151 -75.67773,-1.8661 -141.31044,8.6772 -325.64328,52.3118 -15.33201,3.6293 -28.50045,6.5988 -29.26321,6.5988 -0.8115,0 -1.67045,-1.5624 -2.0705,-3.7661 z m 689.30191,-4.3041 c 1.61482,-2.2292 4.95729,-7.9912 7.42773,-12.8045 19.17127,-37.3524 32.98107,-107.07837 47.38184,-239.23201 1.95617,-17.95137 3.97205,-36.25424 4.47976,-40.67304 0.5077,-4.4188 0.57247,-8.39222 0.14393,-8.82981 -1.08811,-1.11108 -35.35799,-13.35096 -62.35669,-22.27139 -94.04313,-31.07209 -165.56775,-43.19866 -276.17503,-46.82382 -63.5007,-2.08123 -122.5561,0.4012 -182.77765,7.68317 -82.61516,9.98981 -181.41536,32.38024 -261.6519,59.29644 -27.85329,9.34368 -26.5744,8.70632 -26.5744,13.24387 0,11.83448 11.18262,63.90552 39.22056,182.62755 11.45558,48.50674 20.57104,88.04694 23.64088,102.54704 1.41318,6.6751 2.10689,8.2853 3.5695,8.2853 0.99848,0 20.91911,-4.4994 44.26804,-9.9986 262.69764,-61.8712 316.36348,-62.7475 550.61467,-8.9919 21.54166,4.9433 49.10894,11.4157 61.26065,14.3829 12.1517,2.9672 22.65607,5.4437 23.34304,5.5034 0.68697,0.059 2.57026,-1.7154 4.18507,-3.9446 z M 62.94232,866.67144 c -1.119994,-6.27245 -6.654797,-47.59496 -8.642518,-64.52453 -2.920367,-24.87298 -5.791046,-56.865 -7.56962,-84.35892 -0.857552,-13.2564 -2.228532,-33.141 -3.046622,-44.188 -2.615034,-35.31186 -3.468145,-51.60051 -4.128967,-78.83542 -0.805406,-33.19364 0.588809,-56.11153 5.28473,-86.86959 5.488291,-35.94805 5.550525,-56.61443 0.308474,-102.43583 C 43.222714,388.63177 33.898963,322.71819 32.097064,313.19792 31.418928,309.61503 31.56031,306.79719 32.626141,302.65306 38.09372,281.39421 46.356156,235.3051 52.813914,190.04263 59.900172,140.375 62.771334,124.8711 67.874801,108.71576 75.153002,85.676178 85.343551,70.568208 101.93822,58.215126 144.5261,26.512692 225.04417,14.707276 480.0748,2.773419 c 17.95138,-0.8400136 40.77348,-2.00951948 50.71578,-2.59890209 13.7776,-0.81674033 34.07991,-0.69594308 85.36319,0.50790465 133.2171,3.12720044 194.57856,6.64890794 247.50624,14.20508144 98.23705,14.024728 138.55059,40.107274 160.51489,103.851757 6.2102,18.02313 11.4106,39.81066 21.8134,91.38883 5.2917,26.23662 12.1365,59.00102 15.2107,72.80977 5.3417,23.99425 5.5439,25.41835 4.5629,32.13673 -15.2712,104.59085 -15.6227,107.82302 -15.6739,144.11315 -0.04,28.70586 0.057,30.21872 3.1472,48.70724 1.754,10.49465 3.7271,25.56071 4.3847,33.48014 1.5193,18.29675 0.6123,84.06491 -1.5467,112.13941 -0.8495,11.047 -2.4501,33.8691 -3.5566,50.71578 -3.4092,51.90122 -6.8952,87.84369 -12.6137,130.05333 -1.3471,9.9423 -2.4508,18.64181 -2.4529,19.33225 0,0.69044 -0.6817,1.25534 -1.5102,1.25534 -1.872,0 -1.8769,-1.55212 -0.044,-13.81536 4.3069,-28.81375 9.6347,-79.98556 12.1022,-116.23797 0.8647,-12.70405 2.4643,-35.75211 3.5548,-51.21791 3.2913,-46.67983 3.9405,-61.93812 3.9522,-92.89524 0.012,-33.30152 -0.7835,-44.52358 -5.0732,-71.52763 -4.3034,-27.09056 -5.2096,-41.76862 -3.9504,-63.98711 1.6417,-28.96997 5.2891,-59.43039 13.175,-110.02996 2.2382,-14.3611 3.8325,-27.46686 3.5429,-29.12391 -0.2895,-1.65705 -2.3847,-11.14743 -4.6558,-21.08973 -2.2711,-9.9423 -8.8365,-41.39483 -14.5898,-69.89452 -5.7534,-28.49968 -12.288,-58.98025 -14.5215,-67.73459 C 1014.5774,89.092299 995.70355,61.984298 956.71256,42.87186 918.44959,24.116285 863.74505,14.510474 762.7776,8.8179633 716.09335,6.1859211 694.37487,5.5162867 569.95722,2.8728328 551.41336,2.4788386 536.54649,3.0273429 450.44875,7.2820244 244.79119,17.444979 166.20524,27.739837 119.94287,50.578702 88.048843,66.324185 72.600378,90.60193 63.789983,138.82472 c -1.362359,7.45672 -4.961401,30.73074 -7.997872,51.72005 -6.243497,43.15754 -10.979587,70.68989 -16.218617,94.28381 -1.976777,8.90241 -3.81099,18.67177 -4.076027,21.7097 -0.322511,3.69671 1.032559,15.32166 4.097232,35.14954 13.174033,85.23358 15.422564,124.80144 9.188271,161.68793 -7.526239,44.53056 -8.304236,84.63993 -3.026347,156.02235 0.811019,10.96885 2.387342,34.01692 3.502941,51.21791 3.196669,49.28818 8.998489,104.56653 15.587795,148.51677 1.770169,11.80691 1.763438,10.80254 0.0724,10.80254 -0.784382,0 -1.649659,-1.42819 -1.977435,-3.26388 z"
           style="fill:#2a3645;stroke-width:1.00427282" />
      </g>
    </g>
  </g>
</svg>
