<?xml version="1.0" encoding="UTF-8" standalone="no"?>
<svg
   xmlns:dc="http://purl.org/dc/elements/1.1/"
   xmlns:cc="http://creativecommons.org/ns#"
   xmlns:rdf="http://www.w3.org/1999/02/22-rdf-syntax-ns#"
   xmlns:svg="http://www.w3.org/2000/svg"
   xmlns="http://www.w3.org/2000/svg"
   viewBox="0 0 1457.3333 3188"
   height="3188"
   width="1457.3333"
   id="svg2"
   version="1.1">
  <metadata
     id="metadata8">
    <rdf:RDF>
      <cc:Work
         rdf:about="">
        <dc:format>image/svg+xml</dc:format>
        <dc:type
           rdf:resource="http://purl.org/dc/dcmitype/StillImage" />
        <dc:title></dc:title>
      </cc:Work>
    </rdf:RDF>
  </metadata>
  <defs
     id="defs6" />
  <g
     transform="translate(2.033915,-3.508475)"
     id="g12">
    <path
       id="path26"
       d="m 1266.9333,3186.4 c -2.5613,-2.5613 -1.8797,-7.4899 1.2688,-9.1749 2.5377,-1.358 2.7572,-1.248 1.9013,0.9532 -1.1191,2.8777 -1.1377,3.0045 -0.928,6.3105 0.1145,1.8055 0.8906,2.2973 2.8264,1.7911 1.4677,-0.3839 2.3323,-0.1538 1.9213,0.5112 -1.0639,1.7214 -5.1033,1.4954 -6.9898,-0.3911 z m 10.4,-3.7333 c 0,-2.9334 0.6,-5.3334 1.3333,-5.3334 1.1598,0 1.8266,4.753 1.0756,7.6667 -0.1417,0.55 1.5083,1.3791 3.6667,1.8423 3.7336,0.8013 3.6813,0.8498 -1.0756,1 -4.9707,0.1568 -5,0.1266 -5,-5.1756 z m 11.337,-0.3334 c 0.045,-4.033 0.6201,-5.6666 1.9963,-5.6666 1.3763,0 1.9518,1.6336 1.9964,5.6666 0.047,4.2472 -0.4532,5.6667 -1.9964,5.6667 -1.5432,0 -2.0432,-1.4195 -1.9963,-5.6667 z m 7.3297,-0.4178 c 0,-6.0614 0.016,-6.0828 4.3333,-5.6667 5.6844,0.5481 6.7564,5.1896 1.7277,7.4808 -1.8669,0.8507 -3.3944,2.1595 -3.3944,2.9085 0,0.7491 -0.6,1.3619 -1.3333,1.3619 -0.7333,0 -1.3333,-2.738 -1.3333,-6.0845 z m 12,3.5046 c 0,-4.409 2.5017,-9.4201 4.703,-9.4201 1.1563,0 2.7296,1.7993 3.4962,3.9984 1.5986,4.5859 3.8008,4.106 3.8008,-0.8283 0,-2.964 0.4867,-3.2921 4.3333,-2.9213 3.8334,0.3696 4.3487,0.8952 4.4667,4.5549 0.073,2.2754 0.5587,4.8254 1.0787,5.6667 1.2285,1.9879 0.08,1.9397 -3.2708,-0.1371 -2.2163,-1.3736 -2.9166,-1.3149 -3.9819,0.3334 -1.1491,1.7777 -1.4408,1.7777 -2.626,0 -1.1852,-1.7778 -1.4928,-1.7778 -2.7682,0 -1.0804,1.506 -1.6019,1.5882 -2.1111,0.3333 -0.803,-1.9791 -4.4541,-2.2523 -4.4541,-0.3333 0,0.7333 -0.6,1.3333 -1.3333,1.3333 -0.7333,0 -1.3333,-1.1609 -1.3333,-2.5799 z M 1334.6484,3185 c -0.013,-1.65 -0.3799,-4.35 -0.8222,-6 -0.658,-2.4556 -0.2636,-3 2.1738,-3 2.4373,0 2.8317,0.5444 2.1737,3 -0.4423,1.65 -0.8121,4.35 -0.8221,6 -0.013,1.65 -0.6183,3 -1.3516,3 -0.7334,0 -1.3415,-1.35 -1.3516,-3 z m 7.8182,-1 c -0.1093,-2.2 -0.26,-4.75 -0.3333,-5.6667 -0.079,-0.9842 1.4652,-1.6666 3.7708,-1.6666 3.2068,0 4.0985,0.7144 4.9935,4 1.5154,5.5636 0.5045,7.3333 -4.1891,7.3333 -3.5576,0 -4.0659,-0.4792 -4.2419,-4 z m 11.6772,1.894 c -1.0016,-2.6101 0.3891,-8.5607 2.0007,-8.5607 1.0457,0 1.6419,4.9088 0.9311,7.6667 -0.1418,0.55 1.5082,1.3791 3.6666,1.8423 3.801,0.8157 3.7716,0.8472 -0.9329,1 -3.3024,0.1066 -5.116,-0.5164 -5.6655,-1.9483 z m 11.6334,-2.7789 c 0.9272,-5.7138 2.5856,-7.7728 5.3929,-6.6955 2.2068,0.8468 4.4297,9.8017 2.8073,11.3092 -0.555,0.5159 -1.277,0.1879 -1.6044,-0.7288 -0.7062,-1.9773 -4.373,-2.2568 -4.373,-0.3333 0,0.7333 -0.6786,1.3333 -1.5078,1.3333 -0.9914,0 -1.2364,-1.6731 -0.715,-4.8849 z m 13.1561,3.2849 c -2.5613,-2.5613 -1.8797,-7.4899 1.2688,-9.1749 2.5376,-1.358 2.7572,-1.248 1.9012,0.9532 -1.1189,2.8777 -1.1376,3.0045 -0.9279,6.3105 0.1147,1.8055 0.8906,2.2973 2.8264,1.7911 1.4676,-0.3839 2.3323,-0.1538 1.9214,0.5112 -1.064,1.7214 -5.1034,1.4954 -6.9899,-0.3911 z m 10.6567,-3.9251 c 0.3692,-4.9746 0.7877,-5.5645 4.2017,-5.9222 3.428,-0.3594 3.7127,-0.083 2.9677,2.8856 -0.4532,1.8057 -0.1884,4.4708 0.5886,5.9224 1.1061,2.0669 0.9926,2.6393 -0.5234,2.6393 -1.0646,0 -2.2857,-0.75 -2.7136,-1.6667 -0.6221,-1.3333 -0.9333,-1.3333 -1.5554,0 -1.6716,3.582 -3.3552,1.3916 -2.9656,-3.8584 z m 11.7433,4.1918 c 0,-0.7334 0.6,-1.3334 1.3333,-1.3334 0.7334,0 1.3334,0.6 1.3334,1.3334 0,0.7333 -0.6,1.3333 -1.3334,1.3333 -0.7333,0 -1.3333,-0.6 -1.3333,-1.3333 z m 6.9333,-0.2667 c -2.5613,-2.5613 -1.8797,-7.4899 1.2688,-9.1749 2.5376,-1.358 2.7572,-1.248 1.9012,0.9532 -1.1189,2.8777 -1.1376,3.0045 -0.9278,6.3105 0.1146,1.8055 0.8905,2.2973 2.8264,1.7911 1.4676,-0.3839 2.3322,-0.1538 1.9213,0.5112 -1.064,1.7214 -5.1033,1.4954 -6.9899,-0.3911 z m 11.7943,-0.3267 c -2.1212,-2.5558 -1.2635,-7.9441 1.3435,-8.4402 1.6352,-0.3114 1.9553,0.598 1.5208,4.3196 -0.4415,3.7814 -0.097,4.714 1.7414,4.714 1.8384,0 2.183,-0.9326 1.7415,-4.714 -0.4192,-3.5903 -0.091,-4.6232 1.3779,-4.3334 1.0605,0.2094 2.5672,1.3956 3.3484,2.636 3.1524,5.006 -7.2232,10.4575 -11.0735,5.818 z m 22.6057,0.6819 c 0,-0.6845 -1.5894,-1.4345 -3.5321,-1.6667 -4.1535,-0.4961 -6.5984,-3.7545 -5.3189,-7.0888 0.8606,-2.243 1.0458,-2.2366 3.6548,0.124 2.5842,2.3387 2.8252,2.3495 4.0385,0.1815 2.2512,-4.0227 3.8244,-2.5029 3.8244,3.6944 0,3.3 -0.6,6 -1.3333,6 -0.7334,0 -1.3334,-0.5601 -1.3334,-1.2448 z m -873.33328,-7.6489 c -92.67225,-2.8702 -178.83609,-11.514 -244.53882,-24.5318 -54.42617,-10.7834 -87.99377,-20.8517 -144.12784,-43.2297 -19.06666,-7.6009 -38.79092,-14.8545 -43.83168,-16.1192 -8.77906,-2.2025 -9.27183,-2.5408 -11.70173,-8.034 -11.26954,-25.4767 -23.73127,-105.7456 -32.992048,-212.5095 l -2.485225,-28.6512 -3.82799,-2.6821 c -2.105394,-1.4752 -6.348838,-5.2123 -9.429877,-8.3047 -10.198177,-10.2356 -9.735009,-3.1256 -9.703322,-148.9528 l 0.02812,-129.4246 3.002941,-8.6667 3.002943,-8.6667 L 71.166566,2494 c -10.301345,-298.9291 -10.767421,-650.684 -1.118304,-844 3.634675,-72.8192 7.695791,-115.7357 13.385631,-141.4549 10.33966,-46.7374 14.913595,-153.5811 9.355822,-218.5451 -1.37623,-16.0865 -3.04663,-28.6507 -3.925914,-29.5292 -1.117924,-1.117 -4.046314,-1.1705 -10.863803,-0.1983 -13.956422,1.9903 -38.326526,0.5522 -47.999999,-2.8325 -10.990674,-3.8456 -20.4095291,-11.2787 -24.5891414,-19.405 -5.01545034,-9.7515 -4.66953016,-24.3615 0.8901047,-37.5938 4.7051807,-11.1987 13.5516217,-24.8632 22.6351287,-34.9629 l 6.465091,-7.1884 18.975458,-1.5988 c 10.436503,-0.8793 19.299788,-1.9231 19.69619,-2.3195 0.396402,-0.3964 -1.088125,-13.8422 -3.298949,-29.8795 C 62.642109,1065.5042 57.548688,1017.2558 54.042393,966 52.888584,949.13333 50.751674,918.23333 49.293704,897.33333 44.644595,830.68833 43.864942,811.00989 44.037495,764.66667 l 0.168792,-45.33334 -4.103144,-7.85456 -4.103144,-7.85456 0.0088,-136.14544 c 0.0061,-94.21242 -0.453917,-139.22545 -1.493547,-146.14544 -1.439438,-9.5812 -1.27455,-11.03305 3.937148,-34.66666 C 47.416127,346.01869 53.691953,309.56329 62.668297,246 73.554337,168.91376 79.792912,142.78596 93.285658,117.77128 108.38483,89.778399 131.01336,70.848636 166,56.942547 231.43685,30.933448 338.33505,18.296667 601.99999,5.4015781 679.586,1.6070713 734.76697,0.93129884 835.33331,2.5440672 1028.2729,5.6382119 1134.5795,14.398341 1208.7535,33.315524 c 70.1114,17.881055 111.447,48.243068 135.4694,99.505516 14.0957,30.07952 22.0529,60.10093 41.6601,157.17896 7.702,38.13333 16.6952,81.11133 19.9851,95.50665 l 5.9815,26.17334 -1.9198,11.82666 c -1.5741,9.69751 -1.9206,34.66055 -1.9248,138.65904 0,136.2856 0.1882,132.20055 -6.7237,141.90738 -2.6793,3.76265 -2.7261,4.58986 -1.3615,24.01797 2.5042,35.64673 1.3742,87.95409 -3.2526,150.57563 -1.0566,14.3 -2.8551,40.7 -3.9967,58.66666 -3.9108,61.54832 -11.1888,135.83167 -17.4061,177.65787 -2.7292,18.3607 -2.646,19.3269 1.7356,20.1645 2.0166,0.3855 13.1452,1.4198 24.7301,2.2985 l 21.0633,1.5977 5.5454,5.8185 c 13.2825,13.9366 23.9406,32.624 27.0686,47.46 3.3308,15.7984 0.197,26.8485 -10.2874,36.2749 -14.7544,13.2655 -41.051,16.954 -76.823,10.7758 -5.3366,-0.9217 -10.0005,-1.1943 -10.3641,-0.6058 -1.1099,1.7958 -5.76,45.9255 -7.2217,68.5353 -3.8051,58.8522 1.2186,158.8582 9.9474,198.0227 8.5874,38.5306 13.5666,107.4558 18.1079,250.6667 0.7557,23.8333 1.718,115.0333 2.1383,202.6667 0.8994,187.5348 -0.9584,335.6777 -6.2823,500.939 -1.218,37.8096 -1.1347,43.7028 0.6981,49.3334 1.8402,5.6532 2.0388,21.8468 1.7138,139.7276 -0.4184,151.6877 0.8481,136.5837 -12.5478,149.6369 -6.6656,6.4951 -7.1545,7.4043 -7.1712,13.3333 -0.013,3.4998 -1.4797,23.7748 -3.2665,45.0558 -8.4932,101.1498 -16.4241,161.4401 -26.9144,204.5997 -6.755,27.7919 -8.0909,30.1283 -21.1345,36.9653 -83.0432,43.5286 -279.8009,74.1454 -516.66668,80.3968 -43.62374,1.1514 -187.84805,1.4475 -220,0.4518 z"
       style="fill:#a1a1a2;stroke-width:1.33333337" />
    <path
       id="path24"
       d="m 579.99999,3177.2541 c -133.75409,-3.5817 -235.93118,-16.391 -319.68786,-40.077 -26.6318,-7.5314 -46.15873,-14.4352 -84.31213,-29.8094 -15.03334,-6.0577 -30.93334,-12.0276 -35.33334,-13.2664 -4.4,-1.2388 -9.03306,-2.5533 -10.29568,-2.9213 -1.53095,-0.4463 -3.61285,-4.7811 -6.24973,-13.0128 C 113.3626,3044.5808 102.88281,2973.9771 94.707133,2880 c -1.499242,-17.2333 -3.035994,-32.5333 -3.415007,-34 -0.379012,-1.4667 -3.509808,-4.4667 -6.957325,-6.6667 -3.707222,-2.3657 -7.916088,-6.6809 -10.301508,-10.5616 L 69.999998,2822.21 69.63878,2688.7717 c -0.360258,-133.083 -0.353699,-133.4585 2.462872,-141.0168 2.776677,-7.451 2.799402,-8.2569 1.353573,-48 -1.909501,-52.4884 -3.687313,-115.4464 -5.734827,-203.0882 -2.244527,-96.0751 -2.257155,-459.3414 -0.01847,-531.3334 4.848041,-155.9038 9.684521,-222.9473 18.996735,-263.3333 2.397182,-10.3963 4.792962,-30.6952 8.261759,-70 2.678977,-30.3553 2.220509,-121.6927 -0.752924,-150 -1.309515,-12.4667 -3.091913,-23.3832 -3.960885,-24.259 -1.161768,-1.1708 -4.050304,-1.2706 -10.913284,-0.3769 -60.457436,7.8725 -89.551488,-18.7615 -67.697825,-61.9738 4.635205,-9.1654 12.214585,-20.1607 19.267181,-27.9505 l 5.872791,-6.4867 19.074943,-1.6072 c 19.882785,-1.6752 22.004319,-2.4923 20.773909,-8.0015 C 75.918192,1148.1827 70.519738,1108.2237 66.715509,1078 62.731436,1046.3475 57.777653,992.98288 55.390372,956 54.230607,938.03333 52.40382,911.33333 51.330845,896.66667 50.257872,882 48.677155,860.1 47.818139,848 c -0.859015,-12.1 -1.655568,-46.3 -1.77012,-76 -0.203468,-52.75381 -0.274416,-54.10611 -3.074339,-58.59761 -1.576334,-2.52868 -3.514088,-7.61924 -4.306117,-11.31234 -0.979721,-4.56829 -1.422887,-49.98256 -1.386352,-142.06906 0.03112,-78.43563 -0.467465,-137.87742 -1.185648,-141.35432 -0.958746,-4.64154 -0.63667,-8.71695 1.422521,-18 10.793559,-48.6585 17.20418,-84.9998 27.165667,-154 4.076017,-28.23334 8.864146,-58.53334 10.640286,-67.33334 C 88.006763,116.49596 108.4147,86.693601 153.82864,64.690536 216.83766,34.162652 325.5983,20.595953 618.66665,6.7070799 c 31.16667,-1.477027 67.16667,-3.330539 80,-4.1189155 C 732.77784,0.49264813 914.86886,4.9200597 1006,10.060752 1232.4198,22.833061 1308.8894,52.725903 1346.5354,143.18 c 12.2528,29.44053 18.2348,52.87707 36.1135,141.48667 7.3983,36.66666 16.4857,80.0913 20.1944,96.49921 5.0308,22.25728 6.4993,31.06005 5.7833,34.66667 -0.5278,2.65876 -1.3348,65.50682 -1.7932,139.66234 L 1406,690.32312 l -4.8075,9.20181 -4.8075,9.2018 1.046,11.96998 c 2.7126,31.03886 1.2107,103.87961 -3.4358,166.63662 C 1392.9093,902 1391.1113,928.4 1389.9996,946 c -3.5164,55.6726 -8.94,110.8386 -16.1082,163.8434 -2.3113,17.0917 -2.9685,25.6129 -2.0465,26.5349 0.7471,0.747 11.4375,2.1649 23.7567,3.1508 12.319,0.986 23.7196,2.2453 25.3344,2.7985 4.4756,1.5332 18.43,19.6329 24.9324,32.3391 14.7414,28.8056 10.5036,47.6637 -13.2018,58.7451 -14.8924,6.9617 -36.0788,8.0212 -63.9857,3.1999 -5.8588,-1.0121 -11.1417,-1.3509 -11.7397,-0.7528 -2.389,2.3888 -6.9502,46.2116 -9.0352,86.8078 -2.8482,55.4533 2.7584,147.4008 11.3414,186 20.3066,91.3212 26.6258,530.398 13.567,942.6666 -1.4274,45.0603 -1.3768,51.2568 0.457,56 1.811,4.6844 2.0619,21.5564 2.0619,138.6667 v 133.3333 l -3.5659,6.7568 c -1.9613,3.7163 -6.257,8.962 -9.5462,11.6572 l -5.9803,4.9004 -0.8892,11.6762 c -9.9032,130.0334 -19.9143,209.5104 -32.0566,254.4954 -5.0032,18.5362 -6.4444,21.2364 -13.56,25.4064 -11.4295,6.6982 -43.3826,19.2295 -67.6968,26.5492 -90.8485,27.3498 -227.2991,46.0274 -394.03832,53.9367 -32.5952,1.5461 -167.85542,3.9796 -205.99999,3.706 -13.93334,-0.1 -41.83334,-0.6235 -62,-1.1635 z"
       style="fill:#1a2bac;stroke-width:1.33333337" />
    <path
       id="path22"
       d="m 579.99999,3177.2541 c -133.75409,-3.5817 -235.93118,-16.391 -319.68786,-40.077 -26.6318,-7.5314 -46.15873,-14.4352 -84.31213,-29.8094 -15.03334,-6.0577 -30.93334,-12.0276 -35.33334,-13.2664 -4.4,-1.2388 -9.03306,-2.5533 -10.29568,-2.9213 -1.53095,-0.4463 -3.61285,-4.7811 -6.24973,-13.0128 -10.80228,-33.7225 -21.36339,-105.024 -29.451093,-198.8339 -1.517363,-17.6 -3.188888,-32.9905 -3.7145,-34.201 -0.525612,-1.2106 -3.64881,-4.2359 -6.940439,-6.723 -6.918348,-5.2272 -11.422678,-11.3961 -13.327177,-18.2525 -0.854801,-3.0773 -1.342529,-51.4721 -1.347273,-133.6831 -0.0073,-126.9252 0.03436,-128.9948 2.777337,-137.8756 2.7128,-8.7829 2.747064,-10.053 1.325688,-49.1404 -1.899108,-52.2249 -3.679991,-115.325 -5.723395,-202.791 -2.244527,-96.0751 -2.257155,-459.3414 -0.01847,-531.3334 4.848041,-155.9038 9.684521,-222.9473 18.996735,-263.3333 2.397182,-10.3963 4.792962,-30.6952 8.261759,-70 2.678977,-30.3553 2.220509,-121.6927 -0.752924,-150 -1.320356,-12.5699 -3.09172,-23.3949 -3.976601,-24.3014 -1.236992,-1.2673 -4.439338,-1.3096 -14.246616,-0.1881 -14.717429,1.683 -33.796522,0.7635 -43.317619,-2.0875 -15.104888,-4.5231 -26.2165685,-15.7321 -28.1096313,-28.356 -1.9684314,-13.1264 5.1782531,-31.9974 19.0872703,-50.4003 11.95338,-15.8155 10.906485,-15.227 29.845023,-16.7771 19.780796,-1.619 22.024528,-2.0329 22.862641,-4.217 0.355359,-0.926 -0.161801,-7.1412 -1.149245,-13.8115 C 66.877126,1085.6207 58.968223,1011.4267 55.390372,956 54.230607,938.03333 52.40382,911.33333 51.330845,896.66667 50.257872,882 48.678612,860.1 47.821378,848 46.964144,835.9 46.157948,801.4 46.029831,771.33333 l -0.23294,-54.66666 -3.23178,-5.33334 L 39.333332,706 38.565964,565.33333 c -0.521194,-95.54037 -1.23933,-142.59148 -2.238559,-146.66666 -1.215247,-4.95618 -1.008103,-8.08766 1.190679,-18 10.793559,-48.6585 17.20418,-84.9998 27.165667,-154 4.076017,-28.23334 8.864146,-58.53334 10.640286,-67.33334 C 88.006763,116.49596 108.4147,86.693601 153.82864,64.690536 216.83766,34.162652 325.5983,20.595953 618.66665,6.7070799 c 31.16667,-1.477027 67.16667,-3.330539 80,-4.1189155 C 732.77784,0.49264813 914.86886,4.9200597 1006,10.060752 1232.4198,22.833061 1308.8894,52.725903 1346.5354,143.18 c 12.2528,29.44053 18.2348,52.87707 36.1135,141.48667 7.3983,36.66666 16.508,80.16666 20.2439,96.66666 l 6.7924,30 -1.769,10 c -1.3524,7.64519 -1.9433,40.76952 -2.5093,140.66667 l -0.7403,130.66667 -4.2102,8 c -4.1599,7.90406 -4.197,8.14389 -3.0948,20 2.7977,30.09581 1.3168,103.41376 -3.3664,166.66666 C 1392.9093,902 1391.1113,928.4 1389.9996,946 c -3.519,55.7107 -8.9403,110.8415 -16.1216,163.9422 -3.0596,22.6235 -3.2027,25.4333 -1.3634,26.7782 1.1303,0.8265 12.6316,2.2878 25.5587,3.2473 26.9227,1.9985 24.1439,0.6207 37.7369,18.7111 8.7339,11.6236 15.5396,25.6395 17.7188,36.4902 4.0767,20.2992 -8.331,36.5617 -32.1957,42.1978 -9.576,2.2616 -36.0513,1.9531 -51.3165,-0.5979 -6.5908,-1.1013 -12.4738,-1.512 -13.0732,-0.9125 -2.3914,2.3913 -6.9515,46.1935 -9.0376,86.8103 -2.8482,55.4533 2.7584,147.4008 11.3414,186 20.3096,91.3345 26.6023,528.152 13.5802,942.6666 -1.2822,40.8098 -1.2612,51.9636 0.108,57.3334 1.3205,5.1797 1.7001,35.9592 1.7024,138 V 2778 l -3.1574,6.6667 c -1.7365,3.6666 -5.8769,9.2196 -9.2012,12.34 l -6.0438,5.6733 -0.8879,11.66 c -9.8987,129.9893 -19.9137,209.4973 -32.0552,254.4793 -5.0033,18.5362 -6.4445,21.2364 -13.56,25.4064 -11.4295,6.6982 -43.3827,19.2295 -67.6968,26.5492 -90.8485,27.3498 -227.2992,46.0274 -394.03839,53.9367 -32.5952,1.5461 -167.85542,3.9796 -205.99999,3.706 -13.93333,-0.1 -41.83333,-0.6235 -62,-1.1635 z m 177.33333,-7.2326 c 220.29391,-2.521 419.85008,-28.927 520.39118,-68.8599 15.4708,-6.1447 30.5155,-13.5619 32.5533,-16.0492 2.0656,-2.5212 7.873,-22.1779 10.9645,-37.1124 27.4127,-132.4257 46.5466,-475.33 50.6978,-908.5675 3.07,-320.4033 -5.3835,-581.3714 -20.5616,-634.7658 -4.0349,-14.1943 -9.7153,-80.1596 -10.9075,-126.6667 -0.8574,-33.4535 0.7874,-74.4046 4.2978,-107.0003 1.0858,-10.0832 2.3396,-22.0377 2.7861,-26.5656 l 0.8119,-8.2326 -5.8502,-1.55 c -5.4185,-1.4358 -35.6746,-11.2781 -39.5669,-12.8712 -1.3371,-0.5472 -1.5543,1.1689 -0.9818,7.7585 3.2358,37.2475 14.613,417.0463 24.0783,803.7945 1.1756,48.0334 2.9602,118.8334 3.9657,157.3334 l 1.8284,70 -0.5849,-133.3334 c -1.2054,-274.768 -10.5027,-709.9961 -18.7765,-878.968 -0.7903,-16.1406 -0.6624,-17.7119 1.51,-18.5456 4.5348,-1.7401 6.6292,1.2987 7.5732,10.9884 2.5024,25.6852 8.4105,217.2207 12.4164,402.5252 11.3536,525.1948 11.0964,964.5416 -0.6974,1191.3334 -5.6499,108.6453 -14.6683,175.639 -25.9646,192.8794 -2.5713,3.9243 -33.376,19.2476 -58.4187,29.0594 -106.4425,41.7045 -266.18642,68.7164 -453.56448,76.6954 -40.90128,1.7416 -157.27816,1.7586 -198,0.028 -145.38386,-6.176 -272.50481,-23.8365 -369.33333,-51.3105 -24.32114,-6.9008 -62.16553,-19.5175 -66.31277,-22.1075 -22.46902,-14.0314 -35.27945,-148.7769 -40.36522,-424.5776 -2.67932,-145.2994 -1.46671,-455.1318 2.68483,-686 4.82187,-268.1449 13.60638,-572.0173 19.49506,-674.3697 0.90571,-15.7425 1.92721,-18.0529 7.35415,-16.6337 3.07222,0.8034 3.06792,0.3381 0.50866,55.0034 -3.5961,76.8124 -8.21054,219.3046 -11.98204,370 -16.06849,642.0415 -12.84351,1119.7207 8.72727,1292.6667 4.69895,37.6744 11.35615,66.5009 16.90867,73.2169 4.21413,5.0972 55.15314,21.452 101.65259,32.6374 94.36183,22.6985 205.27287,36.6662 334.66213,42.146 40.33912,1.7084 147.27737,1.6984 189.33333,-0.017 214.00695,-8.7329 392.06945,-42.8382 495.93785,-94.99 13.4112,-6.7336 15.201,-9.2313 19.5726,-27.3141 16.1776,-66.9179 24.0323,-242.2488 26.5704,-593.0967 0.7923,-109.5254 0.4245,-132.1301 -2.1243,-130.5549 -0.5903,0.3649 -12.2957,-18.9919 -26.012,-43.0151 -33.998,-59.545 -61.4019,-105.6528 -74.9153,-126.0462 -13.0787,-19.7376 -12.5523,-17.5623 -14.9127,-61.6322 -3.7076,-69.2232 -6.7554,-277.5478 -6.7981,-464.6666 -0.014,-62.7 -0.5461,-114.8211 -1.1819,-115.8247 -0.8555,-1.3505 -2.6169,0.3267 -6.7781,6.4544 -4.6716,6.8792 -6.1071,8.1435 -8.4903,7.4776 -7.6696,-2.1431 -145.0869,-36.1445 -170.2015,-42.1132 -152.63107,-36.2745 -236.27388,-47.6099 -323.99998,-43.9089 -86.58195,3.6526 -168.08227,19.2101 -384.66666,73.4284 -26.4,6.6088 -49.5,12.1344 -51.33333,12.279 l -3.33334,0.263 -0.89554,149.9721 c -1.70975,286.3196 -5.24883,450.9029 -10.27434,477.8032 -0.61676,3.3013 -3.52528,8.9171 -7.21249,13.9259 -8.354,11.348 -41.45694,66.664 -75.6439,126.4032 -15.47728,27.0453 -28.70298,49.3733 -29.39044,49.6177 -0.68747,0.2445 -1.24934,-2.7555 -1.24858,-6.6667 0.008,-40.4292 16.09566,-660.963 21.32259,-822.4444 5.82928,-180.0907 11.15193,-298.3449 14.20823,-315.6666 0.42052,-2.3834 1.29781,-4.3334 1.94953,-4.3334 0.65172,0 1.18495,0.2698 1.18495,0.5995 0,1.1621 78.83866,302.8551 81.49595,311.8616 1.48118,5.0203 3.004,8.8168 3.38408,8.4367 1.06546,-1.0655 -3.91842,-25.6808 -17.72913,-87.5644 -12.73657,-57.0705 -16.46279,-74.0029 -39.61154,-180 -19.47275,-89.1649 -28.87183,-138.5536 -28.87243,-151.7141 -2.5e-4,-5.5434 0.188,-5.7947 6.30575,-8.4171 3.4683,-1.4867 6.5183,-2.9154 6.77777,-3.1748 0.25948,-0.2595 -1.82823,-2.7736 -4.63935,-5.5869 -20.78301,-20.7998 -37.34378,-90.76307 -48.39242,-204.44087 -17.90787,-184.25144 -16.94509,-458.03473 2.05984,-585.7509 3.9503,-26.54663 9.57362,-49.75252 14.33132,-59.14138 4.4459,-8.77357 16.9298,-20.04386 32.55682,-29.39188 C 186.45,150.99143 192,147.45413 192,147.18851 c 0,-0.67319 -10.69819,3.64149 -23.16646,9.34325 -12.09574,5.5314 -14.19322,5.78908 -17.48798,2.14841 -9.9608,-11.00654 3.6454,-43.97128 28.65444,-69.423229 19.64658,-19.994524 23.04296,-21.202744 83.9271,-29.856038 54.26291,-7.712234 87.46941,-10.496987 126.71473,-10.626508 28.70973,-0.09475 32.6914,0.145456 33.05317,1.994044 1.1239,5.742768 -26.21089,37.130902 -38.69728,44.435517 -3.94186,2.30602 -9.3089,3.765249 -17.64905,4.798554 -24.11084,2.98723 -58.93816,9.73032 -78.68201,15.23401 -10.50557,2.92848 -5.16685,2.39645 12.81664,-1.27723 116.9622,-23.893135 279.34346,-36.61535 467.18335,-36.602783 169.41585,0.01133 324.48695,10.480024 434.99295,29.365923 24.3532,4.16205 31.6049,4.47873 14.7677,0.64489 -26.0675,-5.93557 -66.1208,-11.478793 -130.1164,-18.007611 -26.5221,-2.705782 -40.3476,-4.666368 -43.1594,-6.120414 -10.8043,-5.587079 -39.5431,-41.77386 -40.1933,-50.609607 l -0.2916,-3.963021 20.6667,-0.414839 c 33.5304,-0.673051 87.7569,3.818587 143.3137,11.870835 39.837,5.77387 51.9034,8.427693 62.6863,13.786913 17.4903,8.692855 36.4366,27.223971 44.3966,43.423757 4.4855,9.128597 4.94,19.576407 1.0392,23.886837 -2.532,2.79772 -2.5304,2.87938 0.1268,6.47331 17.0178,23.01829 27.4516,84.96528 32.3905,192.30652 7.185,156.16072 -2.875,431.41117 -22.0266,602.66667 -7.3352,65.5922 -14.0039,96.00003 -21.0536,96.00003 -1.0081,0 -9.9468,-3.9018 -19.8637,-8.6706 C 1202.1399,988.7402 1121.5747,967.35075 1026,951.49687 874.9607,926.44256 775.76278,920.90063 666.66665,931.42184 c -35.45877,3.41963 -100.66144,11.99832 -94.43898,12.42529 1.22521,0.0841 16.82521,-1.3171 34.66666,-3.11373 52.66828,-5.30368 69.47208,-6.21477 129.10565,-7.00011 160.61835,-2.11522 281.06622,12.56775 400.00002,48.76126 40.9793,12.47068 142.3767,48.68225 145.7429,52.04845 1.6383,1.6382 -10.5115,119.3438 -19.1431,185.457 -2.1543,16.5 -3.9205,30.87 -3.925,31.9333 -0.03,7.1613 4.5283,-7.9966 18.4182,-61.242 8.6863,-33.2982 16.4093,-60.7476 17.1623,-60.9986 1.8695,-0.6232 2.6609,6.309 4.4496,38.974 2.4653,45.0238 3.6282,45.5206 3.8033,1.6248 0.1438,-36.0447 0.3675,-39.7887 2.4236,-40.5778 1.2459,-0.478 14.8715,0.1152 30.2791,1.3184 15.4076,1.2032 28.1576,2.0439 28.3332,1.8682 0.5317,-0.5318 6.9339,-49.3511 9.7348,-74.2336 3.6373,-32.3117 6.3217,-62.20523 8.6808,-96.6667 2.0612,-30.1116 3.2357,-46.83583 6.7893,-96.66667 2.8572,-40.06625 3.9638,-115.87125 2.0435,-140 -0.8463,-10.63333 -3.7184,-33.13333 -6.3825,-50 -4.4826,-28.37854 -4.8458,-32.8553 -4.8682,-60 -0.033,-40.3577 5.4292,-91.88937 18.4188,-173.75338 l 4.7211,-29.75338 -4.0755,-17.57996 C 1392.3861,367.41571 1387.6022,344.69393 1374.5529,280 1361.479,215.18419 1354.8446,187.13888 1347.27,164.66667 1308.3405,49.172933 1227.8933,22.432943 887.99998,12.009103 863.43331,11.255693 812.73331,10.281289 775.33332,9.8437613 705.21486,9.0234731 669.81365,10.20818 530.66665,18.031568 214.9205,35.784051 134.19818,55.974861 99.011762,126 88.119994,147.67591 82.472989,172.82796 71.321612,249.33333 62.394645,310.57787 57.78528,337.91781 50.589371,372.30429 c -9.252353,44.21346 -9.050204,36.5043 -2.124733,81.02904 17.975375,115.566 20.734918,167.94204 11.731666,222.66667 -9.84545,59.84377 -10.264186,101.39087 -2.197135,218 6.20248,89.65675 7.490262,106.639 10.110821,133.3333 4.153394,42.3086 14.746537,123.9677 16.280585,125.5017 0.314692,0.3147 16.017885,-0.729 34.895985,-2.3193 29.14056,-2.4548 34.50117,-2.6114 35.49821,-1.0369 0.64592,1.02 1.18359,21.7891 1.19481,46.1536 l 0.0204,44.2991 -3.66666,1.8767 c -5.16835,2.6452 -31.03368,10.776 -43.33334,13.6218 -5.68333,1.315 -10.3142,3.0312 -10.29082,3.8138 0.02339,0.7826 0.947567,9.5229 2.05375,19.4229 2.82329,25.2676 3.98829,103.835 2.01971,136.209 -2.26763,37.2919 -6.524608,77.4392 -9.554598,90.109 -9.015811,37.6989 -14.315761,113.3585 -18.844517,269.0153 -2.187784,75.1957 -2.178288,412.1191 0.01439,510.6667 9.660642,434.1872 29.439335,709.6894 57.011355,794.1253 1.94783,5.9649 2.21731,6.1851 10.29546,8.4081 4.5624,1.2556 23.89527,8.4818 42.96193,16.0583 68.80562,27.3409 120.47441,40.91 198,51.9976 78.3938,11.2119 182.83702,16.9407 287.33333,15.7605 16.13333,-0.1822 55.43333,-0.63 87.33333,-0.995 z m -82.66667,-215.4831 c -184.95898,-16.7876 -329.64314,-41.7625 -405.99999,-70.0825 -15.4624,-5.7348 -39.03187,-17.8232 -44.76952,-22.9615 l -5.39088,-4.8277 4.07523,-42.6667 c 11.68902,-122.3813 27.99845,-265.1863 47.43432,-415.3333 8.98764,-69.4319 22.54074,-157.7838 31.19113,-203.3334 6.89647,-36.314 6.9618,-36.6136 8.14612,-37.3454 0.55475,-0.343 5.46136,0.5153 10.90356,1.9072 49.41085,12.6372 250.07862,21.2333 409.74336,17.5524 141.33192,-3.2583 259.38985,-11.4311 379.71862,-26.2871 21.1119,-2.6065 39.1854,-4.4321 40.1633,-4.0568 4.3595,1.6728 24.395,124.6957 38.0675,233.7441 21.1959,169.0532 41.9133,379.2836 42.8398,434.717 0.1761,10.5394 -0.1882,12.7825 -2.6336,16.2168 -6.5462,9.1932 -25.353,23.5488 -44.4228,33.9086 -72.4683,39.369 -229.41798,73.0522 -414.39948,88.9348 -37.59458,3.2279 -58.35883,3.2088 -94.66667,-0.087 z M 457.28471,84.608097 c -1.59681,-1.924046 -1.53648,-2.459776 0.43971,-3.9048 5.89253,-4.30873 93.69467,-12.875073 171.6089,-16.74288 92.48238,-4.590997 326.70007,-1.793672 332.46446,3.970712 1.0061,1.006114 0.82128,2.021223 -0.63279,3.475288 -1.80284,1.802836 -5.05708,1.886639 -26.60952,0.685242 -96.64673,-5.387375 -251.72318,-4.82002 -347.22215,1.27033 -45.2946,2.888619 -113.70773,9.862575 -125.43226,12.786424 -1.65422,0.412526 -3.50935,-0.206469 -4.61635,-1.540316 z m -0.83695,-16.031053 c -0.44102,-1.149293 -0.26294,-2.628533 0.39572,-3.287201 2.3138,-2.313798 45.06754,-8.316011 89.15651,-12.516715 71.24146,-6.787736 144.40675,-9.315235 242.62509,-8.381496 76.72083,0.729368 105.03163,1.801151 150.04157,5.680233 30.07898,2.592294 31.99999,2.952352 31.99999,5.997834 0,3.772561 -1.61557,4.074286 -14.24354,2.660136 -61.83579,-6.924716 -187.96861,-9.919663 -281.75645,-6.690135 -79.43492,2.735295 -159.04988,9.320569 -201.33333,16.653093 -14.247,2.470623 -15.89741,2.45931 -16.88556,-0.115746 z m 0,-13.333333 c -0.44102,-1.149294 -0.26701,-2.624468 0.38668,-3.278166 1.53563,-1.535629 28.21128,-5.762088 57.83221,-9.162868 81.22043,-9.32492 164.54651,-12.86254 276,-11.717622 74.80724,0.768466 99.30861,1.707106 146.66666,5.618757 32.45852,2.680988 33.57911,2.899809 33.07153,6.457995 -0.48697,3.413805 -0.50809,3.414018 -36.40486,0.368352 -50.92955,-4.321123 -85.61499,-5.417023 -172,-5.434407 -120.73025,-0.02429 -203.54323,4.709956 -279.33332,15.968921 -26.02626,3.86632 -25.20191,3.82925 -26.2189,1.179038 z m 0.83695,-10.635614 c -1.60423,-1.932977 -1.51271,-2.477166 0.68712,-4.085714 1.39581,-1.020644 3.26349,-1.855716 4.15039,-1.855716 0.8869,0 9.66526,-1.196772 19.50746,-2.659492 23.79766,-3.53674 59.68148,-7.390038 92.37031,-9.91896 112.04957,-8.66855 271.57752,-8.67718 368.66666,-0.01995 26.81502,2.39104 27.99999,2.637111 27.99999,5.814481 0,3.458867 -2.00425,3.90896 -12,2.694828 C 887.40281,25.92152 716.47773,24.02866 608.66665,30.701603 c -54.80128,3.391913 -128.95627,11.21051 -146.76559,15.47436 -1.63103,0.390494 -3.52487,-0.252715 -4.61635,-1.567866 z M 94.666665,1250.6926 c 20.483965,-4.1643 48.075785,-12.1929 51.666665,-15.0339 1.98008,-1.5665 2.4544,-77.6811 0.49164,-78.8942 -1.06395,-0.6576 -90.286851,6.2055 -103.819824,7.9859 -5.158223,0.6786 -6.37812,1.6562 -13.722464,10.9972 -10.936585,13.9098 -19.7512414,31.8558 -20.8025402,42.3525 -1.7508953,17.4818 9.0879032,29.7227 30.7048532,34.677 11.155543,2.5567 37.525625,1.566 55.48167,-2.0845 z M 1412.9034,1234.5689 c 19.527,-2.6795 33.0858,-11.6454 36.5363,-24.16 3.4289,-12.4362 -3.3736,-31.6152 -18.2272,-51.3893 -3.9855,-5.3058 -8.5888,-10.491 -10.2295,-11.5225 -2.0614,-1.296 -18.6373,-3.162 -53.6497,-6.0394 -27.8667,-2.2901 -52.0256,-4.155 -53.6865,-4.1441 l -3.0198,0.02 0.3531,39.6667 0.3532,39.6667 14.6839,4.8622 c 23.6069,7.8168 52.6781,13.6254 71.5529,14.2967 2.6969,0.096 9.5969,-0.4696 15.3333,-1.2567 z M 231.04746,1023.3771 c 85.25353,-28.58833 172.89697,-50.98873 262.95253,-67.20694 36.76461,-6.62097 32.86886,-7.00004 -7.76879,-0.75592 C 361.49711,974.58008 248.51475,1002.8946 204,1026.1442 c -8.41719,4.3962 -17.73726,11.0442 -15.6192,11.1412 0.5761,0.026 19.7761,-6.2324 42.66666,-13.9083 z m -36.97028,0.2289 c 50.12168,-29.91709 203.51692,-65.40559 383.92281,-88.82183 124.51618,-16.16189 195.33362,-19.01968 283.33332,-11.43372 162.91309,14.04383 324.66399,48.06822 393.63449,82.80125 7.4113,3.7322 9.6395,4.3594 10.5121,2.9589 3.6458,-5.8512 9.812,-43.01391 15.1177,-91.1106 8.7891,-79.67552 15.3592,-177.48053 21.0035,-312.66667 2.315,-55.44534 2.3345,-263.00596 0.028,-300 -3.6357,-58.31805 -7.9778,-98.3901 -13.7071,-126.49817 -5.5273,-27.11693 -13.9537,-46.89714 -21.5238,-50.52542 -5.1498,-2.46823 -40.4724,-10.2457 -67.7318,-14.91342 C 1018.1882,82.492271 714.41628,75.13874 481.99999,96.047677 321.26294,110.50811 211.0149,137.04023 168,171.6144 c -13.76755,11.06596 -17.53523,18.42435 -23.14239,45.19768 -13.97572,66.73185 -20.49126,185.01379 -19.08807,346.52125 0.74175,85.37626 1.52778,112.7863 4.89413,170.66667 8.09435,139.17265 23.60899,239.76347 42.98019,278.6667 4.50224,9.0418 10.07747,16.9535 11.44304,16.2385 0.5022,-0.2629 4.54783,-2.6476 8.99028,-5.2992 z m 334.25614,-73.82237 c -0.91667,-0.36988 -2.41667,-0.36988 -3.33333,0 -0.91667,0.36988 -0.16667,0.67252 1.66666,0.67252 1.83334,0 2.58334,-0.30264 1.66667,-0.67252 z m 10.69204,-1.32488 c -0.90271,-0.36523 -2.70271,-0.38746 -4,-0.0495 -1.29729,0.33805 -0.55871,0.63688 1.64129,0.66405 2.2,0.0272 3.26142,-0.24941 2.35871,-0.61465 z m 7.28019,-1.26431 c -0.44306,-0.44305 -1.59307,-0.49041 -2.55556,-0.1052 -1.06364,0.42563 -0.74771,0.74157 0.80556,0.80555 1.40554,0.0579 2.19305,-0.25724 1.75,-0.7003 z m 11.38648,-1.40236 c -0.90271,-0.36523 -2.70271,-0.38745 -4,-0.0495 -1.2973,0.33806 -0.55871,0.63688 1.64129,0.66406 2.2,0.0272 3.26141,-0.24942 2.35871,-0.61466 z m 8.64129,-1.37785 c -1.28333,-0.33536 -3.38333,-0.33536 -4.66667,0 -1.28333,0.33537 -0.23333,0.60977 2.33334,0.60977 2.56666,0 3.61666,-0.2744 2.33333,-0.60977 z"
       style="fill:#172595;stroke-width:1.33333337" />
    <path
       id="path20"
       d="m 603.33332,3177.7645 c -107.60237,-1.6809 -207.27386,-10.9582 -283.99999,-26.4344 -51.08702,-10.3045 -82.41147,-19.8384 -139.69957,-42.5184 -19.2319,-7.6138 -38.12967,-14.6278 -41.99504,-15.5868 -3.86538,-0.9588 -7.85347,-2.6768 -8.86243,-3.8174 -6.31939,-7.145 -17.1412,-59.5039 -24.67975,-119.4075 -4.02489,-31.9831 -12.030509,-113.5948 -12.080173,-123.1491 -0.01093,-2.1093 -2.483929,-5.4093 -7.489621,-9.9941 -4.110288,-3.7647 -8.760288,-9.2476 -10.333333,-12.1841 L 71.333332,2819.3333 70.96429,2690 c -0.32797,-114.9395 -0.128133,-130.5495 1.795623,-140.2601 1.919241,-9.688 1.998008,-15.508 0.694729,-51.3334 -1.934874,-53.187 -3.70202,-116.2248 -5.73016,-204.4065 -2.235299,-97.1888 -2.246747,-453.7273 -0.01691,-526.6667 4.673996,-152.8894 9.887226,-225.9068 18.826131,-263.682 2.903826,-12.2713 7.307543,-54.2201 9.621419,-91.6513 2.671154,-43.2108 -0.1375,-131.2601 -4.923029,-154.3333 -0.848906,-4.093 -0.686123,-4.3332 2.934573,-4.3298 3.824789,0 3.833746,0.024 4.018673,9 0.101933,4.948 0.885611,15.2964 1.741496,22.9964 2.439875,21.9504 3.328845,96.9396 1.510345,127.405 -2.342132,39.2377 -6.503394,78.0489 -10.070829,93.9284 C 76.607733,1572.3608 69.542034,1773.2376 71.12941,2082 c 0.773442,150.4428 1.654922,209.6101 4.86671,326.6667 8.937509,325.7356 27.28734,569.1058 49.2696,653.4534 6.07849,23.3236 6.30807,23.7015 16.0662,26.4395 4.57548,1.2837 22.49759,8.0357 39.82691,15.0043 59.00858,23.7288 99.37066,35.5313 158.1745,46.2528 100.13303,18.2566 220.34773,25.031 394.4165,22.2261 46.33758,-0.7467 96.85016,-1.9496 112.25016,-2.6733 197.04871,-9.2594 351.96321,-33.5928 436.44411,-68.5554 24.0781,-9.9648 28.746,-12.847 31.3514,-19.3585 15.2247,-38.0503 30.9322,-170.3203 41.4991,-349.4556 19.1327,-324.3468 24.6222,-817.9535 12.0035,-1079.3333 -3.5101,-72.7094 -8.6423,-126.4014 -13.9119,-145.5474 -2.464,-8.9522 -6.4109,-42.899 -9.5866,-82.4526 -2.1648,-26.9622 -2.1484,-101.406 0.028,-128.2582 0.9625,-11.8754 2.805,-30.1754 4.0942,-40.6667 1.2894,-10.4913 2.0507,-19.8753 1.6922,-20.8534 -0.3587,-0.978 -1.9186,-2.2927 -3.4666,-2.9214 -1.9485,-0.7915 -0.8192,-0.984 3.6703,-0.6259 3.5667,0.2846 6.7764,0.809 7.1329,1.1655 0.3564,0.3564 0.016,2.6383 -0.7561,5.0707 -1.5009,4.7278 -4.6537,31.5842 -6.7803,57.756 -2.4366,29.9874 -3.062,71.669 -1.5404,102.6667 2.1396,43.5851 6.7498,91.2044 10.1331,104.6667 21.168,84.2258 28.0296,523.7181 14.8008,948 -0.9032,28.9666 -1.1688,54.7666 -0.5903,57.3333 1.78,7.8969 1.3687,266.1787 -0.4333,272.1935 -0.8519,2.8432 -4.6831,8.7886 -8.5137,13.2121 l -6.965,8.0427 -0.8777,11.6092 c -9.2763,122.6948 -19.4085,205.1049 -30.7577,250.1664 -2.4527,9.7382 -5.5569,19.9964 -6.8983,22.7958 -3.0781,6.4242 -11.2509,11.0671 -38.51,21.877 -77.1878,30.6096 -212.3453,53.3528 -380.59545,64.0433 -45.62537,2.8989 -82.95742,4.1735 -157.99999,5.3939 -72.57116,1.1802 -86.54779,1.224 -137.33334,0.4306 z m -7.33333,-45.8694 c -145.41088,-6.0542 -276.55576,-24.7856 -376,-53.7044 -20.31129,-5.9067 -52.0477,-16.6952 -57.15987,-19.4312 -18.82512,-10.075 -30.92871,-112.0844 -37.50491,-316.0928 -6.32099,-196.0914 -5.28083,-553.7236 2.69131,-925.3334 4.69577,-218.8866 13.12978,-487.387 17.08789,-544 0.82555,-11.8078 1.089,-12.6955 3.88559,-13.0927 3.66776,-0.5209 3.59126,-4.2579 1.03214,50.4261 -11.75212,251.122 -22.00786,756.4933 -21.99812,1084 0.0111,370.0669 9.9368,582.076 30.07579,642.4 5.04716,15.1182 5.12847,15.1901 24.94081,22.0726 104.96097,36.4618 244.44697,58.6863 415.61603,66.2207 42.46454,1.8692 151.50465,1.8912 194,0.039 216.13535,-9.4196 390.82185,-42.9554 494.33595,-94.9012 15.1005,-7.5778 16.1293,-9.0175 20.9495,-29.3155 25.3716,-106.8415 32.8591,-573.6452 20.0583,-1250.5159 -4.0115,-212.1186 -10.1196,-429.1543 -14.1509,-502.822 -0.8678,-15.8585 6e-4,-19.2804 4.0419,-15.9265 2.6411,2.192 4.1951,32.5555 8.0562,157.4152 13.8777,448.774 18.8149,1012.1187 11.3465,1294.6667 -5.7472,217.4284 -16.069,325.0254 -33.0353,344.3669 -3.6165,4.1228 -39.4076,20.6589 -66.9355,30.9255 -106.3039,39.646 -262.68587,65.1408 -445.99998,72.7108 -36.37578,1.5022 -158.27756,1.4348 -195.33333,-0.108 z m 112.66666,-186.0587 c -2.93333,-0.3101 -19.13333,-1.7668 -36,-3.2372 -151.19164,-13.1809 -293.01623,-36.748 -365.79739,-60.7849 -30.77541,-10.1639 -63.531,-26.6663 -66.07167,-33.2872 -1.25257,-3.2642 11.19566,-131.0708 23.29719,-239.1938 19.6052,-175.1653 38.9382,-312.8574 57.42668,-409 5.74035,-29.8506 6.00195,-30.4177 12.19211,-26.4317 9.94961,6.4067 72.50183,12.7385 168.28642,17.0347 49.64981,2.2269 242.54274,2.2177 297.33333,-0.015 122.90771,-5.0065 222.25928,-12.8793 312.39478,-24.7547 16.7379,-2.2052 23.5808,-2.6446 24.9558,-1.6029 4.6815,3.5473 23.8172,122.6815 38.5659,240.1021 17.663,140.622 36.0323,326.7462 38.9149,394.3 l 0.8691,20.3667 -5.4202,6.8385 c -6.6689,8.4138 -24.6205,22.0479 -40.9154,31.075 -67.527,37.4086 -213.18689,69.3866 -388.69822,85.3342 -30.12396,2.7371 -62.33009,4.2068 -71.33333,3.2554 z M 146.24876,2263.6235 c -1.94516,-1.4739 -2.02694,-7.1523 -0.88732,-61.6235 0.6904,-33 2.17634,-105.9 3.3021,-162 6.17063,-307.5007 13.85182,-622.868 17.3417,-712 0.38762,-9.9 1.30461,-33.3 2.03774,-52 1.74946,-44.6232 3.77247,-73.1638 5.4018,-76.2083 1.52123,-2.8424 4.29208,-3.1926 6.26484,-0.7917 0.75322,0.9167 16.50023,70.6667 34.99335,155 l 33.62386,153.3333 -1.53258,213.3334 c -1.50984,210.1669 -2.79408,290.137 -5.46008,340 l -1.35448,25.3333 -5.32042,10 c -12.58696,23.6579 -40.67547,79.9796 -60.79534,121.9039 -11.94037,24.8804 -22.5564,45.7109 -23.59116,46.2901 -1.06157,0.594 -2.81507,0.3455 -4.02401,-0.5705 z m 1157.21204,-38.5248 c -45.413,-94.8611 -61.3209,-126.8051 -72.9558,-146.4998 -4.9141,-8.3181 -5.2225,-9.5254 -6.4707,-25.3333 -3.5446,-44.8888 -6.653,-253.4259 -6.6866,-448.5989 l -0.021,-120 32.7051,-150 c 17.9878,-82.5 33.2763,-151.35 33.9745,-153 1.2725,-3.0069 5.8211,-4.1028 7.2737,-1.7524 2.9485,4.7707 7.1631,104.8053 12.0533,286.0857 5.7975,214.9137 15.1007,650.2116 15.6871,734 l 0.3126,44.6667 -3.0455,0.432 c -2.7234,0.3864 -4.0801,-1.7291 -12.827,-20 z M 269.43953,1459.6667 c -0.64348,-1.65 -3.08487,-12.3 -5.42531,-23.6667 -2.34044,-11.3667 -11.43772,-51.2667 -20.21619,-88.6667 -47.76789,-203.5115 -61.13137,-264.73 -61.13137,-280.0448 0,-2.2617 -0.88092,-5.2768 -1.9576,-6.7003 -1.07666,-1.4235 -1.97666,-3.2779 -2,-4.1208 -0.0764,-2.7588 58.55145,-22.8933 108.62427,-37.3048 127.71293,-36.757 243.47954,-57.52125 375.99999,-67.44047 30.08466,-2.25184 161.38913,-2.2255 197.33333,0.0396 93.8403,5.91354 158.53585,15.46142 232.65845,34.33615 45.5366,11.59551 108.3685,31.64762 164.0082,52.34152 l 14,5.2069 -0.2303,9.8435 c -0.5143,21.9822 -15.8652,150.5988 -25.1526,210.7394 -11.5873,75.0344 -26.5342,133.6755 -42.5928,167.1041 -6.5383,13.6107 -15.8587,28.1434 -19.1472,29.855 -1.4322,0.7453 -8.7827,-0.4324 -20.8771,-3.3452 -284.17847,-68.4414 -382.07533,-82.3602 -504.66665,-71.753 -78.29853,6.7748 -165.25718,23.6122 -350.47918,67.8618 -20.06356,4.793 -36.72641,8.7148 -37.02858,8.7148 -0.30218,0 -1.07588,-1.35 -1.71936,-3 z M 149.43412,1237.6972 c 0.99621,-1.3001 1.98108,-2.6139 2.18858,-2.9194 0.20751,-0.3056 0.3773,0.3802 0.3773,1.524 0,1.1438 -0.98487,2.4575 -2.18859,2.9194 -1.90539,0.7312 -1.95421,0.534 -0.37729,-1.524 z M 1339.75,1229.7559 c 0.9625,-0.3852 2.1125,-0.3378 2.5556,0.1052 0.443,0.443 -0.3446,0.7581 -1.75,0.7002 -1.5534,-0.064 -1.8692,-0.3799 -0.8056,-0.8055 z m -9.3334,-2.6667 c 0.9625,-0.3852 2.1125,-0.3378 2.5556,0.1052 0.4431,0.443 -0.3445,0.7582 -1.75,0.7003 -1.5533,-0.064 -1.8692,-0.3799 -0.8056,-0.8056 z m -20.0833,-5.9722 c -2.5167,-0.9192 -3.6373,-2.2453 -3.5729,-4.2281 0.085,-2.6212 0.1845,-2.6578 1.0737,-0.3951 0.539,1.3716 2.7468,3.2729 4.9063,4.225 4.6285,2.0409 2.8818,2.3298 -2.4071,0.3982 z M 77.201552,1159.8112 c -0.07248,-0.2628 -0.296656,-2.8779 -0.498172,-5.8112 -0.201515,-2.9333 -2.51343,-20.9333 -5.137586,-40 -8.349011,-60.6625 -13.213595,-110.1943 -17.547069,-178.66667 -1.113868,-17.6 -2.904898,-43.7 -3.980069,-58 -3.471865,-46.17653 -5.045449,-95.36926 -4.103384,-128.27822 0.892332,-31.17166 0.86221,-31.70048 -2.164588,-38 L 40.70117,704.66667 39.874672,569.33333 C 39.185331,456.45833 38.710786,432.14653 37.01508,422.83107 35.227617,413.01151 35.214123,410.67573 36.903387,403.49773 46.300754,363.56659 54.450737,317.81364 64.008471,251.33333 74.623861,177.49633 78.549682,158.36351 88.083839,134 97.164779,110.79464 109.66759,93.975124 128.23863,79.981427 179.53005,41.332181 276.64275,24.976611 539.33332,10.745504 717.06097,1.1172123 718.74048,1.0783137 835.33331,3.8899456 1090.6978,10.048052 1197.3133,22.700833 1263.3333,54.683632 c 36.9684,17.909001 59.7721,40.463071 77.3501,76.503258 16.082,32.97296 22.0974,55.09379 42.6422,156.81311 7.628,37.76667 16.3361,79.46667 19.3513,92.66667 7.3912,32.35686 7.1796,30.21853 4.5537,46 -2.0526,12.33612 -2.4298,28.89564 -3.1738,139.33333 l -0.8446,125.33333 -3.5752,8.12559 c -3.5592,8.089 -3.5686,8.19708 -2.1065,24 1.9017,20.55312 0.6184,107.74587 -2.1272,144.54108 -1.1219,15.03333 -3.2456,45.63333 -4.7196,68 -4.604,69.8635 -9.142,116.4446 -17.1461,176 -3.4002,25.2997 -3.8668,27.305 -6.2723,26.9523 -1.4292,-0.2096 -5.5987,-0.8847 -9.2653,-1.5003 l -6.6667,-1.1193 6.2547,-0.1664 c 3.44,-0.091 6.542,-0.6312 6.8932,-1.1994 0.9416,-1.5236 6.9922,-47.2208 10.809,-81.6336 3.2027,-28.8765 7.6948,-80.86637 9.3894,-108.66663 0.447,-7.33334 1.96,-29.53334 3.3622,-49.33334 4.1804,-59.0297 5.2862,-84.7446 5.2748,-122.66666 -0.013,-41.57463 -1.2305,-58.44299 -6.6977,-92.759 -2.1695,-13.61746 -4.5927,-32.51746 -5.3847,-42 -2.934,-35.12446 2.2306,-92.39378 16.8624,-186.9881 l 6.045,-39.08041 -6.6755,-29.58625 C 1393.7945,365.98048 1384.7356,322.66667 1377.335,286 1358.1712,191.0516 1350.1656,161.44461 1335.9809,133.06021 1327.409,115.90723 1320.174,105.3961 1308.7629,93.517361 1291.8811,75.943756 1273.3181,63.807567 1247.733,53.616811 1174.7647,24.553067 1056.3855,13.015545 781.33332,8.1603753 731.58914,7.2823007 717.91928,7.5567363 645.99999,10.877322 302.49883,26.737113 195.48092,41.406936 135.84076,80.809028 125.62425,87.558696 111.24368,102.2952 104.33618,113.09335 88.886126,137.24568 82.337963,162.95604 69.97686,248 c -9.210832,63.3702 -13.456399,88.41827 -21.35658,126 -3.391442,16.13333 -6.473408,32.03333 -6.84881,35.33333 -0.422766,3.71634 1.618338,20.97068 5.362714,45.33334 18.064983,117.53922 20.598334,165.20821 11.727255,220.66666 -6.843736,42.78431 -7.48073,51.42975 -7.367964,100 0.101466,43.70558 0.916188,62.59482 5.175754,120 1.088294,14.66667 2.899119,40.76667 4.024058,58 4.955666,75.91757 18.91725,196.71107 23.354246,202.05727 0.91619,1.1039 1.42907,2.2439 1.139733,2.5332 -0.777523,0.7776 -7.831997,2.4448 -7.985714,1.8874 z M 149,1154.5556 c -2.23188,-2.4445 -2.21739,-2.5556 0.33333,-2.5556 1.77777,0 2.66667,0.8889 2.66667,2.6667 0,3.161 -0.0133,3.1606 -3,-0.1111 z M 1306.6871,1135 c -0.017,-2.5171 0.6771,-2.9864 4.3129,-2.9155 4.2072,0.082 4.2374,0.1228 1.0376,1.3998 -1.8126,0.7234 -3.7534,2.0353 -4.3129,2.9154 -0.6418,1.0096 -1.0248,0.493 -1.0376,-1.3997 z m 32.9951,0.057 c 1.6586,-0.3189 4.0586,-0.3068 5.3334,0.027 1.2746,0.3337 -0.083,0.5946 -3.0156,0.5798 -2.9334,-0.015 -3.9764,-0.2878 -2.3178,-0.6067 z m -16,-1.3333 c 1.6585,-0.3189 4.0585,-0.3068 5.3333,0.027 1.2748,0.3338 -0.082,0.5947 -3.0155,0.5799 -2.9334,-0.015 -3.9764,-0.2879 -2.3178,-0.6068 z"
       style="fill:#0f1967;stroke-width:1.33333337" />
    <path
       id="path18"
       d="m 547.99999,3175.9484 c -121.46972,-5.3832 -212.95637,-17.8981 -288.66666,-39.4885 -25.92264,-7.3924 -41.07039,-12.7254 -82.66667,-29.1038 -17.6,-6.93 -35.6,-13.6701 -40,-14.978 l -8,-2.3781 -4.31099,-13.0833 C 113.79042,3044.8524 104.28727,2980.9901 95.350695,2882 c -1.853696,-20.5333 -3.930292,-38.8333 -4.614658,-40.6667 -2.378978,-6.3729 -9.549632,-120.5413 -14.738873,-234.6666 -0.783595,-17.2334 -1.657216,-52.0334 -1.941382,-77.3334 -0.284166,-25.3 -1.157704,-64.6 -1.941196,-87.3333 -6.523041,-189.2688 -8.403637,-493.0697 -4.104129,-663.0017 3.791181,-149.8411 9.824423,-238.6243 18.596854,-273.665 4.141188,-16.5416 8.771873,-65.6556 10.756011,-114.0805 1.468041,-35.8291 0.189408,-79.485 -3.361033,-114.7547 -2.415248,-23.9928 -2.415022,-21.8314 -0.0023,-21.8314 1.1,0 2.00119,0.45 2.002645,1 0.0015,0.55 0.880756,9.4 1.954003,19.6666 3.703173,35.4246 5.042573,80.8698 3.451773,117.117 -2.249493,51.2558 -6.187136,92.5396 -10.766776,112.883 -19.919205,88.4842 -26.828207,473.8808 -15.943075,889.3334 9.099745,347.3097 29.018881,603.0377 52.914541,679.3333 1.83744,5.8667 3.84991,11.2965 4.47216,12.0663 0.62225,0.7698 4.30762,2.2112 8.18971,3.2032 3.8821,0.9918 23.37388,8.2692 43.3151,16.1716 55.51109,21.9985 87.39227,31.641 138.40991,41.8626 58.22316,11.6652 112.27699,17.9528 203.33333,23.6522 37.02447,2.3173 258.74092,2.2925 308.66666,-0.035 221.12323,-10.3069 379.56933,-36.1973 463.03653,-75.6612 17.4003,-8.2269 16.7613,-7.3297 23.2133,-32.5933 24.6319,-96.4495 42.1859,-351.2272 52.0419,-755.3334 2.2749,-93.2777 2.2896,-480.8349 0.02,-550 -4.7356,-144.3637 -9.7673,-215.512 -17.586,-248.6666 -3.3815,-14.3391 -3.6153,-15.9868 -6.6232,-46.6667 -7.5056,-76.5584 -7.1015,-138.9612 1.3819,-213.3333 1.5405,-13.506 3.1009,-18.031 5.3836,-15.6112 0.49,0.5195 -0.1998,9.4098 -1.5328,19.7562 -1.333,10.3464 -3.2288,28.0464 -4.2131,39.3333 -2.3181,26.5841 -2.3437,108.1613 -0.043,136.5217 2.796,34.4641 6.6571,67.527 8.8822,76.0602 6.296,24.1443 11.6622,83.3284 15.3482,169.2731 4.1164,95.9819 4.6892,138.8949 4.6718,350 -0.017,208.5671 -0.8075,273.8937 -4.8148,398 -0.805,24.9333 -1.4399,58.5333 -1.4107,74.6667 0.072,39.5128 -4.2299,147.4594 -9.1116,228.6666 -0.7273,12.1 -1.9581,32.8 -2.7351,46 -0.7769,13.2 -1.9966,25.427 -2.7105,27.171 -0.7139,1.744 -2.4809,18.244 -3.9268,36.6666 -9.2209,117.4875 -19.7899,197.4512 -31.4593,238.0195 -4.7935,16.6647 -5.1266,17.1057 -17.6544,23.3839 -80.4707,40.3269 -239.9235,67.1548 -464.8255,78.2066 -36.23452,1.7806 -257.49174,2.6672 -291.33332,1.1675 z m 77.45009,-44.0556 c -150.53081,-4.3427 -286.14417,-21.9112 -392.09497,-50.7953 -23.00415,-6.2714 -66.11667,-20.504 -70.34481,-23.223 -16.77826,-10.7892 -28.1427,-96.6932 -34.99676,-264.5412 -10.27151,-251.5374 -6.72815,-771.9001 8.69332,-1276.6666 4.83472,-158.2474 8.84034,-252.3747 10.88271,-255.7314 1.53465,-2.5223 4.43307,2.2754 3.77544,6.2494 -2.94319,17.7851 -12.34191,312.6902 -17.32096,543.482 -14.83071,687.4409 -6.50762,1134.813 22.809,1226 4.08932,12.7194 6.92539,16.3881 15.05633,19.4765 48.28145,18.3385 121.84739,36.3956 197.42394,48.4584 137.88682,22.008 320.63078,29.1023 480.66666,18.6599 164.34562,-10.7236 304.66072,-37.0603 399.41382,-74.9686 24.8041,-9.9236 49.9339,-22.4321 52.2899,-26.0278 11.3611,-17.3392 20.894,-101.85 26.275,-232.9318 5.6541,-137.735 7.1463,-266.923 6.2533,-541.3333 -0.7215,-221.6565 -1.3244,-280.1393 -4.8927,-474.6667 -3.6678,-199.9493 -9.5794,-421.2333 -13.3576,-500 -1.7866,-37.2467 -1.7322,-41.3333 0.5496,-41.3333 1.333,0 2.0962,2.5662 2.6767,9 1.6081,17.8242 5.0034,112.3556 8.1054,225.6667 12.477,455.7684 16.078,967.9661 8.671,1233.3333 -5.6533,202.5389 -16.5725,312.8949 -32.4337,327.7957 -6.1028,5.7334 -44.0202,22.7228 -76.5333,34.2919 -140.0126,49.8208 -369.8439,76.4901 -601.56732,69.8052 z m 69.88324,-187.9572 c -239.41998,-22.0276 -388.44451,-51.6109 -444.00655,-88.1408 -4.83971,-3.182 -9.08447,-7.0213 -9.47268,-8.5681 -0.76752,-3.058 0.83896,-21.5448 8.9124,-102.56 14.40845,-144.5858 31.10222,-285.0734 46.65954,-392.6667 9.81628,-67.8887 28.52099,-175.7248 30.89152,-178.0953 0.50623,-0.5063 3.15647,0.1406 5.8894,1.4374 14.16648,6.7226 83.75479,13.273 176.4597,16.6106 179.93647,6.478 389.36896,-0.6322 550.66665,-18.6951 23.3412,-2.6139 61.1331,-7.324 68.6667,-8.5583 2.2,-0.3604 4.7685,-0.1682 5.7078,0.4268 3.8979,2.4698 20.6781,102.5495 33.5684,200.2072 19.9512,151.1512 43.3794,385.3491 44.1719,441.5603 0.1798,12.7517 0.1324,12.9552 -4.2998,18.4785 -5.2326,6.5208 -16.6461,15.819 -29.815,24.2892 -55.6174,35.7732 -177.352,66.5955 -337.99999,85.5792 -71.56981,8.4574 -118.32163,11.2416 -145.99999,8.6951 z M 145.91313,2262.5261 c -0.501,-0.8106 -0.51697,-18.6606 -0.0355,-39.6666 0.48147,-21.006 1.76367,-83.4928 2.84932,-138.8595 10.53682,-537.3573 20.24863,-875.8703 25.36594,-884.1503 0.97306,-1.5744 4.21478,-1.5093 5.21232,0.1048 0.43776,0.7083 15.83525,69.8583 34.21666,153.6667 L 246.94263,1506 l -0.81357,176 c -1.08399,234.4946 -3.72381,377.3659 -7.40309,400.6667 -0.71198,4.5089 -3.03223,10.4145 -6.02438,15.3333 -6.79901,11.1771 -35.13223,67.7974 -60.04893,120 -22.07781,46.255 -23.84861,49.2036 -26.73949,44.5262 z M 1310.1459,2237 c -14.2161,-31.5537 -68.0782,-140.6257 -77.0931,-156.1152 -2.9178,-5.0135 -5.8231,-10.9215 -6.4562,-13.1291 -3.842,-13.3964 -6.2271,-126.0244 -7.9728,-376.4854 l -1.4036,-201.3964 32.7778,-149.937 c 18.0277,-82.4653 33.3763,-152.1869 34.1079,-154.9369 1.4377,-5.404 5.7814,-7.0434 7.0658,-2.6667 4.6681,15.9069 13.632,331.7274 24.1917,852.3334 3.6999,182.4109 4.1032,205.9688 3.5555,207.6666 -0.2956,0.9167 -1.6809,1.6667 -3.0784,1.6667 -1.7758,0 -3.4905,-2.1077 -5.6946,-7 z M 270.93333,1459.7333 c -0.88,-0.88 -1.6,-2.4898 -1.6,-3.5776 0,-3.2468 -10.94506,-51.4366 -33.3468,-146.8224 -36.13639,-153.8673 -48.39052,-209.8189 -52.12511,-238 -0.87464,-6.6 -2.1304,-12.6966 -2.79058,-13.5479 -1.58512,-2.0442 -1.62351,-2.025 19.19448,-9.6386 79.03723,-28.9059 199.35735,-59.62768 297.73467,-76.02163 89.45329,-14.90682 148.4829,-20.05926 241.33854,-21.06538 186.54817,-2.02134 303.42637,15.08413 455.99477,66.73611 53.8594,18.2341 75.0382,26.2552 75.6231,28.6409 0.5892,2.4032 -9.9273,99.4942 -15.6224,144.2299 -15.7561,123.7677 -33.1152,201.1181 -54.8578,244.4421 -4.826,9.6161 -14.7989,24.4739 -16.9925,25.3157 -1.0062,0.386 -15.5516,-2.5718 -32.3232,-6.5733 -180.40394,-43.0407 -260.67147,-58.8767 -344.49385,-67.9652 -26.5744,-2.8813 -103.59781,-4.0188 -132.75735,-1.9607 -82.68809,5.8366 -185.35362,25.3283 -375.71652,71.3324 -13.82731,3.3416 -25.25731,6.0756 -25.4,6.0756 -0.14271,0 -0.97945,-0.72 -1.85945,-1.6 z m 484.39999,-121.0756 c 94.7471,-5.919 172.19757,-32.9228 214.06428,-74.6354 12.05394,-12.0095 19.62891,-23.1157 24.35332,-35.7061 2.27662,-6.0671 2.86684,-10.5457 2.85312,-21.6495 -0.0157,-12.6922 -0.40461,-14.8991 -4.16346,-23.6244 C 957.82,1102.6787 791.50952,1055.721 637.33332,1082.7779 c -49.76283,8.733 -98.0372,26.6384 -129.59569,48.0682 -14.62409,9.9305 -33.2448,28.2298 -39.54379,38.8612 -9.16929,15.476 -11.45222,22.9765 -11.45222,37.626 0,11.3603 0.51641,14.5722 3.4897,21.7051 5.79479,13.9016 11.86738,22.8145 23.76867,34.886 49.72704,50.4381 162.5985,81.5264 271.33333,74.7333 z M 78.024216,1157 c -0.691723,-2.0633 -7.912112,-54.4044 -10.622055,-77 -5.637233,-47.0035 -8.935136,-83.43003 -12.735362,-140.66667 -1.46069,-22 -3.557519,-52.73344 -4.65962,-68.29653 -2.162684,-30.53988 -4.977996,-106.79932 -4.001123,-108.37993 0.328452,-0.53144 0.674446,-13.19666 0.768875,-28.1449 0.149945,-23.73636 0.760549,-31.0627 4.821034,-57.8453 8.625252,-56.8914 7.353455,-92.05146 -6.920849,-191.33334 C 42.197384,468.1 39.816223,449.8 39.383646,444.66667 38.95107,439.53333 37.932856,429.93333 37.120952,423.33333 35.679405,411.61493 35.772931,410.73884 41.106412,386 49.724354,346.02651 55.234215,314.21595 63.969941,254 73.268228,189.90628 78.218261,163.68699 84.654537,144.43801 111.79574,63.266829 176.87678,37.649143 400.66666,20.046963 458.3603,15.509072 530.49571,11.284007 640.1608,6.0194744 c 37.85512,-1.8172551 69.84594,-3.6949171 71.09072,-4.172582 1.24477,-0.4776649 26.3724,-0.1835455 55.83917,0.6535988 29.46679,0.8371441 77.87596,2.1418131 107.57596,2.8992641 327.14815,8.3433927 421.99185,34.2066637 466.70295,127.2669147 14.2549,29.67 21.2249,55.49404 39.9742,148.10658 7.4112,36.60804 16.754,81.20262 20.7618,99.09906 6.7041,29.9366 7.1772,33.1321 5.9158,39.95541 -0.7541,4.07905 -2.0044,14.33651 -2.7785,22.79436 -0.7741,8.45785 -3.4428,29.77792 -5.9303,47.37792 -9.1436,64.69605 -10.5248,80.69872 -10.5878,122.66667 -0.055,36.49912 0.1508,39.86256 3.6686,60 4.5215,25.88241 5.6474,48.16196 5.4915,108.66666 -0.1107,42.80539 -0.8683,60.18814 -5.2036,119.33334 -1.0751,14.66666 -2.8916,40.76666 -4.0365,58 -2.7078,40.7526 -5.1911,67.61903 -10.106,109.33333 -7.4002,62.8079 -8.4896,70 -10.6034,70 -2.4466,0 -2.5676,1.6301 3.165,-42.6667 7.196,-55.6054 11.0413,-96.08991 14.9005,-156.87239 1.1013,-17.3465 2.8683,-43.1465 3.9267,-57.33334 3.6289,-48.64418 5.1208,-92.05072 4.3238,-125.79424 -0.8001,-33.87158 -2.2618,-49.04385 -8.2857,-86 -7.6183,-46.73889 -5.5799,-90.92305 8.7348,-189.33333 2.9333,-20.16667 6.4695,-43.56667 7.8579,-52 l 2.5242,-15.33333 -6.5672,-29.53699 c -3.612,-16.24535 -12.2694,-57.94535 -19.2389,-92.66667 C 1356.3104,176.04692 1346.9302,145.3444 1324.7708,112.05834 1314.9373,97.287233 1297.8696,80.214061 1283.908,71.182312 1216.1802,27.369456 1091.4788,11.770739 772.66665,7.2318644 711.49034,6.3609077 671.5432,7.7770132 523.99999,16.046968 192.44581,34.630936 118.45909,56.636365 88.744525,145.50243 82.325465,164.69963 77.301189,190.96705 68.717657,250.20496 58.31272,322.013 54.904812,341.25871 41.248499,405.33333 39.834174,411.96927 40.266091,416.40728 45.790206,452 c 14.185569,91.39983 18.99411,143.64943 16.749494,182 -0.557975,9.53333 -2.840869,29.03333 -5.073099,43.33333 -5.894994,37.76424 -6.930209,52.13139 -6.917213,96 0.012,40.34623 0.813331,58.8334 5.461824,126 C 57.483044,920.6 59.613509,951.5 60.74558,968 c 3.565264,51.9639 13.66651,142.8086 19.866397,178.6667 0.950954,5.5 1.466876,10.45 1.146492,11 -0.912323,1.5661 -3.117679,1.1724 -3.734253,-0.6667 z"
       style="fill:#0d1556;stroke-width:1.33333337" />
    <path
       id="path16"
       d="m 558.66665,3175.9125 c -120.07686,-4.1881 -223.11106,-17.7684 -297.68778,-39.236 -27.40756,-7.8896 -47.58018,-14.9601 -76.97887,-26.9814 -13.56667,-5.5475 -31.56667,-12.3238 -40,-15.0583 l -15.33334,-4.9719 -3.7208,-11.1657 c -10.39078,-31.182 -22.48081,-113.3001 -29.617066,-201.1659 -1.161415,-14.3 -2.947817,-29.6 -3.969787,-34 -1.021969,-4.4 -2.196574,-13.4 -2.610236,-20 -0.41366,-6.6 -1.92867,-29.7 -3.366689,-51.3333 -5.90129,-88.7781 -10.733621,-192.8396 -10.587694,-228 0.05935,-14.3 -0.839276,-55.1 -1.996946,-90.6667 -10.439086,-320.7165 -8.706146,-705.0648 3.913618,-868 2.609845,-33.696 6.789411,-66.9536 9.983935,-79.4441 4.658022,-18.2127 10.032388,-77.6912 11.435353,-126.5559 0.925582,-32.2376 -0.73627,-74.2476 -4.185047,-105.7938 -1.069916,-9.7866 -1.945303,-18.0366 -1.945303,-18.3333 0,-0.2968 0.8195,-0.5395 1.821111,-0.5395 1.884975,0 3.394825,12.0153 6.199231,49.3333 3.97634,52.9128 -1.39604,167.6609 -9.363785,200 -8.951877,36.3335 -14.254922,111.1812 -18.940853,267.3333 -2.21763,73.8995 -2.205257,418.253 0.01859,517.3334 9.183613,409.1636 27.016602,672.7873 52.340608,773.7476 5.97592,23.8244 5.93736,23.7753 23.25843,29.6088 8.06667,2.7168 26.66666,9.7762 41.33333,15.6877 47.25177,19.0452 82.60259,29.6556 132,39.6193 64.09809,12.9291 133.65727,20.5479 226.66666,24.8268 41.31208,1.9006 201.20298,1.8508 258.66666,-0.08 153.8858,-5.1721 283.71042,-19.2802 382.46642,-41.5629 60.0894,-13.5583 118.88,-35.1364 125.1208,-45.9235 5.7682,-9.9704 16.1996,-61.2661 22.3538,-109.9233 21.0135,-166.1399 34.7274,-460.6487 38.7851,-832.9201 3.3681,-309.0056 -4.9233,-572.1878 -19.9868,-634.4132 -7.0693,-29.2031 -13.062,-116.2635 -11.564,-168 0.808,-27.9027 3.2132,-61.244 6.204,-86 2.1224,-17.5692 2.7211,-20 4.9245,-20 1.4426,0 1.7699,0.8438 1.1635,3 -1.3295,4.727 -5.8695,46.3655 -7.4052,67.9165 -4.1024,57.5699 0.9877,160.9997 9.9288,201.7501 6.8712,31.3162 11.6476,85.8443 15.3001,174.6667 3.9374,95.7463 4.6899,150.8607 4.661,341.3333 -0.028,186.797 -1.0686,271.9044 -4.7335,387.3334 -0.7568,23.8333 -1.5981,65.5333 -1.8697,92.6666 -0.7891,78.8172 -10.6138,277.831 -14.6458,296.6667 -1.0202,4.7667 -2.2397,14.6667 -2.7098,22 -7.0683,110.2628 -22.3458,223.9744 -35.0213,260.6667 -3.0104,8.7142 -6.8492,11.7116 -25.705,20.0696 -80.452,35.661 -226.1977,60.4034 -419.77655,71.2628 -72.98989,4.0945 -240.87669,5.826 -314.8237,3.2468 z m 34.66667,-45.3757 c -162.23488,-6.9603 -308.6463,-30.1651 -408.25078,-64.7037 -9.76206,-3.3852 -19.35022,-6.9724 -21.30702,-7.9719 -18.47522,-9.436 -30.66675,-112.5531 -37.10778,-313.8612 -5.42862,-169.6661 -5.43822,-486.8433 -0.0239,-790 4.19438,-234.8508 11.4639,-500.0325 17.36178,-633.3333 2.35636,-53.2571 2.85225,-59.3334 4.84232,-59.3334 2.26617,0 2.26916,-0.989 -0.15288,50.6667 -11.62287,247.8855 -22.00595,759.0411 -21.99218,1082.6667 0.0137,322.2766 7.30891,518.4424 22.66044,609.3333 4.39078,25.9961 10.35463,45.2263 15.29859,49.3293 2.67344,2.2188 46.5606,16.679 70.67144,23.2852 99.72536,27.3242 220.75693,43.9351 364.66666,50.0484 40.47169,1.7192 151.55829,1.7108 192.66666,-0.015 213.30083,-8.953 390.98273,-43.0246 494.22983,-94.7718 7.0931,-3.555 13.8608,-7.8316 15.0394,-9.5034 24.4251,-34.6494 36.8597,-358.2831 32.801,-853.7064 -2.7222,-332.2828 -8.781,-639.284 -16.8672,-854.6667 -2.7087,-72.1496 -2.833,-80.5113 -1.2031,-80.9634 1.9992,-0.5547 2.9189,12.6666 5.2145,74.9634 15.4558,419.4208 22.1538,1074.322 14.0991,1378.572 -5.1851,195.8625 -14.7454,306.3008 -28.9793,334.7613 -3.4297,6.8576 -4.4029,7.6991 -15.0009,12.9702 -108.6586,54.0433 -281.3078,87.3629 -499.33333,96.3664 -36.76715,1.5184 -162.80304,1.4342 -199.33333,-0.1334 z m 117.33333,-186.0499 c -3.3,-0.2972 -19.8,-1.7492 -36.66667,-3.2266 -157.95326,-13.837 -298.1911,-37.4402 -372.15263,-62.6366 -19.37448,-6.6004 -48.72624,-20.7794 -55.53752,-26.8288 l -5.02348,-4.4616 4.03962,-42 c 25.10734,-261.0414 53.38582,-481.335 77.58584,-604.4057 4.6984,-23.8939 5.75253,-27.6083 7.60466,-26.7955 12.37027,5.4282 29.53851,8.45 66.94368,11.7831 60.15524,5.3601 112.31583,7.3877 213.87317,8.3137 178.40224,1.6266 338.28647,-6.4577 482.91068,-24.4174 21.4009,-2.6576 39.7544,-4.5082 40.7856,-4.1126 6.4599,2.479 33.5053,184.5106 51.5508,346.9678 13.3877,120.5248 26.7007,269.4377 26.7413,299.1154 l 0.012,8.4487 -8.2086,8.5484 c -41.2672,42.9756 -154.5745,78.1299 -325.79135,101.0789 -73.98881,9.9171 -148.86813,16.4115 -168.66666,14.6288 z m 8,-212.5598 c 92.70122,-8.4471 173.40849,-55.4774 213.8112,-124.5938 17.6685,-30.2252 26.74407,-69.0249 23.57062,-100.7684 -10.11676,-101.1961 -102.92824,-181.081 -229.38182,-197.4341 -16.57009,-2.1429 -57.29337,-2.1116 -73.33333,0.056 -98.96377,13.3757 -176.79249,63.8925 -211.86585,137.5171 -30.94863,64.966 -19.70608,135.1161 31.19919,194.6738 12.37244,14.4754 28.4747,28.4222 47.91307,41.4992 55.53907,37.3636 128.38355,55.4012 198.08692,49.0499 z M 146.33756,2261.7405 c -0.31776,-0.5906 -0.0967,-25.0738 0.49145,-54.4072 C 147.41706,2178 148.83533,2107.2 149.9807,2050 c 3.73823,-186.6883 10.08339,-469.2408 11.99182,-534 0.3998,-13.5667 1.33274,-46.8667 2.0732,-74 2.8559,-104.6521 6.38582,-196.8648 8.7653,-228.978 0.8743,-11.7995 2.77428,-16.0681 5.62378,-12.6347 0.8004,0.9644 16.33,69.2218 34.51024,151.6831 L 245.99999,1502 245.6189,1642.6667 c -0.60905,224.8018 -3.40693,399.976 -6.94835,435.0309 -0.98178,9.7183 -1.95392,12.9896 -5.74526,19.3333 -9.38558,15.704 -21.01183,38.7078 -51.03047,100.9691 -28.32473,58.748 -33.37374,67.7989 -35.55726,63.7405 z M 167.29456,2212 c 17.57944,-36.9331 51.79419,-105.3079 58.09229,-116.0916 5.10516,-8.7413 5.62924,-10.5464 6.68601,-23.0299 3.52428,-41.6316 6.54723,-242.2201 6.61408,-438.8785 l 0.044,-129.3333 -29.62084,-135.6335 c -16.29146,-74.5985 -29.83868,-135.4157 -30.10492,-135.1495 -1.22721,1.2273 -5.03092,102.1463 -8.29633,220.1163 -0.73075,26.4 -1.66059,59.7 -2.06632,74 -2.0592,72.5777 -8.7154,371.4956 -11.92063,535.3333 -1.09033,55.7334 -2.36217,118.1334 -2.82632,138.6667 -0.52602,23.2708 -0.37268,36.8311 0.40712,36 0.68806,-0.7333 6.53442,-12.4333 12.9919,-26 z m 1128.13834,-6.9685 c -23.1029,-48.5668 -56.3239,-115.063 -62.7978,-125.6982 -2.9948,-4.9197 -5.3163,-10.8234 -6.0295,-15.3333 -3.8584,-24.3988 -6.3987,-161.0484 -7.3617,-396 l -0.7513,-183.3333 33.1798,-151.0262 c 18.2489,-83.0644 33.8881,-151.7344 34.7537,-152.6 2.9308,-2.9308 4.2826,0.9087 5.5365,15.7243 5.0006,59.0874 14.0646,395.8319 23.361,867.9019 3.0225,153.4837 3.1171,178.52 0.6764,179.0016 -1.4341,0.2829 -7.2539,-10.6502 -20.5671,-38.6368 z M 270.17763,1457.6667 c -0.3678,-1.2834 -1.66576,-7.4334 -2.88436,-13.6667 -2.62532,-13.4289 -14.0168,-63.012 -32.62385,-142 -30.94696,-131.3716 -46.01001,-200.0793 -49.92113,-227.7069 -1.06096,-7.4946 -2.11336,-14.8079 -2.33867,-16.2518 -0.34684,-2.2231 1.94054,-3.5123 14.92371,-8.4113 19.50621,-7.3605 62.18496,-20.9564 97.33333,-31.0068 124.29338,-35.54095 242.54146,-56.44949 370.66666,-65.54108 30.80052,-2.18557 155.90898,-2.16183 191.99999,0.0364 134.69948,8.20435 217.70399,24.3704 342.70439,66.74548 49.6439,16.8293 69.4139,24.226 70.1955,26.263 1.2622,3.2891 -12.7845,127.2877 -20.9804,185.2063 -14.8278,104.7855 -29.2976,163.9624 -50.0721,204.7791 -3.9506,7.7618 -9.2076,16.4546 -11.6823,19.3176 l -4.4995,5.205 -10.4995,-2.2593 c -5.7747,-1.2427 -34.4994,-7.9392 -63.8328,-14.8812 -333.6662,-78.9644 -409.19891,-80.5609 -698.81488,-14.7717 -20.61488,4.6828 -59.08721,13.636 -85.49407,19.8957 -26.40687,6.2599 -49.24972,11.3815 -50.76188,11.3815 -1.51218,0 -3.05034,-1.05 -3.41814,-2.3334 z m 55.88376,-17.061 c 225.20674,-53.5282 333.89009,-69.7545 434.13863,-64.8161 90.14923,4.4408 175.18401,19.2353 358.16178,62.3135 32.4657,7.6433 59.9232,13.8969 61.0166,13.8969 1.0934,0 4.1756,-3.4197 6.8493,-7.5995 24.717,-38.6388 44.3471,-119.6548 60.9949,-251.7338 5.2164,-41.3855 15.444,-133.7259 15.444,-139.4364 0,-3.2475 -0.8495,-3.9482 -7.6666,-6.3237 -4.2167,-1.4694 -22.2683,-7.83 -40.1148,-14.1347 -103.3579,-36.51386 -186.2129,-56.17982 -278.21855,-66.0363 -91.5043,-9.80277 -209.83947,-11.68637 -296.66666,-4.72221 -113.11699,9.07278 -229.16559,30.81658 -349.33333,65.45391 -41.00077,11.8181 -98.76177,31.2291 -99.62545,33.4798 -2.46539,6.4247 17.09937,98.6163 52.14621,245.7196 19.19472,80.5666 32.81257,139.9728 32.81257,143.1408 0,1.2058 0.47763,2.1925 1.0614,2.1925 0.58378,0 22.63378,-5.1275 49,-11.3943 z M 75.554712,1139.6667 C 65.552579,1066.0123 60.244309,1016.3712 56.698861,963.33333 c -2.170877,-32.47508 -4.619542,-66.99105 -7.661841,-108 -1.035352,-13.95613 -1.661888,-47.7735 -1.630378,-88 L 47.457815,702 51.852341,676.66667 c 8.830026,-50.90284 7.198002,-94.9507 -7.216451,-194.76994 -2.54974,-17.6568 -4.635891,-34.6339 -4.635891,-37.72692 0,-3.09301 -0.969851,-11.46342 -2.155224,-18.60092 l -2.155224,-12.97725 5.412471,-25.29583 C 51.263465,339.80511 56.829808,307.32711 66.68954,238 77.648401,160.94455 84.920345,134.36641 102.14359,108.41943 138.28065,53.978593 217.96329,32.599776 441.33332,17.414971 c 78.65924,-5.347294 262.65648,-15.1768207 286,-15.278733 17.7602,-0.077537 128.74955,2.6697383 183.99999,4.554478 254.83049,8.692947 348.67689,28.386475 401.50199,84.25456 12.4932,13.212894 19.2434,23.363014 28.5499,42.929844 14.7081,30.92352 21.1214,54.83532 40.6226,151.45821 7.0303,34.83334 16.0036,77.73334 19.9408,95.33334 l 7.1584,32 -1.7225,10 c -0.9473,5.5 -2.1349,15.1 -2.6391,21.33333 -0.5042,6.23333 -2.96,25.73333 -5.4572,43.33333 -9.4341,66.48919 -13.4882,114.26226 -12.0504,142 0.4752,9.16667 2.5759,28.06667 4.6682,42 7.653,50.96326 8.368,122.05864 2.0714,206 -1.0726,14.3 -2.8662,40.4 -3.9858,58 -4.0478,63.63255 -10.0826,126.24297 -16.7035,173.29687 -1.4419,10.2467 -2.6215,20.5612 -2.6215,22.9213 0,2.3601 -0.6,4.6619 -1.3333,5.1152 -2.7109,1.6754 -3.6416,-0.7426 -2.5449,-6.6125 5.2505,-28.1049 15.5133,-127.829 19.2156,-186.72087 1.1525,-18.33333 2.942,-44.43333 3.9765,-58 3.7447,-49.10498 5.0255,-87.25114 4.2741,-127.29626 -0.767,-40.88875 -1.5902,-49.82359 -8.4182,-91.3704 -7.7919,-47.41074 -3.9339,-105.47756 14.9577,-225.13527 l 4.7051,-29.80193 -4.0623,-17.5314 c -6.8132,-29.40332 -9.1627,-40.55306 -22.1585,-105.15732 C 1361.2453,199.39639 1355.2981,175.8292 1343.3502,146.66667 1320.5461,91.005763 1285.1422,61.517435 1217.8733,42.155439 1148.7628,22.263325 1044.4424,12.924068 835.99998,7.9683151 730.6988,5.4647619 687.60969,6.5047752 529.33332,15.370127 283.73773,29.126388 188.16682,44.652899 136.12346,79.251252 125.05662,86.608476 108.93805,103.24539 102.3169,114.14499 86.998294,139.36213 81.072263,162.96968 68.716253,248 c -9.20727,63.36165 -15.213989,98.48427 -22.46081,131.33333 -3.761592,17.0509 -5.563879,28.38476 -5.512619,34.66667 0.04188,5.13333 2.267191,23.13333 4.945122,40 12.619801,79.48453 16.177085,114.40853 16.229346,159.33333 0.04092,35.17267 -0.131,37.6989 -4.219253,62 C 52.43242,706.63284 51.0174,720.52912 49.891283,752 c -0.929848,25.98587 0.9019,80.11423 4.196261,124 1.073455,14.3 2.831401,40.1 3.906549,57.33333 4.360768,69.89797 10.145757,127.69897 19.416411,193.99997 4.564281,32.6425 4.367589,30 2.233069,30 -1.158395,0 -2.444185,-5.5555 -4.088861,-17.6666 z"
       style="fill:#0b134d;stroke-width:1.33333337" />
    <path
       id="path14"
       d="m 568.48188,3175.9016 c -138.375,-4.3411 -246.73983,-19.5489 -329.14855,-46.1925 -12.46667,-4.0307 -37.39484,-13.2098 -55.39593,-20.3982 -18.0011,-7.1884 -37.2011,-14.4072 -42.66667,-16.0418 -5.46557,-1.6347 -10.68722,-3.5623 -11.60367,-4.2836 -4.39015,-3.4551 -14.87784,-49.5112 -20.87061,-91.6522 C 104.3209,2965.8615 100.71133,2934.1897 95.880019,2884 93.656394,2860.9 91.308266,2836.6 90.661955,2830 85.817259,2780.5269 76.516317,2604.4307 75.380132,2540.6667 75.053457,2522.3333 74.16135,2488.7333 73.397674,2466 67.98959,2305.0107 66.225186,2164.5255 67.084501,1963.3333 67.783412,1799.6969 68.566053,1753.4267 71.978436,1674 c 3.654608,-85.0647 9.127078,-145.2447 15.392866,-169.2731 2.219677,-8.5122 6.069156,-41.4469 8.890072,-76.0602 2.591897,-31.8032 2.182612,-113.8319 -0.718495,-144 -1.26937,-13.2 -2.64877,-25.121 -3.065333,-26.4911 -0.520451,-1.7118 -0.192229,-2.304 1.0492,-1.893 2.15868,0.7147 4.156906,17.7193 6.547414,55.7174 3.56007,56.5888 -2.164705,161.8011 -10.598042,194.7751 -7.731979,30.2317 -13.01714,105.0386 -17.796309,251.8916 -2.253656,69.2497 -2.229439,453.2021 0.03444,546 7.176405,294.1656 15.982766,470.2621 31.005421,620 7.42689,74.0273 18.33428,138.678 26.57063,157.4904 2.25903,5.1597 2.99497,5.6698 12.22339,8.4722 5.4008,1.64 23.31964,8.3774 39.81964,14.9719 57.91903,23.1483 94.38411,33.9733 150,44.5292 75.46213,14.3227 163.19121,21.764 282.66666,23.9761 48.05174,0.8898 195.24317,-1.2129 239.99999,-3.4285 196.78152,-9.7411 350.72992,-34.5005 432.66662,-69.5857 23.6837,-10.1414 25.9784,-11.7648 29.3436,-20.7591 13.6512,-36.4856 27.1346,-141.9364 37.2936,-291.6665 29.1996,-430.3571 29.9675,-1171.7555 1.3307,-1284.6667 -6.3487,-25.0316 -12.9076,-120.2557 -11.2963,-164 1.405,-38.141 7.1644,-102.9471 9.3427,-105.1254 1.8575,-1.8574 1.7359,2.6554 -0.6432,23.8903 -4.4581,39.7919 -5.6295,60.6107 -5.6208,99.9018 0.013,55.014 4.9357,118.5316 11.5237,148.6666 6.7534,30.8915 11.6219,88.1888 15.3511,180.6667 6.4697,160.4373 6.4608,486.5725 -0.02,710.6667 -0.7316,25.3 -1.902,71.8 -2.6009,103.3333 -1.9898,89.7633 -11.1886,276.6343 -14.6366,297.3333 -0.7329,4.4 -2.2574,20.3 -3.3877,35.3334 -8.8209,117.3204 -20.9726,206.4685 -33.0778,242.6666 l -4.2359,12.6667 -8,4.2956 c -71.8454,38.5779 -233.7226,67.42 -440.00002,78.3961 -72.68286,3.8676 -225.55039,5.5095 -298.85143,3.2099 z m 46.18477,-44.8352 c -6.96666,-0.2091 -29.16666,-1.3008 -49.33333,-2.426 -149.64568,-8.3503 -273.4255,-28.5925 -371.48262,-60.7504 -33.63077,-11.0292 -34.45105,-11.5993 -39.70565,-27.5936 -21.33791,-64.9501 -31.46283,-272.1827 -31.44632,-643.6297 0.0148,-334.3675 10.83269,-850.2864 23.34448,-1113.3334 0.89009,-18.7134 1.50032,-22.4394 3.47511,-21.219 0.9611,0.594 1.16684,4.9364 0.61848,13.0546 -5.07938,75.1984 -14.6972,406.9408 -19.46797,671.4978 -5.4988,304.9293 -5.49039,629.9574 0.0207,801.3333 5.43267,168.9365 15.13689,268.9612 28.95689,298.4685 3.78921,8.0904 3.14533,7.7239 29.30584,16.6846 86.96329,29.7872 205.0784,50.4852 343.04771,60.1141 98.2276,6.8553 223.7301,7.1115 319.33332,0.6519 190.64571,-12.8814 341.40471,-44.3902 434.30401,-90.77 13.964,-6.9715 15.9375,-8.3954 18.4427,-13.306 28.6032,-56.067 38.7664,-518.5338 26.5874,-1209.8431 -4.2197,-239.5192 -11.9433,-522.378 -15.4684,-566.4955 -0.6822,-8.5382 -0.4993,-10.383 0.9812,-9.8925 2.3606,0.7822 3.0526,10.8807 5.6917,83.0547 16.7971,459.368 22.3197,1155.8533 11.4549,1444.6666 -6.3032,167.5531 -16.5287,254.2464 -31.4677,266.787 -4.4892,3.7685 -41.9271,20.709 -64.0101,28.9642 -108.4445,40.5399 -266.93962,66.2739 -453.18237,73.5808 -29.61113,1.1618 -136.26617,1.4135 -170,0.4011 z m 85.33333,-187.8807 c -2.56666,-0.3137 -18.16666,-1.7789 -34.66666,-3.256 -127.20223,-11.387 -253.61245,-31.0428 -325.5411,-50.619 -42.52747,-11.5744 -80.02607,-26.8422 -92.36709,-37.6079 l -5.24152,-4.5724 1.66277,-19.2319 c 15.89744,-183.8704 48.13156,-448.0598 70.2662,-575.8985 4.40271,-25.4279 14.12687,-76.5288 14.68581,-77.1745 0.24178,-0.2794 2.41104,0.4229 4.82059,1.5608 15.20425,7.1792 89.95618,13.7438 194.38101,17.0705 55.57486,1.7705 239.20053,0.9024 289.33332,-1.3677 119.44339,-5.4087 222.31189,-13.7952 297.21009,-24.2306 15.7885,-2.1998 19.5024,-2.3662 20.8514,-0.9341 2.9317,3.1119 16.6936,82.7481 27.1442,157.0756 16.0533,114.1756 33.8976,275.1428 44.0471,397.3333 3.4733,41.8164 6.7202,87.5038 6.741,94.8548 0.015,5.2326 -17.3966,21.804 -34.2094,32.559 -63.0406,40.3265 -205.16452,73.076 -399.11772,91.9682 -21.46246,2.0906 -70.67458,3.6103 -80,2.4704 z m 70.16824,-7.1906 c 101.82332,-8.762 201.61305,-24.2339 275.58348,-42.7276 71.8081,-17.9534 125.2096,-40.673 150.998,-64.242 11.248,-10.2802 11.3003,-10.4664 9.8547,-35.1447 -8.94,-152.6201 -43.6789,-453.664 -67.28,-583.0425 -7.4488,-40.8336 -6.8451,-38.8427 -11.7682,-38.8119 -2.3226,0.015 -8.4229,0.6353 -13.5562,1.3796 -67.8932,9.8435 -179.93139,18.8013 -302.66669,24.1993 -52.7997,2.3223 -275.88984,2.3299 -321.99999,0.013 -73.30605,-3.6864 -119.97165,-7.7114 -142.64313,-12.3028 -6.95372,-1.4083 -13.06609,-2.13 -13.58304,-1.6036 -2.29645,2.3378 -17.48449,88.5526 -27.6503,156.9568 -18.51222,124.5657 -37.46072,288.0644 -55.59278,479.6865 -2.59205,27.3933 -3.08574,25.792 10.3865,33.6879 53.06598,31.1012 192.90214,59.6421 385.08275,78.5964 70.434,6.9468 80.10341,7.2068 124.8349,3.3576 z M 147.17468,2214.3333 c 9.88433,-524.37 20.75701,-941.3129 26.07954,-1000.0928 0.98358,-10.8622 2.78735,-15.9767 4.89224,-13.8718 0.47167,0.4717 15.78167,69.0521 34.02223,152.401 l 33.16464,151.5434 -0.0147,121.5101 c -0.0235,194.1603 -3.1474,402.696 -6.68808,446.4649 -1.24687,15.4132 -1.35367,15.7775 -8.01297,27.3334 -9.56348,16.5953 -27.92467,53.255 -55.28372,110.3785 -12.99539,27.1333 -24.23527,50.0833 -24.97751,51 -3.81325,4.7093 -4.07713,0.8389 -3.18165,-46.6667 z m 17.43117,7 c 18.13509,-38.2172 55.29616,-112.8801 61.3852,-123.3333 5.71706,-9.8147 6.30776,-11.6785 7.3948,-23.3333 3.42397,-36.7107 6.24968,-219.0059 6.83065,-440.6667 l 0.34248,-130.6667 -30.3212,-138 c -16.67665,-75.9 -30.61654,-138.8358 -30.97754,-139.8575 -0.36099,-1.0216 -0.9123,-1.6015 -1.22512,-1.2887 -3.39234,3.3923 -12.88794,348.8714 -22.00142,800.4796 -4.60969,228.4278 -4.53397,221.6717 -2.45069,218.6666 1.01676,-1.4666 5.97704,-11.3666 11.02284,-22 z m 1144.94915,11.9043 c -22.5001,-48.55 -68.4166,-141.2365 -76.8788,-155.1868 -3.7808,-6.2328 -5.0821,-10.1192 -6.0269,-18 -3.498,-29.1748 -6.0735,-174.2303 -7.399,-416.7175 l -0.8454,-154.6666 33.4614,-152.5972 c 18.4038,-83.9285 34.0627,-153.1985 34.7976,-153.9334 2.7603,-2.7603 3.8831,1.6328 5.2474,20.5306 4.893,67.7764 13.2399,376.6461 22.1058,818 1.1196,55.7333 2.5871,128.0333 3.2611,160.6666 1.039,50.3068 0.9409,59.6231 -0.6449,61.2376 -1.6118,1.641 -2.5903,0.3507 -7.0783,-9.3333 z m 3.1797,-17.5709 c -0.3701,-4.5834 -1.0064,-30.5334 -1.4141,-57.6667 -3.2885,-218.8567 -15.7549,-743.2575 -20.6663,-869.3333 -2.6542,-68.1342 -3.0562,-76.059 -3.9893,-78.6448 -0.9517,-2.6375 -0.9565,-2.6375 -1.7541,0 -0.4399,1.4546 -14.3248,64.5529 -30.8554,140.2185 L 1224,1487.814 l 0.016,72.4264 c 0.039,179.7617 3.5223,430.8365 6.7209,484.4263 1.3286,22.2585 1.4328,22.7986 5.7849,30 9.4707,15.671 55.6084,108.2126 70.9618,142.3333 4.273,9.4963 6.0887,9.0353 5.2515,-1.3333 z M 271.33835,1458.3333 c -0.31788,-0.9166 -3.27272,-14.0337 -6.5663,-29.149 -3.2936,-15.1154 -16.1812,-70.9154 -28.63911,-124.0001 -28.27706,-120.492 -34.535,-147.8784 -42.02713,-183.9228 -6.86272,-33.0163 -11.70161,-64.1113 -10.21603,-65.6489 1.60947,-1.6658 52.65885,-18.9477 83.77663,-28.3611 125.01786,-37.81931 252.7949,-62.31683 375.00024,-71.89539 82.56252,-6.47133 194.95722,-5.11556 281.33333,3.39359 85.25782,8.39899 155.98662,23.14932 242.30892,50.533 34.7,11.0077 100.6378,34.4174 102.6013,36.4262 1.2298,1.2581 0.2738,13.6527 -4.2388,54.9579 -20.3002,185.8116 -37.5819,275.7894 -63.3208,329.6814 -6.4024,13.4051 -16.7002,29.6519 -18.7946,29.6519 -0.5817,0 -15.0447,-3.3359 -32.1401,-7.4129 -187.84967,-44.801 -273.40891,-61.2963 -357.08258,-68.8434 -28.89676,-2.6062 -109.09895,-2.1894 -139.33333,0.7244 -80.17984,7.7271 -163.72369,23.968 -343.46441,66.7694 -20.23875,4.8193 -37.20759,8.7625 -37.70851,8.7625 -0.50092,0 -1.17085,-0.75 -1.48872,-1.6667 z m 62.25992,-17.6242 c 195.13502,-45.7632 273.39573,-59.4498 362.73505,-63.4368 45.49644,-2.0304 96.86188,0.5424 148.99999,7.4632 65.61083,8.7092 150.76445,26.1512 293.33329,60.0833 l 42,9.9963 3.7119,-4.4075 c 5.0698,-6.02 15.6657,-27.0637 21.353,-42.4076 16.6285,-44.8621 30.3802,-113.7545 43.6484,-218.6667 7.0611,-55.8325 15.8226,-139.2816 14.7398,-140.3896 -1.4726,-1.5068 -47.2174,-17.8156 -84.7864,-30.2279 -130.7151,-43.18629 -231.21668,-59.09969 -392.66665,-62.17473 -155.93968,-2.97011 -307.68119,17.1091 -473.33332,62.63383 -43.98215,12.0873 -112.99357,33.8514 -121.66667,38.3699 -3.20298,1.6688 -3.01505,7.3028 1.00876,30.2423 6.47203,36.8968 19.3221,94.507 50.15979,224.8796 9.54025,40.3333 20.6251,88.0333 24.63301,106 8.473,37.9828 7.93975,36.1246 10.14797,35.3618 0.94443,-0.3262 26.13636,-6.3201 55.98208,-13.3194 z M 78.116665,1154.5262 c -1.447103,-6.6231 -10.275139,-75.0438 -13.400568,-103.8595 -4.017893,-37.0441 -6.79602,-69.83581 -9.385922,-110.78714 -1.094086,-17.29959 -2.871348,-43.39959 -3.949475,-58 C 46.007596,809.1148 45.370338,725.96455 49.956128,696 c 1.066183,-6.96667 3.194392,-20.46667 4.729355,-30 7.720042,-47.9476 4.550958,-93.60188 -16.68364,-240.34692 L 36.022257,411.97284 40.73152,390.98641 C 47.377566,361.36891 54.967521,319.46503 60.592737,281.33333 72.2064,202.60772 74.98664,185.12272 78.154173,170.88896 90.264149,116.47111 110.19036,88.144171 151.10709,67.179697 210.92442,36.531131 317.34405,22.6161 598.66665,8.6584881 c 23.1,-1.1460892 58.5,-3.0373218 78.66667,-4.2027392 42.05962,-2.4305954 49.48509,-2.5442128 86,-1.3158881 14.66666,0.4933717 53.36666,1.5033952 85.99999,2.2444964 C 1124.401,11.63113 1232.765,28.381193 1293.6286,74.060097 c 21.4429,16.093143 37.2458,36.415813 49.1867,63.254533 13.684,30.75665 20.4588,56.45516 38.494,146.0187 7.2359,35.93334 16.0484,77.93334 19.5835,93.33334 3.9182,17.0698 6.418,31.12292 6.4036,36 -0.028,9.67461 -1.9396,25.75873 -8.079,68 -10.6141,73.02949 -14.7977,124.38929 -12.5985,154.66666 0.6925,9.53334 2.8033,26.63334 4.6908,38 3.7295,22.45935 3.908,24.4239 6.0292,66.36891 1.5575,30.79397 0.2681,81.6808 -3.3677,132.91836 -1.0946,15.42533 -2.8828,41.84607 -3.974,58.71273 -4.348,67.20927 -9.339,119.43767 -16.686,174.61447 -2.1879,16.4308 -3.9779,30.3342 -3.9779,30.8965 0,0.5623 -0.5924,0.43 -1.3164,-0.294 -0.8664,-0.8664 -0.1892,-9.6185 1.9804,-25.5984 7.178,-52.8677 13.3201,-115.95797 16.6432,-170.9519 0.7755,-12.83333 2.2888,-35.33333 3.3629,-50 3.7438,-51.11665 4.766,-76.27315 4.768,-117.33333 0,-44.32592 -1.3272,-62.2522 -7.4694,-100.71686 -8.7514,-54.80282 -6.3307,-98.07658 12.2289,-218.61648 3.5163,-22.83722 5.7704,-41.57009 5.3749,-44.66666 -0.3746,-2.93334 -3.1594,-16.13334 -6.1884,-29.33334 -3.0288,-13.2 -11.4874,-53.61641 -18.7968,-89.81425 -18.6008,-92.11525 -23.8002,-112.92643 -35.5068,-142.11715 -9.4872,-23.65648 -19.1236,-39.15594 -34.2452,-55.080558 C 1293.4091,74.671816 1273.8403,61.912804 1248.0157,51.797135 1173.6955,22.685456 1063.191,11.907972 785.33332,6.6718093 724.94496,5.5338049 718.21802,5.6602756 640.66665,9.3916324 379.84314,21.941064 276.5649,31.604745 205.48678,50.111145 131.43062,69.392929 99.663242,97.9851 83.394591,160 79.086378,176.42259 74.809897,201.12973 68.026554,248.788 58.800757,313.60641 51.479799,355.26341 41.920632,397.33333 l -3.181093,14 L 44.669536,450 c 13.776471,89.82977 17.196773,122.39665 17.223921,164 0.01883,28.85148 -0.34283,34.16461 -3.675698,54 -7.627937,45.39725 -8.102339,51.66496 -8.073595,106.66667 0.02547,48.72697 0.560627,61.60562 5.180411,124.66666 C 56.399039,914 58.207427,940.4 59.343215,958 c 3.553306,55.0615 9.947566,116.2263 17.911455,171.3333 2.06659,14.3 3.262924,26.5368 2.658522,27.1929 -0.610888,0.6631 -1.40872,-0.2251 -1.796527,-2 z"
       style="fill:#080b25;stroke-width:1.33333337" />
  </g>
</svg>
