<?xml version="1.0" encoding="UTF-8" standalone="no"?>
<svg
   xmlns:dc="http://purl.org/dc/elements/1.1/"
   xmlns:cc="http://creativecommons.org/ns#"
   xmlns:rdf="http://www.w3.org/1999/02/22-rdf-syntax-ns#"
   xmlns:svg="http://www.w3.org/2000/svg"
   xmlns="http://www.w3.org/2000/svg"
   viewBox="0 0 1093 2391"
   height="2391"
   width="1093"
   id="svg2"
   version="1.1">
  <metadata
     id="metadata8">
    <rdf:RDF>
      <cc:Work
         rdf:about="">
        <dc:format>image/svg+xml</dc:format>
        <dc:type
           rdf:resource="http://purl.org/dc/dcmitype/StillImage" />
        <dc:title></dc:title>
      </cc:Work>
    </rdf:RDF>
  </metadata>
  <defs
     id="defs6" />
  <g
     style="display:inline"
     id="layer2">
    <g
       transform="translate(3.1639487,-6.327901)"
       id="g170"
       style="display:inline">
      <path
         id="path184"
         d="m 947.46347,2386.5764 c -2.18549,-2.1855 -0.82936,-7.7386 1.88984,-7.7386 0.38462,0 0.45039,1.8557 0.14618,4.1239 -0.51599,3.8468 -0.40964,4.0862 1.58396,3.5649 1.1754,-0.3074 1.88689,-0.154 1.5811,0.3408 -0.79167,1.2809 -3.79732,1.1127 -5.20108,-0.291 z m 7.63937,0.1984 c -0.41723,-4.1723 -0.12435,-6.3743 0.89291,-6.7134 1.03701,-0.3457 1.64285,2.9743 0.99878,5.4732 -0.10548,0.4093 1.12227,1.0262 2.72835,1.3709 2.77814,0.5962 2.73922,0.6324 -0.80035,0.7441 -2.04626,0.064 -3.76512,-0.3291 -3.81969,-0.8748 z m 8.53503,-3.2244 c 0.0331,-3.001 0.4614,-4.2165 1.48545,-4.2165 1.02405,0 1.45229,1.2155 1.48545,4.2165 0.0349,3.1603 -0.33716,4.2165 -1.48545,4.2165 -1.14829,0 -1.52037,-1.0562 -1.48545,-4.2165 z m 5.45396,-0.3109 c 0,-4.5102 0.0122,-4.5262 3.22441,-4.2166 4.22972,0.4079 5.02736,3.8616 1.28558,5.5665 -1.38916,0.6329 -2.52574,1.6068 -2.52574,2.1642 0,0.5574 -0.44646,1.0133 -0.99213,1.0133 -0.54567,0 -0.99212,-2.0373 -0.99212,-4.5274 z m 8.92914,2.6078 c 0,-3.239 1.85315,-7.0095 3.44504,-7.0095 0.83045,0 2.13777,1.451 2.90518,3.2244 l 1.39528,3.2244 0.72639,-3.2772 c 0.65306,-2.9463 1.0384,-3.2469 3.81624,-2.9764 2.82133,0.2747 3.13873,0.6672 3.65259,4.5174 0.63083,4.7265 0.66073,4.684 -2.09468,2.9764 -1.64915,-1.0221 -2.17023,-0.9785 -2.96292,0.248 -0.85499,1.3228 -1.07209,1.3228 -1.95399,0 -0.88189,-1.3228 -1.11075,-1.3228 -2.05978,0 -0.80392,1.1206 -1.19197,1.1818 -1.57086,0.248 -0.59752,-1.4726 -3.31424,-1.6759 -3.31424,-0.248 0,0.5457 -0.44646,0.9921 -0.99213,0.9921 -0.54567,0 -0.99212,-0.8638 -0.99212,-1.9196 z m 19.82894,-0.3127 c -0.01,-1.2277 -0.28266,-3.2368 -0.61175,-4.4645 -0.48964,-1.8272 -0.19614,-2.2323 1.61746,-2.2323 1.81358,0 2.10708,0.4051 1.61748,2.2323 -0.3291,1.2277 -0.60432,3.2368 -0.61176,4.4645 -0.01,1.2278 -0.46005,2.2323 -1.00572,2.2323 -0.54567,0 -0.99817,-1.0045 -1.00571,-2.2323 z m 5.81749,-0.744 c -0.081,-1.6371 -0.1934,-3.5345 -0.248,-4.2166 -0.058,-0.7324 1.0903,-1.2401 2.8058,-1.2401 2.3862,0 3.0497,0.5315 3.7157,2.9763 1.1276,4.1399 0.3754,5.4567 -3.1171,5.4567 -2.6472,0 -3.0254,-0.3565 -3.1564,-2.9763 z m 8.689,1.4093 c -0.7453,-1.9422 0.2895,-6.37 1.4887,-6.37 0.7781,0 1.2217,3.6526 0.6928,5.7047 -0.1055,0.4093 1.1223,1.0262 2.7283,1.3709 2.8283,0.607 2.8064,0.6304 -0.6942,0.7441 -2.4573,0.079 -3.8068,-0.3843 -4.2156,-1.4497 z m 8.6563,-2.0678 c 0.6899,-4.2516 1.9239,-5.7837 4.0128,-4.9821 1.6421,0.6301 3.2962,7.2934 2.089,8.4151 -0.4131,0.3839 -0.9503,0.1398 -1.1939,-0.5423 -0.5255,-1.4713 -3.2539,-1.6792 -3.2539,-0.248 0,0.5457 -0.5049,0.9921 -1.1219,0.9921 -0.7378,0 -0.92,-1.2449 -0.5321,-3.6348 z m 9.7894,2.4443 c -2.1855,-2.1855 -0.8293,-7.7386 1.8898,-7.7386 0.3847,0 0.4504,1.8557 0.1462,4.1239 -0.516,3.8468 -0.4096,4.0862 1.584,3.5649 1.1753,-0.3074 1.8869,-0.154 1.5811,0.3408 -0.7917,1.2809 -3.7973,1.1127 -5.2011,-0.291 z m 7.658,0.4464 c -0.721,-6.656 -0.3707,-7.3669 3.8522,-7.8171 2.059,-0.2195 2.2874,0.066 1.7541,2.1905 -0.3372,1.3436 -0.1401,3.3267 0.438,4.4068 0.823,1.538 0.7386,1.9639 -0.3894,1.9639 -0.7923,0 -1.7008,-0.558 -2.0192,-1.2401 -0.4629,-0.9922 -0.6945,-0.9922 -1.1574,0 -0.6304,1.3507 -2.3485,1.6946 -2.4783,0.496 z m 9.0097,-0.248 c 0,-0.5457 0.4465,-0.9921 0.9922,-0.9921 0.5456,0 0.9921,0.4464 0.9921,0.9921 0,0.5457 -0.4465,0.9921 -0.9921,0.9921 -0.5457,0 -0.9922,-0.4464 -0.9922,-0.9921 z m 5.1591,-0.1984 c -2.1855,-2.1855 -0.8293,-7.7386 1.8898,-7.7386 0.3846,0 0.4504,1.8557 0.1462,4.1239 -0.516,3.8468 -0.4096,4.0862 1.584,3.5649 1.1753,-0.3074 1.8869,-0.154 1.5811,0.3408 -0.7917,1.2809 -3.7974,1.1127 -5.2011,-0.291 z m 8.9291,0 c -1.8119,-1.8119 -1.4215,-5.5609 0.6971,-6.6948 1.7416,-0.932 1.8465,-0.7045 1.3575,2.9416 -0.4445,3.3138 -0.2476,3.9516 1.2194,3.9516 1.4671,0 1.6639,-0.6378 1.2195,-3.9516 -0.494,-3.6833 -0.3981,-3.8811 1.4135,-2.9115 2.8315,1.5152 3.3105,3.6888 1.3021,5.9079 -1.9811,2.1891 -5.4161,2.5498 -7.2091,0.7568 z m 9.9176,-2.182 c -0.1904,-5.0637 0.5715,-6.0685 2.9615,-3.9057 1.8571,1.6808 2.0208,1.6843 2.9272,0.064 1.6751,-2.9933 2.8457,-1.8624 2.8457,2.749 0,2.4555 -0.4464,4.4645 -0.9921,4.4645 -0.5457,0 -0.9921,-0.4464 -0.9921,-0.9921 0,-1.4382 -5.711,-1.2213 -6.1966,0.2353 -0.225,0.6751 -0.4741,-0.502 -0.5536,-2.6157 z m -655.49437,-3.5846 c -101.00371,-4.2546 -177.09252,-15.4991 -236.08439,-34.8889 -8.20801,-2.6979 -26.56159,-9.5403 -40.78574,-15.2053 -14.22415,-5.6651 -28.90087,-11.0634 -32.61493,-11.9963 -6.4572,-1.622 -6.835474,-1.8831 -8.6404,-5.9634 -8.385611,-18.9571 -17.65832,-78.6848 -24.549217,-158.1272 l -1.849243,-21.3192 -2.848388,-1.9958 c -1.566613,-1.0977 -4.724139,-3.8784 -7.016724,-6.1795 -7.588988,-7.6168 -7.244454,-2.324 -7.21481,-110.835 l 0.02631,-96.3042 2.205976,-6.3128 2.205975,-6.3128 -1.148692,-33.8684 c -1.551177,-45.7352 -3.09507,-104.9916 -4.462556,-171.2778 -1.500874,-72.752 -1.507947,-296.798 -0.01115,-353.1971 3.156177,-118.9243 7.103423,-179.4125 13.634238,-208.9332 3.984805,-18.0121 7.673913,-58.0359 8.907758,-96.6418 0.883598,-27.647 -2.325539,-85.33622 -4.892069,-87.94248 -0.767954,-0.77984 -2.809639,-0.87942 -6.570834,-0.32047 -7.976097,1.18535 -23.552123,1.11914 -30.325681,-0.12888 C 22.247613,950.90374 12.492343,944.55182 8.5685743,936.53489 5.0827452,929.41275 5.4275014,918.3684 9.4332616,908.8344 12.934363,900.50152 19.516955,890.33384 26.275948,882.81866 l 4.810641,-5.34885 14.119543,-1.18963 c 7.76575,-0.6543 14.358547,-1.42863 14.650662,-1.72074 0.292114,-0.29212 -0.824352,-10.29706 -2.481037,-22.23319 C 50.723493,804.39778 46.9556,766.84157 43.453107,713.55323 42.341281,696.63747 40.720685,673.64493 39.851781,662.4587 38.848914,649.54785 38.133743,625.49796 37.893504,596.60549 l -0.378451,-45.5146 -2.991444,-5.98641 -2.991443,-5.9864 0.0066,-101.28649 c 0.0045,-70.08915 -0.337768,-103.57838 -1.111341,-108.72744 -1.070543,-7.12575 -0.946927,-8.21844 2.918236,-25.79529 6.963392,-31.66607 10.341733,-51.32265 18.074601,-105.16542 5.831689,-40.60516 9.700037,-60.80937 14.37536,-75.08187 C 88.120365,54.910035 143.37439,37.342913 378.77648,23.554369 491.76356,16.936214 525.7469,16.085823 620.87487,17.496152 c 71.33115,1.057528 91.03139,1.655732 132.92548,4.036323 67.04781,3.809927 113.14651,9.516197 148.32293,18.359969 62.77625,15.782697 93.05364,41.927669 111.47762,96.262606 6.0665,17.89058 10.8948,38.44641 22.3678,95.22463 5.7335,28.37482 12.4347,60.38617 14.8915,71.13634 l 4.4668,19.54576 -1.431,8.72985 c -1.1743,7.16449 -1.434,25.65235 -1.4482,103.10518 -0.019,101.40204 0.1253,98.37122 -5.0167,105.59256 -1.9936,2.79977 -2.0285,3.4153 -1.013,17.87165 1.8712,26.63873 1.022,65.49996 -2.4595,112.53863 -0.8077,10.9134 -2.1382,30.5575 -2.9568,43.65358 -2.7523,44.03585 -7.5174,93.14353 -12.416,127.95722 -1.0729,7.62446 -1.9506,14.84392 -1.9506,16.04323 0,2.71034 0.7507,2.86645 21.2753,4.42417 l 15.8186,1.20056 3.3557,3.56541 c 4.8931,5.19908 12.8679,16.59568 16.2047,23.15775 1.5948,3.13641 3.5822,8.94035 4.4166,12.89765 2.4785,11.75548 0.1466,19.97779 -7.6548,26.99196 -10.9784,9.87046 -30.6093,12.64445 -57.0023,8.05484 -4.0597,-0.70595 -7.6018,-0.92649 -7.8716,-0.49009 -0.917,1.48381 -4.2854,34.07916 -5.477,53.00063 -2.7006,42.88294 1.4395,120.06334 7.9032,147.33084 4.5654,19.2595 8.2999,61.9215 10.9861,125.504 2.9946,70.8818 3.4928,107.8439 3.477,257.9529 -0.016,152.7247 -0.5711,195.6944 -3.9837,308.3908 -1.3069,43.1599 -1.3036,48.9354 0.031,52.8653 1.2967,3.8192 1.495,17.6362 1.4761,102.8458 -0.025,112.4834 0.7937,102.5746 -9.2799,112.3315 l -5.2682,5.1025 -0.7009,11.8307 c -1.5995,27.0021 -7.1463,84.9148 -11.063,115.5079 -4.91129,38.3606 -12.61047,75.9411 -17.17539,83.8347 -4.26834,7.3807 -40.02666,21.6727 -79.0184,31.5822 -68.60159,17.4347 -162.883,29.0376 -279.77971,34.4317 -29.17468,1.3462 -185.21605,2.0421 -211.32297,0.9424 z"
         style="fill:#a1a4a4;stroke-width:0.99212664" />
      <path
         id="path182"
         d="m 427.74926,2379.7567 c -92.09498,-2.8892 -166.73139,-12.2702 -224.72739,-28.2459 -18.47573,-5.0895 -41.10786,-12.9791 -66.46753,-23.1712 -12.35636,-4.966 -25.48653,-9.8104 -29.17815,-10.7654 -6.31478,-1.6337 -6.81874,-1.9766 -8.514431,-5.795 -8.138284,-18.326 -17.93465,-82.1342 -24.331985,-158.4854 l -1.731892,-20.6699 -5.502927,-4.1393 c -3.809584,-2.8656 -6.342485,-5.7951 -8.231275,-9.5199 l -2.728348,-5.3805 v -98.5281 c 0,-96.2526 0.04599,-98.6485 1.991498,-103.7474 1.910658,-5.0074 1.951412,-6.2865 1.00398,-31.5106 -4.333252,-115.367 -5.436781,-187.6989 -5.456654,-357.6617 -0.01855,-158.7037 0.440148,-193.2373 3.485658,-262.4175 2.755837,-62.6001 7.033871,-109.3159 11.419948,-124.7051 1.569067,-5.5052 4.48559,-30.408 6.600464,-56.358 1.938183,-23.7819 1.62531,-84.75025 -0.549419,-107.06289 -1.831157,-18.78759 -2.670633,-22.01986 -5.425886,-20.8915 -3.384267,1.38596 -28.755796,1.75332 -35.102786,0.50827 C 14.170133,947.2605 4.0694052,933.28316 8.8195833,915.94706 11.489535,906.20289 22.512916,888.46414 29.96347,881.92246 c 2.999829,-2.63388 4.15628,-2.94813 13.094917,-3.55831 5.392476,-0.36812 11.701944,-0.93077 14.02104,-1.25034 4.000618,-0.5513 4.216538,-0.75031 4.216538,-3.88643 0,-1.81796 -0.906993,-9.46864 -2.01554,-17.00153 C 53.061134,813.96402 48.119373,765.31694 44.922806,714.88831 44.104629,701.98087 42.790884,682.78322 42.003374,672.22687 39.321461,636.27662 38.197723,603.62323 38.737707,577.33365 l 0.535957,-26.09351 -3.126654,-6.06257 -3.126654,-6.06258 -0.18464,-101.781 c -0.123656,-68.16424 -0.544631,-104.07956 -1.274578,-108.7403 -0.97715,-6.23913 -0.837166,-8.03579 1.35276,-17.36221 6.508881,-27.71996 12.666878,-62.52482 18.955365,-107.13528 5.217573,-37.01342 9.157182,-59.1981 13.007051,-73.24515 C 75.697889,91.366277 96.186982,70.242094 137.638,55.834013 183.62885,39.847917 258.67506,31.023582 420.4458,22.579963 c 21.00828,-1.096526 52.70673,-2.782524 70.44099,-3.746662 55.02473,-2.991464 171.83281,-1.123895 265.88994,4.251142 173.7357,9.92839 228.7003,34.158401 255.32557,112.555017 5.9891,17.6345 11.0866,39.17386 21.4841,90.77959 5.4971,27.28348 12.0952,58.7587 14.6624,69.94492 3.3603,14.64102 4.5947,22.00619 4.4068,26.29136 -0.1437,3.27402 -0.588,51.06885 -0.9873,106.21074 l -0.726,100.25797 -3.321,6.54133 -3.3208,6.54133 1.1242,22.67321 c 1.2162,24.53077 0.3244,61.05038 -2.4434,100.05911 -0.813,11.45906 -2.1425,31.10317 -2.9545,43.65357 -1.9957,30.84718 -4.176,57.72104 -6.5199,80.36226 -1.8872,18.23017 -7.39,62.90317 -8.3712,67.96068 -0.2647,1.36417 -0.125,3.03159 0.3103,3.70536 0.5098,0.78904 6.9535,1.76573 18.1045,2.74416 9.5222,0.83552 18.0335,1.74603 18.9141,2.02336 3.0361,0.95612 14.9651,16.71002 19.5023,25.75549 1.0948,2.18267 2.562,5.97756 3.2605,8.43307 0.6984,2.45552 1.6411,4.88871 2.0948,5.40709 1.8657,2.13178 0.7827,9.38611 -2.3007,15.41042 -3.9057,7.6312 -9.6562,12.19324 -19.1241,15.17162 -5.9804,1.88132 -9.0718,2.18822 -20.9079,2.07567 -7.6394,-0.0726 -17.3619,-0.77352 -21.6056,-1.55748 -6.5148,-1.20354 -7.8908,-1.21459 -8.84,-0.0709 -1.2191,1.46901 -3.9224,23.66805 -5.772,47.39834 -3.2325,41.47607 0.5205,123.45597 6.9267,151.29927 15.6964,68.2225 20.4857,379.1979 10.8301,703.2129 -1.0599,35.567 -1.0156,39.611 0.5048,46.1339 1.5112,6.4832 1.6397,16.1226 1.3782,103.3861 -0.3279,109.4474 0.4566,100.0864 -9.1453,109.1168 l -5.2927,4.9777 -1.6644,22.3229 c -6.4444,86.4309 -15.42325,152.9608 -24.44843,181.154 -1.58812,4.9609 -3.69328,9.7492 -4.67814,10.6404 -3.8053,3.4438 -25.73523,12.8808 -44.04541,18.9539 -64.56686,21.4154 -163.79276,36.0956 -289.0142,42.7587 -54.08296,2.8778 -167.83092,4.0995 -222.37386,2.3884 z"
         style="fill:#206363;stroke-width:0.99212664" />
      <path
         id="path180"
         d="m 459.13874,2380.1423 c -60.52311,-0.8148 -123.44851,-5.1719 -170.64578,-11.8159 -57.06411,-8.0329 -97.25899,-18.6062 -149.06111,-39.2108 -13.70051,-5.4494 -27.84509,-10.7114 -31.43239,-11.6933 -8.172118,-2.2369 -8.895034,-3.3696 -13.433732,-21.049 -5.902448,-22.9915 -11.087889,-56.6799 -15.886926,-103.213 -2.479712,-24.0442 -5.441926,-56.3455 -5.465137,-59.5946 -0.0067,-0.9376 -2.361845,-3.4407 -5.233657,-5.5622 -3.323438,-2.4551 -6.298751,-5.8025 -8.185045,-9.2084 l -2.963568,-5.3512 v -98.2205 c 0,-93.5366 0.08886,-98.4757 1.863424,-103.5721 1.769643,-5.0823 1.80704,-6.9797 0.743075,-37.7008 -6.615918,-191.0296 -7.915276,-435.4773 -3.077727,-579.0111 2.854481,-84.6945 6.777693,-133.6902 12.829909,-160.2284 2.16453,-9.4912 5.308379,-39.0341 7.060782,-66.3506 2.311894,-36.0378 -0.548447,-114.12499 -4.318507,-117.89505 -0.948261,-0.94826 -2.792125,-0.98169 -8.148801,-0.14773 -8.958557,1.39472 -28.314208,0.54801 -34.887375,-1.52615 -12.033179,-3.79704 -20.1829213,-13.25713 -20.1829213,-23.428 0,-10.24718 6.6275453,-24.57105 17.5407953,-37.9103 3.037376,-3.71257 6.472043,-6.94265 7.632594,-7.17794 1.160551,-0.2353 7.637639,-0.85629 14.393528,-1.38 13.316553,-1.03228 14.397352,-1.55887 13.549641,-6.60174 -1.234737,-7.34522 -7.578681,-56.27248 -9.390824,-72.42612 -2.53684,-22.61368 -5.565689,-58.65314 -7.504207,-89.29052 -0.828627,-13.09608 -2.158943,-32.51695 -2.956258,-43.15751 -2.432692,-32.46547 -3.842129,-81.12737 -2.873582,-99.21267 l 0.876689,-16.37009 -2.984574,-5.95276 -2.984573,-5.95276 -0.650797,-104.66936 c -0.357937,-57.56814 -0.956134,-106.96932 -1.329325,-109.78037 -0.537777,-4.05079 0.154062,-8.9901 3.335158,-23.81104 7.166916,-33.39112 10.246328,-51.37571 18.066146,-105.51111 7.783766,-53.88582 11.898772,-71.58301 20.795999,-89.43623 C 97.279118,60.4718 147.61386,43.173287 294.44572,31.041425 340.57126,27.23034 402.19201,23.5549 477.98915,20.093769 c 18.27993,-0.834718 40.03184,-2.012517 48.33758,-2.61733 15.10084,-1.099624 22.26502,-0.988779 137.1901,2.122605 166.05562,4.49565 246.95084,16.084058 290.71914,41.646128 22.99024,13.427022 37.28905,29.12487 49.14563,53.954218 10.5762,22.14789 15.7277,41.43513 30.2114,113.11114 5.5029,27.23247 11.7869,57.36832 13.9646,66.96855 2.1777,9.60025 4.431,19.60307 5.0074,22.2285 0.7837,3.5689 0.7223,6.32296 -0.2431,10.91339 -0.987,4.69313 -1.4186,29.16692 -1.8315,103.86435 l -0.5403,97.72448 -3.2302,6.18405 -3.2303,6.18406 0.9896,11.17816 c 2.2045,24.90495 1.1978,68.29385 -2.9642,127.75304 -1.0886,15.55159 -2.6575,38.32089 -3.4865,50.59846 -2.526,37.40812 -6.0521,71.88287 -11.5463,112.88618 -1.4523,10.83816 -1.836,16.48241 -1.1661,17.15235 0.5492,0.54919 8.9953,1.68797 18.7691,2.53064 15.6067,1.34556 18.0572,1.79393 20.1256,3.68231 4.6926,4.28424 12.2827,15.24075 16.6502,24.03502 7.2317,14.56131 7.004,25.25468 -0.716,33.62981 -9.7842,10.6147 -29.8358,13.82991 -56.7978,9.10737 -7.5534,-1.32301 -7.7863,-1.30392 -9.0604,0.74234 -2.4868,3.99364 -6.2115,44.55658 -7.1169,77.50191 -1.0939,39.8109 3.1615,99.2343 9.023,126.0001 4.2013,19.184 7.2895,52.5615 9.9139,107.1496 6.5662,136.5787 6.614,383.6953 0.1143,590.7528 -1.0792,34.3778 -1.0716,41.9371 0.046,46.1339 1.0767,4.0432 1.339,23.7472 1.3484,101.3269 0.014,110.0251 0.6058,102.3077 -8.5207,111.0259 l -5.2148,4.9816 -2.0802,26.2913 c -7.1807,90.759 -15.32468,150.1411 -24.55257,179.0266 -3.27223,10.2428 -3.40834,10.3575 -22.21648,18.7184 -60.69403,26.9802 -181.05011,46.2939 -332.10388,53.2928 -22.16846,1.0272 -134.95807,3.0696 -148.98496,2.6978 -4.09252,-0.1084 -15.25395,-0.3024 -24.80317,-0.4309 z m 101.69298,-6.2568 c 65.66595,-1.1139 96.67472,-2.4907 146.83474,-6.5198 114.10084,-9.165 204.54842,-26.4012 254.48432,-48.496 16.38692,-7.2507 16.99881,-7.7914 20.08709,-17.7529 24.83013,-80.0917 42.71603,-407.3811 42.76013,-782.4528 0.025,-214.6006 -4.6928,-336.4983 -14.7455,-380.9766 -2.4027,-10.6304 -5.5713,-39.0186 -7.4008,-66.3035 -2.3726,-35.3858 -0.8198,-90.68397 3.4715,-123.62998 0.7776,-5.97004 1.2832,-10.98528 1.1234,-11.145 -0.1597,-0.15971 -4.6439,-1.58471 -9.96487,-3.16666 l -9.67453,-2.87627 0.54754,3.60393 c 1.7867,11.76007 6.5669,162.63288 9.48157,299.25768 0.53545,25.1008 1.22369,57.2457 1.52927,71.4331 6.08832,282.6675 6.28892,612.5451 0.46739,768.8982 -4.55638,122.3772 -12.30504,188.804 -23.06557,197.7345 -0.76922,0.6384 -6.71741,3.7752 -13.21819,6.9707 -74.76263,36.75 -191.35397,59.6715 -350.13478,68.8357 -29.74195,1.7165 -153.42052,1.713 -182.05523,-0.01 -126.94448,-7.6175 -214.54519,-21.9468 -290.69311,-47.5504 -9.00354,-3.0273 -17.15193,-6.1834 -18.10752,-7.0137 -13.0972,-11.3746 -21.96345,-90.9048 -26.513041,-237.8174 -3.272161,-105.6626 -3.779156,-358.8155 -1.04017,-519.3783 4.133446,-242.3078 13.423661,-563.72508 16.775661,-580.39404 0.63621,-3.16379 1.00299,-3.47244 4.12632,-3.47244 h 3.42803 l -0.1816,8.43308 c -0.0999,4.63819 -0.87299,24.72875 -1.71802,44.6457 -6.25511,147.4284 -12.7621,412.5047 -13.88198,565.5122 l -0.46111,63 1.32189,-50.5984 c 0.72704,-27.8292 1.82751,-60.867 2.44549,-73.4174 0.61799,-12.5504 2.01225,-58.9819 3.09835,-103.1812 7.31622,-297.7365 15.26595,-518.45085 19.34136,-536.98852 0.46907,-2.13368 2.80452,-3.05528 3.77127,-1.48819 0.36565,0.59271 24.78234,94.12436 50.02782,191.63881 4.67857,18.0717 5.24926,16.1542 0.85918,-2.8867 -8.12282,-35.2307 -36.75988,-164.68326 -41.70024,-188.50408 -5.45684,-26.31117 -10.80935,-56.04565 -12.00041,-66.66525 -0.77525,-6.91207 0.15271,-8.8288 5.42545,-11.20648 l 4.06643,-1.83371 -3.40499,-3.55282 c -7.22006,-7.53353 -12.59059,-20.61937 -19.98465,-48.69458 -6.90754,-26.22785 -11.34089,-54.75766 -15.87957,-102.18905 -6.380289,-66.67714 -9.408077,-138.7135 -9.403456,-223.72456 0.0072,-133.22211 8.460405,-233.18848 21.962796,-259.73008 1.05243,-2.06878 3.73471,-5.52882 5.96061,-7.68898 3.39068,-3.29054 3.71901,-3.92757 2.02435,-3.92757 -5.54608,0 -8.13779,-4.03458 -8.13779,-12.66831 0,-15.87104 11.51934,-36.285826 29.11304,-51.594659 8.95602,-7.792908 13.97436,-9.748484 33.60363,-13.094849 42.91956,-7.316853 79.26789,-10.946467 116.61022,-11.644277 l 30.01183,-0.560826 v 4.53927 c 0,4.009921 -0.69572,5.462552 -5.96589,12.456603 -3.28124,4.354534 -9.13953,10.855637 -13.01843,14.446897 -3.87888,3.59126 -6.44011,6.523575 -5.69159,6.516255 0.74851,-0.0073 10.73653,-1.120108 22.19559,-2.472863 11.45906,-1.352756 21.33789,-2.46291 21.95294,-2.467009 0.73291,-0.0049 0.95,-1.500604 0.62994,-4.34019 -0.48078,-4.265401 -0.43648,-4.342093 2.85021,-4.934733 15.4944,-2.793872 60.70588,-7.378541 94.61423,-9.594354 59.28654,-3.874204 212.01886,-4.090286 272.58679,-0.385648 l 10.66536,0.652346 -0.0152,3.096771 c -0.0283,5.752863 0.13229,5.71554 -19.8993,4.626923 -63.27612,-3.43874 -161.14656,-4.409235 -212.73921,-2.109548 -39.88748,1.777942 -99.24656,6.425774 -115.58275,9.050161 -6.63197,1.065417 3.88204,0.593714 34.72443,-1.557887 43.67371,-3.046727 120.1202,-4.638925 197.4332,-4.112061 40.65239,0.277033 82.84257,0.984964 93.75596,1.573178 34.01394,1.833298 69.26397,4.0781 73.67719,4.691929 l 4.22832,0.588114 -6.76981,-6.811272 C 758.94973,59.519216 749.83184,45.47963 749.83184,38.591396 v -4.400952 l 28.52364,0.520473 c 32.05992,0.585 67.17796,3.736208 103.92527,9.325412 2.18267,0.331982 3.74525,0.355429 3.47239,0.05211 -0.83802,-0.931572 -35.22077,-6.426322 -53.57479,-8.561853 C 784.20396,29.944655 722.86596,26.634056 628.79239,24.549223 603.96442,23.998992 574.94472,23.356157 564.30416,23.120699 527.67027,22.310054 348.95057,31.849069 276.58744,38.477339 174.94437,47.787574 123.81951,61.228867 98.234368,85.368344 86.381284,96.551681 79.309356,108.14361 73.315367,126.21425 c -5.289201,15.94585 -7.926225,29.70585 -14.975062,78.1399 -6.657433,45.74463 -11.273582,72.72807 -16.589066,96.97046 -1.974154,9.00355 -3.776961,17.70946 -4.006235,19.34647 -0.229275,1.63701 1.392397,14.58426 3.603714,28.77167 4.13608,26.53634 8.94251,62.97493 11.189076,84.82683 0.701246,6.82087 1.26755,24.23269 1.258454,38.69294 -0.016,25.44396 -0.134053,27.02683 -3.66259,49.11026 -6.862045,42.94628 -7.355077,75.80918 -2.188035,145.84262 0.805186,10.91339 2.134679,30.5575 2.954428,43.65357 1.963102,31.36196 4.917545,65.45116 7.953673,91.77172 2.441784,21.16813 7.992928,63.12152 8.866857,67.01227 0.431167,1.91957 0.921324,1.99153 9.169002,1.34628 36.554657,-2.8598 43.168817,-3.12401 44.033487,-1.75903 1.09215,1.72409 1.14328,67.3907 0.0538,69.10771 -0.77043,1.21419 -14.2516,5.91996 -33.219245,11.59558 l -8.758806,2.62087 0.56206,3.66419 c 3.515681,22.91952 4.194456,93.63904 1.230249,128.17614 -2.867434,33.4094 -4.446832,46.7135 -6.490576,54.6739 -5.735684,22.3401 -9.765319,79.4068 -13.233182,187.405 -1.697142,52.8533 -1.67565,329.7744 0.0311,400.8191 7.579767,315.5116 21.768955,512.1417 41.40549,573.7866 l 2.65144,8.3237 6.09785,1.6865 c 3.3538,0.9275 18.3754,6.5148 33.38132,12.4162 34.8187,13.6931 48.85444,18.3025 76.88981,25.2509 54.81228,13.585 126.52368,21.8206 211.9651,24.3428 37.00873,1.0925 66.38503,1.1101 127.34221,0.076 z M 342.49491,67.757255 c -1.00862,-4.018644 -0.11039,-5.972376 3.05745,-6.650299 2.93703,-0.628527 2.93981,-0.635436 0.30277,-0.75174 -3.17565,-0.14006 -3.60239,-1.323767 -3.66421,-10.164069 l -0.046,-6.574242 13.60317,-2.107355 c 38.45109,-5.956702 86.14314,-9.916255 146.05213,-12.125731 35.31451,-1.302419 138.69842,-0.662933 166.67727,1.030991 20.96347,1.269191 52.84629,3.863398 57.29531,4.661943 l 3.22441,0.578743 v 8.259802 8.259802 l -3.22441,0.400146 -3.22441,0.400146 3.22441,0.158777 c 3.15197,0.15521 3.22441,0.262264 3.22441,4.764682 v 4.605905 L 722.79639,61.84851 C 707.22349,60.200388 682.2826,58.221957 665.50108,57.303568 632.79497,55.513687 561.40334,54.049587 539.00493,54.709383 463.69197,56.9279 394.4193,62.25185 356.9497,68.701233 c -12.00088,2.065628 -13.72774,1.952856 -14.45479,-0.943978 z m 11.72644,-8.176489 c -0.68209,-0.275228 -1.79823,-0.275228 -2.48032,0 -0.68208,0.275229 -0.12401,0.500415 1.24016,0.500415 1.36418,0 1.92225,-0.225186 1.24016,-0.500415 z m 5.95276,-0.992126 c -0.68209,-0.275228 -1.79823,-0.275228 -2.48032,0 -0.68208,0.275228 -0.12401,0.500414 1.24016,0.500414 1.36418,0 1.92225,-0.225186 1.24016,-0.500414 z m 6.94489,-0.992127 c -0.68209,-0.275228 -1.79823,-0.275228 -2.48032,0 -0.68209,0.275229 -0.12402,0.500415 1.24016,0.500415 1.36417,0 1.92224,-0.225186 1.24016,-0.500415 z m 7.95589,-0.985833 c -0.6717,-0.271766 -2.01107,-0.288309 -2.97638,-0.03676 -0.96531,0.251548 -0.41573,0.473902 1.22128,0.494121 1.63701,0.02022 2.4268,-0.185592 1.7551,-0.457359 z m 7.42207,-1.025252 c -0.95492,-0.249547 -2.51752,-0.249547 -3.47244,0 -0.95493,0.249547 -0.17363,0.453722 1.73622,0.453722 1.90984,0 2.69114,-0.204175 1.73622,-0.453722 z m 8.94071,-0.989899 c -0.94857,-0.248322 -2.73439,-0.257332 -3.96851,-0.02002 -1.23412,0.23731 -0.45802,0.440483 1.72465,0.451495 2.18268,0.01101 3.19242,-0.183151 2.24386,-0.431475 z m 9.41363,-1.010632 c -1.22775,-0.236477 -3.23681,-0.236477 -4.46457,0 -1.22775,0.236476 -0.22323,0.429956 2.23229,0.429956 2.45551,0 3.46004,-0.19348 2.23228,-0.429956 z m 9.93491,-0.990339 c -1.22026,-0.235493 -3.45254,-0.241588 -4.96063,-0.01354 -1.5081,0.228044 -0.50971,0.42072 2.21864,0.428169 2.72835,0.0074 3.96225,-0.179133 2.74199,-0.414626 z m 11.41358,-1.002639 c -1.49082,-0.226377 -4.16956,-0.230934 -5.95276,-0.01012 -1.7832,0.220808 -0.56344,0.406027 2.71058,0.411595 3.27402,0.0056 4.733,-0.175093 3.24218,-0.401471 z m 297.12416,0.0087 c -1.22776,-0.236476 -3.23681,-0.236476 -4.46457,0 -1.22776,0.236477 -0.22323,0.429957 2.23228,0.429957 2.45552,0 3.46004,-0.19348 2.23229,-0.429957 z M 452.68992,49.849754 c 71.32734,-4.707607 175.57779,-4.470543 242.85713,0.552252 8.61307,0.643017 15.87507,0.954182 16.13777,0.691479 0.47208,-0.472085 -16.83451,-1.864768 -47.67193,-3.836217 -25.93677,-1.65815 -124.40274,-2.284142 -158.74026,-1.009183 -29.16136,1.082767 -75.66176,3.724049 -78.87407,4.480149 -3.33346,0.784616 5.63163,0.485063 26.29136,-0.87848 z M 564.30416,2340.1462 c 171.49014,-4.6845 312.80426,-29.9924 394.10046,-70.5794 12.94718,-6.4639 14.02075,-7.6833 17.04703,-19.362 10.80097,-41.6823 16.96943,-154.0673 19.43193,-354.0366 1.4412,-117.0334 1.32372,-180.071 -0.33557,-180.071 -1.4765,0 -26.31062,-43.051 -28.02935,-48.59 -1.82526,-5.8824 -37.34463,-66.041 -50.09847,-84.851 -6.69905,-9.8801 -6.73126,-9.9604 -7.76247,-19.3465 -1.88984,-17.2014 -3.37488,-60.4323 -4.58384,-133.441 -0.63557,-38.3816 -2.38328,-243.8569 -2.45988,-289.205 -0.0582,-34.4664 0.42017,-32.3794 -5.54756,-24.2007 l -2.08833,2.862 -56.9432,-14.1117 c -172.60039,-42.7741 -237.89373,-53.2209 -312.41581,-49.9859 -68.51083,2.9739 -135.48052,15.849 -304.08681,58.4616 l -22.81891,5.7671 -0.61753,134.3716 c -0.81574,177.499 -1.98744,250.6074 -4.8726,304.0253 -1.51918,28.1273 -1.83951,29.6933 -7.73057,37.7946 -9.12827,12.5531 -45.26956,73.4336 -46.83625,78.8964 -0.45903,1.6005 -7.67101,14.9457 -16.02665,29.6559 -12.78784,22.5134 -15.54532,26.7486 -17.42434,26.7626 l -2.23228,0.017 0.0116,95.9882 c 0.0239,198.0178 4.85683,334.5152 14.41133,407.02 3.08382,23.4016 8.24659,44.4137 12.11916,49.3242 1.98181,2.5128 18.5695,8.6498 42.08876,15.5716 74.32706,21.8746 172.15759,35.9395 280.10169,40.2698 49.32707,1.9789 70.68345,2.1656 113.5985,0.9933 z m -41.17325,-123.0045 c -4.91103,-0.4618 -22.32285,-2.0044 -38.69294,-3.4279 -72.74466,-6.3256 -124.0219,-13.0517 -182.43383,-23.93 -63.12868,-11.7567 -112.46605,-27.3368 -131.82228,-41.6278 -4.63828,-3.4245 -4.7126,-3.5663 -4.7126,-8.9871 0,-18.8238 26.82042,-269.8991 29.63496,-277.4231 0.47038,-1.2575 1.1723,-4.965 1.55984,-8.2391 8.98165,-75.8792 31.8114,-222.0723 36.30977,-232.514 0.79163,-1.8375 1.48215,-2.1912 3.21256,-1.6453 20.12873,6.3496 60.12318,10.1914 141.59797,13.6017 38.1586,1.5973 174.47286,1.5864 214.79541,-0.017 102.41233,-4.0726 190.58433,-11.0711 257.74398,-20.458 6.60298,-0.9228 10.48897,-1.0757 11.25176,-0.4427 4.6021,3.8194 21.80016,113.6936 34.06995,217.6644 2.18944,18.5528 4.43699,36.6343 4.99457,40.1811 6.51341,41.4328 22.81397,217.1765 22.81397,245.9673 v 6.818 l -6.86118,6.9296 c -31.02841,31.3376 -112.20949,57.1734 -237.69803,75.647 -7.63938,1.1246 -19.24726,2.4516 -25.79529,2.9488 -6.54804,0.4972 -19.71852,1.814 -29.26774,2.9262 -46.77042,5.4473 -83.49761,7.6457 -100.70085,6.0277 z M 102.7105,1650.3201 c -0.1834,-4.475 -0.33253,-0.5466 -0.33138,8.7298 0.001,9.2764 0.15119,12.9377 0.33345,8.1363 0.18226,-4.8013 0.18133,-12.3911 -0.002,-16.8661 z m 891.8951,-109.5813 c -0.22731,-1.5006 -0.41331,-0.2728 -0.41331,2.7284 0,3.0011 0.186,4.2289 0.41331,2.7283 0.22733,-1.5006 0.22733,-3.9561 0,-5.4567 z m -1.06291,-75.4016 c -1.62443,-149.7409 -6.74696,-369.9544 -11.21039,-481.92553 -2.26662,-56.86132 -2.32182,-52.34887 0.6493,-53.07933 2.22935,-0.54808 1.98645,-0.77938 -2.40053,-2.28598 -2.68447,-0.9219 -5.02801,-1.52903 -5.20786,-1.34918 -0.17986,0.17985 0.11472,10.33545 0.65459,22.56799 3.35105,75.92763 8.2696,235.95183 13.36924,434.96563 3.47546,135.6302 3.70704,143.3623 4.2938,143.3623 0.28997,0 0.2233,-28.0151 -0.14815,-62.2559 z M 76.673927,945.30487 c 10.584344,-2.27173 32.391613,-8.49737 35.395003,-10.10473 1.68763,-0.9032 1.80975,-2.90758 1.80975,-29.70531 0,-15.80522 -0.33485,-28.74987 -0.7441,-28.76587 -0.40925,-0.016 -18.379145,1.4094 -39.933096,3.16758 l -39.189001,3.19669 -3.35716,3.52927 c -1.846438,1.9411 -5.989129,7.54738 -9.205978,12.45841 -16.1414385,24.64244 -12.012742,41.69076 11.571011,47.77932 7.508535,1.93846 31.329713,1.08972 43.653571,-1.55536 z M 1065.798,931.41804 c 16.8822,-5.93363 21.552,-18.92882 13.2247,-36.8017 -3.2043,-6.87763 -13.3724,-21.71408 -16.8054,-24.52112 -0.9263,-0.75734 -14.927,-2.31559 -37.627,-4.18778 -19.8836,-1.63992 -37.82622,-3.17534 -39.87248,-3.41206 l -3.72047,-0.43041 v 29.01408 29.01408 l 2.52622,1.15102 c 7.70782,3.51192 37.32013,10.72905 51.04863,12.44158 8.329,1.03899 25.3306,-0.19571 31.2258,-2.26769 z M 956.19418,890.64783 c 5.46195,-20.92259 10.13265,-38.2429 10.37932,-38.48957 0.24667,-0.24667 1.07396,-0.20849 1.8384,0.0848 1.74523,0.66971 2.47948,4.32131 3.41296,16.97338 l 0.73941,10.02191 0.49606,-11.90552 0.49607,-11.90552 7.93701,0.0424 c 4.36536,0.0233 14.47242,0.42353 22.46019,0.88934 l 14.5231,0.84695 0.5937,-2.8736 c 0.8356,-4.04408 6.2182,-46.74748 7.9905,-63.39334 2.2219,-20.86779 4.3055,-46.26237 6.5126,-79.37013 1.0913,-16.37009 2.6798,-38.91616 3.53,-50.10239 2.1324,-28.05496 3.0314,-91.42754 1.5294,-107.79366 -0.6436,-7.01235 -2.5239,-21.23241 -4.1785,-31.60014 -1.6545,-10.36772 -3.39,-25.21276 -3.8567,-32.98898 -1.8026,-30.03475 2.3724,-75.26826 13.4081,-145.26994 l 3.3899,-21.50291 -3.8756,-16.69397 c -2.1316,-9.18162 -8.6099,-40.1329 -14.3963,-68.78055 -12.115,-59.98004 -16.514,-78.68903 -22.8543,-97.19947 C 995.64843,108.62889 982.79195,89.660501 961.72949,73.922764 954.96095,68.865349 933.61488,57.261453 931.08,57.261453 c -0.47261,0 1.30412,1.710082 3.9483,3.800181 7.38899,5.840665 16.55158,16.341537 20.15033,23.093472 3.72624,6.991151 5.09321,16.666604 3.0512,21.596464 -1.08589,2.62157 -0.84964,3.6586 2.34804,10.30686 10.73299,22.31479 17.47358,71.38828 20.40545,148.55749 1.2742,33.53848 1.28605,125.41601 0.0218,169.15759 -2.16846,75.02621 -7.49994,174.69367 -10.9062,203.88203 -0.54127,4.63819 -1.4501,14.01379 -2.01961,20.83466 -1.61671,19.36293 -5.83339,57.66526 -7.97323,72.42524 -4.77443,32.93232 -8.1928,43.65357 -13.91855,43.65357 -1.09578,0 -5.20812,-1.76252 -9.13852,-3.9167 -15.48889,-8.48921 -48.35029,-19.84151 -82.05175,-28.3456 -21.22068,-5.35474 -64.17521,-14.39935 -67.96067,-14.30997 -1.09134,0.0258 9.17717,2.85978 22.81891,6.29781 26.53666,6.68783 44.38039,11.99983 79.8662,23.77579 29.00814,9.62635 70.17235,25.28099 70.8038,26.9265 0.7471,1.94693 -11.7718,120.16454 -14.91789,140.87149 -1.43962,9.47535 1.28376,0.41493 10.58657,-35.2205 z M 177.87084,774.91255 c 33.76907,-11.39807 108.68278,-32.10361 134.21544,-37.09605 3.4271,-0.67012 6.03533,-1.41415 5.79607,-1.65342 -1.05557,-1.05557 -55.96326,10.47523 -84.45242,17.73528 -22.53174,5.74189 -58.05508,17.59298 -70.37507,23.47811 -5.76578,2.75425 -10.48325,5.30614 -10.48325,5.67085 0,0.36472 0.7813,0.34121 1.73623,-0.0522 0.95492,-0.39345 11.55827,-4.0306 23.563,-8.08255 z m -32.18773,3.58483 c 5.65349,-4.02564 25.55864,-12.85908 40.12475,-17.80643 68.53312,-23.27712 192.04632,-45.59966 327.89785,-59.26099 24.85896,-2.49983 102.52919,-2.49217 128.97646,0.0127 131.70673,12.47433 244.66278,36.07963 295.86901,61.83005 7.54497,3.79418 7.47663,3.82709 9.50589,-4.57775 6.28667,-26.03821 14.06309,-102.73675 19.51467,-192.47257 7.54976,-124.27288 8.97872,-267.02097 3.4562,-345.26007 -2.62144,-37.13867 -7.11081,-68.62641 -12.37329,-86.78437 -2.9262,-10.09677 -7.81771,-19.95751 -10.83919,-21.85065 -4.68412,-2.93488 -41.65265,-10.50172 -74.95992,-15.343039 C 786.2899,84.401662 672.17138,78.196819 549.91833,79.425547 c -71.50816,0.718706 -106.71409,2.14049 -164.96157,6.661937 -118.32801,9.185185 -203.87388,26.879966 -244.29067,50.530436 -10.65099,6.23259 -20.00791,15.79904 -22.81765,23.32864 -8.42464,22.57647 -14.96414,82.92993 -17.952561,165.68515 -1.31642,36.4543 -0.658705,169.49199 0.998151,201.89777 6.36973,124.58332 16.72487,201.76814 31.83222,237.26991 2.74444,6.44931 8.38916,15.72238 9.57057,15.72238 0.2988,0 1.82263,-0.91098 3.38629,-2.02439 z M 783.81218,727.282 c -0.68209,-0.27523 -1.79823,-0.27523 -2.48032,0 -0.68208,0.27522 -0.12401,0.50042 1.24016,0.50042 1.36417,0 1.92225,-0.2252 1.24016,-0.50042 z M 676.91053,711.99426 c -6.1245,-1.02414 -31.55545,-3.45752 -52.08664,-4.98397 -19.00731,-1.41315 -73.55456,-1.331 -94.25203,0.14194 -21.07912,1.5001 -30.12124,2.97625 -13.39371,2.18656 34.35201,-1.62172 117.28741,-0.14088 148.90592,2.65877 12.28442,1.08772 17.34171,1.08618 10.82646,-0.003 z M 357.67313,80.473082 c -0.32968,-0.329675 -1.1854,-0.364922 -1.90158,-0.07833 -0.79145,0.316712 -0.55637,0.551804 0.59941,0.59941 1.04586,0.04308 1.63184,-0.191409 1.30217,-0.521085 z m 9.9535,-1.074387 c -0.94856,-0.248322 -2.73439,-0.257332 -3.96851,-0.02002 -1.23411,0.23731 -0.45802,0.440483 1.72466,0.451495 2.18267,0.01101 3.19241,-0.183151 2.24385,-0.431475 z M 889.453,44.756523 c -0.32968,-0.329675 -1.18539,-0.364922 -1.90158,-0.07833 -0.79145,0.316712 -0.55637,0.551804 0.59941,0.59941 1.04586,0.04308 1.63184,-0.191409 1.30217,-0.521085 z"
         style="fill:#1f6060;stroke-width:0.99212664" />
      <path
         id="path178"
         d="m 410.02847,2378.7328 c -77.89563,-3.294 -145.98944,-11.9852 -197.4332,-25.1991 -23.53777,-6.046 -41.41491,-11.9825 -67.67755,-22.4737 -12.43329,-4.9668 -27.51699,-10.6568 -33.51936,-12.6443 l -10.91339,-3.6138 -2.301647,-6.4269 C 89.772242,2284.8884 81.692174,2230.461 74.69428,2150.1526 l -1.556131,-17.8583 -6.303336,-5.6894 c -3.853665,-3.4784 -6.925926,-7.2455 -7.905345,-9.6934 -1.43677,-3.5908 -1.60201,-14.1145 -1.60201,-102.0275 0,-88.8053 0.155184,-98.4792 1.650138,-102.8666 1.508288,-4.4267 1.548288,-7.9598 0.465324,-41.102 -4.370276,-133.7444 -5.502491,-206.2776 -5.506253,-352.7475 -0.0022,-83.3947 0.465821,-152.4078 1.210931,-178.5828 3.346711,-117.5666 7.042627,-172.4289 13.63467,-202.3938 4.825174,-21.9333 8.491757,-69.1098 8.52053,-109.63 0.02497,-35.16585 -2.611072,-73.89873 -5.245345,-77.07284 -0.595751,-0.71784 -2.479502,-1.36595 -4.186114,-1.44026 -2.647486,-0.11529 -2.746397,-0.20201 -0.673874,-0.59086 7.080897,-1.32852 37.048785,-9.29019 41.968605,-11.14993 l 5.70473,-2.15645 v -29.69251 c 0,-27.61655 -0.12138,-29.69264 -1.73622,-29.69415 -0.95492,-9e-4 -12.45119,0.86756 -25.54726,1.92991 -13.096071,1.06234 -30.284665,2.4332 -38.196875,3.04635 -9.21832,0.71437 -15.190238,1.63472 -16.62521,2.56218 -5.078453,3.28233 -15.062706,17.94156 -19.855697,29.15281 -1.287537,3.01167 -2.060872,4.17088 -1.718521,2.57602 1.204026,-5.60902 7.997779,-17.76273 14.390081,-25.74318 l 6.460632,-8.06576 13.863663,-1.25623 c 8.980052,-0.81371 14.344871,-1.73744 15.229724,-2.62229 1.159997,-1.16001 0.899419,-4.71195 -1.727451,-23.54694 C 53.383418,810.60255 49.056613,769.46721 46.430215,730.41938 45.842979,721.68866 44.271349,698.91936 42.937704,679.82092 39.540769,631.17518 38.169177,589.36201 39.292706,568.70274 l 0.917247,-16.86616 -3.098736,-6.44882 -3.098734,-6.44882 -0.647284,-104.66936 c -0.356005,-57.56815 -0.95183,-106.69947 -1.324054,-109.18073 -0.511316,-3.40844 0.179776,-8.38074 2.826828,-20.3386 C 41.649751,274.1141 45.92119,249.22016 53.841092,194.17493 60.554463,147.51538 64.338141,129.99435 71.325565,113.2098 84.25431,82.153563 108.45189,63.755518 152.06559,51.821096 206.23713,36.997627 281.76895,29.679289 479.9734,20.049846 c 28.10199,-1.365289 52.55009,-2.75412 54.32911,-3.086289 1.77902,-0.33217 21.86959,-0.09794 44.6457,0.520506 22.77611,0.618447 58.5997,1.573767 79.60798,2.122932 241.25103,6.306396 311.91937,25.84451 344.68371,95.296845 10.5584,22.3812 16.251,43.79566 30.8305,115.97978 5.6759,28.10198 12.1491,59.13074 14.3847,68.9528 2.2358,9.82205 4.3051,18.99282 4.5988,20.37948 0.2936,1.38666 -0.022,4.95832 -0.7011,7.93701 -0.9172,4.02206 -1.3853,30.56511 -1.8189,103.14029 l -0.5838,97.72447 -3.2515,6.69058 -3.2515,6.69057 1.0193,12.55194 c 2.0299,24.99798 1.1209,67.86276 -2.4957,117.69118 -0.8224,11.33032 -2.153,30.97442 -2.9571,43.65357 -2.9966,47.25996 -6.366,81.52987 -12.483,126.96419 -2.3092,17.15191 -2.0815,20.5939 1.3637,20.61297 1.2173,0.007 9.5348,0.66139 18.4833,1.45478 l 16.2699,1.44253 2.8445,3.25782 c 11.6488,13.34161 18.772,27.23029 19.4594,37.94105 0.6005,9.35669 -0.7592,13.21469 -6.5742,18.65401 -5.5345,5.17688 -13.1177,8.30447 -22.0908,9.11107 -6.2736,0.56393 -6.2501,0.55062 2.3766,-1.3458 10.6469,-2.34053 18.0957,-6.36383 22.013,-11.88994 6.0144,-8.48424 4.1357,-22.19025 -5.0044,-36.50988 -5.1045,-7.99703 -12.2085,-16.90922 -14.0384,-17.6114 -0.8417,-0.32299 -9.3954,-1.23154 -19.0082,-2.01901 -45.89794,-3.75985 -55.44813,-4.48678 -58.91407,-4.48435 l -3.73524,0.003 0.2628,29.51576 0.26279,29.51577 7.93701,2.78361 c 17.87601,6.26934 41.84201,11.39733 55.06301,11.78176 l 6.4488,0.18751 -5.4567,0.38631 c -3.0011,0.21245 -10.7484,-0.36005 -17.2159,-1.27225 -8.0783,-1.13936 -12.0797,-1.33822 -12.7827,-0.63526 -1.1843,1.18429 -3.9526,21.88314 -5.8746,43.92353 -1.7054,19.55856 -1.7171,78.47781 -0.02,99.60081 2.0081,24.9893 4.9813,50.7023 6.5749,56.8619 4.7407,18.3241 8.868,63.4489 11.4505,125.1933 2.6888,64.2821 3.1461,91.4468 3.6657,217.7718 0.6284,152.7949 -0.7208,261.1712 -4.652,373.6791 -0.7433,21.2719 -0.6835,28.174 0.2667,30.7559 0.9415,2.5588 1.2249,26.2841 1.2249,102.5417 0,112.4656 0.8424,101.5038 -8.5418,111.1525 l -4.858,4.995 -1.4893,19.3121 c -7.4818,97.0235 -16.83065,164.5078 -26.28537,189.7418 -2.13453,5.6969 -2.21037,5.7671 -10.97595,10.1695 -63.59253,31.938 -201.42151,53.6773 -373.96793,58.9845 -37.22419,1.145 -163.18505,1.0856 -190.98438,-0.09 z m 142.53419,-3.8588 c 60.7586,-0.9632 87.86201,-1.9257 126.82819,-4.5039 134.3056,-8.8864 236.75875,-27.6866 289.84837,-53.1874 7.75948,-3.7271 10.87931,-5.765 11.74952,-7.6743 2.34688,-5.1496 7.8479,-28.7507 10.78091,-46.2534 13.07115,-78.0021 23.26975,-224.499 29.38865,-422.1498 9.7662,-315.4625 4.9281,-644.3653 -10.3597,-704.2662 -3.4048,-13.341 -7.3867,-57.5404 -8.5487,-94.8919 -0.8829,-28.3791 1.383,-70.11459 5.4276,-99.97 0.8505,-6.27757 0.4695,-6.98353 -4.3573,-8.07534 -5.85355,-1.32406 -24.8448,-7.74317 -27.03546,-9.13808 l -2.23228,-1.42142 0.0152,-32.46926 c 0.008,-17.85811 0.41789,-33.10557 0.91007,-33.88325 0.77254,-1.22067 3.83787,-1.17978 22.42196,0.29906 11.83991,0.94218 21.68171,1.55844 21.87071,1.36947 0.5483,-0.54834 5.0765,-34.95227 7.8032,-59.2861 2.8927,-25.81582 6.0013,-62.94455 7.4757,-89.2914 0.5649,-10.09489 1.2547,-20.3634 1.5329,-22.81891 1.7989,-15.87815 3.6531,-53.22299 4.1453,-83.49102 0.5865,-36.07516 -0.17,-52.85444 -3.3005,-73.20471 -0.8025,-5.21702 -2.4015,-15.51265 -3.5531,-22.87919 -2.4838,-15.88743 -2.8828,-45.94289 -0.8957,-67.46461 1.9398,-21.00884 6.6573,-57.3653 11.5735,-89.19442 l 4.5057,-29.17076 -2.5851,-11.01037 c -4.0533,-17.26402 -7.8298,-35.23768 -17.9476,-85.41987 -13.4056,-66.48943 -18.7815,-86.4803 -29.10646,-108.23419 C 968.17102,52.410422 904.37706,33.060239 696.75307,25.539047 572.32781,21.031734 532.92138,21.487826 399.11508,28.983918 216.73862,39.201005 146.85409,50.365208 108.01975,75.487013 85.627934,89.972207 73.456511,111.50949 65.721512,150.33358 c -1.338358,6.71758 -5.109653,30.60303 -8.380655,53.07877 -6.785953,46.62769 -11.287762,72.82037 -16.917501,98.43034 -2.161806,9.83416 -3.930557,19.16912 -3.930557,20.74436 0,1.57523 1.998703,15.85194 4.441563,31.72603 13.045338,84.77067 15.259349,124.43431 9.004317,161.31088 -7.323347,43.17483 -8.103224,82.39819 -3.011234,151.44785 0.798771,10.8317 2.130165,30.40896 2.958651,43.50504 2.083605,32.936 5.049318,67.50361 7.958635,92.76384 3.471403,30.14055 8.652661,68.23318 9.458173,69.53653 0.493019,0.79772 7.598649,0.53153 25.777765,-0.96567 18.452111,-1.51968 25.447391,-1.77626 26.420011,-0.96906 1.05355,0.87437 1.31979,7.68842 1.30769,33.46856 -0.008,17.80387 -0.37706,32.94091 -0.81935,33.63786 -1.01564,1.60043 -17.28764,7.23007 -30.91351,10.69517 -5.729531,1.45704 -10.534857,2.75311 -10.678501,2.88016 -0.143644,0.12706 0.506813,7.55444 1.44546,16.50529 2.173395,20.72527 2.475077,90.53837 0.492623,113.99877 -2.200924,26.0458 -5.054645,49.8776 -6.554779,54.7398 -4.262185,13.8144 -8.765555,64.8953 -11.443008,129.7957 -2.884128,69.9102 -3.497737,114.7839 -3.473014,253.9844 0.02396,134.8927 0.632338,185.7311 3.437148,287.2207 7.148482,258.6614 21.884355,443.0527 39.733141,497.1843 l 2.0053,6.0817 6.15955,1.7195 c 3.38776,0.9458 16.20484,5.7329 28.48241,10.6381 30.5756,12.2157 38.32084,14.9608 59.5276,21.0983 62.12561,17.98 142.62912,27.9299 244.55921,30.2267 47.34948,1.0669 46.10727,1.0662 109.79401,0.056 z m -94.41605,-27.4569 c -111.83765,-4.0645 -212.1864,-17.9893 -288.95413,-40.0964 -22.26637,-6.4121 -42.6446,-13.8023 -45.56857,-16.5256 -12.50593,-11.6478 -20.84131,-78.3773 -25.623457,-205.1307 -2.550061,-67.5907 -3.115667,-104.7595 -3.646045,-239.5986 -0.743473,-189.0149 1.209563,-347.9991 7.154202,-582.3784 3.75976,-148.2357 9.29986,-304.21183 11.0055,-309.84918 0.38177,-1.26178 1.32681,-1.70322 3.18595,-1.48819 l 2.64319,0.30572 -0.14581,10.91339 c -0.0802,6.00237 -0.85467,27.65553 -1.72107,48.11816 -8.71665,205.8689 -15.47719,549.2552 -15.47003,785.7643 0.008,271.8682 7.09042,426.2571 21.84983,476.3176 3.49419,11.8515 4.01443,12.2659 23.76268,18.9256 70.99709,23.9425 156.51489,38.3465 273.33089,46.0378 32.61986,2.1477 134.95514,3.0305 172.2138,1.4857 148.68326,-6.1651 271.839,-27.9074 351.57877,-62.0688 14.6792,-6.2887 26.54009,-12.3261 28.05004,-14.2782 7.04031,-9.1011 14.18964,-65.7869 18.09632,-143.4825 8.58677,-170.7736 8.59401,-521.5963 0.0185,-900.851 -2.76532,-122.2963 -6.23033,-234.42746 -8.54256,-276.44586 -0.61995,-11.26592 -0.58257,-11.56484 1.53053,-12.23552 3.84486,-1.2203 4.75386,0.81466 5.42392,12.14252 3.14155,53.11026 8.43462,249.71346 11.50516,427.34216 4.67208,270.2804 4.67358,533.092 0,677.6225 -4.10503,127.0517 -10.96593,197.852 -21.10314,217.7718 -2.6569,5.2207 -6.19796,7.3622 -28.48345,17.2253 -80.14151,35.4685 -203.77405,57.7312 -356.17346,64.1367 -20.33377,0.8547 -115.07157,1.0775 -135.92135,0.3197 z m 75.40163,-131.8784 c -1.90985,-0.2056 -9.72284,-0.8533 -17.36222,-1.4395 -19.506,-1.4965 -59.61951,-5.4878 -84.82682,-8.4403 -93.96252,-11.0056 -168.84719,-25.0359 -214.79542,-40.2437 -14.9118,-4.9356 -40.10091,-16.6269 -45.56091,-21.1468 l -2.89946,-2.4003 1.22781,-14.2121 c 4.68677,-54.2496 19.20207,-189.2974 21.08704,-196.1901 l 1.19984,-4.3874 1.20693,5.9168 c 2.17296,10.6527 5.6252,22.3627 6.34759,21.531 0.38922,-0.4481 1.93321,-11.753 3.43111,-25.1219 4.69976,-41.946 16.50216,-135.8587 18.88972,-150.3072 0.47931,-2.9005 0.42721,-2.8752 -2.04477,0.9922 -1.39514,2.1826 -4.73565,8.3935 -7.42336,13.8017 l -4.88674,9.8334 v -5.4923 c 0,-16.6068 24.9674,-172.9135 28.12433,-176.0704 0.3263,-0.3263 3.17257,0.1167 6.32503,0.9845 18.62894,5.1281 82.32549,10.3125 152.59706,12.4203 14.20423,0.426 26.44265,1.1557 27.19651,1.6217 0.91818,0.5674 -2.36702,1.8847 -9.95184,3.9904 l -11.32246,3.1434 9.32958,0.667 c 25.4464,1.8195 195.01334,0.138 214.89103,-2.1309 l 5.95276,-0.6794 -12.05087,-2.9739 c -8.2624,-2.039 -11.58263,-3.2416 -10.56144,-3.8254 0.8192,-0.4684 14.05509,-1.4489 29.41309,-2.179 32.46413,-1.5434 34.30406,-1.6608 77.52999,-4.9481 52.14193,-3.9653 102.88782,-9.1213 135.42528,-13.7596 5.18386,-0.7389 9.79038,-1.0085 10.23669,-0.599 1.89007,1.7339 11.34378,55.479 18.93731,107.6601 16.31118,112.0868 36.28211,300.7353 40.82648,385.653 l 0.675,12.6134 -6.31804,6.5844 c -32.48731,33.8565 -128.11294,62.3836 -267.24733,79.7253 -49.5866,6.1804 -102.71099,10.5804 -113.5985,9.4087 z M 104.94981,1713.0382 c 1.6e-4,-6.7755 0.44109,-30.4005 0.97985,-52.5001 0.53875,-22.0996 1.66481,-68.7544 2.50235,-103.6772 8.64344,-360.4063 16.737,-613.74196 21.4268,-670.67764 1.00886,-12.24796 1.35434,-14.26806 2.27644,-13.31103 0.34677,0.3599 9.05506,33.57922 53.26626,203.19357 4.89129,18.7653 9.12263,34.4898 9.40298,34.9434 0.85102,1.377 0.47496,174.7163 -0.56584,260.8201 -1.44935,119.902 -3.36507,187.0933 -5.94392,208.4745 -0.83769,6.9454 -1.35976,8.1917 -6.33702,15.1291 -7.20839,10.0469 -28.21862,45.176 -54.6631,91.3966 -11.86351,20.7354 -21.74441,37.8868 -21.95755,38.1142 -0.21314,0.2273 -0.38739,-5.1302 -0.38725,-11.9055 z m 882.86193,-13.7963 c -7.34371,-12.7832 -7.2455,-12.6111 -23.49361,-41.1841 -17.24841,-30.3321 -37.83183,-64.5983 -45.88923,-76.3938 l -6.77711,-9.9212 -1.03525,-11.9055 c -1.47031,-16.9089 -2.85597,-54.9316 -4.03138,-110.6222 -1.01232,-47.9632 -2.93014,-250.0574 -2.95867,-311.7758 -0.009,-20.1512 -0.3778,-32.4921 -0.97018,-32.4921 -0.52534,0 -2.77426,2.6787 -4.9976,5.9527 -2.22335,3.2741 -4.43765,5.9528 -4.92069,5.9528 -0.48304,0 -24.90992,-5.9778 -54.28197,-13.284 -57.74264,-14.3632 -114.13869,-27.5795 -140.21479,-32.859 -9.00355,-1.8228 -17.15139,-3.6189 -18.10631,-3.991 -2.92989,-1.142 -1.94699,-2.1918 2.70522,-2.8894 2.44279,-0.3664 4.66062,-1.0207 4.92851,-1.4542 0.26788,-0.4334 -4.07467,-1.5682 -9.65011,-2.5219 -67.24082,-11.5006 -94.38993,-14.0058 -142.58608,-13.157 -30.92292,0.5445 -53.37561,2.2468 -75.40162,5.7166 -33.57622,5.2894 -56.55122,9.3326 -56.55122,9.9523 0,0.3781 2.00906,0.9888 4.46457,1.3569 4.26087,0.6391 5.55733,1.7397 3.52697,2.9946 -0.51568,0.3187 -9.55643,2.3174 -20.09056,4.4416 -10.53414,2.1242 -24.064,5.0061 -30.06636,6.4044 -44.33742,10.3286 -89.11927,21.1225 -122.39806,29.5017 -30.14881,7.5911 -39.3719,9.5754 -40.42916,8.698 -0.75336,-0.6253 -1.36974,-2.6089 -1.36974,-4.4082 0,-3.7594 -5.99971,-31.9865 -22.33394,-105.0755 -30.9812,-138.6281 -42.15429,-193.48092 -42.15429,-206.95094 v -5.72307 l 7.33863,-3.05508 c 12.46262,-5.1882 65.22585,-22.46508 92.6496,-30.33733 94.2344,-27.0509 181.95864,-42.44364 275.03564,-48.25976 23.19813,-1.44959 100.05565,-1.42569 127.48827,0.0397 113.28337,6.05109 185.34619,21.56763 299.12617,64.40773 22.88386,8.61615 23.3205,8.83327 23.61355,11.74171 0.52291,5.18973 -10.2202,105.17953 -15.65043,145.66383 -2.27128,16.93325 -2.49124,21.21633 -1.01369,19.73878 0.54817,-0.54817 6.32435,-21.40503 12.83595,-46.34856 13.94268,-53.40928 12.96291,-50.02616 13.96185,-48.20936 4.11921,7.49172 13.19626,277.17975 22.78752,677.04005 1.08637,45.2905 2.46651,102.8072 3.06698,127.8147 0.60047,25.0076 0.88233,45.6777 0.62635,45.9337 -0.25598,0.256 -3.30865,-4.4838 -6.78373,-10.5328 z M 136.93878,783.14885 C 112.73796,756.89405 96.425294,635.47284 93.083837,456.72026 90.744581,331.58081 97.465372,212.62164 109.41766,167.60881 c 5.44077,-20.49017 9.86499,-25.33299 38.19332,-41.80702 7.26861,-4.22698 2.97672,-2.94956 -10.41733,3.10055 -18.40366,8.31298 -19.29438,8.34673 -21.32433,0.80807 -3.64945,-13.55301 14.44582,-44.265584 33.55413,-56.950443 7.87648,-5.228724 12.58549,-6.653168 32.91196,-9.955635 38.61669,-6.274102 78.87119,-10.284047 112.32222,-11.188957 23.53379,-0.63663 26.20518,-0.262227 24.87514,3.48633 -1.35242,3.811673 -9.51506,14.066228 -16.79579,21.10024 -11.93862,11.534056 -13.48037,12.288708 -29.12592,14.256507 -21.17935,2.663804 -63.0271,11.664198 -71.43311,15.363448 -2.99803,1.31936 -4.26993,1.55625 21.60838,-4.02461 C 304.19711,84.456078 410.631,75.176855 548.43014,73.493878 683.7689,71.84095 813.92863,80.163531 907.02376,96.422813 c 10.8803,1.900271 19.93715,3.300265 20.12632,3.111096 0.43807,-0.438075 -10.385,-3.161297 -22.54648,-5.672977 C 884.5953,89.72867 850.22568,85.265145 801.91849,80.52539 789.28445,79.285776 784.27319,78.39815 781.94723,76.987952 774.52762,72.48954 757.13739,51.210431 753.22154,41.838488 c -1.29418,-3.097405 -1.25414,-3.438607 0.51463,-4.385216 6.14933,-3.291022 70.25039,0.997172 118.31477,7.91495 45.43088,6.538745 51.36554,8.742781 67.8796,25.209339 14.82759,14.784949 19.77603,26.565631 14.73991,35.091099 -1.71188,2.89798 -1.72398,3.22339 -0.18312,4.92602 2.92797,3.23536 8.52179,16.58283 11.08631,26.45309 15.63677,60.1827 19.30436,205.49308 9.91823,392.96203 -5.76728,115.18954 -16.40279,219.5411 -24.16711,237.11826 -3.2661,7.39393 -3.5583,7.40563 -17.19718,0.68851 -44.14664,-21.74211 -131.95063,-42.02264 -238.8627,-55.17136 -89.29192,-10.98168 -143.22128,-10.98749 -233.14976,-0.0251 -28.75856,3.5057 -92.38881,12.68462 -116.78195,16.84627 -97.99541,16.71876 -176.07686,38.50844 -198.65903,55.43845 -1.87944,1.40903 -3.94325,2.56187 -4.58625,2.56187 -0.643,0 -2.9601,-1.94302 -5.14911,-4.31781 z m 10.53989,-4.62419 c 45.83201,-28.20072 204.98989,-60.9018 372.67586,-76.57115 21.87673,-2.04427 97.1681,-1.74538 121.53551,0.48246 129.6891,11.8571 250.36967,37.13922 297.8168,62.3915 3.09953,1.64963 6.07683,2.72656 6.61624,2.3932 3.88915,-2.40363 11.64931,-58.53873 16.95111,-122.62025 14.61877,-176.6931 16.55078,-382.72064 4.41456,-470.76409 -4.39431,-31.87895 -11.26692,-55.21881 -18.06819,-61.36076 C 944.06729,107.64124 891.55945,97.689083 839.12324,91.570198 754.81968,81.73265 658.32871,77.347133 549.91833,78.425829 c -60.84714,0.605435 -83.78577,1.339367 -130.46465,4.174276 -123.21933,7.483376 -218.15843,24.106935 -266.75399,46.707835 -11.78593,5.48142 -24.67196,14.03056 -29.61858,19.65022 -11.19487,12.71804 -18.35705,58.62224 -23.30854,149.39007 -1.734287,31.79199 -1.739236,193.60865 -0.0069,227.69306 6.55034,128.88539 17.40916,207.66638 33.36186,242.04122 2.77576,5.98122 7.82344,13.43139 9.1001,13.43139 0.21613,0 2.57912,-1.34515 5.2511,-2.98924 z M 345.04418,77.182815 c 0,-2.270036 0.38712,-2.364774 20.3386,-4.977484 74.24175,-9.722191 204.15171,-13.39929 315.0002,-8.916076 35.42408,1.432711 39.189,1.854417 39.189,4.389528 0,2.253196 2.48819,2.222526 -36.21262,0.446362 -36.7405,-1.686194 -138.37538,-2.291514 -177.0946,-1.054744 -58.34232,1.863571 -108.54126,5.431596 -141.847,10.08216 -17.7115,2.473101 -19.37358,2.475697 -19.37358,0.03025 z m 0.3635,-10.483838 c -0.34483,-0.898638 -0.2149,-2.045957 0.28873,-2.5496 2.17981,-2.179809 54.74329,-8.592222 92.60767,-11.297551 47.0655,-3.362729 67.25075,-3.966566 132.94497,-3.977015 66.11657,-0.01052 89.41421,0.705003 128.97646,3.961133 22.43696,1.846651 25.8336,2.3788 26.51483,4.154058 0.70527,1.837895 -1.55736,3.30766 -4.18374,2.717686 -3.14234,-0.705876 -35.65176,-3.268959 -59.03977,-4.654769 -28.66935,-1.698745 -156.33216,-1.685099 -186.02375,0.01988 -53.92295,3.096422 -108.79609,8.504644 -128.72925,12.687379 -1.98395,0.416308 -2.90036,0.12654 -3.35615,-1.061205 z m -0.0304,-10.000275 c -0.32817,-0.855184 -0.18459,-1.966949 0.31904,-2.470591 2.80407,-2.804023 67.75059,-9.979651 115.92269,-12.807734 81.92897,-4.809879 197.73564,-3.450627 254.86371,2.991399 9.57518,1.079741 10.53016,1.385992 10.53016,3.37688 0,2.031045 -1.85265,2.304704 -9.75765,1.441322 -39.28223,-4.290397 -98.26084,-6.252182 -166.84089,-5.549572 -80.86595,0.828481 -139.57406,4.613953 -187.95299,12.119122 -8.70047,1.349728 -15.9694,2.454052 -16.15319,2.454052 -0.1838,0 -0.60268,-0.699696 -0.93084,-1.554878 z m 0.90701,-7.107024 c -2.10249,-0.733392 -1.39911,-3.980772 0.99212,-4.58047 4.5405,-1.13871 39.6691,-5.611358 59.32971,-7.553987 55.16222,-5.450472 109.56917,-7.409669 185.43269,-6.677439 58.14382,0.561201 76.4136,1.261173 111.65909,4.27801 19.98925,1.710979 23.31498,2.398076 23.31498,4.816889 0,1.819525 -2.72667,1.909486 -16.51301,0.544809 -35.66496,-3.530392 -77.12132,-5.035185 -138.83002,-5.039281 -68.89084,-0.0046 -115.36811,1.951175 -167.09812,7.031437 -17.82165,1.750215 -53.26784,6.355312 -56.05516,7.282573 -0.54567,0.181529 -1.5502,0.135385 -2.23228,-0.102541 z M 31.532166,948.8154 c -7.630073,-2.09544 -14.221002,-6.00439 -17.610248,-10.44428 -1.773426,-2.32319 -3.206536,-4.97057 -3.184689,-5.88307 0.02469,-1.0314 0.632323,-0.53303 1.606064,1.31729 3.977448,7.55799 11.259497,12.27494 22.754875,14.73945 3.76823,0.80788 5.511957,1.47513 3.874948,1.48279 -1.637009,0.008 -4.985437,-0.53782 -7.44095,-1.21218 z m 28.046459,0.6725 c 0.965307,-0.25155 2.304678,-0.23501 2.97638,0.0368 0.671702,0.27178 -0.118095,0.47758 -1.755104,0.45736 -1.637008,-0.0202 -2.186583,-0.24257 -1.221276,-0.49411 z M 10.022934,924.38014 c 0,-3.54686 0.180066,-4.99784 0.400146,-3.22441 0.220081,1.77342 0.220081,4.67539 0,6.44882 -0.22008,1.77343 -0.400146,0.32244 -0.400146,-3.22441 z"
         style="fill:#1b5656;stroke-width:0.99212664" />
      <path
         id="path176"
         d="m 419.94974,2378.8491 c -105.9634,-4.2103 -183.72709,-15.8437 -244.56031,-36.5862 -7.91161,-2.6975 -24.44968,-8.9357 -36.75126,-13.8624 -12.30159,-4.9267 -25.84269,-9.9804 -30.09133,-11.2304 -9.028628,-2.6563 -8.933856,-2.5146 -13.495406,-20.1828 -7.003636,-27.1271 -13.553683,-73.6829 -18.843892,-133.9371 -2.673146,-30.4463 -2.79537,-31.359 -4.443984,-33.1806 -1.899019,-2.0985 -5.024099,-43.4337 -8.96767,-118.6147 -3.952665,-75.3545 -4.539011,-94.9333 -3.014429,-100.6553 0.840546,-3.1548 1.245713,-7.7056 0.971633,-10.9134 -0.258563,-3.0263 -1.134659,-28.2716 -1.946878,-56.1007 -7.622557,-261.1725 -6.386085,-526.9207 3.016665,-648.3548 1.935668,-24.9986 4.941307,-49.0188 7.386599,-59.0315 6.004887,-24.5881 10.269347,-97.8318 8.041452,-138.11499 -1.032061,-18.66097 -3.238196,-43.81698 -4.199444,-47.88523 -0.204409,-0.86511 0.486453,-1.5934 1.687776,-1.77922 1.944351,-0.30074 2.118966,0.59313 3.968506,20.31505 2.362159,25.18805 2.719393,87.68449 0.642494,112.40129 -1.982272,23.5908 -5.093918,50.3043 -6.197718,53.2075 -3.007305,7.9098 -6.828351,41.4781 -9.302304,81.7218 -4.895925,79.6416 -6.012356,136.3799 -5.993233,304.5828 0.01621,142.585 0.5811,190.3243 3.457324,292.1813 6.256574,221.5671 18.075906,389.0379 32.769436,464.3175 3.035871,15.5538 7.392973,31.9136 9.028103,33.8983 0.52576,0.6381 4.14191,2.128 8.03589,3.3107 3.89397,1.1828 17.37771,6.291 29.96386,11.3515 36.31952,14.6032 64.06794,23.1656 97.81506,30.183 79.15776,16.4601 173.79757,22.4785 315.45622,20.0608 57.79133,-0.9864 102.22257,-2.6587 135.42528,-5.0972 122.30672,-8.9829 212.48045,-24.9114 268.6391,-47.4532 9.86797,-3.9608 20.86839,-9.4976 22.25228,-11.2 1.89994,-2.3371 6.24113,-17.6152 9.23372,-32.4966 13.40422,-66.6552 24.50322,-210.3966 31.22372,-404.3708 11.1255,-321.1138 6.6531,-676.661 -9.2921,-738.7315 -1.9608,-7.6325 -5.0464,-34.3535 -7.2069,-62.4107 -2.7317,-35.4744 -1.1278,-91.58917 3.665,-128.21933 0.7666,-5.85876 1.1345,-11.32786 0.8177,-12.15355 -0.4274,-1.11381 0.1212,-1.50127 2.126,-1.50127 2.4309,0 2.6423,0.27382 2.1057,2.72835 -1.1643,5.32682 -4.5319,36.68831 -5.5481,51.66951 -2.8814,42.47689 0.742,119.14879 6.9557,147.18619 4.2614,19.2285 6.7174,41.1379 9.3218,83.1563 3.9923,64.4121 5.511,126.8356 6.1795,253.9844 0.6964,132.4713 -0.8302,253.4157 -4.7024,372.5436 -0.8313,25.5702 -0.7938,34.4185 0.1707,40.4041 0.9816,6.0914 0.9875,13.929 0.029,38.1969 -2.1268,53.8457 -4.4047,98.3635 -7.6795,150.0842 -1.1954,18.8804 -1.8803,24.6857 -3.0676,26.003 -1.7069,1.8937 -1.5462,0.5508 -4.3086,36.0049 -6.7432,86.5451 -16.33273,152.893 -25.61508,177.226 -1.37208,3.5968 -5.44324,6.2666 -18.06285,11.8451 -64.40508,28.4707 -186.53232,47.8705 -343.21321,54.5193 -31.08832,1.3192 -177.61866,2.0236 -203.88202,0.9801 z m 29.7638,-32.8246 c -96.93437,-3.8923 -187.92854,-15.897 -259.28404,-34.2071 -26.28683,-6.7453 -62.54304,-18.609 -65.61401,-21.47 -20.16555,-18.7871 -29.73855,-177.0188 -29.760136,-491.9037 -0.01614,-235.4034 7.282996,-602.497 15.850656,-797.1737 2.15879,-49.05285 2.15557,-49.02475 5.48648,-47.74656 1.54761,0.59388 1.65707,1.78873 1.08114,11.80206 -4.34735,75.585 -11.03929,308.1957 -14.50605,504.2282 -4.055238,229.3089 -4.054239,461.0045 0.003,587.339 4.30602,134.0965 12.16435,211.3177 23.22187,228.1936 3.62132,5.5268 61.74392,22.597 109.89511,32.2752 113.88363,22.8903 265.33949,30.7903 407.09114,21.2341 136.47441,-9.2003 250.14615,-33.3259 318.94382,-67.6923 7.81786,-3.9052 9.77517,-5.3617 11.62711,-8.6523 23.32808,-41.4496 30.17857,-438.4534 17.63331,-1021.8785 -2.85682,-132.8574 -6.84415,-264.84359 -9.0096,-298.23103 -0.52237,-8.05399 -0.38127,-9.61285 0.91516,-10.11033 0.84301,-0.32349 1.97074,-0.0567 2.50605,0.59301 2.64896,3.21472 8.11751,178.75515 12.07517,387.61455 5.91838,312.3326 5.91628,595.3256 -0.01,753.0241 -4.14398,110.3529 -10.66107,172.465 -20.08708,191.4431 -2.11207,4.2525 -3.00561,4.8879 -16.12574,11.4693 -76.28588,38.2666 -210.37011,63.5918 -370.06323,69.8954 -28.88823,1.1404 -113.00795,1.113 -141.87411,-0.046 z m 86.31501,-138.4855 c -2.18267,-0.1981 -14.68347,-1.2616 -27.77954,-2.3633 -91.06767,-7.6608 -185.14869,-21.7182 -243.07102,-36.3192 -35.5785,-8.9687 -67.81932,-21.7435 -77.58149,-30.7403 l -4.16412,-3.8376 1.46834,-15.378 c 19.55487,-204.798 39.47881,-362.0309 58.5848,-462.331 1.92296,-10.0949 3.74235,-19.8053 4.04308,-21.5788 0.64146,-3.7826 0.71661,-3.7981 6.36184,-1.3115 11.1745,4.9221 49.81765,8.8967 118.43722,12.1818 36.11363,1.729 191.79199,1.7311 232.15763,0 89.2767,-3.8215 146.63499,-8.2769 215.60803,-16.7479 25.23003,-3.0986 30.21727,-3.4728 30.9295,-2.3204 3.04697,4.9302 17.90815,98.5649 27.2429,171.6475 12.55969,98.3309 26.97375,243.8076 29.90324,301.8043 l 0.68652,13.5914 -6.76199,7.0042 c -27.52618,28.5122 -92.36408,51.2393 -195.41916,68.4986 -61.59663,10.3161 -151.66008,19.9199 -170.64578,18.1968 z m -423.3182,-508.556 c -0.21367,-0.6821 -0.0627,-17.5358 0.33541,-37.4528 0.39814,-19.9169 1.42734,-71.2595 2.28712,-114.0945 7.64558,-380.9123 14.38258,-619.31435 18.00804,-637.25045 0.46493,-2.30014 1.00897,-2.73227 3.12265,-2.48032 l 2.55962,0.30512 24.75091,112.60635 24.75092,112.6064 -0.15642,98.7166 c -0.25476,160.7834 -2.37967,298.9528 -5.04553,328.079 -0.88216,9.6383 -1.15865,10.5044 -6.01821,18.8504 -5.26692,9.0457 -32.8929,64.6679 -50.04852,100.7677 -8.3654,17.6029 -10.1003,20.5867 -11.97041,20.5867 -1.2029,0 -2.36191,-0.5581 -2.57558,-1.2402 z m 864.94593,-21.7577 c -20.36402,-43.4619 -50.39938,-104.0503 -56.71709,-114.4117 -2.47591,-4.0605 -3.89542,-7.8449 -4.46583,-11.9055 -2.72719,-19.4139 -4.66142,-125.6335 -5.48859,-301.409 l -0.60322,-128.1818 24.92152,-113.5591 c 13.70682,-62.45748 25.46565,-113.90482 26.13072,-114.3274 1.60437,-1.0194 3.44881,-0.99873 4.09444,0.0459 2.03927,3.29964 5.37206,85.63692 9.00148,222.3839 4.06929,153.3201 10.98167,475.5833 11.66178,543.6854 l 0.26255,26.2914 -2.23272,0.317 c -1.93777,0.2753 -2.80507,-0.9044 -6.56504,-8.9291 z M 201.84352,1085.5057 c -2.03868,-9.6015 -10.80197,-47.662 -19.47398,-84.5788 -19.69913,-83.85946 -25.81283,-110.36057 -31.39183,-136.07436 -5.45145,-25.12599 -10.31162,-51.69027 -10.31162,-56.36042 0,-1.92885 -0.70975,-4.29127 -1.57723,-5.24982 -1.46135,-1.61478 -1.36164,-1.85431 1.35714,-3.26024 1.6139,-0.83459 13.5967,-5.12966 26.62843,-9.5446 88.40457,-29.95012 188.50213,-52.08947 280.15879,-61.96491 75.87738,-8.17531 168.54497,-8.35922 247.53559,-0.49127 64.30927,6.40559 121.72482,18.69771 186.02375,39.82587 29.24923,9.61108 67.78517,23.52339 69.26958,25.0078 1.49911,1.4991 0.12115,16.2682 -7.87816,84.43917 -12.50145,106.53874 -24.90636,166.27108 -42.07851,202.61708 -6.69675,14.1742 -12.82917,23.0917 -15.87964,23.0917 -1.22759,0 -10.65011,-2.0343 -20.93894,-4.5208 -160.39382,-38.7616 -234.76373,-51.8712 -304.43942,-53.6654 -74.50965,-1.9187 -143.84874,9.2935 -325.72699,52.6703 -12.7206,3.0337 -24.1278,5.5159 -25.34932,5.5159 -2.07526,0 -2.4641,-1.1451 -5.92764,-17.4572 z M 62.285233,875.02184 c -0.0016,-1.50059 -1.311247,-12.10395 -2.910389,-23.56301 -6.34806,-45.48865 -10.568273,-87.18 -13.457373,-132.94497 -0.826743,-13.09607 -2.166996,-32.74018 -2.97834,-43.65357 -2.76539,-37.19725 -3.604113,-59.50396 -3.469232,-92.26778 0.07413,-18.0071 -0.156527,-34.74924 -0.512576,-37.20475 -0.435772,-3.00533 0.344412,-10.62578 2.386996,-23.31498 1.668896,-10.36772 3.539686,-24.20789 4.157309,-30.75592 1.949745,-20.67116 -0.442498,-54.53472 -7.489087,-106.01232 -1.878304,-13.72162 -3.651643,-30.3012 -3.940753,-36.84352 -0.289109,-6.54231 -1.035444,-15.24822 -1.65852,-19.34647 -1.060045,-6.97236 -0.937207,-8.31231 1.910938,-20.84506 C 41.25252,277.78271 45.89922,251.13135 53.842558,196.32109 62.954823,133.44505 67.625525,116.0314 80.629939,96.450455 109.02467,53.69607 171.65365,38.219263 363.39852,26.572982 c 43.68088,-2.653108 62.31047,-3.648408 121.28206,-6.479589 27.41693,-1.316265 50.345,-2.699783 50.95128,-3.074484 0.60628,-0.3747 15.67663,-0.174427 33.48969,0.445053 17.81305,0.619479 52.03147,1.579208 76.04093,2.132731 215.36657,4.965136 294.22095,19.737109 335.63539,62.875359 9.37873,9.769104 14.16758,16.660908 20.89753,30.074398 11.0496,22.0229 16.8346,43.15125 30.9074,112.88047 5.5063,27.28348 12.41,60.3213 15.3416,73.41737 l 5.33,23.81104 -1.2961,7.44095 c -0.7129,4.09252 -1.6011,13.46812 -1.974,20.83466 -0.3728,7.36654 -2.186,24.55513 -4.0293,38.19687 -5.9617,44.12027 -6.9003,55.46762 -6.8936,83.33864 0.01,24.41004 0.1774,26.81899 3.1942,44.85788 2.4483,14.63904 2.9516,19.6846 2.1689,21.74315 -0.7057,1.85621 -0.645,9.58953 0.1971,25.14619 1.3105,24.2102 0.2439,66.76387 -2.6122,104.21787 -0.7706,10.10594 -2.1038,29.30359 -2.9626,42.66145 -3.1191,48.51428 -6.6298,85.39703 -11.9911,125.98 -1.3335,10.09489 -2.4248,20.02856 -2.4248,22.07482 0,3.35131 -0.2575,3.72048 -2.596,3.72048 -2.2128,0 -2.5054,-0.32955 -1.9818,-2.23229 3.4227,-12.43648 11.7766,-91.16923 14.9747,-141.13001 0.8383,-13.09608 2.1853,-32.74018 2.9933,-43.65358 2.6452,-35.72693 3.4749,-56.11612 3.472,-85.32289 0,-32.42134 -0.8025,-43.58226 -5.0256,-70.16648 -4.2514,-26.76291 -5.1466,-41.26345 -3.9026,-63.21322 1.6219,-28.61959 5.2251,-58.7116 13.0157,-108.6992 2.2111,-14.18741 3.7861,-27.13466 3.5,-28.77167 -0.286,-1.63701 -2.3558,-11.01261 -4.5995,-20.83466 -2.2436,-9.82205 -8.7296,-40.89418 -14.4133,-69.04918 -14.4157,-71.40967 -19.8844,-91.94825 -30.2216,-113.50212 C 987.03384,89.53639 970.07223,72.656507 943.05192,59.752464 893.58989,36.130957 812.43389,26.561142 627.80027,22.578378 601.88096,22.019268 572.63803,21.3868 562.81597,21.172894 530.10401,20.460487 361.02446,29.216485 286.01265,35.507505 188.6077,43.676571 134.96664,55.655477 105.36181,75.849724 94.597241,83.192533 83.645616,95.938211 77.431076,108.35597 c -8.794106,17.5722 -12.356977,33.63602 -21.56475,97.22842 -6.191981,42.76418 -10.878872,70.00823 -16.129171,93.75596 -1.990561,9.00355 -3.789652,18.60238 -3.99798,21.33073 -0.217664,2.8506 1.537814,17.4098 4.127088,34.22837 13.295617,86.36133 15.172961,121.48215 8.670898,162.2127 -5.189572,32.50878 -5.601656,38.18601 -5.509053,75.89769 0.08254,33.6116 0.55465,44.5367 3.880059,89.78746 0.80201,10.91339 2.148847,30.5575 2.992974,43.65357 3.118311,48.37853 13.60584,141.36255 16.868999,149.56309 0.551607,1.38623 0.169486,1.73623 -1.895585,1.73623 -2.159486,0 -2.586936,-0.4504 -2.589322,-2.72835 z"
         style="fill:#103434;stroke-width:0.99212664" />
      <path
         id="path174"
         d="m 443.26471,2379.1623 c -100.01212,-2.3916 -180.52461,-12.1235 -241.91779,-29.2417 -19.20046,-5.3537 -35.61013,-11.0575 -59.77779,-20.7781 -11.13723,-4.4796 -24.71407,-9.5732 -30.17077,-11.319 -11.2912,-3.6127 -11.04141,-3.3326 -14.928977,-16.7421 -7.627951,-26.3114 -16.073205,-86.9383 -21.300616,-152.913 -0.605295,-7.6394 -1.731939,-15.8989 -2.503655,-18.3544 -1.422934,-4.5276 -2.872107,-23.3794 -6.406427,-83.3386 -3.968627,-67.3273 -5.164617,-95.5406 -5.488462,-129.4726 -0.182275,-19.0984 -1.019505,-56.824 -1.860512,-83.8347 -3.512187,-112.8009 -4.044032,-153.9753 -4.043184,-313.0159 5.76e-4,-108.1055 0.40705,-172.9049 1.241571,-197.9293 3.784459,-113.4829 7.013591,-156.1233 14.463133,-190.9844 1.898847,-8.8858 5.239519,-42.9243 6.718627,-68.4567 1.83699,-31.7102 -0.246015,-94.62114 -3.670956,-110.87015 -0.416204,-1.9746 -0.182316,-2.72835 0.846608,-2.72835 1.555498,0 2.701923,9.01002 4.797011,37.70082 2.87855,39.41978 -1.496,127.46068 -7.462122,150.18038 -8.962692,34.1311 -14.057564,145.915 -15.131554,331.9932 -1.784929,309.2546 11.225885,633.765 31.046728,774.3548 4.673613,33.1501 12.079204,65.9728 15.504227,68.717 0.67852,0.5436 3.90127,1.7537 7.16167,2.6889 3.2604,0.9354 16.87733,6.0709 30.25986,11.4122 13.38253,5.3414 29.73318,11.5304 36.33479,13.7533 60.31215,20.3093 132.59194,31.3333 235.53267,35.9231 30.24393,1.3485 147.55104,1.3296 190.61234,-0.031 163.25718,-5.157 296.71681,-25.3466 362.38776,-54.8216 16.76963,-7.5267 16.7378,-7.4922 20.81885,-22.5962 22.07036,-81.6823 37.93516,-347.32 41.26096,-690.8644 2.3195,-239.5951 -3.841,-429.0162 -15.3795,-472.8832 -0.7895,-3.0012 -2.1006,-11.4839 -2.9136,-18.8504 -4.6873,-42.4693 -6.4074,-87.672 -4.568,-120.04734 1.5367,-27.04724 5.0492,-60.85814 6.4697,-62.27874 1.5472,-1.54723 1.5858,1.7451 0.1562,13.33977 -4.4718,36.26831 -5.9369,69.88381 -4.5397,104.15851 1.4082,34.5472 5.2237,75.3158 7.9255,84.6848 4.1139,14.2662 8.228,57.4004 10.8806,114.0801 5.9753,127.6719 6.3757,367.8144 0.9133,547.6539 -0.605,19.9169 -1.2408,54.2941 -1.413,76.3937 -0.2754,35.3593 -1.0656,61.7439 -2.9414,98.2206 -4.8529,94.3711 -6.8208,124.9293 -8.2194,127.6286 -0.5255,1.0142 -1.4843,8.9872 -2.1307,17.7179 -6.7466,91.1159 -16.23396,161.3077 -25.5589,189.0951 -3.19949,9.5342 -2.99822,9.369 -21.14648,17.3507 -60.58954,26.6476 -177.80393,45.7438 -325.41753,53.016 -41.4372,2.0414 -152.60802,3.3363 -196.44108,2.2881 z m 2.48032,-34.1334 c -113.37696,-4.8568 -219.04505,-20.8633 -291.0434,-44.0871 -26.01276,-8.3907 -29.60545,-10.025 -32.34138,-14.7111 -13.62385,-23.3352 -21.85776,-124.0648 -25.356328,-310.1963 -1.239467,-65.9425 -1.238993,-283.9748 8.26e-4,-378.9924 2.804448,-214.928 9.050612,-466.4823 14.891722,-599.74055 1.71537,-39.13441 2.06423,-43.15751 3.74234,-43.15751 1.30178,0 1.41782,1.77388 0.85986,13.14567 -9.24357,188.39919 -17.480883,580.16629 -17.475878,831.15409 0.0059,292.239 8.738778,455.1425 26.034578,485.646 l 2.25018,3.9685 22.79413,7.6222 c 75.59626,25.2788 178.9921,41.1927 301.59611,46.4193 30.5019,1.3003 111.05577,1.3093 141.87411,0.016 141.16028,-5.9249 260.21722,-26.1949 340.79549,-58.0218 16.07252,-6.3485 37.26079,-16.8995 39.0579,-19.4498 18.17201,-25.7869 27.11841,-257.1817 24.41142,-631.3892 -1.73709,-240.1336 -7.04024,-507.2804 -12.96899,-653.31537 -1.50715,-37.12344 -1.58773,-46.56775 -0.39793,-46.63477 1.5593,-0.0878 2.23466,9.38449 3.89087,54.57178 9.382,255.97356 15.28344,678.11186 12.58004,899.85886 -2.68482,220.2213 -8.9674,330.9278 -20.96064,369.3496 -3.4397,11.0195 -4.51633,12.0867 -19.26083,19.0928 -80.934,38.4572 -205.71677,62.0388 -364.65305,68.9124 -26.33605,1.139 -123.22682,1.0997 -150.32115,-0.061 z m 75.89769,-139.3613 c -124.33514,-10.7968 -228.44117,-27.4691 -284.74034,-45.6002 -22.76476,-7.3314 -42.32546,-16.4443 -49.71384,-23.1605 l -2.89145,-2.6283 3.4844,-36.7087 c 13.19902,-139.0535 29.34867,-273.8477 44.21825,-369.0711 6.10457,-39.093 16.31708,-95.7402 17.26032,-95.7402 0.15825,0 2.24193,0.8522 4.63038,1.8939 16.83485,7.3422 95.29733,12.5731 204.75224,13.6503 132.84378,1.3074 254.19435,-4.9223 364.21846,-18.6978 13.70115,-1.7154 25.58696,-2.8596 26.41291,-2.5427 3.48263,1.3365 18.2453,91.9543 28.97051,177.8302 13.03486,104.3693 26.64233,242.4942 28.96185,293.9824 l 0.68452,15.1949 -7.84446,7.6639 c -9.41503,9.1983 -17.7511,14.8331 -33.63975,22.7388 -53.1452,26.4435 -158.78686,48.7797 -282.26002,59.6793 -32.10644,2.8341 -44.00099,3.1226 -62.50398,1.5158 z m 26.05868,-212.7209 c 50.65186,-9.9966 88.9204,-41.9089 99.55078,-83.0159 2.23855,-8.6564 2.47602,-11.177 2.04426,-21.6996 -0.32604,-7.946 -1.19974,-14.3803 -2.62701,-19.3465 -10.93833,-38.0602 -48.06542,-69.0413 -95.17432,-79.4193 -34.75498,-7.6565 -71.22003,-2.8821 -103.26976,13.5213 -34.12922,17.4674 -56.19046,46.3369 -60.5724,79.2651 -2.56216,19.2536 4.31729,42.7055 17.90328,61.0321 20.43496,27.5652 54.24208,45.8717 95.25183,51.5787 10.50546,1.462 34.80925,0.4689 46.89334,-1.9159 z M 113.59208,1698.5419 c -0.25938,-0.4395 -0.0876,-19.7735 0.38168,-42.9644 0.46931,-23.191 1.53766,-76.3194 2.37412,-118.0631 6.85492,-342.0953 13.20375,-573.74281 17.00104,-620.31084 0.64313,-7.88694 2.13463,-10.85964 4.20003,-8.371 0.61305,0.73868 12.31457,52.42158 26.00336,114.85094 l 24.88874,113.5078 -0.617,107.6457 c -1.04441,182.2117 -2.98211,294.3146 -5.48146,317.1207 -0.77768,7.0963 -1.49956,9.1373 -5.96536,16.8662 -5.86482,10.1501 -24.38214,47.3323 -44.89418,90.146 -13.1622,27.4727 -16.18299,32.4657 -17.89097,29.572 z m 34.40012,-75.7046 c 10.59596,-21.554 21.32588,-42.7381 23.84426,-47.076 4.42849,-7.628 4.61023,-8.2634 5.53374,-19.3465 2.56226,-30.7504 4.9392,-190.8697 4.95535,-333.8117 l 0.01,-87.2183 -21.3846,-97.8133 c -11.76159,-53.79739 -21.74106,-99.15277 -22.17666,-100.78978 -0.63616,-2.39076 -0.91923,-1.31711 -1.43864,5.4567 -2.9209,38.09193 -10.30955,323.17818 -15.96789,616.11068 -0.80633,41.7437 -1.70427,86.6126 -1.99543,99.7087 l -0.52938,23.811 4.94196,-9.9212 c 2.71808,-5.4567 13.61139,-27.5564 24.20737,-49.1103 z m 826.0949,44.8937 c -16.66775,-35.1187 -45.47259,-93.2183 -50.54067,-101.941 -2.85344,-4.911 -5.57602,-10.9625 -6.0502,-13.4476 -2.85783,-14.9781 -4.80093,-115.8136 -5.62276,-291.7874 l -0.64709,-138.5576 24.67545,-112.7923 c 13.57149,-62.03572 25.22179,-113.53129 25.88955,-114.4346 3.50537,-4.7418 4.58408,4.57896 6.75659,58.38131 3.93768,97.51679 8.71442,286.46849 14.40912,569.97679 1.07415,53.4756 2.25314,111.8498 2.61999,129.7205 0.64827,31.5796 0.61366,32.4922 -1.23247,32.4922 -1.48597,0 -3.71902,-3.8338 -10.25751,-17.6103 z M 206.16371,1100.6556 c -0.47515,-1.1864 -2.72012,-10.8631 -4.98879,-21.5037 -2.26868,-10.6406 -9.69764,-43.0087 -16.50878,-71.9292 -30.5798,-129.84338 -40.49762,-175.06601 -42.92817,-195.74083 -0.43018,-3.65915 -1.10674,-7.40411 -1.50348,-8.32216 -1.0316,-2.38707 1.36653,-3.42382 30.27675,-13.08896 98.83495,-33.04213 205.80753,-55.2037 306.98184,-63.59759 42.08322,-3.49143 95.83604,-4.418 144.85049,-2.4969 102.85732,4.03145 175.44024,16.89596 265.51294,47.05918 30.94892,10.36406 60.4056,20.99994 61.67431,22.26866 0.74877,0.74876 -0.0273,11.1334 -2.65715,35.55894 -15.09865,140.22973 -28.26542,209.83706 -47.34406,250.28886 -6.65069,14.1012 -12.58235,22.8189 -15.52638,22.8189 -1.24398,0 -18.21289,-3.7681 -37.70869,-8.3736 -122.01116,-28.8229 -176.61711,-39.6863 -229.57498,-45.672 -76.68668,-8.6679 -138.82429,-4.3511 -242.90371,16.8748 -35.5672,7.2535 -75.53401,16.3488 -161.02801,36.6454 -5.60449,1.3304 -5.78355,1.3091 -6.62413,-0.7898 z m 39.17174,-12.939 c 240.58008,-57.342 311.0254,-61.3926 477.91141,-27.4797 47.84488,9.7225 72.22474,15.1667 135.5323,30.2652 12.7206,3.0337 23.43557,5.5121 23.81104,5.5073 1.25694,-0.016 7.99868,-11.339 12.41041,-20.8438 15.09,-32.5102 27.28138,-89.62133 38.32962,-179.55713 4.50503,-36.67211 11.23194,-98.30741 10.77005,-98.68044 -0.16923,-0.13667 -2.98643,-1.16601 -6.26044,-2.28744 -3.27402,-1.12142 -16.66773,-5.81342 -29.7638,-10.42666 -98.83198,-34.8147 -170.86,-48.96642 -276.30727,-54.28751 -25.31937,-1.27766 -98.57473,-1.26485 -122.52763,0.0214 -91.97748,4.93925 -188.40305,21.77498 -286.76618,50.06886 -27.1232,7.80191 -72.89691,22.91073 -74.54083,24.60416 -0.89243,0.9193 -0.83443,3.40559 0.24784,10.62533 3.88141,25.89243 18.69673,93.03776 40.60747,184.03949 6.02595,25.02764 18.84714,80.81594 20.29274,88.29934 1.73221,8.9668 1.16921,8.4582 7.67007,6.9277 3.17036,-0.7465 16.0328,-3.8047 28.5832,-6.7961 z M 62.884079,874.02971 c -0.817676,-4.02836 -6.149676,-43.83016 -8.472954,-63.24807 -2.888957,-24.14587 -5.67703,-54.86576 -7.473595,-82.34651 -0.85616,-13.09608 -2.210794,-32.74018 -3.010297,-43.65358 -0.799504,-10.91339 -2.006102,-27.65553 -2.681332,-37.20475 -0.727518,-10.28871 -1.201919,-36.15752 -1.164435,-63.4961 l 0.06326,-46.13389 3.242932,-19.34647 c 6.399383,-38.17702 5.348615,-67.94058 -4.948807,-140.17766 -2.161665,-15.16421 -3.931725,-30.12052 -3.933468,-33.23624 -0.0018,-3.11573 -0.675229,-9.50685 -1.496637,-14.20249 -1.479421,-8.45725 -1.466174,-8.65787 1.408553,-21.33073 6.97627,-30.75401 11.513738,-56.757 19.401917,-111.18712 8.171748,-56.38681 12.3348,-74.37235 21.363985,-92.29835 C 96.04495,64.750085 142.96969,46.496482 258.2331,34.961821 c 48.17672,-4.821148 91.34942,-7.663492 221.24424,-14.565963 61.60027,-3.273373 64.94148,-3.362789 91.27565,-2.442696 9.82205,0.343174 38.17207,1.079348 63.00004,1.635943 261.15522,5.854586 333.57822,24.128347 367.53107,92.735375 11.3608,22.95632 17.4179,45.1727 31.7833,116.57488 5.2147,25.91931 11.7703,57.39453 14.568,69.94493 5.0432,22.62349 5.0773,22.89113 3.9797,31.25199 -0.6087,4.63819 -1.3796,12.00473 -1.713,16.37009 -0.3332,4.36536 -2.1147,18.65198 -3.9587,31.74805 -4.7129,33.47112 -7.1095,55.54039 -8.474,78.0311 -1.3571,22.37027 -0.4847,37.56442 3.579,62.32645 1.3791,8.40329 2.4505,17.98616 2.381,21.29528 -0.07,3.30912 0.3423,15.33323 0.9151,26.72024 1.2156,24.15872 0.1604,63.37439 -2.8065,104.30429 -1.068,14.73308 -2.4184,34.60042 -3.001,44.14964 -2.6509,43.45272 -7.1907,89.38194 -12.9194,130.70498 -1.0773,7.77157 -1.9588,14.58004 -1.9588,15.12993 0,0.54991 -0.6998,0.99983 -1.5551,0.99983 -1.0179,0 -1.3752,-0.59964 -1.0343,-1.73622 2.6684,-8.89574 11.2346,-87.77258 13.9802,-128.72843 0.8414,-12.55041 1.9794,-29.06931 2.5289,-36.70869 0.5496,-7.63937 1.6826,-23.4886 2.5179,-35.2205 2.1326,-29.94947 2.9628,-87.30156 1.5151,-104.66936 -0.6367,-7.63937 -2.7781,-24.15828 -4.7586,-36.70868 -3.3382,-21.1537 -3.6012,-24.41172 -3.6034,-44.6457 0,-30.45121 3.7274,-65.83389 13.3156,-126.28645 l 3.9793,-25.08954 -4.4812,-19.55616 c -2.4647,-10.75589 -8.9741,-41.87902 -14.4652,-69.1625 -10.9984,-54.64708 -15.9966,-76.11535 -21.924,-94.16826 C 980.61257,50.683798 920.71781,30.383111 665.50108,22.541946 647.22115,21.980322 609.94199,21.2452 582.65851,20.908343 531.046,20.271106 528.54303,20.346293 427.39069,25.572498 242.12949,35.14433 166.31098,45.123858 122.02084,65.766473 98.043287,76.941861 82.447346,93.017878 73.338976,115.94687 c -6.731898,16.94658 -10.067843,33.05349 -17.500484,84.49747 -7.646046,52.92101 -11.587696,75.23484 -20.487278,115.9792 -1.140816,5.22293 -0.905347,7.86374 2.963524,33.23625 10.399008,68.19793 12.532193,89.11552 12.523874,122.80666 -0.0063,25.45355 -0.163431,27.72607 -3.155862,45.63783 -7.264856,43.48515 -7.762344,77.64149 -2.261479,155.26782 1.063369,15.00591 2.626726,37.77522 3.474125,50.59846 2.927614,44.30202 7.467778,88.15268 13.456407,129.96716 1.601967,11.18543 2.912668,20.89587 2.912668,21.57875 0,2.36966 -1.829569,1.22694 -2.380392,-1.48676 z"
         style="fill:#0e2d2d;stroke-width:0.99212664" />
      <path
         id="path172"
         d="m 420.94187,2378.2335 c -82.72253,-3.9699 -126.48676,-8.5343 -175.60642,-18.3149 -39.09958,-7.7853 -61.09679,-14.3614 -102.6851,-30.6978 -22.97852,-9.0262 -31.94143,-12.2338 -40.32386,-14.4307 -1.51149,-0.3962 -5.701192,-13.2392 -8.720573,-26.7319 -6.464328,-28.8871 -11.748745,-68.9517 -17.404234,-131.9528 -1.126625,-12.5504 -2.445704,-24.1583 -2.931285,-25.7953 -0.485581,-1.637 -1.137017,-6.7713 -1.447636,-11.4095 -0.310619,-4.6382 -1.23839,-18.2551 -2.061712,-30.2598 -4.458331,-65.0063 -8.327294,-147.6678 -8.915776,-190.4884 -0.239971,-17.4614 -0.896651,-45.1417 -1.459288,-61.5118 -4.421246,-128.6376 -6.185521,-324.2656 -4.04875,-448.9373 2.368799,-138.2096 6.855839,-216.0619 14.43834,-250.512 2.465127,-11.2 5.564066,-38.8789 7.367809,-65.8074 2.131845,-31.8266 0.939781,-86.38047 -2.54015,-116.24784 -0.428988,-3.68189 -0.308796,-5.134 0.369533,-4.46457 0.552919,0.54567 1.820697,9.69804 2.817283,20.3386 2.236449,23.87856 2.548862,83.30291 0.565928,107.64571 -2.119452,26.0188 -5.032492,50.8608 -6.608681,56.358 -5.877234,20.4977 -10.076626,78.0435 -13.661545,187.2091 -1.684494,51.2951 -1.669145,342.851 0.02165,411.2365 5.981726,241.9359 14.531537,396.3803 27.543715,497.5515 4.664358,36.266 10.862451,67.8679 15.297892,77.9988 1.67576,3.8276 2.24102,4.2227 8.95869,6.2631 3.94354,1.1978 18.16978,6.5526 31.61385,11.8995 13.44408,5.347 31.55366,12.0529 40.24352,14.902 52.22093,17.122 118.59204,27.8918 201.97205,32.7737 80.04581,4.6865 224.37976,3.1013 314.00807,-3.4488 127.06311,-9.2857 231.32315,-29.6877 277.61093,-54.3238 6.57018,-3.4968 7.57115,-5.0375 11.03209,-16.9805 22.73169,-78.4421 39.40669,-369.616 41.85379,-730.8324 1.4738,-217.5586 -4.7127,-391.2071 -15.4815,-434.5515 -1.7764,-7.1501 -3.8153,-23.8399 -5.9994,-49.1103 -1.8855,-21.8155 -2.7453,-58.2792 -1.9065,-80.8583 1.1596,-31.21467 5.1288,-70.441 7.1279,-70.441 0.5062,0 0.675,1.22776 0.3749,2.72835 -2.6765,13.38207 -5.5446,48.94521 -6.2211,77.13785 -0.961,40.0596 3.2257,99.9865 8.5835,122.8578 4.504,19.2266 8.2834,61.0971 10.8959,120.7093 3.1288,71.3993 3.4998,99.3167 3.4998,263.4096 0,161.2057 -0.5053,204.3486 -3.5209,300.6144 -0.5469,17.4614 -1.1729,46.2579 -1.3909,63.9922 -0.6328,51.4566 -8.0045,199.6436 -10.5372,211.819 -0.5675,2.7283 -1.9081,16.122 -2.979,29.7638 -7.1227,90.7345 -16.5913,157.9644 -25.65349,182.1496 l -2.07996,5.551 -11.64372,5.5215 c -61.67255,29.2454 -173.82583,47.875 -339.54156,56.4005 -18.77872,0.9662 -195.05656,2.034 -210.8269,1.2772 z m 43.65357,-32.8062 c -125.89458,-4.2974 -234.81161,-20.5179 -315.45415,-46.9794 -17.6476,-5.7908 -22.29706,-7.6968 -24.48282,-10.0367 -18.81914,-20.1459 -28.610397,-187.3179 -28.610236,-488.4793 1.26e-4,-235.5492 7.322516,-596.2677 16.373516,-806.59896 1.57586,-36.62069 1.8585,-39.6711 3.57723,-38.60886 0.70681,0.43684 0.86318,3.3972 0.46068,8.72169 -3.50566,46.37513 -11.00698,303.91573 -14.4812,497.17883 -4.11342,228.8205 -4.106191,478.5356 0.0174,601.2287 3.11293,92.6217 7.206,150.3477 13.38155,188.7252 3.30874,20.562 8.28624,35.7789 12.42847,37.9958 4.01201,2.1472 41.00175,13.9633 57.00984,18.2115 135.26673,35.8964 338.48635,46.7974 518.38617,27.8069 82.8562,-8.7464 152.20686,-22.5647 207.85052,-41.4149 18.79453,-6.367 29.87223,-10.8664 46.80821,-19.0122 14.08626,-6.7752 15.19824,-7.5143 17.19558,-11.4294 16.42867,-32.2029 25.0688,-245.1479 23.42757,-577.3949 -1.23222,-249.4294 -6.39519,-524.9586 -13.11589,-699.94537 -0.85925,-22.37246 -1.63607,-42.90948 -1.72625,-45.63783 -0.0902,-2.72835 0.28248,-5.18386 0.82815,-5.4567 1.1985,-0.59925 1.88523,9.17109 3.38206,48.11815 3.99978,104.07265 6.88036,223.68125 11.09863,460.84285 1.64023,92.212 2.31303,430.0072 1.00195,503.0082 -3.72244,207.2739 -12.01714,309.4196 -26.15814,322.1269 -2.83195,2.5448 -27.50526,14.1225 -41.83204,19.6291 -83.20966,31.9825 -202.49384,51.7241 -344.83917,57.0711 -23.13644,0.8691 -100.61838,1.0775 -122.52764,0.3296 z m 49.60633,-140.7434 c -144.94988,-13.8203 -240.94231,-30.564 -295.07076,-51.4685 -12.03759,-4.6489 -25.70423,-11.7623 -30.40451,-15.8254 l -3.77414,-3.2624 1.23247,-14.3104 c 8.75779,-101.686 27.92454,-267.4858 41.85368,-362.0507 6.53089,-44.3381 19.97228,-122.2937 21.36293,-123.8977 0.1802,-0.2078 1.79458,0.3148 3.58752,1.1614 9.34803,4.414 45.43519,8.2014 111.40169,11.692 31.35068,1.659 169.12883,2.3202 212.81116,1.0215 95.29487,-2.8333 175.51298,-8.6309 248.52267,-17.9615 17.90972,-2.2889 23.06271,-2.6555 23.97148,-1.7059 2.45589,2.5665 15.1769,79.4581 23.58988,142.5879 13.89801,104.2886 28.89485,249.7923 33.31877,323.268 1.22967,20.4234 1.49065,19.2717 -6.08138,26.8368 -30.64321,30.6151 -108.13881,55.347 -227.08514,72.4719 -75.35099,10.8483 -126.74108,14.5413 -159.23632,11.443 z m 80.36226,-5.8569 c 153.71956,-15.2738 262.99064,-43.6151 300.41564,-77.918 8.75562,-8.0251 8.75994,-8.0405 7.5991,-26.9728 -8.05237,-131.3266 -37.43743,-377.4313 -54.56143,-456.9611 -1.36031,-6.3178 0.30413,-6.1424 -26.01435,-2.7418 -56.53897,7.305 -127.98449,12.8525 -213.54919,16.5811 -39.58855,1.7252 -203.37082,1.7282 -238.60646,0 -55.32536,-2.7065 -89.3678,-5.618 -107.06914,-9.1572 -5.13957,-1.0275 -9.6663,-1.6695 -10.05939,-1.4265 -1.0136,0.6264 -1.2727,1.8512 -6.81335,32.2085 -18.26338,100.0651 -36.39113,244.0907 -54.18062,430.4673 -1.42623,14.9425 -2.35161,28.1304 -2.05639,29.3067 0.33932,1.3518 3.3776,3.8058 8.25935,6.6707 42.55166,24.9722 147.53825,45.6651 311.31334,61.3601 25.52504,2.4462 50.60323,2.0283 85.32289,-1.4214 z M 114.26628,1697.818 c -0.37259,-0.971 -0.37837,-16.7878 -0.0128,-35.1486 9.24664,-464.4583 15.36688,-698.92872 19.4089,-743.56703 0.72955,-8.0568 2.07389,-11.88832 3.62646,-10.33576 0.34335,0.34336 11.77315,51.43292 25.39955,113.53239 l 24.77528,112.908 -0.5553,141.8742 c -0.68752,175.6611 -2.56473,273.4508 -5.54961,289.0959 -0.47991,2.5155 -3.18835,8.5917 -6.01876,13.5027 -6.76013,11.7294 -20.65347,39.5737 -41.08806,82.3465 -9.12424,19.0984 -17.20123,35.3618 -17.94886,36.1407 -1.17388,1.2231 -1.45176,1.1755 -2.03677,-0.349 z m 6.99835,-16.6933 c 6.17062,-13.8768 40.65181,-84.0687 46.66611,-94.9961 3.75411,-6.8209 7.61499,-13.9642 8.57973,-15.874 3.76403,-7.4515 5.39437,-74.2823 6.86158,-281.2679 l 1.06895,-150.8033 -22.89474,-104.6693 c -12.59211,-57.56818 -23.12166,-105.29137 -23.399,-106.05155 -0.27734,-0.76019 -0.70097,-1.18544 -0.94142,-0.945 -2.54125,2.54125 -9.55798,255.16385 -16.36455,589.17005 -2.986,146.5271 -3.35288,170.6458 -2.59576,170.6458 0.38663,0 1.74523,-2.3439 3.0191,-5.2087 z m 854.34099,-11.429 c -14.01595,-29.7726 -48.94912,-100.1614 -53.01335,-106.8196 -3.46381,-5.6744 -4.35901,-8.1992 -5.10087,-14.3858 -2.60006,-21.6826 -4.53324,-130.5887 -5.50461,-310.1021 l -0.62274,-115.0867 24.91856,-113.5721 c 13.70522,-62.4646 25.3546,-114.00806 25.88752,-114.54097 0.61166,-0.61167 1.30531,-0.6214 1.88118,-0.0264 1.15026,1.18845 2.74204,23.34482 4.0236,56.00555 0.54598,13.91457 1.2307,31.10317 1.52159,38.19687 3.36993,82.17845 17.17208,691.87835 15.71582,694.23465 -1.40858,2.2791 -3.49619,-0.711 -9.7067,-13.9033 z m 5.94996,-6.4292 c -0.28415,-3.9562 -0.76481,-23.4886 -1.06813,-43.4056 -2.52308,-165.6745 -11.60316,-547.3248 -15.3664,-645.87443 -1.88702,-49.41606 -2.27348,-57.07023 -2.98037,-59.02893 -0.85842,-2.37855 1.73931,-13.67646 -25.23731,109.76096 l -21.38638,97.858 0.0117,54.4334 c 0.029,135.2976 2.64008,322.8471 5.01904,360.5045 l 1.03417,16.3701 4.27619,7.4409 c 9.03051,15.7139 35.85255,69.558 50.78113,101.9411 1.82377,3.9561 3.79229,7.1929 4.37449,7.1929 0.70015,0 0.88362,-2.4354 0.5419,-7.1929 z M 206.62995,1100.7306 c -0.2455,-0.682 -1.77121,-7.4905 -3.39047,-15.1299 -3.45573,-16.3035 -7.92493,-35.6333 -26.83817,-116.0788 -21.7975,-92.71334 -30.88183,-134.67387 -34.17475,-157.85329 -1.19694,-8.42551 -1.19722,-9.97084 -0.002,-10.90833 2.23324,-1.75166 53.43002,-18.56826 78.26612,-25.70807 127.08443,-36.53386 253.38088,-54.17726 369.11268,-51.5644 137.15235,3.09646 212.56369,16.91057 338.29432,61.96989 10.90191,3.90703 20.37473,7.5627 21.05069,8.1237 0.78407,0.65071 1.04649,2.51223 0.72482,5.14161 -0.27732,2.26689 -2.2765,20.41729 -4.44264,40.33424 -14.57505,134.01336 -28.18766,203.86105 -47.27536,242.57495 -4.07893,8.273 -11.15868,19.1145 -12.92462,19.7921 -0.69304,0.266 -12.53346,-2.1976 -26.31206,-5.4746 -173.15513,-41.1826 -240.59619,-52.5239 -312.25572,-52.5109 -72.49733,0.013 -137.82208,10.9216 -309.28289,51.6463 -15.9446,3.7872 -29.24071,6.8857 -29.54691,6.8857 -0.3062,0 -0.75757,-0.5581 -1.00307,-1.2402 z m 27.79211,-8.6735 c 181.12696,-43.2835 255.07425,-54.6841 334.34667,-51.5465 65.10882,2.577 126.33867,13.2336 268.37025,46.708 l 46.13389,10.8729 2.80519,-3.269 c 1.54286,-1.798 5.44451,-8.6265 8.67034,-15.1745 14.96386,-30.3748 26.13883,-78.4091 37.16106,-159.73243 5.45598,-40.25495 14.44021,-122.84773 13.46872,-123.81922 -2.32879,-2.32879 -75.09055,-26.96677 -104.5182,-35.39108 -80.95671,-23.17563 -166.24401,-33.7501 -272.09125,-33.73563 -115.37766,0.0158 -236.80534,18.53351 -357.66165,54.54348 -21.01169,6.26058 -60.58141,19.29959 -63.88059,21.04992 -1.66925,0.88559 -1.80553,1.78782 -1.25458,8.30557 1.33685,15.81496 11.25733,61.70762 36.86919,170.55881 17.74111,75.40028 25.26933,108.24678 25.28224,110.30948 0.004,0.6466 0.42984,2.2868 0.9462,3.6449 1.06806,2.8092 -1.9988,3.2114 25.35252,-3.3247 z M 63.280071,875.02184 c -8.1e-5,-0.40925 -1.322664,-10.11969 -2.939076,-21.57876 -6.717412,-47.6211 -10.623757,-86.20409 -13.912064,-137.40954 -1.103816,-17.18859 -2.43655,-36.60947 -2.961632,-43.15751 -2.817379,-35.13411 -3.963414,-76.84026 -3.148812,-114.59062 0.268962,-12.46427 1.173343,-21.57785 3.790442,-38.19688 6.625631,-42.07388 5.834846,-64.47438 -5.113525,-144.85049 -5.886241,-43.2131 -6.877588,-52.22239 -6.18392,-56.19902 0.319342,-1.83072 2.378082,-11.58803 4.574979,-21.68292 5.161821,-23.71892 10.681972,-56.28108 16.954436,-100.0105 8.545086,-59.57335 13.351923,-78.46968 24.98149,-98.205628 4.133829,-7.015313 18.296127,-21.429395 25.958241,-26.419734 39.3797,-25.648044 110.1517,-37.306498 286.3935,-47.178341 113.93743,-6.381983 137.95724,-7.21542 189.49619,-6.575117 115.46043,1.434441 202.91294,5.690867 258.94504,12.60319 93.80872,11.572581 137.75799,33.804783 161.08474,81.48643 11.4006,23.3036 16.9282,43.69984 31.7981,117.33115 5.7303,28.37482 12.4626,60.51973 14.9604,71.43312 l 4.5418,19.84253 -1.5613,12.40159 c -2.3004,18.27148 -4.219,32.73384 -7.4366,56.05515 -8.7354,63.31555 -9.4767,91.20639 -3.3885,127.48827 2.8083,16.73599 2.8626,17.57439 3.9234,60.51973 0.7352,29.768 -0.1,55.90671 -3.0436,95.24416 -0.7963,10.64056 -2.1272,30.06143 -2.9578,43.15751 -1.9907,31.38947 -3.9748,54.63735 -6.9854,81.85044 -2.8037,25.34257 -7.4922,61.8013 -8.0273,62.42131 -1.2615,1.46201 -1.1146,-2.22109 0.5737,-14.38312 5.6197,-40.48219 9.8079,-82.83435 12.943,-130.88076 1.1037,-16.91576 2.676,-40.09925 3.4938,-51.51885 4.0386,-56.38935 3.6849,-103.27276 -1.0186,-135.00096 -5.888,-39.71943 -5.6888,-37.25679 -5.135,-63.4961 0.656,-31.08644 3.4122,-55.90543 13.1329,-118.25822 1.8882,-12.11206 3.4331,-23.32841 3.4331,-24.92522 0,-1.59681 -1.9813,-11.5765 -4.4029,-22.1771 -2.4215,-10.60058 -9.1427,-42.69055 -14.9358,-71.31106 -10.6699,-52.71322 -13.11,-63.5597 -18.5136,-82.29712 C 996.07236,89.263886 966.63219,61.314021 905.59572,44.971124 851.30582,30.434661 768.58638,23.999848 591.74342,20.556297 539.76457,19.544145 523.72942,20.03186 412.01273,26.022871 232.04988,35.673708 159.53761,45.863627 117.52306,67.406574 90.460154,81.283072 75.919292,100.24486 67.320807,132.87205 c -4.02345,15.26709 -6.130876,27.19604 -11.969348,67.7517 -7.233234,50.24406 -12.26775,78.84006 -19.778212,112.34005 l -2.053355,9.15887 3.415071,21.59706 c 10.499252,66.39768 13.816781,97.27782 13.83158,128.74672 0.01038,22.06484 -0.217415,25.19345 -3.106119,42.66145 -5.283269,31.94794 -5.714402,37.83626 -5.666054,77.38588 0.04269,34.92262 0.571856,47.47425 3.93174,93.2599 0.800855,10.91339 2.147056,30.33427 2.991555,43.15751 1.883602,28.60141 4.725979,59.40474 7.964718,86.31502 2.628617,21.84083 7.080241,54.63809 7.911448,58.28744 0.279644,1.22775 0.05349,2.23228 -0.502584,2.23228 -0.556067,0 -1.011095,-0.33484 -1.011176,-0.74409 z M 540.26286,16.857362 c 1.7832,-0.220809 4.46194,-0.216253 5.95276,0.01013 1.49082,0.226377 0.0319,0.407039 -3.24218,0.401471 -3.27402,-0.0056 -4.49378,-0.190787 -2.71058,-0.411596 z"
         style="fill:#071414;stroke-width:0.99212664" />
    </g>
  </g>
  <g
     style="display:inline"
     id="layer4">
    <g
       id="g33"
       style="display:inline">
      <g
         transform="translate(-12.181567,2.183182)"
         id="g109" />
    </g>
  </g>
</svg>
