<?xml version="1.0" encoding="UTF-8" standalone="no"?>
<svg
   xmlns:dc="http://purl.org/dc/elements/1.1/"
   xmlns:cc="http://creativecommons.org/ns#"
   xmlns:rdf="http://www.w3.org/1999/02/22-rdf-syntax-ns#"
   xmlns:svg="http://www.w3.org/2000/svg"
   xmlns="http://www.w3.org/2000/svg"
   viewBox="0 0 1457.3333 3188"
   height="3188"
   width="1457.3333"
   id="svg2"
   version="1.1">
  <metadata
     id="metadata8">
    <rdf:RDF>
      <cc:Work
         rdf:about="">
        <dc:format>image/svg+xml</dc:format>
        <dc:type
           rdf:resource="http://purl.org/dc/dcmitype/StillImage" />
        <dc:title></dc:title>
      </cc:Work>
    </rdf:RDF>
  </metadata>
  <defs
     id="defs6" />
  <g
     transform="translate(-7.703389,5.805083)"
     id="g12">
    <path
       id="path26"
       d="m 1267.4529,3186.8601 c -0.3875,-0.6269 1.0181,-1.0769 3.1235,-1 2.1055,0.077 3.5517,0.5899 3.2138,1.1399 -0.8401,1.3676 -5.4688,1.2655 -6.3373,-0.1399 z m 9.8804,-0.1601 c 0,-0.7469 1.8434,-0.9491 4.3333,-0.4752 6.0764,1.1567 6.27,1.7752 0.5556,1.7752 -2.6889,0 -4.8889,-0.5849 -4.8889,-1.3 z m 11.7333,-0.3 c 1.2445,-1.2444 1.9556,-1.2444 3.2,0 1.2445,1.2444 0.8889,1.6 -1.6,1.6 -2.4889,0 -2.8444,-0.3556 -1.6,-1.6 z m 6.9334,0.2667 c 0,-0.7334 0.6,-1.3334 1.3333,-1.3334 0.7333,0 1.3333,0.6 1.3333,1.3334 0,0.7333 -0.6,1.3333 -1.3333,1.3333 -0.7333,0 -1.3333,-0.6 -1.3333,-1.3333 z m 12,0 c 0,-0.7334 0.6,-1.3334 1.3333,-1.3334 0.7333,0 1.3333,0.6 1.3333,1.3334 0,0.7333 -0.6,1.3333 -1.3333,1.3333 -0.7333,0 -1.3333,-0.6 -1.3333,-1.3333 z m 6.6666,0 c 0,-0.7334 0.6,-1.3334 1.3334,-1.3334 0.7333,0 1.3333,0.6 1.3333,1.3334 0,0.7333 -0.6,1.3333 -1.3333,1.3333 -0.7334,0 -1.3334,-0.6 -1.3334,-1.3333 z m 5.3334,0 c 0,-0.7334 0.6,-1.3334 1.3333,-1.3334 0.7333,0 1.3333,0.6 1.3333,1.3334 0,0.7333 -0.6,1.3333 -1.3333,1.3333 -0.7333,0 -1.3333,-0.6 -1.3333,-1.3333 z m 7.3333,0 c -0.4532,-0.7334 -0.1886,-1.3334 0.588,-1.3334 0.7766,0 1.412,0.6 1.412,1.3334 0,0.7333 -0.2646,1.3333 -0.588,1.3333 -0.3234,0 -0.9588,-0.6 -1.412,-1.3333 z m 7.3333,0 c 0,-0.7334 0.6,-1.3334 1.3334,-1.3334 0.7333,0 1.3333,0.6 1.3333,1.3334 0,0.7333 -0.6,1.3333 -1.3333,1.3333 -0.7334,0 -1.3334,-0.6 -1.3334,-1.3333 z m 8,0.2666 c 0,-0.5866 2.0912,-1.0666 4.6472,-1.0666 2.7587,0 3.9779,0.4252 3,1.0462 -2.1598,1.3719 -7.6472,1.3866 -7.6472,0.02 z m 12,-0.2333 c 0,-0.7469 1.8435,-0.9491 4.3334,-0.4752 6.0764,1.1567 6.27,1.7752 0.5556,1.7752 -2.689,0 -4.889,-0.5849 -4.889,-1.3 z m 10.6667,-0.033 c 0,-0.7334 0.6,-1.3334 1.3333,-1.3334 0.7334,0 1.3334,0.6 1.3334,1.3334 0,0.7333 -0.6,1.3333 -1.3334,1.3333 -0.7333,0 -1.3333,-0.6 -1.3333,-1.3333 z m 6.6667,0 c 0,-0.7334 0.6,-1.3334 1.3333,-1.3334 0.7333,0 1.3333,0.6 1.3333,1.3334 0,0.7333 -0.6,1.3333 -1.3333,1.3333 -0.7333,0 -1.3333,-0.6 -1.3333,-1.3333 z m 7.4529,0.1934 c -0.3875,-0.6269 1.0181,-1.0769 3.1235,-1 2.1054,0.077 3.5517,0.5899 3.2138,1.1399 -0.8401,1.3676 -5.4688,1.2655 -6.3373,-0.1399 z m 10.7719,-3.1934 c 1.0281,-5.401 1.4337,-5.8748 3.3705,-3.938 1.1788,1.1788 1.1195,2.3566 -0.2476,4.911 -2.5093,4.6888 -4.1059,4.1914 -3.1229,-0.973 z m 4.4418,3 c 0,-0.7334 0.5646,-1.3334 1.2547,-1.3334 0.69,0 1.6255,0.6 2.0787,1.3334 0.4532,0.7333 -0.1107,1.3333 -1.2547,1.3333 -1.1432,0 -2.0787,-0.6 -2.0787,-1.3333 z m 6.6667,0 c 0,-0.7334 0.6,-1.3334 1.3333,-1.3334 0.7334,0 1.3334,0.6 1.3334,1.3334 0,0.7333 -0.6,1.3333 -1.3334,1.3333 -0.7333,0 -1.3333,-0.6 -1.3333,-1.3333 z m 7.4529,0.1934 c -0.3874,-0.6269 1.0182,-1.0769 3.1235,-1 2.1055,0.077 3.5517,0.5899 3.2139,1.1399 -0.8402,1.3676 -5.4688,1.2655 -6.3374,-0.1399 z m 12.8999,0.053 c -0.9785,-0.6216 0.2313,-1.0463 2.9805,-1.0463 2.7492,0 3.9591,0.4247 2.9806,1.0463 -0.906,0.5754 -2.2472,1.0462 -2.9806,1.0462 -0.7333,0 -2.0745,-0.4708 -2.9805,-1.0462 z m 20.9805,-0.2468 c 0,-0.7334 0.6,-1.3334 1.3334,-1.3334 0.7333,0 1.3333,0.6 1.3333,1.3334 0,0.7333 -0.6,1.3333 -1.3333,1.3333 -0.7334,0 -1.3334,-0.6 -1.3334,-1.3333 z m -131.7644,-6.0704 c 0.603,-2.8962 2.9694,-3.0734 3.5106,-0.263 0.2811,1.4595 -0.3729,2.3334 -1.7462,2.3334 -1.2809,0 -2.0159,-0.8624 -1.7644,-2.0704 z m 57.3334,0 c 0.6029,-2.8962 2.9693,-3.0734 3.5105,-0.263 0.2811,1.4595 -0.3728,2.3334 -1.7461,2.3334 -1.281,0 -2.016,-0.8624 -1.7644,-2.0704 z m -784.23561,-1.9306 c -151.41815,-3.9777 -264.11673,-19.5865 -351.50708,-48.6838 -11.82889,-3.9386 -35.53349,-12.8238 -52.67689,-19.7451 -17.14338,-6.9213 -35.0652,-13.6489 -39.82625,-14.9503 -4.76104,-1.3013 -9.6806,-2.8804 -10.93235,-3.509 -4.75571,-2.3887 -14.8428,-42.1727 -20.9034,-82.4442 -5.60887,-37.2697 -12.058948,-95.3004 -16.153713,-145.3333 -1.274041,-15.5672 -1.839844,-18.2703 -4.186258,-20 -8.563152,-6.3124 -13.921877,-12.0963 -16.676919,-18 l -3.111081,-6.6667 -0.01307,-132.2833 c -0.01293,-131.2079 0.0097,-132.3443 2.791879,-139.7801 2.754289,-7.3615 2.778251,-8.2346 1.327899,-48.3834 -1.960802,-54.279 -3.728708,-117.3654 -5.741652,-204.8865 -2.237248,-97.2736 -2.246872,-453.7527 -0.01421,-526.6667 4.738255,-154.742 9.814995,-225.7082 18.933573,-264.6666 2.981807,-12.7396 7.111218,-52.0114 9.463472,-90 1.946749,-31.4399 0.85566,-104.2308 -1.976209,-131.8409 -1.119256,-10.9124 -2.395947,-20.2018 -2.837091,-20.6429 -0.441145,-0.4411 -12.612765,-0.8128 -27.048046,-0.8258 -24.376031,-0.022 -26.795255,-0.2455 -33.955711,-3.1357 -33.5535804,-13.5434 -35.1097529,-44.9438 -4.166699,-84.0757 4.743284,-5.9986 9.95592,-11.4531 11.583634,-12.1213 1.627714,-0.6681 10.740105,-1.8575 20.249756,-2.6432 9.509652,-0.7856 17.680396,-1.8678 18.157209,-2.4048 0.47685,-0.537 -1.132377,-15.3764 -3.576022,-32.9764 -8.603268,-61.9638 -14.193339,-118.3095 -18.519232,-186.66667 -1.113793,-17.6 -2.889457,-43.4 -3.945921,-57.33333 -3.387044,-44.67059 -5.105759,-97.3798 -4.17154,-127.93201 l 0.894871,-29.26535 -4.398136,-8.66592 -4.398136,-8.66593 -0.247024,-138.25947 C 36.269758,481.32157 35.656225,424.14307 34.859458,419.80927 33.691694,413.45752 34.19311,409.71405 39.388028,386 c 8.15865,-37.24307 14.030115,-71.24679 23.296644,-134.91903 8.5721,-58.90069 12.534372,-80.85912 17.972319,-99.6004 C 97.810852,92.361725 132.50499,63.298379 208.68996,44.227112 277.94415,26.890815 386.57166,16.566827 617.33332,5.3895333 699.70633,1.3996705 732.39496,0.93648155 819.33331,2.5272473 1058.4671,6.9028277 1172.6661,18.296681 1243.8572,44.882788 c 47.5933,17.773557 79.4969,45.947908 99.4704,87.842932 14.034,29.43695 21.8892,58.78545 40.6673,151.94095 7.3913,36.66666 16.4731,80.0913 20.1817,96.49921 5.0308,22.25728 6.4994,31.06005 5.7834,34.66667 -0.5279,2.65876 -1.3348,65.4901 -1.7932,139.6252 l -0.8335,134.79106 -4.9125,9.8756 -4.9124,9.87559 1.1618,11.33333 c 1.617,15.77127 1.6027,83.65906 -0.024,113.33334 -0.7436,13.56666 -2.5261,41.46666 -3.9612,62 -1.4352,20.53333 -2.9564,43.03333 -3.3805,50 -2.9092,47.78816 -9.3467,112.91173 -16.0685,162.55563 -1.8287,13.5056 -2.855,25.0219 -2.2806,25.5917 0.5744,0.5699 11.7562,1.9726 24.8484,3.1172 13.0922,1.1447 24.4503,2.4806 25.2402,2.9687 5.7861,3.5761 20.6072,24.3803 26.8341,37.6669 5.9376,12.6693 7.7815,26.3643 4.7756,35.4719 -4.0488,12.2679 -19.5685,22.9647 -37.7837,26.042 -10.6354,1.7967 -33.0619,1.0905 -48.6583,-1.5323 -7.8467,-1.3195 -9.9941,-1.3127 -10.8267,0.034 -1.1594,1.8761 -3.0845,17.6285 -6.2836,51.4172 -3.0309,32.014 -3.0049,105.5511 0.051,142 3.1056,37.0489 5.9817,61.8607 8.1916,70.6667 6.522,25.9881 11.6089,79.8536 15.2988,162 8.3399,185.662 8.1315,511.077 -0.5028,785.3333 -1.4643,46.5087 -1.4172,52.5632 0.4451,57.3333 1.838,4.7078 2.0822,20.9735 2.0822,138.6667 v 133.3333 l -3.1194,6.3344 c -1.7158,3.484 -6.0256,8.884 -9.5774,12 l -6.4578,5.6656 -1.4718,19.3334 c -10.2129,134.1682 -22.9764,226.8384 -36.0475,261.7242 l -2.8941,7.7243 -16.216,7.8187 c -86.5038,41.708 -268.5253,70.334 -491.54969,77.3048 -60.16494,1.8804 -179.34258,2.6352 -225.33332,1.427 z"
       style="fill:#e9ee44;stroke-width:1.33333337" />
    <path
       id="path24"
       d="m 1268,3186.6667 c -2.4373,-1.5751 -0.3321,-1.5751 3.3333,0 1.7583,0.7556 1.9854,1.1709 0.6667,1.2192 -1.1,0.04 -2.9,-0.5083 -4,-1.2192 z m 9.3333,0.033 c 0,-0.7469 1.8434,-0.9491 4.3333,-0.4752 6.0764,1.1567 6.27,1.7752 0.5556,1.7752 -2.6889,0 -4.8889,-0.5849 -4.8889,-1.3 z m 11.7333,-0.3 c 1.2445,-1.2444 1.9556,-1.2444 3.2,0 1.2445,1.2444 0.8889,1.6 -1.6,1.6 -2.4889,0 -2.8444,-0.3556 -1.6,-1.6 z m 6.9334,0.2667 c 0,-0.7334 0.6,-1.3334 1.3333,-1.3334 0.7333,0 1.3333,0.6 1.3333,1.3334 0,0.7333 -0.6,1.3333 -1.3333,1.3333 -0.7333,0 -1.3333,-0.6 -1.3333,-1.3333 z m 12,0 c 0,-0.7334 0.6354,-1.3334 1.412,-1.3334 0.7766,0 1.0412,0.6 0.588,1.3334 -0.4533,0.7333 -1.0887,1.3333 -1.4121,1.3333 -0.3233,0 -0.5879,-0.6 -0.5879,-1.3333 z m 7.3333,0 c -0.4532,-0.7334 -0.1886,-1.3334 0.588,-1.3334 0.7766,0 1.412,0.6 1.412,1.3334 0,0.7333 -0.2646,1.3333 -0.588,1.3333 -0.3234,0 -0.9588,-0.6 -1.412,-1.3333 z m 4.6667,0 c 0,-0.7334 0.6,-1.3334 1.3333,-1.3334 0.7333,0 1.3333,0.6 1.3333,1.3334 0,0.7333 -0.6,1.3333 -1.3333,1.3333 -0.7333,0 -1.3333,-0.6 -1.3333,-1.3333 z m 7.3333,0 c -0.4532,-0.7334 -0.1886,-1.3334 0.588,-1.3334 0.7766,0 1.412,0.6 1.412,1.3334 0,0.7333 -0.2646,1.3333 -0.588,1.3333 -0.3234,0 -0.9588,-0.6 -1.412,-1.3333 z m 7.3333,0 c 0,-0.7334 0.6,-1.3334 1.3334,-1.3334 0.7333,0 1.3333,0.6 1.3333,1.3334 0,0.7333 -0.6,1.3333 -1.3333,1.3333 -0.7334,0 -1.3334,-0.6 -1.3334,-1.3333 z m 8,0.1913 c 0,-0.628 1.7411,-1.078 3.869,-1 2.1278,0.079 3.5925,0.592 3.2546,1.142 -0.8518,1.3868 -7.1236,1.2619 -7.1236,-0.142 z m 12,-0.158 c 0,-0.7469 1.8435,-0.9491 4.3334,-0.4752 6.0764,1.1567 6.27,1.7752 0.5556,1.7752 -2.689,0 -4.889,-0.5849 -4.889,-1.3 z m 10.6667,-0.033 c 0,-0.7334 0.6355,-1.3334 1.412,-1.3334 0.7767,0 1.0412,0.6 0.588,1.3334 -0.4532,0.7333 -1.0887,1.3333 -1.412,1.3333 -0.3235,0 -0.588,-0.6 -0.588,-1.3333 z m 7.3333,0 c -0.4532,-0.7334 -0.1886,-1.3334 0.588,-1.3334 0.7766,0 1.412,0.6 1.412,1.3334 0,0.7333 -0.2645,1.3333 -0.588,1.3333 -0.3233,0 -0.9588,-0.6 -1.412,-1.3333 z m 7.3334,0 c -2.4374,-1.5751 -0.3322,-1.5751 3.3333,0 1.7583,0.7556 1.9855,1.1709 0.6667,1.2192 -1.1,0.04 -2.9,-0.5083 -4,-1.2192 z m 9.3333,0 c 0,-0.7334 0.6,-1.3334 1.3333,-1.3334 0.7334,0 1.3334,0.6 1.3334,1.3334 0,0.7333 -0.6,1.3333 -1.3334,1.3333 -0.7333,0 -1.3333,-0.6 -1.3333,-1.3333 z m 6,0 c -0.4532,-0.7334 -0.1887,-1.3334 0.588,-1.3334 0.7765,0 1.412,0.6 1.412,1.3334 0,0.7333 -0.2645,1.3333 -0.588,1.3333 -0.3233,0 -0.9588,-0.6 -1.412,-1.3333 z m 6,0 c 0,-0.7334 0.6,-1.3334 1.3333,-1.3334 0.7334,0 1.3334,0.6 1.3334,1.3334 0,0.7333 -0.6,1.3333 -1.3334,1.3333 -0.7333,0 -1.3333,-0.6 -1.3333,-1.3333 z m 8,0 c -2.4373,-1.5751 -0.3321,-1.5751 3.3333,0 1.7583,0.7556 1.9855,1.1709 0.6667,1.2192 -1.1,0.04 -2.9,-0.5083 -4,-1.2192 z m 12.3528,0.2462 c -0.9785,-0.6216 0.2313,-1.0462 2.9805,-1.0462 2.7492,0 3.9591,0.4246 2.9806,1.0462 -0.906,0.5755 -2.2472,1.0463 -2.9806,1.0463 -0.7333,0 -2.0745,-0.4708 -2.9805,-1.0463 z m 20.9805,-0.2462 c 0,-0.7334 0.6,-1.3334 1.3334,-1.3334 0.7333,0 1.3333,0.6 1.3333,1.3334 0,0.7333 -0.6,1.3333 -1.3333,1.3333 -0.7334,0 -1.3334,-0.6 -1.3334,-1.3333 z m -880.66661,-8.8131 c -5.13334,-0.252 -22.23334,-1.0976 -38,-1.8792 -76.30541,-3.7824 -142.97713,-11.3421 -200.66666,-22.7529 -51.40167,-10.1672 -88.63554,-21.3766 -142.66667,-42.9504 -17.6,-7.0275 -36.65209,-14.1342 -42.33798,-15.7927 l -10.33799,-3.0153 -2.80968,-7.3983 c -11.45672,-30.1667 -22.6249,-103.1073 -31.784984,-207.5913 -1.488009,-16.9728 -3.055997,-31.6728 -3.484415,-32.6667 -0.428418,-0.9937 -3.270184,-3.6221 -6.315036,-5.8408 -6.446333,-4.6971 -11.01859,-11.0052 -12.908534,-17.8092 -0.854708,-3.0769 -1.342529,-51.3796 -1.347273,-133.4027 -0.0067,-116.1454 0.208212,-129.3477 2.222622,-136.527 2.038283,-7.2644 2.092371,-12.2024 0.628959,-57.4208 -5.897352,-182.2242 -7.416184,-279.1796 -7.41707,-473.473 -9.2e-4,-201.7668 1.910461,-297.572 7.953669,-398.6666 3.561297,-59.5756 7.131034,-92.6076 12.608075,-116.6667 7.481642,-32.8648 12.752711,-120.5907 10.569488,-175.9071 -1.172345,-29.7037 -4.269276,-66.7771 -5.782808,-69.2261 -0.466833,-0.7553 -9.49171,-0.9716 -22.548842,-0.5403 -23.625299,0.7804 -30.994011,-0.2212 -43.098675,-5.8583 -3.771429,-1.7563 -9.275882,-5.8174 -12.232115,-9.0245 -9.0906964,-9.8623 -10.5015061,-21.3228 -4.7506209,-38.5912 3.6509289,-10.9627 14.8146669,-29.0135 24.0959039,-38.9609 l 5.077312,-5.4418 18.590822,-1.549 c 10.224952,-0.852 19.095236,-2.0535 19.71174,-2.67 0.616505,-0.6165 -0.976575,-16.3707 -3.540178,-35.0092 -8.689159,-63.1741 -13.588331,-112.1149 -18.074298,-180.55493 -1.442009,-22 -3.520649,-52.6 -4.6192,-68 -3.39344,-47.57086 -4.909,-103.01366 -3.535401,-129.33334 l 1.252539,-24 -3.559679,-6.66666 L 39.333332,706 38.551372,568 C 37.96753,464.96377 37.348036,428.15485 36.106265,422.71729 33.967446,413.35169 34.327423,410.34804 41.705167,376 49.452798,339.92991 54.33578,311.45276 62.738843,253.33333 70.991593,196.25355 73.926366,178.86112 78.085528,162.38385 86.731614,128.13083 99.722972,103.4886 117.72879,87.187848 168.47242,41.249399 264.36591,24.179671 558.66665,8.6977601 c 20.9,-1.09946 57.5,-3.0467934 81.33334,-4.3274074 88.21103,-4.73976075 287.74135,-1.2740488 402.66661,6.9940583 151.5306,10.901613 224.2114,31.283374 268.1152,75.18714 25.072,25.072119 40.6664,57.207409 54.563,112.438119 2.9997,11.92234 11.3834,51.077 18.6304,87.01033 13.7096,67.97765 16.0526,79.09997 22.7802,108.13491 l 4.0475,17.46824 -2.3091,12.53176 c -2.0484,11.11696 -2.3948,26.98265 -3.0681,140.53176 l -0.7591,128 -3.7448,6.75418 -3.7448,6.75419 1.406,18.57915 c 2.8162,37.2115 1.5626,91.33569 -3.8428,165.91248 -1.4085,19.43333 -2.928,41.63333 -3.3766,49.33333 -2.8426,48.78545 -6.978,92.6877 -14.2344,151.1125 -3.0596,24.6337 -4.9328,44.2803 -4.2834,44.9251 0.6348,0.6302 11.9542,2.0685 25.1542,3.1962 l 24,2.0505 5.8184,6.3211 c 11.1892,12.156 23.0637,32.4497 24.9945,42.7163 0.4471,2.3769 1.3471,3.9915 1.9999,3.5879 0.6529,-0.4035 1.1872,3.2018 1.1872,8.0117 0,4.81 -0.535,8.7454 -1.1888,8.7454 -0.6539,0 -1.6006,1.65 -2.1039,3.6666 -2.1976,8.8067 -13.6365,18.4409 -26.7073,22.494 -9.389,2.9113 -34.4368,3.4549 -51.2322,1.1117 -17.3388,-2.4189 -17.1008,-2.4243 -18.0001,0.4091 -1.3813,4.3521 -6.0127,50.1379 -7.3828,72.9852 -1.7457,29.1127 -1.7508,67.3534 -0.013,97.5188 1.8673,32.413 6.3497,77.7948 8.8053,89.1479 8.0132,37.048 12.6388,85.9611 16.4545,174 4.1316,95.3293 4.7014,138.0669 4.6918,352 -0.013,209.9797 -0.6232,262.2287 -4.7146,401.3333 -1.5725,53.4638 -1.548,44.4076 -0.5846,216.6667 0.575,102.8316 0.373,134.6875 -0.8834,139.2525 -1.1016,4.0031 -3.8882,8.2706 -8.6085,13.183 -7.6135,7.9234 -7.3795,7.104 -9.206,32.2312 -9.1399,125.7336 -23.9139,230.8298 -36.4253,259.1138 -2.4639,5.5702 -3.721,6.6046 -14.7711,12.1542 -80.1508,40.2541 -239.5663,67.1492 -463.46332,78.1909 -26.21579,1.2928 -258.22347,2.7315 -278.66666,1.728 z m 268.66666,-9.8365 c 215.84215,-9.1579 381.59625,-36.0935 465.77925,-75.6908 14.4968,-6.819 13.7327,-5.8623 18.996,-23.7864 25.4951,-86.8234 44.5525,-359.6111 54.1571,-775.2066 2.2224,-96.1646 2.2496,-451.8912 0.04,-524.6666 -4.5953,-151.3556 -10.534,-236.7038 -18.292,-262.8846 -4.9266,-16.6261 -10.0014,-76.8194 -10.9417,-129.7821 -0.8197,-46.1741 0.4971,-76.1961 5.0004,-114 1.3977,-11.7333 2.5532,-22.2388 2.5677,-23.3455 0.019,-1.4076 -3.4789,-2.9572 -11.6402,-5.1575 -6.4167,-1.7299 -12.6656,-3.431 -13.8866,-3.7803 -1.9254,-0.5508 -2.0716,0.045 -1.1018,4.4908 3.2532,14.9146 11.3002,290.3025 15.968,546.4592 3.954,216.9896 4.611,293.057 4.6476,538 0.039,255.644 -0.6774,322.5953 -4.6734,437.3333 -5.9131,169.7811 -16.876,263.2312 -32.2654,275.0368 -4.4714,3.4301 -36.2893,18.2968 -55.6884,26.02 -166.4397,66.2632 -480.84275,94.8932 -763.61824,69.536 -98.299,-8.8148 -188.7341,-24.2815 -260.1523,-44.4925 -29.65702,-8.3928 -62.6933,-20.1116 -66.33118,-23.5292 -16.2909,-15.3046 -27.20414,-97.4602 -33.90476,-255.2378 -2.75597,-64.894 -3.95377,-120.5306 -5.50373,-255.6414 -3.50265,-305.3275 6.38841,-886.231 20.85853,-1225.0252 2.64609,-61.9541 3.06262,-65.3334 8.05317,-65.3334 4.2734,0 6.16875,4.1965 5.36079,11.8693 -2.29107,21.7567 -8.86804,210.305 -13.39932,384.1307 -17.48654,670.8058 -13.7067,1173.8708 10.05324,1338 4.49656,31.0615 10.58874,53.8463 15.61188,58.3887 2.70305,2.4444 34.61309,13.5135 60.30538,20.9191 96.41219,27.7901 207.58228,43.9918 358.66666,52.2714 47.24867,2.5892 185.25397,2.196 233.99999,-0.6668 113.11778,-6.6434 201.03269,-17.3225 283.17309,-34.3974 68.8758,-14.3175 134.3829,-35.261 179.1128,-57.2648 13.3698,-6.5771 16.7935,-8.86 18.626,-12.4204 19.6586,-38.1939 31.6945,-278.8566 31.7414,-634.6828 0.012,-87.1708 -0.2563,-101.3914 -1.9339,-102.6667 -1.0709,-0.8141 -15.8402,-25.7803 -32.8206,-55.4803 -36.4989,-63.8394 -59.6825,-102.7041 -71.3546,-119.6178 -10.0022,-14.494 -10.3608,-16.0591 -12.4594,-54.3822 -3.4255,-62.553 -6.7391,-268.0749 -6.7501,-418.6666 0,-46.9334 -0.4044,-102.9995 -0.8911,-124.5915 -0.8221,-36.4765 -1.0345,-39.0288 -2.9975,-36.0201 -1.162,1.781 -3.6128,4.932 -5.4461,7.0022 l -3.3333,3.764 -77.3334,-19.3369 C 906.52915,1410.94 820.38178,1396 727.53782,1396 c -99.31754,0 -190.05693,16.6201 -449.20449,82.278 l -19.66667,4.9828 -1.7e-4,92.0363 c -4.3e-4,232.2482 -4.48116,482.2224 -9.41555,525.2812 -1.36383,11.9012 -1.37484,11.9265 -12.47004,28.6666 -13.5256,20.4072 -34.412,55.5688 -72.55829,122.1499 -15.88911,27.7331 -29.48928,50.3073 -30.22261,50.1652 -2.64692,-0.5131 -1.28226,-76.6339 7.36628,-410.8933 12.60869,-487.317 21.70228,-734.9421 27.32341,-744.0373 1.48831,-2.4081 3.09685,-1.317 4.47765,3.0373 0.75579,2.3833 14.33634,54.1333 30.17899,115 39.07253,150.1146 43.39717,166.5213 44.07117,167.1953 1.41933,1.4193 -0.52809,-7.8705 -19.50417,-93.0405 -46.217,-207.4352 -59.59439,-273.6501 -58.35059,-288.8215 0.3868,-4.7179 1.05268,-5.641 5.77059,-8 2.93333,-1.4667 5.53528,-2.7686 5.78209,-2.8932 0.24682,-0.1245 -2.05109,-3.3891 -5.10646,-7.2544 -6.88728,-8.7131 -10.51218,-15.8031 -15.94428,-31.1857 -19.6759,-55.71822 -32.5295,-157.02179 -40.34848,-318.00003 -2.71323,-55.86024 -2.29654,-258.13692 0.64684,-314 5.22946,-99.2511 14.04601,-161.49327 26.34673,-186 2.41369,-4.8088 15.10753,-17.6651 21.66517,-21.94243 5.85535,-3.81927 3.23007,-3.91132 -4.19804,-0.14721 -8.36725,4.24 -9.60258,4.24914 -13.50061,0.0999 -12.017,-12.79152 4.57053,-51.97924 33.04692,-78.072687 16.23911,-14.880186 24.41391,-17.339964 84.07066,-25.296635 56.23987,-7.500944 82.23442,-9.607988 120.87279,-9.797599 l 36,-0.176662 -0.18295,4.20786 c -0.10187,2.344137 -2.15052,7.06856 -4.62525,10.666666 -5.75507,8.367486 -23.74572,27.094003 -30.57818,31.828898 -2.93073,2.030994 -5.11516,3.90616 -4.85428,4.167033 0.26087,0.260873 12.12175,-0.999773 26.35748,-2.801437 164.08281,-20.766158 412.69461,-25.15033 607.04562,-10.704987 14.5727,1.083129 27.0765,1.969327 27.7864,1.969327 0.7098,0 -1.6133,-2.305978 -5.1625,-5.124395 -11.1143,-8.825959 -23.4893,-23.615055 -33.0218,-39.463835 -5.8225,-9.680501 -6.1524,-13.679309 -1.2304,-14.914649 5.4953,-1.379233 66.7822,0.511097 89.7992,2.76976 34.415,3.377163 68.6051,7.775011 99.0008,12.73442 20.9252,3.414193 23.0863,3.220411 8.9992,-0.806924 C 1149.449,26.265648 1039.2687,16.569233 865.33331,12.056683 741.94382,8.8554877 722.61981,8.9007027 647.99999,12.565206 420.83271,23.721159 321.84085,31.616941 251.99999,44.150931 172.56436,58.406848 131.02178,77.945899 108.08952,111.83748 91.088198,136.96373 84.403962,162.28144 72.00281,248.52224 62.122172,317.23472 55.254019,356.80551 46.549071,395.17365 l -3.896351,17.17366 3.974706,24.82634 c 14.543813,90.84192 21.29779,158.34555 19.359663,193.49302 -0.505474,9.16666 -2.386564,25.96666 -4.1802,37.33333 -6.584349,41.72649 -7.306901,49.80936 -8.064129,90.20996 -0.751727,40.10705 0.444443,75.64749 4.256103,126.45671 1.045265,13.93333 2.843728,40.33333 3.996582,58.66666 2.620507,41.67276 7.657591,97.31017 12.024683,132.81927 4.311592,35.0578 9.953757,74.9324 10.709743,75.6884 0.324752,0.3247 15.649409,-0.6663 34.054779,-2.2023 18.40539,-1.536 34.24919,-2.4916 35.20845,-2.1235 0.95927,0.3681 2.09506,1.9778 2.52396,3.577 1.29879,4.8427 0.9085,84.4916 -0.43128,88.0155 -1.0274,2.7023 -3.79209,4.1236 -15.66666,8.0541 -7.93052,2.625 -20.04657,6.2649 -26.92457,8.0887 -6.87799,1.8238 -12.79919,3.6097 -13.15823,3.9687 -0.359034,0.3591 0.45735,13.1316 1.81418,28.3835 5.6316,63.3034 0.87155,180.7621 -8.885465,219.2572 -25.463015,100.461 -27.917703,728.1748 -4.584982,1172.4734 10.810894,205.8596 25.309697,340.9915 42.474107,395.8676 l 2.8779,9.201 8.74855,2.3965 c 4.81171,1.318 20.10449,6.9931 33.98397,12.6111 60.28039,24.3996 97.68851,35.7016 153.90208,46.4978 69.01782,13.2555 135.84632,19.8015 244.66666,23.9659 23.68736,0.9064 224.65373,-0.5544 255.33333,-1.8561 z M 715.99998,2959.1267 c -1.83333,-0.1606 -12.63333,-0.9663 -24,-1.7904 -32.67142,-2.3688 -109.26787,-10.2635 -149.33333,-15.3915 -119.26223,-15.2645 -203.90468,-32.0035 -262.73904,-51.9595 -21.09096,-7.1538 -50.40403,-21.1554 -57.83695,-27.6262 l -5.24266,-4.564 2.31787,-25.231 c 17.3993,-189.3972 44.19575,-412.7473 66.90884,-557.6896 9.31712,-59.4566 19.80292,-115.8012 21.973,-118.0701 0.67094,-0.7015 4.34147,-0.304 8.88124,0.9616 21.70403,6.0512 81.46491,11.6088 170.40437,15.8472 48.77193,2.3241 270.20104,2.3376 321.99999,0.02 112.4998,-5.0345 219.14049,-13.5321 299.99999,-23.9053 15.0333,-1.9287 30.9333,-3.5563 35.3333,-3.6171 l 8,-0.1107 3.6406,18 c 25.4149,125.6598 66.5097,474.3244 76.3777,648.0187 l 0.8722,15.352 -5.3298,6.648 c -37.4902,46.7625 -172.3756,88.4852 -361.56065,111.8375 -63.75743,7.87 -137.83317,14.3945 -150.66667,13.2705 z M 456.80715,85.95002 c -5.18921,-5.189217 -1.78391,-7.074251 17.95595,-9.939636 76.51745,-11.107073 205.75624,-17.124473 333.23688,-15.515617 61.65735,0.77814 111.99855,2.297662 141.0205,4.256629 9.89512,0.667915 12.60484,1.302881 13.615,3.190387 0.8453,1.579449 0.72863,3.072946 -0.35384,4.529174 -1.44338,1.941796 -3.81104,2.03983 -22.28166,0.922574 -92.67492,-5.605746 -261.2029,-4.989011 -357.33333,1.307673 -41.79125,2.737389 -113.4075,10.232147 -121.52617,12.717912 -1.20605,0.369271 -3.15605,-0.291823 -4.33333,-1.469096 z m -0.89041,-16.77224 c -2.46652,-4.608752 0.6856,-6.069323 19.41658,-8.996896 78.75571,-12.309173 193.70462,-18.506584 316.66666,-17.072917 70.19301,0.81841 98.20179,1.920996 144,5.668666 33.7179,2.759139 35.22478,3.072784 35.7388,7.438759 0.24366,2.069793 -0.36098,3.738053 -1.51539,4.181043 -1.05645,0.405401 -9.93891,-0.08921 -19.73879,-1.099143 -84.6365,-8.722248 -243.08958,-9.886773 -351.15128,-2.580731 -50.94673,3.444504 -99.37697,8.512256 -127.33333,13.324191 -14.41944,2.481919 -14.28939,2.488896 -16.08325,-0.862972 z m 0,-13.333333 c -1.16815,-2.182702 -1.10324,-3.22237 0.28642,-4.588098 3.52707,-3.466312 69.96077,-11.79105 126.46349,-15.847006 61.80666,-4.436692 92.94363,-5.360276 180,-5.339158 87.68282,0.02127 118.90954,0.994516 172.40069,5.373223 34.0349,2.786048 36.15784,3.196832 36.71596,7.104451 0.56649,3.966257 -1.97035,5.696388 -7.11666,4.853573 -6.92918,-1.1348 -50.84793,-4.602664 -80.66666,-6.369513 -38.38196,-2.274246 -207.419,-2.252194 -247.33333,0.03227 -65.18484,3.730795 -114.85708,8.313623 -155.33333,14.331263 -12.1,1.798919 -22.42889,3.270863 -22.95309,3.270989 -0.5242,1.27e-4 -1.63276,-1.269769 -2.46349,-2.82199 z m 0.89041,-9.894427 c -6.31084,-6.310845 -0.86761,-7.94812 46.11104,-13.869781 46.22868,-5.827126 98.87702,-9.71497 165.08179,-12.190548 47.28624,-1.768163 186.36577,-0.93146 223.33333,1.343573 35.83738,2.20548 74.29777,5.612617 77.62168,6.876364 3.55159,1.350309 4.12391,6.226709 0.87704,7.472649 -1.19236,0.457555 -13.64236,-0.167162 -27.66666,-1.388258 -99.5165,-8.664911 -256.00688,-8.723156 -366.83205,-0.136532 -39.41944,3.054177 -105.2651,10.77549 -114.19284,13.390684 -1.20605,0.35329 -3.15605,-0.320878 -4.33333,-1.498151 z M 1329.3934,1962 c -2.8063,-205.4077 -7.1184,-409.2628 -12.0711,-570.6667 -2.0471,-66.7167 -5.2995,-148.9734 -6.0194,-152.2408 -1.0261,-4.6572 1.5501,-9.7443 4.9974,-9.8679 2.6699,-0.096 2.5364,-0.3266 -1.1142,-1.9279 -2.281,-1.0005 -5.8273,-2.2408 -7.8807,-2.7562 l -3.7335,-0.937 0.9087,23.8649 c 3.4648,91.0007 5.0662,135.584 6.8435,190.5316 3.0138,93.1771 8.1862,277.5008 11.973,426.6667 1.8431,72.6 3.9552,153.6225 4.6936,180.05 0.7384,26.4276 1.4805,56.4276 1.6491,66.6666 0.2225,13.5151 0.4329,10.3956 0.7678,-11.3833 0.2538,-16.5 -0.2026,-78.6 -1.0142,-138 z M 89.323178,1251.1595 c 13.395982,-2.2522 40.188822,-9.255 51.343482,-13.4196 l 6.66667,-2.4889 0.35464,-37.9417 c 0.19504,-20.868 0.11013,-38.5788 -0.18861,-39.3574 -0.37175,-0.9688 -17.32083,-0.023 -53.687977,2.9963 -29.229594,2.4267 -53.852684,4.6711 -54.717976,4.9876 -3.419805,1.2509 -16.7636,19.2295 -22.75145,30.6537 -6.208119,11.8446 -6.330154,12.3122 -6.335998,24.2827 -0.0057,11.6356 0.185713,12.445 4.098614,17.3334 11.936877,14.9125 37.442919,19.3051 75.218605,12.9539 z M 1277.9711,1181.3178 c 7.7454,-29.6477 14.6705,-54.4928 15.3891,-55.2113 0.8248,-0.8249 1.7634,-0.8395 2.546,-0.04 1.2201,1.2468 3.8384,24.9234 4.3423,39.2667 0.1417,4.0333 0.5938,-2.0884 1.0046,-13.6038 0.4752,-13.3207 1.3169,-21.5058 2.3139,-22.5003 1.1983,-1.1955 7.7857,-1.0534 28,0.6039 14.5382,1.192 27.677,2.1671 29.1974,2.167 2.541,-10e-5 2.9518,-1.4271 5.0849,-17.6668 7.8884,-60.0569 12.6103,-107.2231 16.1844,-161.66668 1.1555,-17.6 3.2668,-47.9 4.692,-67.33333 6.6837,-91.1402 6.4643,-148.40656 -0.7539,-196.66667 -7.5344,-50.37611 -7.6409,-51.66408 -6.8884,-83.33333 0.9258,-38.95598 7.2923,-95.96504 18.2882,-163.75918 2.1789,-13.43421 3.9617,-26.1701 3.9617,-28.30197 0,-2.13188 -2.6764,-15.74024 -5.9475,-30.24083 -3.271,-14.50064 -11.9994,-56.36474 -19.3964,-93.03141 -14.8154,-73.44015 -21.385,-101.35587 -29.4512,-125.145 -20.1093,-59.30744 -50.2145,-90.880373 -106.8133,-112.021023 -16.2768,-6.079664 -18.4106,-6.132856 -6.9784,-0.173957 17.6978,9.224687 36.8297,28.150465 44.7813,44.298811 3.9071,7.934779 4.4173,21.667439 0.9344,25.150419 -2.0505,2.05042 -1.9391,2.62295 1.5929,8.19247 8.2607,13.02575 16.2912,42.18617 21.3149,77.39847 3.2068,22.47812 7.4466,77.929 9.2999,121.63314 1.7694,41.72454 1.7724,184.91242 0.01,242.81768 -6.2278,204.04512 -23.6023,406.24267 -37.8349,440.30609 -1.1192,2.6786 -3.5221,5.5479 -5.3397,6.376 -2.8518,1.2994 -4.4605,0.8631 -11.736,-3.183 -34.3968,-19.12902 -115.204,-42.77706 -196.4314,-57.4851 -30.8528,-5.5866 -33.5189,-5.17791 -6.6667,1.02196 47.1739,10.89191 68.3131,16.71636 109.3334,30.12449 43.4399,14.19905 118.313,41.45325 121.2032,44.11875 1.6422,1.5144 -9.5247,112.2297 -17.8763,177.2365 -2.7107,21.0995 -3.1299,26.2474 -2.0494,25.1669 0.336,-0.336 6.9481,-24.8681 14.6936,-54.5158 z m 147.9183,50.0988 c 9.7226,-3.4706 16.5126,-8.4901 20.3556,-15.0479 3.0739,-5.245 3.3622,-6.8906 2.8268,-16.1367 -0.4848,-8.3753 -1.5,-12.1557 -5.4417,-20.2641 -5.1279,-10.5486 -19.1735,-30.1935 -23.1975,-32.4454 -2.5904,-1.4497 -105.3549,-10.5133 -108.0993,-9.5342 -1.2813,0.4572 -1.6667,9.5232 -1.6667,39.2074 v 38.6127 l 7,2.6046 c 14.6304,5.4436 44.2027,12.8321 61.6667,15.407 9.9076,1.4607 40.0971,-0.098 46.5561,-2.4034 z M 259.99999,1012.2068 c 49.65131,-15.56433 98.03876,-28.56616 159.33333,-42.81325 22.91662,-5.32667 10.81599,-3.87924 -23.33333,2.79101 C 312.81846,988.43209 240.92277,1008.7828 208,1025.3997 c -17.50914,8.8372 -15.91151,9.4704 5.33333,2.1138 11.36666,-3.936 32.36666,-10.8241 46.66666,-15.3067 z m -64.3027,9.8241 c 47.89598,-27.74949 181.0877,-59.59203 348.3027,-83.26975 146.56913,-20.75427 225.62833,-24.48982 325.33332,-15.37198 157.86049,14.43606 310.30939,46.3035 380.14039,79.46333 11.539,5.4794 14.9594,6.6041 15.8249,5.2037 3.3796,-5.4683 10.2187,-48.5838 15.2602,-96.20349 21.0595,-198.92124 29.1291,-485.0443 18.0645,-640.51938 -6.1028,-85.7552 -19.3605,-140.26882 -34.942,-143.67609 -1.6581,-0.36257 -12.3147,-2.80242 -23.6813,-5.4219 C 1169.9607,106.09462 1064.0805,94.716419 918.66665,87.703928 863.09553,85.024045 659.2798,85.473317 603.33332,88.399019 446.93759,96.577677 334.77946,111.11523 255.74103,133.45275 c -54.13237,15.29865 -91.72659,35.53944 -101.40385,54.59597 -12.27602,24.17405 -21.41454,98.75033 -26.54417,216.61795 -2.07636,47.71016 -2.06761,204.03776 0.0143,255.33333 7.37976,181.82832 23.06871,302.39876 45.60733,350.4949 4.53224,9.6716 9.68524,17.5051 11.51508,17.5051 0.25568,0 5.1011,-2.6861 10.76758,-5.9691 z m 245.27493,-57.50313 c -0.44306,-0.44305 -1.59307,-0.49041 -2.55556,-0.1052 -1.06364,0.42563 -0.74771,0.74158 0.80556,0.80555 1.40554,0.0579 2.19305,-0.25724 1.75,-0.70029 z m 583.99998,-12 c -0.4431,-0.44305 -1.5931,-0.49041 -2.5556,-0.1052 -1.0636,0.42563 -0.7477,0.74158 0.8056,0.80555 1.4055,0.0579 2.1931,-0.25724 1.75,-0.70029 z m -90.48939,-13.15606 c -0.34556,-0.34555 -10.49556,-1.83784 -22.55556,-3.31619 -65.08067,-7.97775 -137.01071,-11.08987 -188.96537,-8.17576 -31.36648,1.75932 -77.51655,6.19695 -78.80384,7.57748 -0.4536,0.48644 1.87528,0.52591 5.17528,0.0877 18.01714,-2.39252 80.34305,-3.85906 133.33333,-3.13736 56.83004,0.774 87.95512,2.16639 124,5.54716 20.33917,1.90768 28.73452,2.33535 27.81616,1.41698 z"
       style="fill:#e7ed32;stroke-width:1.33333337" />
    <path
       id="path22"
       d="m 1268,3186.6667 c -2.4373,-1.5751 -0.3321,-1.5751 3.3333,0 1.7583,0.7556 1.9854,1.1709 0.6667,1.2192 -1.1,0.04 -2.9,-0.5083 -4,-1.2192 z m 9.3333,0.033 c 0,-0.7469 1.8434,-0.9491 4.3333,-0.4752 6.0764,1.1567 6.27,1.7752 0.5556,1.7752 -2.6889,0 -4.8889,-0.5849 -4.8889,-1.3 z m 11.7333,-0.3 c 1.2445,-1.2444 1.9556,-1.2444 3.2,0 1.2445,1.2444 0.8889,1.6 -1.6,1.6 -2.4889,0 -2.8444,-0.3556 -1.6,-1.6 z m 6.9334,0.2667 c 0,-0.7334 0.6,-1.3334 1.3333,-1.3334 0.7333,0 1.3333,0.6 1.3333,1.3334 0,0.7333 -0.6,1.3333 -1.3333,1.3333 -0.7333,0 -1.3333,-0.6 -1.3333,-1.3333 z m 12,0 c 0,-0.7334 0.6354,-1.3334 1.412,-1.3334 0.7766,0 1.0412,0.6 0.588,1.3334 -0.4533,0.7333 -1.0887,1.3333 -1.4121,1.3333 -0.3233,0 -0.5879,-0.6 -0.5879,-1.3333 z m 7.3333,0 c -0.4532,-0.7334 -0.1886,-1.3334 0.588,-1.3334 0.7766,0 1.412,0.6 1.412,1.3334 0,0.7333 -0.2646,1.3333 -0.588,1.3333 -0.3234,0 -0.9588,-0.6 -1.412,-1.3333 z m 4.6667,0 c 0,-0.7334 0.6,-1.3334 1.3333,-1.3334 0.7333,0 1.3333,0.6 1.3333,1.3334 0,0.7333 -0.6,1.3333 -1.3333,1.3333 -0.7333,0 -1.3333,-0.6 -1.3333,-1.3333 z m 7.3333,0 c -0.4532,-0.7334 -0.1886,-1.3334 0.588,-1.3334 0.7766,0 1.412,0.6 1.412,1.3334 0,0.7333 -0.2646,1.3333 -0.588,1.3333 -0.3234,0 -0.9588,-0.6 -1.412,-1.3333 z m 7.3333,0 c 0,-0.7334 0.6,-1.3334 1.3334,-1.3334 0.7333,0 1.3333,0.6 1.3333,1.3334 0,0.7333 -0.6,1.3333 -1.3333,1.3333 -0.7334,0 -1.3334,-0.6 -1.3334,-1.3333 z m 8,0.1913 c 0,-0.628 1.7411,-1.078 3.869,-1 2.1278,0.079 3.5925,0.592 3.2546,1.142 -0.8518,1.3868 -7.1236,1.2619 -7.1236,-0.142 z m 12,-0.158 c 0,-0.7469 1.8435,-0.9491 4.3334,-0.4752 6.0764,1.1567 6.27,1.7752 0.5556,1.7752 -2.689,0 -4.889,-0.5849 -4.889,-1.3 z m 10.6667,-0.033 c 0,-0.7334 0.6355,-1.3334 1.412,-1.3334 0.7767,0 1.0412,0.6 0.588,1.3334 -0.4532,0.7333 -1.0887,1.3333 -1.412,1.3333 -0.3235,0 -0.588,-0.6 -0.588,-1.3333 z m 7.3333,0 c -0.4532,-0.7334 -0.1886,-1.3334 0.588,-1.3334 0.7766,0 1.412,0.6 1.412,1.3334 0,0.7333 -0.2645,1.3333 -0.588,1.3333 -0.3233,0 -0.9588,-0.6 -1.412,-1.3333 z m 7.3334,0 c -2.4374,-1.5751 -0.3322,-1.5751 3.3333,0 1.7583,0.7556 1.9855,1.1709 0.6667,1.2192 -1.1,0.04 -2.9,-0.5083 -4,-1.2192 z m 9.3333,0 c 0,-0.7334 0.6,-1.3334 1.3333,-1.3334 0.7334,0 1.3334,0.6 1.3334,1.3334 0,0.7333 -0.6,1.3333 -1.3334,1.3333 -0.7333,0 -1.3333,-0.6 -1.3333,-1.3333 z m 6,0 c -0.4532,-0.7334 -0.1887,-1.3334 0.588,-1.3334 0.7765,0 1.412,0.6 1.412,1.3334 0,0.7333 -0.2645,1.3333 -0.588,1.3333 -0.3233,0 -0.9588,-0.6 -1.412,-1.3333 z m 6,0 c 0,-0.7334 0.6,-1.3334 1.3333,-1.3334 0.7334,0 1.3334,0.6 1.3334,1.3334 0,0.7333 -0.6,1.3333 -1.3334,1.3333 -0.7333,0 -1.3333,-0.6 -1.3333,-1.3333 z m 8,0 c -2.4373,-1.5751 -0.3321,-1.5751 3.3333,0 1.7583,0.7556 1.9855,1.1709 0.6667,1.2192 -1.1,0.04 -2.9,-0.5083 -4,-1.2192 z m 12.3528,0.2462 c -0.9785,-0.6216 0.2313,-1.0462 2.9805,-1.0462 2.7492,0 3.9591,0.4246 2.9806,1.0462 -0.906,0.5755 -2.2472,1.0463 -2.9806,1.0463 -0.7333,0 -2.0745,-0.4708 -2.9805,-1.0463 z m 20.9805,-0.2462 c 0,-0.7334 0.6,-1.3334 1.3334,-1.3334 0.7333,0 1.3333,0.6 1.3333,1.3334 0,0.7333 -0.6,1.3333 -1.3333,1.3333 -0.7334,0 -1.3334,-0.6 -1.3334,-1.3333 z m -880.66661,-8.8131 c -5.13334,-0.252 -22.23334,-1.0976 -38,-1.8792 -76.30541,-3.7824 -142.97713,-11.3421 -200.66666,-22.7529 -51.40167,-10.1672 -88.63554,-21.3766 -142.66667,-42.9504 -17.6,-7.0275 -36.65209,-14.1342 -42.33798,-15.7927 l -10.33799,-3.0153 -2.80968,-7.3983 c -11.46777,-30.1957 -22.62327,-103.0903 -31.806601,-207.8372 -1.499899,-17.1081 -3.26352,-32.1081 -3.919156,-33.3333 -1.848964,-3.4552 -2.629734,-11.202 -5.465342,-54.2276 -7.459059,-113.1788 -10.858149,-187.8238 -11.293107,-248 -0.212024,-29.3334 -1.048667,-72.2334 -1.859204,-95.3334 -6.604516,-188.226 -8.561653,-500.6909 -4.192396,-669.3333 3.842644,-148.3165 9.596625,-232.0473 18.691819,-272 7.481642,-32.8648 12.752711,-120.5907 10.569488,-175.9071 -1.172345,-29.7037 -4.269276,-66.7771 -5.782808,-69.2261 -0.466833,-0.7553 -9.49171,-0.9716 -22.548842,-0.5403 -23.625299,0.7804 -30.994011,-0.2212 -43.098675,-5.8583 -8.379952,-3.9025 -17.1130955,-13.0766 -19.0342,-19.9953 -1.6618054,-5.9848 -1.7420033,-17.2962 -0.1498792,-21.1396 0.6495973,-1.5681 0.8299425,1.453 0.4377751,7.3334 -0.6077428,9.1129 -0.3294994,10.6389 3.1365236,17.2029 4.3891395,8.3121 12.8983585,14.8999 23.5910475,18.2641 9.155021,2.8805 33.654996,3.8769 46.209212,1.8794 5.5,-0.875 11.841292,-1.8889 14.091758,-2.2531 l 4.091759,-0.662 1.6241,16.451 c 4.460968,45.1864 5.602978,105.0889 2.830588,148.4738 -2.221483,34.7637 -6.595103,75.2039 -9.402009,86.9343 -8.989388,37.568 -14.309247,113.8854 -18.847131,270.3762 -2.176792,75.0676 -2.167606,409.6451 0.01395,508 9.562642,431.13 29.33548,710.8228 55.95017,791.4323 l 3.64681,11.0453 11.33334,3.5736 c 6.23333,1.9656 24.83333,8.9735 41.33333,15.5732 16.5,6.5998 40.2,15.3495 52.66667,19.444 89.3473,29.345 205.20948,44.6554 358.66665,47.3958 59.65076,1.0652 199.71101,-0.2932 245.33333,-2.3795 209.62032,-9.5857 373.48482,-36.5793 453.50012,-74.7057 l 16.1669,-7.7032 3.4654,-10.5046 c 27.8745,-84.4949 49.0342,-390.8226 56.907,-823.8378 1.7608,-96.8542 1.762,-371.6072 0,-452 -3.5445,-161.8856 -10.2513,-264.2787 -19.4009,-296.1931 -2.5575,-8.9209 -8.1115,-64.3829 -9.9019,-98.88 -2.4462,-47.1337 -1.3568,-90.2651 3.3912,-134.2603 1.108,-10.2666 2.3716,-23.3718 2.808,-29.1226 l 0.7936,-10.456 4.1344,0.6365 c 2.2739,0.3501 9.2344,1.6045 15.4678,2.7875 6.2333,1.1831 13.4333,2.161 16,2.1732 2.5666,0.012 5.5666,0.6039 6.6666,1.3148 2.833,1.8307 -0.4176,1.7039 -16.6666,-0.6503 -17.0978,-2.4772 -17.6774,-2.4669 -18.5656,0.3317 -1.3814,4.3521 -6.0127,50.1379 -7.3828,72.9852 -1.7458,29.1127 -1.7508,67.3534 -0.013,97.5188 1.8674,32.413 6.3498,77.7948 8.8054,89.1479 8.0132,37.048 12.6388,85.9611 16.4545,174 4.1277,95.2381 4.7015,138.1405 4.6989,351.3333 0,211.6286 -0.8549,281.8595 -4.871,401.3334 -0.8135,24.2 -1.4083,61.4 -1.3216,82.6666 0.266,65.2771 -10.4163,281.553 -14.4184,291.921 -0.8326,2.1564 -2.3808,15.0564 -3.4407,28.6666 -8.9796,115.3062 -18.7073,192.4676 -29.8034,236.4032 -6.3709,25.2259 -7.1766,26.4946 -21.3455,33.6106 -80.1508,40.2541 -239.5663,67.1492 -463.46335,78.1909 -26.21579,1.2928 -258.22348,2.7315 -278.66666,1.728 z m 30,-45.9676 c -146.15477,-6.5283 -278.20445,-25.596 -373.33333,-53.9087 -26.12456,-7.7752 -55.17529,-18.0244 -57.78908,-20.388 -14.1488,-12.7948 -25.29112,-87.1648 -31.50111,-210.256 -5.52154,-109.445 -6.86502,-178.3288 -7.634,-391.4145 -0.94361,-261.4777 1.64083,-472.4716 9.62661,-785.9188 4.4101,-173.0991 10.97714,-363.4967 13.7275,-398 0.849,-10.6507 1.09635,-11.3606 4.10671,-11.786 l 3.20329,-0.4527 -0.91865,20.4527 c -0.50525,11.2489 -1.48636,33.0527 -2.18024,48.4527 -4.13596,91.7944 -9.97859,288.5998 -13.93324,469.3333 -12.30639,562.4195 -9.1678,977.5893 8.72399,1154 6.20938,61.2237 13.86549,94.6503 23.05864,100.6737 5.67138,3.7162 55.50275,19.4179 86.76866,27.3407 97.12976,24.6127 213.2811,39.7537 347.40758,45.2868 41.82473,1.7255 147.26337,1.7452 188.66666,0.035 212.19652,-8.7627 385.32572,-41.3596 492.37812,-92.7052 17.3523,-8.3227 17.7687,-8.6243 20.5329,-14.8734 4.0216,-9.0914 9.7518,-38.885 12.9512,-67.339 8.1547,-72.5235 12.9972,-175.589 16.1825,-344.419 2.6269,-139.2322 1.5389,-532.6522 -2.03,-734 -4.9188,-277.5149 -8.3543,-419.2406 -13.4778,-556 -1.1401,-30.4333 -2.1773,-61.9333 -2.3049,-70 -0.2192,-13.8551 -0.084,-14.6666 2.4346,-14.6666 3.5559,0 3.9559,4.5532 6.5594,74.6666 15.5969,420.0291 22.2917,1076.8922 14.099,1383.3334 -5.687,212.7186 -16.4508,323.1668 -33.0437,339.0638 -7.5969,7.2783 -54.7081,27.566 -92.948,40.0267 -106.3382,34.6511 -247.97238,56.3255 -415.31454,63.5564 -35.58387,1.5376 -168.86407,1.476 -204.01877,-0.095 z m 116.66666,-186.0805 c -209.15098,-17.4423 -372.31091,-46.559 -438.12474,-78.1855 -14.2075,-6.8273 -28.56077,-16.0087 -29.71052,-19.0048 -0.42442,-1.1061 0.4158,-14.7469 1.86718,-30.3131 17.60604,-188.8273 41.48744,-389.8924 61.40274,-516.9688 C 314.82141,2232.9301 326.26689,2172 328.39607,2172 c 0.78576,0 3.8681,1.1539 6.84963,2.5641 13.61071,6.438 73.43045,12.3142 166.75429,16.3804 51.22801,2.2322 242.58081,2.2128 296.66666,-0.029 125.88662,-5.22 219.43085,-12.4744 305.22705,-23.6707 14.2416,-1.8585 27.7343,-3.1986 29.9838,-2.9782 4.0825,0.4002 4.0954,0.4277 7.0961,15.0676 8.8774,43.3121 23.375,138.6257 34.2741,225.3333 20.1925,160.6397 42.6554,399.6216 38.9481,414.3672 -2.0234,8.0483 -24.8104,26.9899 -46.8625,38.9541 -40.9681,22.2274 -110.5612,43.0204 -198.2753,59.2408 -86.84607,16.0599 -226.58716,31.3958 -260.39135,28.5767 z m -562.37627,-682.182 c -1.88802,-1.459 -1.97944,-7.4348 -0.90189,-58.9568 0.65949,-31.5334 2.12423,-103.8334 3.25495,-160.6667 7.6367,-383.8412 15.9275,-703.0232 20.69357,-796.6667 1.84348,-36.2208 2.77091,-45.6432 4.75515,-48.3113 4.95564,-6.6635 5.10988,-6.0746 40.27556,153.7807 L 248.06877,1506 l -0.7594,146 c -1.26942,244.0532 -3.86642,395.1625 -7.33036,426.5249 -1.03888,9.406 -2.07319,12.6007 -6.48278,20.0231 -6.17525,10.3945 -46.79458,91.9044 -67.11751,134.6833 -7.812,16.4439 -15.05498,30.3744 -16.0955,30.9568 -1.07522,0.6018 -2.79876,0.3579 -3.99284,-0.5646 z m 1158.48622,-35.858 c -40.9103,-85.8592 -65.022,-134.2995 -74.8792,-150.4322 -4.1823,-6.845 -4.5704,-8.4874 -5.8286,-24.6666 -3.5181,-45.2414 -6.6884,-260.0906 -6.7183,-455.292 l -0.017,-112.6252 32.7221,-150.0415 c 17.9972,-82.5227 33.2843,-151.3913 33.9714,-153.0413 1.2617,-3.0296 5.802,-4.101 7.2756,-1.7168 2.9726,4.8099 7.3287,112.1983 12.6848,312.7168 5.2552,196.7406 14.4179,629.3646 15.0232,709.3333 l 0.3229,42.6667 -3.0459,0.4321 c -2.7093,0.3843 -3.9812,-1.5309 -11.5108,-17.3333 z M 271.02542,1461.5732 c -0.90268,-0.5679 -2.86964,-7.0041 -4.37103,-14.3028 -3.76585,-18.3069 -13.32913,-59.9292 -32.15248,-139.9371 -38.26686,-162.6518 -51.83525,-225.6969 -51.83525,-240.8511 0,-2.8213 -0.94409,-5.9025 -2.19048,-7.1489 -3.41521,-3.4152 -0.76889,-4.9782 22.19048,-13.1062 60.29408,-21.3453 143.09907,-44.4087 213.33333,-59.41909 143.23401,-30.61174 272.11229,-41.82026 415.33332,-36.12146 156.18405,6.2146 259.44239,27.19333 418.66669,85.05945 19.4043,7.052 21.3697,8.0585 21.7353,11.1308 0.4283,3.5987 -8.2721,85.3935 -13.8056,129.7899 -15.7734,126.5526 -29.9195,195.5325 -50.112,244.3576 -5.5219,13.3518 -14.644,29.9517 -20.2995,36.9397 l -3.2081,3.9641 -8.4884,-1.5385 c -4.6686,-0.8463 -32.4884,-7.2351 -61.8217,-14.1973 -29.3334,-6.9624 -72.2334,-16.8654 -95.3334,-22.0067 -242.0829,-53.8803 -332.36562,-54.442 -566.66661,-3.5257 -36.80289,7.9976 -168.9807,38.8112 -177.33333,41.3404 -1.1,0.333 -2.73856,0.1409 -3.64124,-0.4271 z M 1397.692,1239.076 c 1.2973,-0.338 3.0973,-0.3158 4,0.05 0.9028,0.3652 -0.1587,0.6418 -2.3587,0.6146 -2.2,-0.027 -2.9385,-0.326 -1.6413,-0.664 z m 10.308,-0.3415 c 1.8333,-0.5802 7.1953,-1.7795 11.9156,-2.665 11.3296,-2.1256 20.0264,-6.6868 25.9541,-13.6121 9.7417,-11.3809 9.8069,-25.141 0.2107,-44.4574 -6.3346,-12.7508 -17.888,-28.9414 -23.4138,-32.8111 -3.2329,-2.264 -25.559,-4.8512 -48.942,-5.6715 -4.5514,-0.1597 -8.5434,-0.5664 -8.8712,-0.9038 -0.3277,-0.3375 0.8158,-10.5136 2.5411,-22.6136 7.0707,-49.5887 13.4467,-113.8637 17.2605,-174 1.1163,-17.6 2.905,-43.7 3.9751,-58 7.1675,-95.78665 6.2164,-156.16412 -3.3396,-212 -1.4433,-8.43333 -3.3275,-23.86991 -4.1868,-34.30349 -3.0233,-36.7058 3.1167,-101.71703 18.9419,-200.56283 l 3.9812,-24.86632 -7.2692,-32.46701 c -3.9982,-17.85686 -12.7287,-59.72335 -19.4012,-93.03664 -18.9831,-94.77335 -26.412,-122.2664 -41.2935,-152.8176 C 1309.5492,79.514007 1266.1939,51.833484 1180.6666,34.732137 1109.4889,20.499997 1016.4306,13.719649 831.99998,9.3278183 748.03662,7.328406 712.37202,7.6936809 636.66248,11.328454 375.27511,23.877516 266.43969,34.492879 198.41036,54.073775 121.27717,76.275033 94.269582,106.74119 79.375108,188.3526 c -1.842191,10.09393 -6.077034,37.39393 -9.41076,60.66667 -7.887903,55.06542 -13.975459,91.29782 -20.694626,123.17192 -9.263223,43.94248 -9.014422,37.12653 -2.815908,77.14214 13.811133,89.16024 16.826135,118.55308 16.822483,164 -0.0028,34.89762 -0.205997,37.88892 -4.211508,62 -4.899314,29.49131 -6.607505,46.29244 -7.794785,76.66667 -0.919138,23.51433 0.980375,80.08515 4.118153,122.64584 1.05511,14.31145 3.135764,44.62083 4.623676,67.35416 3.207728,49.00981 6.829649,89.6372 11.411168,128 3.723013,31.1742 10.728642,81.0686 12.019898,85.6062 0.673836,2.3679 0.175895,3.1053 -2.560757,3.7922 -1.868486,0.469 -3.88135,0.5686 -4.47303,0.2215 -0.591679,-0.3472 -9.621954,0.1 -20.067276,0.9934 -15.144569,1.2956 -19.54999,2.1301 -21.748665,4.1199 -4.658845,4.2162 -16.184745,20.4719 -21.594006,30.4555 -4.9665293,9.1664 -5.7643978,7.6008 -0.94554,-1.8554 3.199757,-6.2789 14.61501,-22.2108 20.139809,-28.1084 l 4.473232,-4.775 18.590822,-1.5491 c 10.224952,-0.852 19.095236,-2.0535 19.71174,-2.67 0.616505,-0.6165 -0.976575,-16.3707 -3.540178,-35.0092 -8.689159,-63.1741 -13.588331,-112.1149 -18.074298,-180.55493 -1.442009,-22 -3.520649,-52.6 -4.6192,-68 -2.799476,-39.24439 -5.119758,-104.86666 -4.101546,-116 0.469474,-5.13334 0.857193,-19.53334 0.861596,-32 0.0068,-19.23702 0.649009,-26.4998 4.244412,-48 4.065765,-24.31292 4.236729,-26.86395 4.244463,-63.33334 0.0087,-40.903 -0.850982,-51.37228 -9.360789,-114 C 42.132568,481 39.471056,458.23716 38.709216,448.74924 37.947376,439.26132 36.663626,427.70603 35.856435,423.0708 34.021951,412.53641 34.216578,410.97285 41.71569,376 49.463078,339.86929 54.349544,311.35756 62.738843,253.33333 70.991593,196.25355 73.926366,178.86112 78.085528,162.38385 86.731614,128.13083 99.722972,103.4886 117.72879,87.187848 168.47242,41.249399 264.36591,24.179671 558.66665,8.6977601 c 20.9,-1.09946 57.5,-3.0467934 81.33334,-4.3274074 88.21103,-4.73976075 287.74135,-1.2740488 402.66661,6.9940583 151.5306,10.901613 224.2114,31.283374 268.1152,75.18714 25.072,25.072119 40.6664,57.207409 54.563,112.438119 2.9997,11.92234 11.3898,51.077 18.6445,87.01033 13.6985,67.84968 17.8837,87.69747 23.4765,111.33333 3.2522,13.74442 3.2759,14.24342 1.2972,27.33334 -1.1084,7.33333 -2.6736,20.83333 -3.4782,30 -0.8046,9.16666 -3.2054,29.56666 -5.3351,45.33333 -11.8608,87.80761 -13.1293,124.53092 -5.8263,168.66667 1.9415,11.73333 3.6883,27.33333 3.8819,34.66666 0.1936,7.33334 0.8015,30.43334 1.3509,51.33334 1.06,40.31786 -0.108,74.70105 -4.6424,136.66666 C 1393.3186,910.4 1391.8105,932.3 1391.3625,940 c -2.8341,48.70672 -6.9759,92.6789 -14.2333,151.1125 -3.0596,24.6337 -4.9328,44.2803 -4.2834,44.9251 0.6348,0.6302 11.9542,2.0685 25.1542,3.1962 l 24,2.0505 5.8184,6.3211 c 11.1892,12.156 23.0637,32.4497 24.9945,42.7163 0.4471,2.3769 1.3471,3.9915 1.9999,3.5879 0.6529,-0.4035 1.1872,3.2018 1.1872,8.0117 0,4.81 -0.5523,8.7454 -1.2274,8.7454 -0.675,0 -1.6073,1.7296 -2.0716,3.8436 -1.2201,5.555 -8.6981,13.6719 -16.5154,17.9267 -6.6783,3.6347 -21.6907,7.5946 -28.1856,7.4346 l -3.3334,-0.082 3.3334,-1.055 z"
       style="fill:#93980b;stroke-width:1.33333337" />
    <path
       id="path20"
       d="m 1277.3333,3186.7 c 0,-0.7469 1.8434,-0.9491 4.3333,-0.4752 6.0764,1.1567 6.27,1.7752 0.5556,1.7752 -2.6889,0 -4.8889,-0.5849 -4.8889,-1.3 z m 11.7333,-0.3 c 1.2445,-1.2444 1.9556,-1.2444 3.2,0 1.2445,1.2444 0.8889,1.6 -1.6,1.6 -2.4889,0 -2.8444,-0.3556 -1.6,-1.6 z m 6.9334,0.2667 c 0,-0.7334 0.6,-1.3334 1.3333,-1.3334 0.7333,0 1.3333,0.6 1.3333,1.3334 0,0.7333 -0.6,1.3333 -1.3333,1.3333 -0.7333,0 -1.3333,-0.6 -1.3333,-1.3333 z m 12,0 c 0,-0.7334 0.6354,-1.3334 1.412,-1.3334 0.7766,0 1.0412,0.6 0.588,1.3334 -0.4533,0.7333 -1.0887,1.3333 -1.4121,1.3333 -0.3233,0 -0.5879,-0.6 -0.5879,-1.3333 z m 7.3333,0 c -0.4532,-0.7334 -0.1886,-1.3334 0.588,-1.3334 0.7766,0 1.412,0.6 1.412,1.3334 0,0.7333 -0.2646,1.3333 -0.588,1.3333 -0.3234,0 -0.9588,-0.6 -1.412,-1.3333 z m 4.6667,0 c 0,-0.7334 0.6,-1.3334 1.3333,-1.3334 0.7333,0 1.3333,0.6 1.3333,1.3334 0,0.7333 -0.6,1.3333 -1.3333,1.3333 -0.7333,0 -1.3333,-0.6 -1.3333,-1.3333 z m 14.6666,0 c 0,-0.7334 0.6,-1.3334 1.3334,-1.3334 0.7333,0 1.3333,0.6 1.3333,1.3334 0,0.7333 -0.6,1.3333 -1.3333,1.3333 -0.7334,0 -1.3334,-0.6 -1.3334,-1.3333 z m 8,0.1913 c 0,-0.628 1.7411,-1.078 3.869,-1 2.1278,0.079 3.5925,0.592 3.2546,1.142 -0.8518,1.3868 -7.1236,1.2619 -7.1236,-0.142 z m 12,-0.158 c 0,-0.7469 1.8435,-0.9491 4.3334,-0.4752 6.0764,1.1567 6.27,1.7752 0.5556,1.7752 -2.689,0 -4.889,-0.5849 -4.889,-1.3 z m 10.6667,-0.033 c 0,-0.7334 0.6355,-1.3334 1.412,-1.3334 0.7767,0 1.0412,0.6 0.588,1.3334 -0.4532,0.7333 -1.0887,1.3333 -1.412,1.3333 -0.3235,0 -0.588,-0.6 -0.588,-1.3333 z m 7.3333,0 c -0.4532,-0.7334 -0.1886,-1.3334 0.588,-1.3334 0.7766,0 1.412,0.6 1.412,1.3334 0,0.7333 -0.2645,1.3333 -0.588,1.3333 -0.3233,0 -0.9588,-0.6 -1.412,-1.3333 z m 16.6667,0 c 0,-0.7334 0.6,-1.3334 1.3333,-1.3334 0.7334,0 1.3334,0.6 1.3334,1.3334 0,0.7333 -0.6,1.3333 -1.3334,1.3333 -0.7333,0 -1.3333,-0.6 -1.3333,-1.3333 z m 6,0 c -0.4532,-0.7334 -0.1887,-1.3334 0.588,-1.3334 0.7765,0 1.412,0.6 1.412,1.3334 0,0.7333 -0.2645,1.3333 -0.588,1.3333 -0.3233,0 -0.9588,-0.6 -1.412,-1.3333 z m 6,0 c 0,-0.7334 0.6,-1.3334 1.3333,-1.3334 0.7334,0 1.3334,0.6 1.3334,1.3334 0,0.7333 -0.6,1.3333 -1.3334,1.3333 -0.7333,0 -1.3333,-0.6 -1.3333,-1.3333 z m 41.3333,0 c 0,-0.7334 0.6,-1.3334 1.3334,-1.3334 0.7333,0 1.3333,0.6 1.3333,1.3334 0,0.7333 -0.6,1.3333 -1.3333,1.3333 -0.7334,0 -1.3334,-0.6 -1.3334,-1.3333 z m -887.99995,-9.3596 c -114.41201,-4.585 -207.36256,-16.3398 -279.99999,-35.4094 -27.25329,-7.1549 -56.11104,-16.9298 -89.33333,-30.2598 -16.5,-6.6204 -36,-13.9452 -43.33333,-16.2774 -16.01882,-5.0941 -15.76876,-4.7398 -22.66843,-32.1164 -10.79714,-42.8412 -18.57639,-103.5097 -29.993279,-233.9108 -4.912898,-56.114 -13.530437,-216.7594 -15.34195,-286 -0.383719,-14.6666 -1.286612,-44.0666 -2.006429,-65.3333 -9.704151,-286.7047 -9.970425,-635.1972 -0.631638,-826.6667 3.444908,-70.6296 7.462607,-114.4476 12.775571,-139.3333 9.362244,-43.8525 14.797073,-128.3684 12.003671,-186.6667 -1.430878,-29.8624 -4.099219,-62.1024 -5.625402,-67.9683 -0.318472,-1.2241 0.622259,-2.1414 2.487884,-2.4261 1.65,-0.2517 3.001105,0.034 3.002454,0.635 0.0013,0.601 0.889743,9.4928 1.974204,19.7594 5.551724,52.5586 5.321824,116.0427 -0.64837,179.0367 -3.195244,33.7144 -4.265493,41.5803 -7.750536,56.9633 C 64.337049,1622.7464 62.795243,2265.4144 86.726054,2700 c 9.114537,165.5208 20.684406,283.2141 34.137816,347.2635 3.43241,16.3412 9.20767,36.3116 11.2214,38.8028 0.62225,0.7698 4.30762,2.1985 8.18971,3.1749 3.8821,0.9764 20.55835,7.1613 37.05835,13.7443 40.84033,16.2938 55.18716,21.3532 84,29.6225 76.68369,22.0081 168.96265,34.3996 293.33332,39.3895 41.85403,1.6792 182.10988,1.6796 240,6e-4 229.81685,-6.6652 413.51035,-34.7248 502.36985,-76.7381 17.3735,-8.2143 16.5522,-7.0641 23.0591,-32.2933 24.7837,-96.0938 42.0392,-345.9983 52.175,-755.6334 2.3124,-93.4546 2.3303,-478.7584 0.025,-550 -4.6104,-142.5118 -9.7758,-215.6164 -17.5698,-248.6666 -3.3814,-14.3391 -3.6153,-15.9868 -6.6232,-46.6667 -7.5345,-76.8531 -7.0254,-145.1964 1.599,-214.6667 1.5482,-12.4718 1.8604,-13.3624 4.8293,-13.7838 2.7488,-0.39 3.062,-0.033 2.3371,2.6667 -1.4179,5.2801 -6.0756,48.6866 -7.4882,69.7838 -1.7396,25.9801 -1.7477,80.9753 -0.016,108.0228 2.238,34.9579 6.6498,76.5704 9.3566,88.2535 9.04,39.0185 14.2405,110.98 18.9148,261.7237 2.2225,71.6808 2.2116,439.5815 -0.016,533.3333 -5.6518,237.8672 -11.6228,390.9279 -18.9335,485.3334 -13.2013,170.4744 -23.5103,251.9078 -37.3649,295.1593 -3.955,12.3468 -4.3144,12.9195 -10.312,16.4344 -10.7694,6.3112 -34.867,16.1713 -57.9945,23.7299 -91.1748,29.7976 -237.8674,50.1212 -419.01485,58.0529 -40.981,1.7944 -243.25693,2.7096 -279.33333,1.2639 z m 90.66667,-44.8707 C 479.42859,3128.9 328.40895,3109.169 217.56728,3076.548 c -26.19666,-7.7097 -53.47879,-17.3877 -56.356,-19.9914 -13.30748,-12.0432 -24.29292,-85.7082 -30.50484,-204.5563 -10.09561,-193.1519 -11.42079,-566.7993 -3.39055,-956 6.82199,-330.6409 16.33492,-628.4278 20.28743,-635.0647 1.51281,-2.5403 4.41764,2.2855 3.76169,6.2494 -1.96941,11.9008 -8.73476,202.7709 -13.33249,376.1486 -18.63255,702.6212 -13.7799,1223.3868 12.735,1366.6667 5.6885,30.7392 10.49602,42.1173 19.13285,45.2821 2.98813,1.095 9.56412,3.508 14.61332,5.3624 22.51991,8.2711 71.48858,21.7439 106.81964,29.3895 83.20989,18.0065 163.45573,27.9415 287.33332,35.5735 36.71086,2.2617 194.60056,2.2612 234,-8e-4 214.23185,-12.2995 368.47465,-42.7006 471.83955,-92.9987 15.5804,-7.5816 15.8917,-7.8215 19.0239,-14.6633 16.018,-34.9878 25.6659,-176.5179 29.9451,-439.278 1.731,-106.2908 0.8625,-516.0695 -1.3721,-647.3334 -5.3649,-315.1534 -9.9948,-506.6741 -15.4876,-640.6666 -2.4213,-59.0664 -2.4207,-58.6667 -0.084,-58.6667 2.3513,0 3.0674,7.5508 4.8054,50.6667 4.5827,113.6856 9.8638,317.4625 13.321,514 3.2612,185.4001 4.096,262.1564 4.8728,448 1.8226,436.0834 -7.404,691.99 -27.5636,764.4954 -5.0544,18.1786 -6.1492,19.286 -30.2766,30.6279 -62.7264,29.4864 -141.8974,51.4476 -245.6904,68.152 -113.69983,18.2989 -257.71756,27.3287 -390.66662,24.4944 z m 45.33333,-189.2555 c -131.19009,-10.9402 -267.53881,-31.2197 -344.88802,-51.2957 -48.40717,-12.5643 -89.8581,-29.472 -101.15136,-41.2596 l -3.4685,-3.6204 2.13798,-23.1692 c 21.59948,-234.0724 50.56831,-466.0973 74.72438,-598.5027 7.0238,-38.4992 9.5118,-50.644 10.59732,-51.7296 0.4383,-0.4382 2.42846,0.1582 4.42257,1.3255 14.10944,8.2595 96.78716,15.1943 219.62563,18.4216 190.88903,5.0153 421.33178,-6.1901 572.66665,-27.8464 6.2827,-0.8991 9.1179,-0.8123 10.3072,0.3157 4.1361,3.9234 20.5379,101.9303 33.6122,200.8466 19.4955,147.4965 44.0552,393.901 44.0759,442.2072 0,10.3997 -0.1914,11.1085 -4.4931,16.2573 -38.7381,46.3665 -161.4594,84.0368 -352.16885,108.1009 -47.93254,6.0483 -117.65569,12.2312 -134.66667,11.942 -5.13333,-0.087 -19.23333,-0.9841 -31.33333,-1.9932 z M 146.86729,2262.7907 c -1.18304,-0.7312 -1.23601,-16.6508 -0.22028,-66.21 0.73551,-35.886 1.94863,-95.5474 2.69583,-132.5807 11.11813,-551.0443 19.55048,-843.779 24.85909,-863 0.67083,-2.4289 3.78903,-3.172 5.01133,-1.1943 0.38719,0.6265 15.7226,69.7975 34.0787,153.7134 l 33.3747,152.5741 -0.0157,72.6201 c -0.0385,178.3306 -3.55127,433.544 -6.67958,485.2867 l -1.33009,22 -5.37177,10 c -7.43558,13.842 -62.89097,125.9376 -73.36508,148.2976 -4.71413,10.0637 -9.22556,18.5583 -10.02539,18.8767 -0.79984,0.3184 -2.15514,0.1458 -3.0118,-0.3836 z M 179.98509,2184 c 24.30155,-50.3008 37.87785,-77.0129 46.13622,-90.7756 4.3164,-7.1933 4.51024,-8.1297 5.7961,-28 3.14873,-48.6569 6.65721,-298.8101 6.76805,-482.5577 l 0.0455,-75.3334 -29.62084,-135.6334 c -16.29147,-74.5985 -29.755,-135.4985 -29.91899,-135.3334 -1.08746,1.0948 -5.88625,139.5127 -9.16298,264.3002 -5.11312,194.7222 -13.07088,558.7069 -14.70644,672.6666 -0.41574,28.9667 -1.0639,55.0667 -1.44035,58 -0.45113,3.5152 -0.23584,4.8788 0.63153,4 C 155.23668,2234.6 166.69918,2211.5 179.98512,2184 Z m 1118.02331,27 c -26.7198,-55.8761 -56.1368,-115.0244 -63.9731,-128.63 -7.3378,-12.7399 -7.4877,-13.2109 -8.696,-27.3333 -3.6218,-42.33 -6.6428,-242.2048 -6.6608,-440.6918 l -0.012,-130.3217 32.7105,-149.6783 c 17.9908,-82.323 33.0312,-150.7282 33.4232,-152.0116 0.392,-1.2833 1.8195,-2.3333 3.1723,-2.3333 3.5743,0 4.4065,7.2183 6.687,58 5.6708,126.2741 17.1035,590.232 23.5164,954.3333 1.1625,66.005 2.0684,65.1664 -20.1676,18.6667 z M 271.0461,1459.6968 c -0.73171,-0.9332 -2.05889,-5.5968 -2.94929,-10.3635 -2.61335,-13.9902 -12.3598,-56.6998 -32.10064,-140.6666 -34.89551,-148.4268 -46.71872,-202.2011 -51.30229,-233.3334 -1.18764,-8.0666 -2.47431,-15.9355 -2.85924,-17.4863 -0.63664,-2.5649 1.02588,-3.4231 18.39941,-9.498 137.92477,-48.2272 290.73225,-81.12855 431.76594,-92.96461 81.11917,-6.80783 206.80192,-5.93932 287.99999,1.99017 87.42162,8.53724 157.22972,22.87767 243.51642,50.02474 34.3496,10.8069 103.4788,35.2658 105.7643,37.421 1.7052,1.608 1.4852,6.2704 -1.7703,37.508 -20.0153,192.0539 -39.1766,294.1628 -65.4925,349.005 -6.3324,13.1966 -15.7482,28.022 -18.4574,29.0616 -0.9528,0.3656 -13.9936,-2.277 -28.9797,-5.8726 -98.4898,-23.6306 -186.50744,-43.0612 -237.57195,-52.4462 -170.95184,-31.4185 -265.56988,-27.1152 -485.67553,22.0891 -33.93001,7.5851 -152.16638,35.1635 -156.81175,36.576 -1.1798,0.3588 -2.74376,-0.1107 -3.47547,-1.0444 z m 147.62056,-41.792 c 6.23333,-1.1739 22.43333,-4.4511 36,-7.2827 91.42151,-19.0806 148.51218,-28.2904 207.99999,-33.5538 29.12416,-2.577 108.12404,-2.1551 138,0.7369 64.68701,6.2617 115.09122,14.8685 238.96045,40.8037 l 12.2938,2.574 18.099,-7.2628 c 59.8775,-24.0278 106.9213,-52.9925 143.6506,-88.4452 9.4979,-9.1678 13.3423,-13.8445 14.2591,-17.3467 1.9123,-7.3042 13.0085,-73.4369 15.2343,-90.7949 1.0813,-8.4333 3.6086,-29.5154 5.6162,-46.8491 l 3.65,-31.5159 -3.7732,-6.4841 c -12.0963,-20.7871 -39.3027,-49.9043 -64.5823,-69.1182 -43.0066,-32.6875 -103.4967,-62.2203 -167.5245,-81.78989 -39.90091,-12.19542 -133.45443,-21.15678 -234.55012,-22.46724 -127.28858,-1.64999 -230.98225,8.44749 -345.99999,33.69278 -68.37184,15.00695 -73.01842,16.26885 -90.199,24.49455 -29.77277,14.2547 -61.19694,33.7721 -84.46766,52.4624 -19.59051,15.7345 -49.72171,48.8559 -55.01617,60.476 -1.01296,2.2232 -0.27464,8.2103 2.96334,24.0298 5.53152,27.0249 26.02401,117.406 30.17129,133.0689 1.74756,6.6 5.35376,20.556 8.01379,31.0133 l 4.83639,19.0133 9.56625,7.6956 c 23.21612,18.6764 50.86773,35.9361 81.99221,51.1785 25.28133,12.3807 57.43263,25.3219 60.80623,24.4748 1.46666,-0.3683 7.76666,-1.63 14,-2.804 z M 1455.0934,1202.6667 c 0,-4.7667 0.242,-6.7167 0.5378,-4.3334 0.2957,2.3834 0.2957,6.2834 0,8.6667 -0.2958,2.3833 -0.5378,0.4333 -0.5378,-4.3333 z M 76.749552,1157 c -0.275047,-0.9167 -1.204986,-7.0667 -2.066531,-13.6667 -0.861544,-6.6 -2.994049,-22.5 -4.7389,-35.3333 -7.32354,-53.8645 -12.09593,-103.2305 -16.627857,-172 -1.473968,-22.36667 -3.59561,-52.96667 -4.71476,-68 -2.78749,-37.44384 -3.960212,-120.44123 -2.081765,-147.33333 0.819588,-11.73334 3.33802,-32.43334 5.596514,-46 C 61.526013,618.14272 58.942647,577.01956 36.494951,426 l -2.180068,-14.66667 4.097329,-18 C 47.589268,353.01756 52.902279,322.64429 63.368027,250.66667 71.811364,192.59805 74.454038,177.68729 80.09628,156.28084 103.4688,67.606381 163.18397,39.944799 371.33332,21.372453 c 53.67012,-4.788773 119.98202,-8.951865 260,-16.3229222 80.15608,-4.21970841 192.1539,-3.64384 319.99999,1.6453704 C 1223.7745,17.966257 1306.8609,46.563951 1347.2093,142.9524 c 12.2937,29.36821 18.9087,55.65995 38.6805,153.73663 7.6899,38.14564 16.39,79.69689 19.3335,92.33613 4.71,20.22483 5.1987,23.81947 4.0752,29.97764 -2.4067,13.1918 -14.5127,101.65588 -17.1965,125.66387 -3.9658,35.47344 -5.7672,67.34896 -4.7852,84.66666 0.4782,8.43334 2.8848,28.83334 5.348,45.33334 9.2094,61.6927 9.3849,119.41392 0.703,231.33333 -0.7394,9.53333 -2.287,32.03333 -3.439,50 -2.653,41.37524 -7.4735,91.6327 -12.725,132.6667 -2.2524,17.6 -4.431,35.8019 -4.8414,40.4488 -0.4887,5.5342 -1.4007,8.7 -2.6439,9.177 -3.766,1.4452 -4.2841,-1.6525 -2.3935,-14.3083 6.6904,-44.7851 12.7999,-102.673 16.6032,-157.31753 1.5058,-21.63334 3.6279,-51.63334 4.7159,-66.66667 4.6912,-64.81909 5.1889,-76.52868 5.2703,-124 0.091,-53.17057 -0.2842,-58.3974 -7.3695,-102.66667 -6.6437,-41.5104 -6.588,-74.49352 0.2264,-134 2.6476,-23.11998 11.2348,-83.6807 15.7867,-111.33333 l 2.5238,-15.33333 -7.1068,-32 c -3.9088,-17.6 -12.8474,-60.5782 -19.8636,-95.50712 -21.842,-108.7372 -31.04,-138.95999 -52.1885,-171.47936 -9.2984,-14.297915 -28.5396,-33.823039 -41.6916,-42.306742 C 1216.0337,27.382493 1091.8369,11.812151 772.66665,7.2394391 711.46781,6.3626512 670.897,7.8011596 523.99999,16.056348 218.54304,33.222147 134.76048,53.894355 99.058028,120.905 86.330787,144.79301 80.215571,170.85391 68.717657,250.20496 58.31272,322.013 54.904812,341.25871 41.248499,405.33333 39.834174,411.96927 40.266091,416.40728 45.790206,452 64.655091,573.54937 66.9504,618.08589 57.437721,678 c -5.843106,36.80188 -6.872919,51.2342 -6.844869,95.92745 0.02575,41.02563 0.75706,57.96459 5.414199,125.40588 1.468562,21.26667 3.298254,47.96667 4.065981,59.33334 2.277363,33.71777 5.110216,65.44243 8.691368,97.33333 3.864193,34.4114 12.381033,97.5899 13.276405,98.4853 0.816229,0.8162 -2.064332,4.1814 -3.579247,4.1814 -0.666556,0 -1.436958,-0.75 -1.712006,-1.6667 z"
       style="fill:#83870a;stroke-width:1.33333337" />
    <path
       id="path18"
       d="m 563.99999,3177.2136 c -94.98333,-3.1388 -183.09221,-12.3436 -248.1293,-25.9225 -47.32835,-9.8815 -83.87886,-21.1532 -135.34247,-41.738 -18.40948,-7.3635 -37.51686,-14.466 -42.46085,-15.7835 -10.41734,-2.7759 -10.90436,-3.4155 -16.00719,-21.0243 -10.29351,-35.5208 -18.90266,-96.0569 -28.738562,-202.0786 C 85.136031,2782.4339 77.453245,2652.0425 74.663304,2554 c -0.709515,-24.9333 -1.898698,-63.3333 -2.64263,-85.3333 -2.189724,-64.7559 -3.855293,-134.1776 -5.480169,-228.4164 -1.763242,-102.2636 -0.873571,-434.7431 1.329687,-496.917 4.883104,-137.7965 9.748277,-203.2736 17.585187,-236.6666 2.797839,-11.9216 6.566674,-43.5402 9.456301,-79.3334 2.575054,-31.8966 2.165115,-111.4191 -0.728573,-141.3333 -1.276876,-13.2 -2.654076,-25.3444 -3.060444,-26.9876 -0.501992,-2.0298 -0.03392,-3.2581 1.46008,-3.8314 1.209411,-0.4641 2.422085,-0.6196 2.694831,-0.3457 0.272745,0.2739 1.516273,10.098 2.763396,21.8314 3.00617,28.283 4.15675,106.7602 2.04738,139.6457 -2.360439,36.7996 -6.595699,76.4131 -9.44638,88.3543 -9.021037,37.7882 -14.478736,116.2593 -18.917709,272 -2.1804,76.4989 -2.167447,405.3532 0.01988,504.6666 9.090624,412.7512 27.038687,680.3707 52.355889,780.6667 6.06874,24.0417 6.3611,24.4635 19.89997,28.7056 6.23333,1.9532 24.83333,8.96 41.33333,15.5708 96.91236,38.8285 182.92953,55.38 335.99999,64.6536 38.74483,2.3472 269.36245,2.352 318,0 131.81566,-6.3567 232.60948,-17.2029 319.10928,-34.3388 59.1817,-11.7241 107.9798,-26.278 137.7888,-41.0949 16.3733,-8.1387 16.4443,-8.1943 18.8379,-14.753 31.4419,-86.1534 56.0531,-479.0821 59.3835,-948.0832 2.3668,-333.3001 -4.9734,-565.4686 -19.7554,-624.8612 -2.7245,-10.9472 -6.682,-44.1377 -9.5952,-80.4721 -2.552,-31.8304 -2.1729,-111.6343 0.668,-140.6667 3.1227,-31.9099 5.6168,-51.8315 6.614,-52.8287 1.7423,-1.7422 5.2346,0.8288 4.3103,3.1733 -1.4952,3.793 -5.6971,41.889 -7.4296,67.3623 -1.8113,26.6289 -1.0081,109.2929 1.2981,133.6265 3.6498,38.5081 5.9146,56.8245 8.1606,66 8.8622,36.2044 14.4297,116.5698 18.8894,272.6666 3.5152,123.0351 1.945,452.7032 -2.9817,626 -0.7192,25.3 -1.9,69.4 -2.624,98 -2.428,95.9266 -9.9085,241.5898 -16.0569,312.6667 -0.7295,8.4333 -2.8543,33.6333 -4.7216,56 -8.9563,107.2717 -21.3495,188.9372 -32.7984,216.1244 -2.4808,5.8911 -3.1733,6.4108 -18.1714,13.6369 -17.4561,8.4103 -33.1668,14.5399 -52.9257,20.6491 -86.4267,26.7223 -218.2755,45.654 -377.99999,54.2761 -73.11265,3.9467 -232.19243,5.6107 -305.33332,3.1938 z m 92.66666,-44.788 c -158.00494,-2.324 -310.42667,-20.8068 -421.33332,-51.0911 -23.41864,-6.3948 -64.89231,-19.7964 -71.11048,-22.9784 -22.17023,-11.3449 -35.03736,-145.7877 -40.23108,-420.3561 -1.68036,-88.8325 -1.67948,-394.0105 10e-4,-519.3333 3.90188,-290.9008 12.48628,-634.8815 19.99812,-801.3334 2.29838,-50.929 2.75408,-56 5.03229,-56 1.77988,0 1.92264,2.5795 1.12539,20.3334 -0.50222,11.1833 -1.47736,32.9333 -2.16702,48.3333 -11.07516,247.3108 -21.28455,758.9988 -21.28251,1066.6667 0.003,389.256 11.93065,611.6572 34.96423,651.915 2.86567,5.0087 3.85603,5.5463 21.66958,11.764 83.05007,28.9879 191.47773,49.415 319.99999,60.2858 103.10685,8.7212 243.86529,9.7718 350.66666,2.6177 182.3782,-12.2167 331.996,-43.2568 426.7844,-88.542 11.1498,-5.3268 19.6994,-10.2748 21.0356,-12.1741 4.3471,-6.1791 9.7016,-28.6384 13.4779,-56.5331 15.2531,-112.6723 21.487,-370.138 19.1439,-790.6667 -1.7846,-320.3025 -10.7857,-751.9377 -19.3072,-925.8455 -0.7345,-14.9897 -0.5752,-17.7459 0.9955,-17.2233 1.134,0.3773 2.2166,3.4648 2.751,7.8455 2.334,19.1341 8.3528,212.6255 12.4182,399.2233 12.8884,591.5678 10.8754,1068.3439 -5.3507,1267.3334 -5.4736,67.1244 -13.3566,111.0538 -21.6125,120.4396 -1.2849,1.4608 -10.2001,6.4289 -19.8116,11.0405 -100.9904,48.4551 -262.8649,80.5808 -459.46082,91.1851 -29.67945,1.6008 -121.84983,4.0686 -137.06368,3.6697 -5.5,-0.1441 -19.6,-0.4033 -31.33333,-0.576 z m 54,-187.9387 c -3.3,-0.2972 -19.8,-1.7497 -36.66667,-3.228 -135.46862,-11.8732 -269.21164,-32.6932 -341.37368,-53.1422 -41.44123,-11.7436 -74.03579,-25.522 -86.64215,-36.6258 l -4.72032,-4.1576 4.04095,-42 c 22.07559,-229.4449 43.93201,-407.5396 66.76167,-544 6.87246,-41.079 15.40357,-86.5812 16.42432,-87.6018 0.3271,-0.3271 2.42717,0.3528 4.66681,1.5109 16.01207,8.2803 90.7936,14.7109 212.17574,18.2457 57.3924,1.6712 203.15361,0.8595 258.66666,-1.4406 121.25019,-5.0238 204.84622,-11.4979 295.53612,-22.8878 18.4448,-2.3165 34.4183,-3.8733 35.4967,-3.4596 4.838,1.8566 25.0048,127.3442 40.2251,250.2999 17.7584,143.4603 38.0078,354.1037 38.0638,395.9592 l 0.012,8.6259 -10.3333,10.0849 c -12.9709,12.6591 -25.2833,20.7328 -49,32.1315 -48.7858,23.4473 -119.2596,42.4368 -217.33331,58.5616 -83.44898,13.7202 -199.06143,25.5494 -226,23.1238 z m 32,-142.462 c 114.3462,-15.3981 207.5465,-68.5685 261.55595,-149.2166 32.0592,-47.8716 46.8924,-103.786 41.0537,-154.7543 -8.9633,-78.2441 -54.74044,-147.604 -130.93149,-198.3825 -15.8609,-10.5708 -55.97744,-30.8111 -74.34483,-37.5099 -50.8216,-18.5351 -96.35432,-26.6016 -150,-26.5741 -67.05323,0.035 -127.17014,13.8354 -185.66603,42.6238 -87.97257,43.2951 -147.50173,114.8528 -165.92616,199.4538 -2.5639,11.7728 -2.97669,17.6434 -2.97669,42.3349 0,24.7881 0.40904,30.5608 3.02313,42.6667 10.97699,50.834 35.30653,94.9684 73.54576,133.4137 18.3032,18.4019 30.87543,28.7333 52.52672,43.1649 50.71149,33.8018 116.48264,56.9162 180.13994,63.3079 8.06667,0.8099 16.76667,1.714 19.33333,2.0092 10.0806,1.1589 64.17426,-0.5859 78.66667,-2.5375 z M 146.30806,2261.7405 c -0.33397,-0.5906 -0.11013,-25.6738 0.49742,-55.7405 0.60754,-30.0667 2.04065,-101.4667 3.18468,-158.6667 9.27038,-463.5065 17.70574,-771.4385 22.89177,-835.6622 0.85499,-10.5881 2.82689,-14.5684 5.5762,-11.2557 0.81324,0.9799 16.52628,70.4373 34.91788,154.3498 L 246.81529,1507.3333 246.01815,1646 c -1.42437,247.7807 -3.94145,396.612 -7.28578,430.7989 -1.09504,11.1939 -1.71918,13.0502 -8.06898,24 -7.69188,13.264 -34.63347,67.3844 -61.66257,123.8678 -16.41266,34.298 -20.49292,40.964 -22.69276,37.0738 z m 46.16676,-100.4072 c 15.70982,-31.9 30.78421,-61.6 33.49868,-66 4.37712,-7.095 5.06601,-9.4328 6.09041,-20.6666 3.5126,-38.5206 6.46522,-231.9619 6.69903,-438.887 l 0.14864,-131.5536 -29.7258,-136.0653 c -16.3492,-74.8359 -29.95746,-135.8336 -30.24061,-135.5504 -3.59633,3.5963 -17.402,538.6671 -24.92576,966.0563 l -0.73937,42 5.31574,-10.6667 c 2.92367,-5.8667 18.16923,-36.7667 33.87904,-68.6667 z m 1102.28698,42.3635 c -23.9754,-50.3025 -55.6789,-113.7671 -62.1254,-124.3635 -2.8299,-4.6516 -5.3463,-10.9224 -6.0122,-14.9822 -3.8872,-23.6982 -6.4317,-159.8232 -7.3838,-395.0178 l -0.7476,-184.6666 33.1797,-151.0262 c 18.2489,-83.0644 33.888,-151.7344 34.7536,-152.6 2.9282,-2.9282 4.282,0.9041 5.5544,15.7243 4.9677,57.8564 14.0452,394.2319 23.3494,865.2352 3.0192,152.8416 3.1238,181.1851 0.6701,181.6672 -1.4342,0.2819 -7.443,-11.0269 -21.2382,-39.9704 z m 14.4186,-41.0301 c -7.5716,-385.6616 -15.0883,-703.6668 -19.9021,-842 -1.8492,-53.1398 -3.713,-95.5459 -4.2218,-96.0546 -0.2267,-0.2267 -13.4714,59.3928 -29.4326,132.4879 l -29.0205,132.9 0.049,91.3333 c 0.1,187.2039 3.4191,415.9428 6.7374,464.2531 1.335,19.436 1.3853,19.6521 6.5542,28.1604 5.4753,9.0124 41.4118,80.6215 59.4574,118.4779 5.8268,12.2236 10.6376,22.1236 10.6907,22 0.053,-0.124 -0.3569,-23.3247 -0.9112,-51.558 z M 270.22767,1457.8243 c -0.39532,-1.37 -1.7158,-7.591 -2.9344,-13.8243 -2.72636,-13.9459 -13.44924,-60.5101 -37.76613,-164 -29.40529,-125.1456 -42.58136,-186.0653 -45.33378,-209.6011 -0.62598,-5.3527 -1.58772,-10.7769 -2.1372,-12.0537 -1.28284,-2.981 3.13524,-4.8986 39.21621,-17.0215 129.38641,-43.47275 275.73375,-74.1317 406.97256,-85.25849 85.59699,-7.25714 189.53597,-7.00718 279.75505,0.67278 82.28408,7.0045 155.35112,20.7275 230.66662,43.32241 43.597,13.0792 128.1237,42.1966 131.0814,45.1543 1.3734,1.3734 -0.5962,22.2065 -9.2131,97.452 -18.306,159.8538 -36.0156,244.2649 -61.7373,294.2654 -7.7357,15.0376 -13.8629,23.0679 -17.601,23.0679 -1.4351,0 -20.1415,-4.1613 -41.5696,-9.2473 -230.92855,-54.8112 -312.23897,-68.4002 -410.29368,-68.57 -97.28853,-0.1686 -180.61,13.3729 -393.99999,64.0332 -62.07232,14.7364 -64.09883,15.0977 -65.10566,11.6084 z m 918.16703,-16.3088 c 20.845,-35.043 37.5731,-98.678 52.097,-198.1822 10.6677,-73.0842 23.8849,-191.2224 21.6494,-193.5063 -1.7511,-1.7889 -65.8189,-24.3045 -100.8078,-35.4273 -115.4546,-36.70226 -209.55539,-51.61134 -352.89919,-55.91238 -118.1661,-3.54557 -223.26578,4.60116 -339.76745,26.33687 -59.49003,11.09904 -117.78949,24.96881 -179.13271,42.61671 -30.2766,8.7103 -90.99506,28.4398 -96.35814,31.3101 -2.56895,1.3748 -2.77916,2.2954 -2.068,9.0564 2.66572,25.3431 17.68313,94.637 50.8989,234.8593 17.52391,73.9782 29.62987,126.4992 32.65383,141.6666 0.88012,4.4146 2.23339,7.6667 3.19019,7.6667 0.91392,0 18.12137,-3.9252 38.2388,-8.7228 283.84863,-67.6912 380.08411,-78.574 529.24378,-59.8497 58.36335,7.3265 158.38209,27.6373 287.33329,58.3489 25.6667,6.1129 47.3179,10.8877 48.1138,10.6105 0.796,-0.277 4.2224,-5.1692 7.6143,-10.8714 z m 266.6715,-238.8488 c 0,-4.0334 0.2499,-5.6834 0.5555,-3.6667 0.3055,2.0167 0.3055,5.3167 0,7.3333 -0.3056,2.0167 -0.5555,0.3667 -0.5555,-3.6666 z M 77.666665,1157.709 c -0.916667,-0.3289 -1.668395,-2.1979 -1.670508,-4.1534 C 75.994044,1151.6 74.227364,1137.4 72.070201,1122 64.560259,1068.3865 58.049792,1004.5019 54.677587,951.33333 c -0.790695,-12.46666 -2.319955,-34.96666 -3.398354,-50 C 50.200835,886.3 48.700955,865.3 47.946168,854.66667 45.694611,822.94703 44.877935,750.92663 46.479591,725.33333 47.282715,712.5 49.80118,690.6 52.07618,676.66667 61.51746,618.84316 58.166348,564.52163 36.595054,425.71757 l -2.116003,-13.61576 4.015245,-17.71757 C 47.771362,353.44849 54.013413,317.61116 64.649924,244.21759 75.148182,171.77799 80.267747,149.05924 91.395339,125.53131 112.79158,80.291569 150.44444,56.940923 228.13883,40.729003 302.39519,25.234471 403.01044,16.652336 651.99999,4.5751044 721.05142,1.2257656 725.61521,1.1622361 794.66665,2.589128 c 180.95049,3.7391945 275.46825,9.054013 347.98355,19.567429 83.5051,12.106756 131.5654,30.280931 165.1283,62.443967 15.1884,14.555001 22.7764,25.036586 32.8663,45.399476 15.8774,32.04329 23.2397,58.95969 42.8521,156.66667 6.9919,34.83333 15.6655,76.5252 19.2745,92.6486 3.6091,16.12338 6.5619,31.3005 6.5619,33.72692 0,2.42641 -0.9099,10.23453 -2.0217,17.3514 -1.112,7.11686 -4.387,29.73974 -7.2776,50.27308 -14.4495,102.63872 -16.2026,144.43206 -8.0255,191.33333 8.8765,50.91373 9.6801,114.3624 2.6767,211.33333 -1.43,19.8 -3.249,46.5 -4.0422,59.33334 -2.1684,35.08514 -6.2773,82.40913 -10.0717,116.00003 -3.9316,34.8054 -9.6721,77.5452 -10.5308,78.4038 -0.3257,0.3258 -1.4028,0.2812 -2.3936,-0.099 -1.4956,-0.5739 -1.4017,-3.4882 0.5533,-17.1647 6.6419,-46.4638 12.9547,-107.6118 16.4294,-159.14015 1.1373,-16.86666 2.6721,-39.06666 3.4106,-49.33333 0.7386,-10.26667 2.255,-31.56667 3.37,-47.33333 1.1151,-15.76667 2.3907,-48.16667 2.835,-72 0.9321,-50.01743 -0.4646,-74.5664 -6.3644,-111.86471 -2.1572,-13.6378 -4.589,-31.99733 -5.4039,-40.79897 -3.2285,-34.87018 2.3936,-96.90918 17.5624,-193.79607 l 5.2907,-33.79308 -4.0663,-17.54025 C 1395.0533,367.41808 1390.2644,344.6716 1377.2196,280 1359.6334,192.81431 1352.0582,164.58143 1338.6993,136.43536 1329.6396,117.34723 1321.7452,105.71784 1308.5688,92.049424 1282.2522,64.750148 1247.8182,48.255651 1190.5303,35.506911 1114.6672,18.624511 984.78567,9.7694632 775.33332,7.1996705 714.95478,6.45888 702.00124,6.7116964 637.99999,9.8800268 402.90992,21.517972 306.32314,29.795005 232.66666,44.615191 145.30337,62.19328 106.6717,89.539429 87.848519,147.12743 82.042473,164.89055 77.056422,191.41489 68.635832,249.33333 59.753829,310.42545 55.1413,337.80939 47.922704,372.30429 38.670272,416.51812 38.872342,408.8084 45.798962,453.33333 57.873631,530.95039 62.661401,577.19761 62.63912,616 c -0.01415,24.63631 -0.396516,28.43029 -7.928283,78.66667 -6.106913,40.7327 -6.331383,101.06964 -0.665353,178.84476 1.078596,14.80541 3.17702,45.5721 4.663165,68.37041 4.849631,74.39616 9.583505,119.18956 22.081521,208.94236 0.856893,6.1537 0.01452,8.0104 -3.123505,6.8848 z"
       style="fill:#7d8109;stroke-width:1.33333337" />
    <path
       id="path16"
       d="m 563.99999,3177.2136 c -94.98333,-3.1388 -183.09221,-12.3436 -248.1293,-25.9225 -47.32835,-9.8815 -83.87886,-21.1532 -135.34247,-41.738 -18.40948,-7.3635 -37.51686,-14.466 -42.46085,-15.7835 -10.41734,-2.7759 -10.90436,-3.4155 -16.00719,-21.0243 C 114.12684,3045.3691 105.65439,2992.8243 99.366048,2932 83.174981,2775.3912 75.546734,2626.9903 67.701824,2316 c -2.332516,-92.4663 -2.334488,-498.0488 -0.0028,-566.6667 4.756425,-139.9713 9.785685,-208.7037 17.75631,-242.6666 2.797839,-11.9216 6.566673,-43.5402 9.456301,-79.3334 2.575053,-31.8966 2.165115,-111.4191 -0.728573,-141.3333 -1.276876,-13.2 -2.639051,-25.2845 -3.027053,-26.8545 -0.755348,-3.0564 1.665018,-5.5342 3.545214,-3.6293 4.599943,4.6603 8.289447,111.7207 5.442377,157.9245 -2.308381,37.4617 -6.683513,79.4206 -9.442766,90.5593 -12.896865,52.0624 -19.456386,192.9604 -20.918754,449.3333 -2.806215,491.9672 20.882975,975.8848 54.29278,1109.081 5.97592,23.8244 5.93736,23.7753 23.25842,29.6088 8.06667,2.7168 26.66667,9.7762 41.33334,15.6877 47.25177,19.0452 82.60258,29.6556 131.99999,39.6193 64.10574,12.9306 133.71597,20.5543 226.66667,24.8247 66.06573,3.0352 243.81676,1.4833 325.33332,-2.8404 178.6554,-9.4761 326.4895,-33.5316 407.4978,-66.3076 23.4749,-9.498 31.155,-13.8232 33.871,-19.0755 3.0966,-5.9881 10.6135,-36.7594 14.4774,-59.2646 24.8403,-144.6854 42.1566,-476.4184 46.1091,-883.3334 2.9962,-308.4501 -4.7501,-566.8408 -18.8469,-628.6666 -5.2415,-22.9879 -9.3579,-62.1291 -11.9189,-113.3334 -2.2187,-44.3552 -0.6771,-88.6165 4.8758,-140 2.6679,-24.6876 3.018,-26.2573 5.7236,-25.6617 1.2162,0.2677 2.0516,1.2297 1.8566,2.1377 -1.2438,5.793 -5.7911,49.8943 -7.0936,68.7978 -1.762,25.5722 -0.9166,109.5998 1.3422,133.3929 3.6686,38.6417 5.9179,56.8288 8.1628,66 8.7494,35.7429 14.5867,119.1759 18.6574,266.6667 2.3156,83.8956 3.0777,306.7818 1.4386,420.6666 -4.9982,347.2779 -15.8834,582.2136 -34.9037,753.3334 -7.6867,69.1545 -17.0115,120.6684 -25.4855,140.791 -2.4807,5.8911 -3.1733,6.4108 -18.1714,13.637 -17.456,8.4102 -33.1667,14.5398 -52.9256,20.649 -86.4268,26.7223 -218.2755,45.654 -378.00003,54.2762 -73.11265,3.9466 -232.19244,5.6106 -305.33333,3.1937 z m 29.33333,-46.6768 c -160.7379,-6.896 -306.67785,-29.8612 -405.99999,-63.8881 -24.37207,-8.3496 -26.67243,-9.6848 -30.56716,-17.7423 -14.71017,-30.4327 -24.40411,-128.4133 -30.10065,-304.2397 -5.443,-168.0007 -5.45203,-487.0459 -0.0224,-792 4.69149,-263.4979 13.67253,-574.6238 19.52321,-676.3334 0.65338,-11.3583 1.3044,-15 2.68162,-15 2.26617,0 2.26916,-0.989 -0.15288,50.6667 -3.57379,76.2197 -8.26604,220.7924 -11.98707,369.3333 -13.91229,555.3682 -13.41854,1004.3468 1.33727,1216 6.3025,90.4014 16.00108,147.1859 26.64794,156.022 2.69284,2.235 46.04647,16.531 70.4919,23.245 98.67926,27.1028 221.68379,43.9824 364.81491,50.0626 40.69698,1.7288 151.78263,1.7123 192.66666,-0.028 214.63092,-9.1394 390.84362,-42.9401 494.37212,-94.829 14.9476,-7.4919 16.6822,-9.5792 20.876,-25.1216 12.9833,-48.117 21.1623,-175.4644 25.563,-398.017 1.9006,-96.1192 1.8848,-449.5692 -0.027,-593.3333 -3.7993,-285.7721 -9.3028,-533.3845 -15.5883,-701.3333 -2.7022,-72.2056 -2.825,-80.5117 -1.1964,-80.9635 1.9842,-0.5504 2.8986,12.4756 5.2153,74.2968 12.3519,329.5984 20.4966,909.9225 16.9163,1205.3333 -3.8573,318.2707 -13.4682,472.0176 -31.7973,508.6667 -3.4337,6.8657 -4.3904,7.6909 -15.001,12.9408 -109.7019,54.2773 -281.22,87.3887 -499.33325,96.3957 -36.76715,1.5184 -162.80304,1.4343 -199.33333,-0.1333 z m 121.33333,-186.0359 c -2.56667,-0.2772 -16.36667,-1.4358 -30.66667,-2.5746 -120.25986,-9.5782 -254.87776,-29.5115 -333.99999,-49.4566 -47.02456,-11.854 -90.87496,-29.1433 -103.61537,-40.8534 -4.26111,-3.9167 -4.86289,-5.1786 -4.33108,-9.0824 0.33969,-2.4936 1.83623,-18.0339 3.32564,-34.5339 13.92067,-154.2167 38.92983,-367.5953 56.72748,-484 8.95525,-58.5715 24.85084,-148.7353 26.51491,-150.3993 0.26421,-0.2643 1.88245,0.4077 3.59608,1.4933 12.55026,7.9503 88.97409,14.7884 205.11567,18.3531 57.0628,1.7513 216.30681,0.9542 270.66666,-1.355 118.49409,-5.0333 198.44142,-11.2261 287.05192,-22.2352 21.1119,-2.6229 39.1818,-4.4633 40.1553,-4.0898 4.2625,1.6357 23.3636,119.8769 38.0541,235.5662 16.941,133.4128 35.5107,321.4298 39.5125,400.0631 l 0.9193,18.0629 -7.4379,8.0339 c -19.904,21.4987 -58.6728,41.5296 -113.5886,58.6884 -57.7804,18.0539 -138.64866,34.1805 -229.33329,45.7333 -60.15052,7.6628 -135.32287,14.0268 -148.66666,12.586 z m 65.02721,-11.2321 c 146.33179,-13.3311 272.62664,-37.8661 347.63944,-67.5356 33.6174,-13.2965 54.9726,-25.59 70.0063,-40.3005 l 8.3929,-8.2124 -0.921,-19.6102 c -2.5079,-53.4032 -18.8126,-227.4726 -30.8583,-329.4448 -8.6903,-73.5678 -22.8151,-175.9236 -31.394,-227.4986 -3.5545,-21.3695 -11.9273,-66.4792 -12.433,-66.985 -0.2218,-0.2217 -14.4409,1.3806 -31.598,3.5606 -78.0066,9.9118 -157.74837,16.0857 -279.86155,21.668 -50.72479,2.3188 -288.75153,2.3544 -334.66666,0.049 -72.94421,-3.6609 -127.96353,-8.4592 -141.49481,-12.3399 -8.14553,-2.3361 -8.57157,-2.0208 -10.42015,7.713 -12.00421,63.2085 -18.46234,101.4185 -26.7611,158.3333 -18.10911,124.1967 -31.65791,239.9704 -47.98162,410 -2.21772,23.1 -4.89929,50.7 -5.95906,61.3333 l -1.92686,19.3334 4.2718,3.775 c 2.3495,2.0763 11.0068,7.0594 19.23848,11.0735 63.44568,30.9388 209.69261,58.0249 413.03331,76.4973 31.80899,2.8896 49.39963,2.6248 93.69388,-1.4104 z M 146.38412,2261.7405 c -0.29215,-0.5906 -0.0775,-22.9738 0.47717,-49.7405 0.55459,-26.7667 1.95099,-95.7667 3.10309,-153.3333 10.21406,-510.3583 19.55128,-841.1421 24.17222,-856.3334 0.71458,-2.3491 3.85697,-3.1916 4.97357,-1.3333 0.33049,0.55 15.51589,68.8 33.74536,151.6667 L 245.99999,1503.3333 245.59611,1636 c -0.69121,227.0517 -3.44646,401.4643 -6.94588,439.6868 -1.15284,12.592 -1.68777,14.4051 -6.68766,22.6667 -7.97462,13.1769 -23.75052,44.59 -54.06085,107.6465 -24.48295,50.9335 -29.50342,59.8124 -31.5176,55.7405 z m 44.11589,-95.3554 c 15.34887,-31.3215 30.94684,-62.2603 34.66217,-68.7527 l 6.75516,-11.8044 1.33487,-20.5807 c 3.22125,-49.6645 6.648,-290.9849 6.7769,-477.2473 l 0.0559,-80.6667 -30.33913,-138.97 c -16.68653,-76.4335 -30.75609,-138.5335 -31.26568,-138 -0.5096,0.5335 -1.87857,25.27 -3.04219,54.97 -5.80318,148.122 -11.99033,401.7128 -21.97454,900.6667 -0.58698,29.3333 -0.75495,53.8901 -0.37328,54.5707 0.38166,0.6805 2.67594,-2.9195 5.0984,-8 2.42246,-5.0806 16.96264,-34.864 32.31149,-66.1856 z m 1123.23779,75.9482 c -0.6904,-0.9166 -8.0992,-16.0666 -16.4639,-33.6666 -22.8345,-48.0452 -57.6508,-117.8107 -63.9653,-128.1747 -3.9873,-6.5441 -5.9029,-11.4424 -6.7107,-17.1587 -3.6154,-25.5852 -6.2663,-169.2594 -7.4417,-403.3333 l -0.8671,-172.6667 32.8998,-150.6666 c 18.0949,-82.8667 33.4884,-152.0638 34.2079,-153.7714 1.8601,-4.4148 4.4155,-2.9084 5.4447,3.2095 2.303,13.6905 6.0615,109.2648 10.4828,266.5619 5.8648,208.6536 18.0619,787.757 16.6402,790.0573 -1.0822,1.7512 -2.7281,1.5991 -4.2267,-0.3907 z m -2.2978,-26.6666 c -0.3359,-1.65 -0.9657,-27 -1.3996,-56.3334 -2.379,-160.8488 -12.0109,-586.464 -17.4254,-770 -3.5802,-121.3585 -5.9776,-177.5931 -7.4173,-173.9819 -0.5807,1.4567 -14.2878,63.3523 -30.4601,137.5458 l -29.4043,134.8971 0.016,73.1029 c 0.039,181.5137 3.5499,433.946 6.7346,484.1996 l 1.3792,21.7635 6.6722,11.5698 c 8.3533,14.485 30.2512,58.0574 52.5531,104.5699 15.5772,32.4877 20.4402,40.9592 18.752,32.6667 z M 269.30986,1452.3333 c -3.78448,-18.769 -10.92948,-49.9737 -31.97983,-139.6666 -37.43822,-159.5197 -48.77203,-211.2336 -52.01491,-237.3334 -0.82006,-6.6 -2.00144,-13.6556 -2.62531,-15.6792 -0.89449,-2.9013 -0.64144,-3.943 1.19691,-4.9268 1.28217,-0.6862 16.68218,-6.1095 34.22225,-12.0518 133.01232,-45.06249 281.78219,-76.0513 419.22435,-87.32459 85.18568,-6.98711 209.80347,-5.3022 297.33333,4.02013 82.90165,8.8294 156.82795,24.92948 242.12345,52.73096 31.6497,10.316 91.4886,31.6433 92.987,33.1418 1.6503,1.6503 -11.0998,117.9604 -19.8879,181.4229 -16.516,119.2681 -37.138,195.5189 -61.5107,227.4389 -4.4142,5.7812 -5.0569,6.1491 -9.5555,5.4696 -2.6527,-0.4007 -28.823,-6.4192 -58.1564,-13.3747 -220.60785,-52.3101 -315.79903,-67.2084 -411.33328,-64.3769 -93.68069,2.7764 -178.15311,17.494 -391.75162,68.2544 -22.9634,5.4571 -42.87085,9.922 -44.2388,9.922 -1.95975,0 -2.81499,-1.6257 -4.03304,-7.6667 z m 65.3568,-12.8785 c 162.20632,-38.0721 238.23533,-52.4972 317.99999,-60.3348 30.20563,-2.9679 114.12669,-3.3803 142.66667,-0.7009 85.75517,8.0505 167.05239,23.5128 341.75158,64.9993 22.9634,5.4532 42.2846,9.9149 42.936,9.9149 3.2163,0 16.396,-23.8706 23.9255,-43.3333 13.3463,-34.4981 26.5421,-93.7757 37.3757,-167.8965 8.5842,-58.7308 23.529,-191.1965 21.7496,-192.781 -0.5894,-0.525 -12.4717,-5.0122 -26.4051,-9.9717 -142.6731,-50.78389 -228.5878,-69.48303 -361.99995,-78.78851 -40.80526,-2.84614 -147.85285,-3.99052 -188.66667,-2.01688 -129.55317,6.2648 -260.0239,28.82563 -398.66665,68.93689 -33.42284,9.6697 -93.66567,29.7072 -95.834,31.8755 -4.77525,4.7753 9.49284,73.0641 57.66165,275.9755 7.31156,30.8 16.05697,68.6 19.43424,84 3.37728,15.4 6.44496,29.3842 6.81705,31.0758 0.47194,2.1454 1.36884,2.8708 2.96547,2.398 1.25891,-0.3727 26.58892,-6.3812 56.28892,-13.3523 z M 1455.0662,1202.6667 c 0,-4.0334 0.2499,-5.6834 0.5555,-3.6667 0.3055,2.0167 0.3055,5.3167 0,7.3333 -0.3056,2.0167 -0.5555,0.3667 -0.5555,-3.6666 z m -1379.070043,-49 C 75.994024,1151.65 74.227364,1137.4 72.070201,1122 64.560259,1068.3865 58.049792,1004.5019 54.677587,951.33333 c -0.790695,-12.46666 -2.319955,-34.96666 -3.398354,-50 C 50.200835,886.3 48.700955,865.3 47.946168,854.66667 45.64887,822.30263 44.84252,750.85241 46.494104,726 47.322586,713.53333 49.806056,692.23333 52.012928,678.66667 62.164673,616.25919 59.77218,575.97384 37.225126,429.66629 l -2.722619,-17.66705 4.003517,-17.66628 C 47.771075,353.44915 54.017576,317.58244 64.649924,244.21759 75.148182,171.77799 80.267747,149.05924 91.395339,125.53131 112.79158,80.291569 150.44444,56.940923 228.13883,40.729003 302.39519,25.234471 403.01044,16.652336 651.99999,4.5751044 721.05142,1.2257656 725.61521,1.1622361 794.66665,2.589128 c 180.95049,3.7391945 275.46825,9.054013 347.98355,19.567429 83.5051,12.106756 131.5654,30.280931 165.1283,62.443967 15.1884,14.555001 22.7764,25.036586 32.8663,45.399476 15.762,31.8104 23.3288,59.32976 42.1612,153.33333 6.6112,33 15.349,75 19.4176,93.33334 8.4906,38.25989 8.4472,31.15306 0.519,84.63225 -12.3005,82.97399 -15.3784,113.88855 -15.3354,154.03441 0.031,28.66956 0.4181,34.28968 3.7233,54 9.9543,59.35987 10.846,113.04416 3.5547,214 -1.43,19.8 -3.249,46.5 -4.0422,59.33334 -3.3666,54.47202 -9.6157,117.93363 -16.7184,169.78273 -1.7918,13.0805 -3.258,24.0305 -3.258,24.3333 0,0.3028 -0.984,0.5506 -2.1865,0.5506 -2.5513,0 -2.8035,3.1383 4.0704,-50.6666 5.4467,-42.6337 10.4968,-96.35577 13.4113,-142.6667 1.1308,-17.96667 2.9386,-44.66667 4.0174,-59.33333 3.4484,-46.88343 4.6818,-76.46119 4.6708,-112 -0.013,-41.35167 -1.2163,-56.79424 -7.5846,-97.33334 -4.4858,-28.55658 -4.8168,-32.73086 -4.8105,-60.66666 0.013,-40.56055 5.0701,-87.82346 18.5392,-173.13527 l 4.7051,-29.80193 -4.0623,-17.5314 c -6.756,-29.15627 -9.0891,-40.23623 -22.7881,-108.22063 C 1356.204,174.58993 1346.9496,144.53132 1324.9954,111.70943 1281.9983,47.428075 1196.2157,23.049993 976.66664,12.719816 869.59899,7.6820897 728.30238,5.38424 677.99998,7.86272 564.59427,13.450401 535.88781,14.944047 495.33332,17.367181 276.83783,30.422304 186.04406,46.064103 136.12346,79.251252 125.05662,86.608476 108.93805,103.24539 102.3169,114.14499 86.998294,139.36213 81.072263,162.96968 68.716253,248 c -9.20727,63.36165 -15.213989,98.48427 -22.46081,131.33333 -3.761592,17.0509 -5.563879,28.38476 -5.512619,34.66667 0.04188,5.13333 2.267191,23.13333 4.945122,40 12.619801,79.48453 16.177085,114.40853 16.229346,159.33333 0.04092,35.17267 -0.131,37.6989 -4.219253,62 -5.18271,30.80668 -6.616778,44.82267 -7.776061,76 -0.94487,25.41094 0.920657,81.54143 4.133839,124.38018 1.060774,14.14242 3.149582,44.44242 4.641796,67.33333 4.380878,67.20366 9.713796,119.68386 18.721416,184.23396 2.152867,15.4278 3.914302,28.501 3.914302,29.0515 0,0.5506 -1.199999,1.001 -2.666666,1.001 -2.019271,0 -2.667599,-0.8901 -2.670508,-3.6666 z"
       style="fill:#707309;stroke-width:1.33333337" />
    <path
       id="path14"
       d="m 561.99999,3176.5188 c -53.68971,-2.6272 -70.20007,-3.576 -92,-5.2868 -93.61767,-7.3469 -170.31001,-21.088 -235.21081,-42.1428 -9.09928,-2.952 -30.09928,-10.7824 -46.66666,-17.4011 -16.56739,-6.6185 -36.72252,-14.2192 -44.78919,-16.8902 l -14.66667,-4.8567 -3.1088,-8.6372 C 109.8125,3037.5581 94.502357,2908.0263 84.035169,2730 76.689161,2605.0588 72.020012,2474.8628 67.75362,2276 c -2.131779,-99.3653 -2.144375,-417.4337 -0.01959,-494.6667 4.261724,-154.9076 9.505867,-233.4357 18.297845,-274 11.24271,-51.8714 14.984925,-159.3076 7.988373,-229.3403 -1.97064,-19.7253 -1.936822,-23.6873 0.184074,-21.5665 1.549723,1.5498 4.299886,32.725 5.971118,67.6873 2.71235,56.7427 -2.726196,148.0045 -10.918558,183.2195 -17.331748,74.501 -24.798432,376.7362 -18.52866,750 6.654948,396.1948 26.582946,701.1011 52.604568,804.8707 6.42839,25.6352 5.21263,24.0863 24.00054,30.5785 8.8,3.041 27.296,10.1175 41.10223,15.7258 54.94487,22.319 106.0073,36.2694 170.89777,46.6897 105.69973,16.9733 226.17663,22.2053 417.49036,18.1305 237.15881,-5.0513 437.30491,-35.0885 524.58401,-78.7274 11.6723,-5.836 12.2253,-6.3911 15.2114,-15.2678 24.4135,-72.5729 44.1771,-316.9342 54.027,-668 3.8353,-136.6978 4.606,-201.3973 4.6291,-388.6666 0.016,-131.4014 -0.552,-219.5363 -1.6462,-255.3334 -4.6361,-151.6718 -9.5262,-221.3045 -18.3064,-260.6666 -3.0198,-13.5388 -5.3776,-32.8571 -8.9497,-73.3334 -2.6596,-30.1353 -2.2308,-124.2317 0.6956,-152.6666 3.9053,-37.9474 5.1861,-46 7.3161,-46 1.3015,0 1.6743,0.9498 1.1775,3 -3.4529,14.2497 -7.6033,65.4183 -8.4627,104.3333 -1.0916,49.4223 3.869,128.8355 9.7444,156 9.9354,45.9349 14.4191,104.6245 19.4555,254.6667 2.3235,69.2228 2.3241,465.1958 7e-4,559.3333 -2.9047,117.6939 -6.2932,226.0179 -9.0091,288 -11.0079,251.2253 -29.1048,430.8575 -48.6766,483.1673 l -2.9311,7.8339 -16.1749,7.7065 c -82.3059,39.2147 -240.6848,65.5036 -458.17498,76.0515 -27.71832,1.3443 -258.15617,2.7959 -279.33333,1.7596 z m 72.66666,-45.4136 c -154.11245,-4.1527 -291.66975,-21.4515 -396.66666,-49.8837 -20.02967,-5.4239 -69.12762,-21.2806 -74.05143,-23.9156 -8.05394,-4.3104 -17.09403,-37.735 -22.53108,-83.3059 -21.16202,-177.3703 -24.19519,-666.5843 -8.05184,-1298.6667 4.55212,-178.2354 11.88472,-390.7043 14.04614,-407 1.17344,-8.847 3.658,-7.0161 2.71398,2 -2.38484,22.7766 -8.9228,209.0476 -13.41959,382.3334 -13.77117,530.6776 -14.49492,968.4721 -1.98711,1202 5.37171,100.2928 14.46839,170.7153 24.77223,191.7756 4.15191,8.4861 4.24284,8.5321 40.05455,20.236 167.28208,54.6706 443.03448,75.9225 699.78747,53.9316 164.93759,-14.127 302.84339,-45.4708 388.63319,-88.3304 15.1565,-7.572 17.0021,-10.1744 21.9473,-30.9462 18.9616,-79.6454 27.244,-324.1325 25.6336,-756.6666 -0.7493,-201.2738 -1.4024,-262.6764 -4.8711,-458 -4.0701,-229.1914 -12.5351,-530.4021 -15.3883,-547.5627 -0.3868,-2.3262 -0.1151,-4.5929 0.6037,-5.0371 2.1304,-1.3167 2.6685,5.4023 4.7462,59.2664 5.8294,151.1252 10.4383,345.5106 15.4431,651.3334 3.6835,225.0746 2.9436,618.3204 -1.4373,764 -6.0639,201.6393 -16.5351,304.9334 -32.324,318.8618 -6.6341,5.8524 -50.235,24.7615 -82.9618,35.9794 -138.4922,47.4713 -364.00944,73.5438 -584.69125,67.5973 z m 60,-188.6489 c -80.55898,-6.7526 -181.73105,-19.2319 -247.62417,-30.5439 -101.6845,-17.4564 -174.84555,-39.8187 -200.71307,-61.3493 l -4.12927,-3.4371 1.65411,-17.8963 c 17.59933,-190.413 42.6853,-402.71 62.14948,-525.9569 7.253,-45.926 20.68741,-121.2327 22.62798,-126.8416 0.3906,-1.1289 2.4044,-0.8613 7.18291,0.9544 42.31024,16.0765 319.18635,23.1457 518.18536,13.2301 91.69531,-4.5689 172.38912,-11.3576 245.33332,-20.6393 19.6316,-2.4981 35.1889,-3.9104 35.8707,-3.2565 2.6395,2.5316 15.8546,78.7272 26.1193,150.5984 25.134,175.9833 56.0859,487.9665 49.8568,502.5377 -1.9066,4.4601 -14.7241,16.5447 -25.8468,24.3688 -55.7153,39.1923 -186.18491,72.2435 -361.99999,91.7032 -69.80418,7.7263 -97.56862,9.1349 -128.66666,6.5283 z m 48,-3.8159 c 70.51213,-4.8624 159.39793,-15.954 225.05802,-28.0836 114.46903,-21.1464 190.08923,-47.5568 227.92363,-79.6027 11.9935,-10.1584 12.8346,-12.3976 11.787,-31.3797 -5.9868,-108.4829 -30.4751,-341.0329 -50.9221,-483.5744 -8.846,-61.6684 -22.1933,-140.2463 -24.4396,-143.8808 -0.6645,-1.0752 -9.6475,-0.3815 -32.1645,2.4841 -121.5837,15.4734 -249.84552,23.1934 -413.90912,24.913 -151.52463,1.5882 -305.62334,-5.541 -345.7718,-15.9966 -6.84639,-1.7829 -7.14995,-1.7472 -8.33493,0.9816 -1.93051,4.4456 -13.63391,70.1528 -21.7594,122.1654 -20.46078,130.9724 -38.98226,286.3198 -58.78012,493.0137 -4.03327,42.1083 -4.11278,45.8985 -1.0204,48.6461 4.31498,3.8339 16.59842,10.443 30.18074,16.2386 55.81882,23.818 158.08407,44.8728 298.15258,61.3848 43.71148,5.153 114.98853,12.1057 142,13.8514 1.46667,0.095 11.36667,-0.4276 22,-1.1609 z M 147.38408,2261.4155 c -0.5123,-0.829 -0.2692,-34.3366 0.54021,-74.4614 6.10503,-302.6396 7.89743,-385.8336 12.08573,-560.9541 6.52892,-272.9859 11.8205,-418.999 15.39426,-424.7815 1.08662,-1.7582 4.59572,1.0716 4.59572,3.7061 0,1.0622 14.7,69.1316 32.66666,151.2651 l 32.66667,149.3339 -0.0169,94.9049 c -0.0335,187.6863 -3.3742,420.4383 -6.71989,468.1898 l -1.30448,18.6182 -7.16953,12.7151 c -9.20851,16.3312 -39.55639,77.2528 -61.46208,123.3817 -17.62057,37.1054 -19.64289,40.7251 -21.27631,38.0822 z m 48.44496,-102.7488 c 14.6142,-29.7 29.02981,-58.0148 32.03467,-62.9219 5.46023,-8.9165 5.46415,-8.9328 6.77128,-28 3.32882,-48.5572 6.64088,-279.5519 6.67879,-465.8007 l 0.0195,-96.056 -30.74451,-140.5349 c -16.90948,-77.2941 -31.25382,-141.4449 -31.87633,-142.5573 -1.84764,-3.3015 -2.60057,6.2664 -4.71143,59.8708 -5.10537,129.6492 -12.02234,405.03 -19.32398,769.3333 -0.77164,38.5 -1.96843,97.5416 -2.65951,131.2037 -0.69108,33.662 -0.87745,61.817 -0.41416,62.5666 0.46329,0.7497 4.62505,-6.392 9.24835,-15.8703 4.62329,-9.4784 20.36306,-41.5333 34.97728,-71.2333 z m 1108.97886,63.7892 c -43.4964,-90.8803 -63.082,-130.2107 -71.705,-143.9932 -2.1348,-3.4122 -4.4248,-8.0983 -5.0888,-10.4135 -3.9691,-13.8393 -6.2931,-122.2707 -8.0609,-376.1016 l -1.4072,-202.0524 33.5056,-153.2809 c 18.428,-84.3046 34.0552,-153.851 34.727,-154.5476 0.7714,-0.8 1.6743,-0.8 2.4507,0 1.4587,1.5029 3.5739,33.3135 5.4038,81.2666 0.7276,19.0667 1.6435,43.0667 2.0354,53.3334 3.5675,93.4518 11.7797,434.4505 17.2593,716.6666 1.0893,56.1 2.2986,114.9 2.6874,130.6667 1.3872,56.2517 1.2699,77.8161 -0.4264,78.3815 -0.9474,0.3158 -5.549,-7.7406 -11.3809,-19.9256 z m 7.9915,-32.7892 c -0.4797,-20.35 -1.7639,-82.6 -2.8537,-138.3334 -9.1554,-468.2074 -19.4143,-841.1915 -23.2454,-845.1342 -0.6061,-0.6238 -1.4367,-0.024 -1.8457,1.3334 -0.4089,1.3571 -14.2685,64.3757 -30.7991,140.0412 L 1224,1485.1473 l 0.015,122.4264 c 0.023,194.1299 3.1103,401.5679 6.6262,445.2663 1.1719,14.5657 1.3208,15.0584 8.0576,26.6667 6.9266,11.9352 39.5375,77.4213 60.0036,120.4933 10.8035,22.7367 12.9105,26.6667 14.297,26.6667 0.37,0 0.2801,-16.65 -0.1996,-37 z M 271.4055,1458.4253 c -0.31975,-0.9673 -1.27483,-5.3586 -2.1224,-9.7586 -2.45833,-12.762 -14.66713,-65.9252 -34.60023,-150.6667 -33.05803,-140.5396 -43.18377,-186.5959 -48.66129,-221.3333 -1.73452,-11 -2.74894,-20.3852 -2.25429,-20.856 2.28893,-2.1783 67.69144,-23.7857 102.59246,-33.8939 122.07485,-35.35612 237.22398,-56.72319 359.59689,-66.7268 34.7968,-2.84453 148.25428,-3.99529 194.18573,-1.96956 127.4561,5.62125 222.89343,22.45863 334.52423,59.01796 40.7918,13.3593 92.5733,31.9793 94.0736,33.8276 1.4785,1.8214 -1.2403,29.9449 -10.7566,111.2673 -18.4079,157.3069 -38.3251,245.4295 -65.2267,288.5912 -9.2956,14.9144 -8.3299,14.5016 -24.7738,10.5884 -208.70795,-49.6665 -282.59933,-64.122 -371.98312,-72.7712 -11.52182,-1.1149 -36.95465,-1.7209 -70.66666,-1.684 -45.08396,0.049 -56.602,0.4846 -80,3.0232 -67.42783,7.3159 -129.41395,18.6163 -240,43.7531 -36.10984,8.208 -126.0235,29.2676 -131.00657,30.6845 -1.28693,0.366 -2.6015,-0.1253 -2.92125,-1.0932 z m 53.4392,-15.0269 c 177.08602,-41.7268 251.59943,-55.8479 335.82195,-63.6416 24.67523,-2.2835 108.66381,-2.3088 133.33333,-0.04 83.23989,7.6543 160.15618,22.1939 333.33332,63.0108 27.8667,6.568 51.6462,11.9412 52.8434,11.9405 1.2018,-6e-4 4.6061,-3.7333 7.6012,-8.3345 24.3253,-37.3699 42.6243,-109.9697 59.5685,-236.3333 6.2289,-46.4532 18.7088,-160.3892 17.6807,-161.4173 -1.6626,-1.6626 -67.2707,-24.7109 -100.9391,-35.4603 -107.0398,-34.17475 -197.6576,-49.93547 -320.75469,-55.78755 -36.29262,-1.72536 -133.05614,-1.71432 -164.66666,0.0188 -119.66208,6.56073 -236.5243,26.08468 -363.99999,60.81275 -51.40408,14.004 -120.13276,36.3647 -124.47125,40.4964 -2.38315,2.2696 -2.391,2.8702 -0.22025,16.8452 5.1024,32.8486 19.04778,96.3892 48.68429,221.825 18.29473,77.432 30.76696,131.6102 33.3034,144.6667 2.08606,10.7383 2.69074,12.6667 3.9717,12.6667 0.5985,0 22.60807,-5.0708 48.91015,-11.2683 z M 78.207957,1156.3365 c -1.118609,-1.81 -9.46986,-63.2872 -13.448894,-99.0032 -4.44296,-39.8802 -6.91497,-68.51706 -10.070978,-116.66663 -1.442009,-22 -3.51952,-52.6 -4.61669,-68 -3.624348,-50.87176 -4.935255,-101.03243 -3.441364,-131.68082 1.488731,-30.54256 2.401304,-38.938 7.571128,-69.65252 2.482757,-14.75034 3.551112,-26.99954 4.07019,-46.66666 C 59.319959,584.93636 55.592921,546.35936 41.738691,453.54405 35.993709,415.05601 35.631705,411.15881 37.156203,404.21072 49.243275,349.12237 54.414827,319.975 64.717657,248.87163 75.78909,172.46387 81.997086,145.14032 93.443773,122.43802 112.04105,85.553892 144.6652,62.866915 200.48713,47.999601 272.85403,28.725785 380.58482,18.417377 639.58893,5.9833724 c 38.27393,-1.8374153 70.56068,-3.7136396 71.74833,-4.1693873 1.18767,-0.4557478 27.77264,-0.133195 59.07772,0.7167838 31.30508,0.8499788 79.71833,2.1458838 107.585,2.8797887 325.31212,8.5675184 420.28812,34.8319894 463.96822,128.3048824 14.3654,30.74099 21.6746,58.28812 41.4343,156.15867 7.7129,38.20257 16.7273,81.26432 20.0321,95.69277 l 6.0086,26.23356 -2.6766,16.43311 c -10.0474,61.68942 -17.8357,124.89048 -20.207,163.97861 -1.8606,30.66667 -0.726,49.23077 5.3501,87.546 8.6661,54.64679 9.0184,105.59508 1.4631,211.57517 -1.4639,20.53334 -3.6032,51.43334 -4.754,68.66667 -4.5767,68.5281 -16.959,177.5569 -19.9883,176 -1.6061,-0.8254 -1.7039,0.259 3.9083,-43.3333 5.6358,-43.7756 10.678,-95.79183 13.4416,-138.6667 1.1344,-17.6 2.9474,-44 4.0292,-58.66667 4.2896,-58.166 5.0776,-76.41286 5.1821,-120 0.116,-48.55985 -0.5056,-56.98317 -7.3865,-100 -8.8586,-55.37997 -6.053,-107.09281 12.1456,-223.87276 2.9604,-18.99668 5.3825,-36.53257 5.3825,-38.96864 0,-2.43606 -2.7461,-16.59332 -6.1025,-31.46057 C 1395.8742,366.16411 1387.1516,324.3 1379.8468,288 1357.1382,175.153 1347.8398,144.7068 1326.1209,112.08419 1316.2183,97.210235 1297.9712,78.946457 1283.9538,69.878641 1222.7663,30.296636 1117.1159,14.645037 866.66665,8.0595659 743.75146,4.8275555 723.98445,4.8746976 647.99999,8.5810607 352.49291,22.995276 249.34866,33.787152 180.20212,57.526268 124.33701,76.705656 97.499158,104.94133 83.341287,159.43201 79.117036,175.69027 73.502801,208.13149 67.321594,252 58.769775,312.69293 52.946743,346.39476 43.887963,387.62629 l -5.337289,24.29298 5.31796,34.37369 c 11.11411,71.83829 15.076101,104.78216 17.595082,146.30277 1.7859,29.43714 0.611728,50.07336 -4.710361,82.78523 -6.311627,38.794 -6.754688,45.51201 -6.723879,101.95237 0.02687,49.21018 0.990351,73.44746 4.664272,117.33334 0.706,8.43333 1.90718,26.13333 2.669289,39.33333 2.061411,35.70433 6.254299,85.4836 10.051407,119.3333 3.470769,30.9406 10.557654,85.1844 12.458672,95.3601 1.039563,5.5645 -2.06e-4,10.337 -1.665159,7.6431 z"
       style="fill:#2a2b09;stroke-width:1.33333337" />
  </g>
</svg>
